<svg width="106" height="46" viewBox="0 0 106 46" fill="none" xmlns="http://www.w3.org/2000/svg">
<rect width="106" height="46" rx="23" fill="#87653C"/>
<rect x="4" y="4" width="98" height="38" rx="19" fill="#FFCA28" stroke="white" stroke-width="2"/>
<circle cx="23" cy="23" r="15" fill="#87643C"/>
<path d="M73.656 28.91L68.472 29.054L68.4 27.218L70.308 27.236L69.732 25.166H66.978L65.934 29.27L63.432 29.306L63.36 27.488L64.404 27.452L66.726 18.488L65.052 18.452L65.07 16.76L69.516 16.742L72.54 27.2L73.602 27.236L73.656 28.91ZM69.336 23.492L68.31 20.072L67.464 23.51L69.336 23.492ZM83.3635 16.49V18.182L82.2655 18.254L82.1395 27.866L83.0395 27.83V29.54L80.1595 29.612L80.1775 28.406C79.9735 28.622 79.6855 28.79 79.3135 28.91C78.9415 29.018 78.5815 29.078 78.2335 29.09C77.7535 29.102 77.2855 29.024 76.8295 28.856C76.3735 28.688 75.9655 28.448 75.6055 28.136C75.2455 27.812 74.9515 27.422 74.7235 26.966C74.5075 26.51 74.3935 25.994 74.3815 25.418C74.3695 24.902 74.4475 24.392 74.6155 23.888C74.7955 23.384 75.0535 22.94 75.3895 22.556C75.7255 22.16 76.1395 21.842 76.6315 21.602C77.1355 21.362 77.7055 21.248 78.3415 21.26C78.6655 21.26 78.9955 21.314 79.3315 21.422C79.6675 21.53 79.9375 21.674 80.1415 21.854V16.436L83.3635 16.49ZM80.0875 23.852C79.8595 23.588 79.5775 23.378 79.2415 23.222C78.9055 23.066 78.6055 23 78.3415 23.024C78.0175 23.048 77.7235 23.132 77.4595 23.276C77.2075 23.408 76.9975 23.582 76.8295 23.798C76.6615 24.002 76.5295 24.224 76.4335 24.464C76.3495 24.704 76.3075 24.944 76.3075 25.184C76.2955 25.808 76.4755 26.342 76.8475 26.786C77.2195 27.218 77.7055 27.44 78.3055 27.452C78.6535 27.464 78.9775 27.38 79.2775 27.2C79.5895 27.008 79.8535 26.744 80.0695 26.408L80.0875 23.852ZM93.0666 16.49V18.182L91.9686 18.254L91.8426 27.866L92.7426 27.83V29.54L89.8626 29.612L89.8806 28.406C89.6766 28.622 89.3886 28.79 89.0166 28.91C88.6446 29.018 88.2846 29.078 87.9366 29.09C87.4566 29.102 86.9886 29.024 86.5326 28.856C86.0766 28.688 85.6686 28.448 85.3086 28.136C84.9486 27.812 84.6546 27.422 84.4266 26.966C84.2106 26.51 84.0966 25.994 84.0846 25.418C84.0726 24.902 84.1506 24.392 84.3186 23.888C84.4986 23.384 84.7566 22.94 85.0926 22.556C85.4286 22.16 85.8426 21.842 86.3346 21.602C86.8386 21.362 87.4086 21.248 88.0446 21.26C88.3686 21.26 88.6986 21.314 89.0346 21.422C89.3706 21.53 89.6406 21.674 89.8446 21.854V16.436L93.0666 16.49ZM89.7906 23.852C89.5626 23.588 89.2806 23.378 88.9446 23.222C88.6086 23.066 88.3086 23 88.0446 23.024C87.7206 23.048 87.4266 23.132 87.1626 23.276C86.9106 23.408 86.7006 23.582 86.5326 23.798C86.3646 24.002 86.2326 24.224 86.1366 24.464C86.0526 24.704 86.0106 24.944 86.0106 25.184C85.9986 25.808 86.1786 26.342 86.5506 26.786C86.9226 27.218 87.4086 27.44 88.0086 27.452C88.3566 27.464 88.6806 27.38 88.9806 27.2C89.2926 27.008 89.5566 26.744 89.7726 26.408L89.7906 23.852Z" fill="#87643C"/>
</svg>
