<svg width="106" height="46" viewBox="0 0 106 46" fill="none" xmlns="http://www.w3.org/2000/svg">
<rect width="106" height="46" rx="23" fill="#87653C"/>
<rect x="4" y="4" width="98" height="38" rx="19" fill="#FFCA28" stroke="white" stroke-width="2"/>
<circle cx="83" cy="23" r="15" fill="#87643C"/>
<path d="M19.08 29.72V31.034L16.326 31.124L13.374 24.752H12.492L12.51 27.542H13.518L13.536 29.036L9.396 29L9.36 27.542H10.512L10.386 18.308H9.396V16.652L13.446 16.634C14.226 16.634 14.892 16.742 15.444 16.958C16.008 17.162 16.47 17.444 16.83 17.804C17.202 18.152 17.478 18.56 17.658 19.028C17.838 19.484 17.94 19.958 17.964 20.45C17.988 20.798 17.958 21.164 17.874 21.548C17.802 21.932 17.664 22.304 17.46 22.664C17.256 23.012 16.98 23.336 16.632 23.636C16.296 23.936 15.864 24.182 15.336 24.374L18 29.702L19.08 29.72ZM15.93 20.756C15.93 20.396 15.876 20.06 15.768 19.748C15.66 19.436 15.474 19.172 15.21 18.956C14.946 18.728 14.592 18.554 14.148 18.434C13.704 18.314 13.152 18.272 12.492 18.308L12.51 23.042C12.954 23.054 13.38 23.024 13.788 22.952C14.208 22.88 14.574 22.754 14.886 22.574C15.198 22.382 15.45 22.136 15.642 21.836C15.834 21.536 15.93 21.176 15.93 20.756ZM27.1094 25.85L21.7994 26.012C21.7994 26.228 21.8534 26.426 21.9614 26.606C22.0814 26.786 22.2254 26.948 22.3934 27.092C22.5734 27.224 22.7714 27.332 22.9874 27.416C23.2034 27.488 23.4194 27.53 23.6354 27.542C23.9474 27.554 24.2594 27.506 24.5714 27.398C24.8954 27.29 25.1534 27.134 25.3454 26.93L26.3714 28.244C25.9994 28.652 25.5854 28.928 25.1294 29.072C24.6734 29.228 24.1814 29.3 23.6534 29.288C23.1374 29.276 22.6394 29.174 22.1594 28.982C21.6794 28.79 21.2594 28.514 20.8994 28.154C20.5394 27.782 20.2574 27.326 20.0534 26.786C19.8614 26.246 19.7834 25.616 19.8194 24.896C19.8554 24.248 19.9994 23.69 20.2514 23.222C20.5034 22.742 20.8094 22.352 21.1694 22.052C21.5414 21.752 21.9434 21.53 22.3754 21.386C22.8074 21.242 23.2214 21.17 23.6174 21.17C23.9414 21.17 24.3134 21.236 24.7334 21.368C25.1654 21.488 25.5614 21.722 25.9214 22.07C26.2934 22.406 26.5994 22.88 26.8394 23.492C27.0794 24.104 27.1694 24.89 27.1094 25.85ZM25.2194 24.284C25.1594 23.828 24.9614 23.48 24.6254 23.24C24.3014 23 23.9594 22.886 23.5994 22.898C23.2274 22.91 22.8614 23.048 22.5014 23.312C22.1534 23.576 21.9494 23.942 21.8894 24.41L25.2194 24.284ZM40.1282 28.784L37.2842 28.802L37.2662 23.618C37.2662 23.174 37.1522 22.85 36.9242 22.646C36.7082 22.442 36.4682 22.346 36.2042 22.358C35.9522 22.37 35.7182 22.49 35.5022 22.718C35.2862 22.946 35.1782 23.27 35.1782 23.69C35.1782 23.69 35.1722 24.002 35.1602 24.626C35.1602 25.238 35.1722 26.348 35.1962 27.956H36.4922V29.18L33.0362 29.234C33.0842 27.194 33.1022 25.694 33.0902 24.734C33.0902 23.762 33.0902 23.276 33.0902 23.276C33.0902 22.988 32.9942 22.766 32.8022 22.61C32.6102 22.442 32.3942 22.364 32.1542 22.376C31.9142 22.376 31.6982 22.478 31.5062 22.682C31.3142 22.886 31.2182 23.204 31.2182 23.636C31.2182 23.636 31.2182 23.696 31.2182 23.816C31.2182 23.936 31.2182 24.188 31.2182 24.572C31.2302 24.944 31.2362 25.478 31.2362 26.174C31.2482 26.87 31.2542 27.788 31.2542 28.928L28.1222 28.91L28.1042 27.254L29.1842 27.218L29.0222 21.422L27.8702 21.458L27.8522 20.144L30.9482 20.126L31.0202 21.332C31.2362 21.068 31.4942 20.882 31.7942 20.774C32.0942 20.654 32.4542 20.588 32.8742 20.576C33.2102 20.576 33.5462 20.66 33.8822 20.828C34.2302 20.996 34.4642 21.224 34.5842 21.512C34.8242 21.176 35.1302 20.942 35.5022 20.81C35.8862 20.666 36.2462 20.588 36.5822 20.576C37.3262 20.552 37.9442 20.786 38.4362 21.278C38.9282 21.77 39.1802 22.442 39.1922 23.294V27.218H40.1102L40.1282 28.784ZM48.8344 25.076C48.8224 25.64 48.7264 26.174 48.5464 26.678C48.3664 27.17 48.1144 27.602 47.7904 27.974C47.4664 28.334 47.0764 28.628 46.6204 28.856C46.1644 29.084 45.6484 29.21 45.0724 29.234C44.5204 29.258 43.9984 29.192 43.5064 29.036C43.0264 28.88 42.6004 28.646 42.2284 28.334C41.8564 28.022 41.5504 27.638 41.3104 27.182C41.0704 26.726 40.9204 26.216 40.8604 25.652C40.8004 24.992 40.8604 24.392 41.0404 23.852C41.2324 23.3 41.5084 22.826 41.8684 22.43C42.2404 22.022 42.6784 21.704 43.1824 21.476C43.6984 21.236 44.2504 21.104 44.8384 21.08C45.3904 21.056 45.9124 21.152 46.4044 21.368C46.8964 21.584 47.3224 21.878 47.6824 22.25C48.0424 22.622 48.3244 23.054 48.5284 23.546C48.7444 24.038 48.8464 24.548 48.8344 25.076ZM46.9804 25.166C46.9804 24.878 46.9204 24.596 46.8004 24.32C46.6804 24.032 46.5184 23.78 46.3144 23.564C46.1224 23.336 45.8944 23.156 45.6304 23.024C45.3784 22.892 45.1084 22.826 44.8204 22.826C44.5324 22.838 44.2564 22.922 43.9924 23.078C43.7404 23.222 43.5124 23.42 43.3084 23.672C43.1164 23.912 42.9664 24.194 42.8584 24.518C42.7624 24.83 42.7264 25.154 42.7504 25.49C42.7984 26.126 43.0324 26.618 43.4524 26.966C43.8724 27.314 44.3704 27.488 44.9464 27.488C45.2344 27.488 45.4984 27.422 45.7384 27.29C45.9904 27.158 46.2064 26.984 46.3864 26.768C46.5664 26.552 46.7104 26.306 46.8184 26.03C46.9264 25.742 46.9804 25.454 46.9804 25.166ZM57.7332 20.036L57.6252 21.746L56.8872 21.764L54.7092 29.144H52.4952L50.4972 22.772L49.6512 22.754L49.5612 21.17L53.2152 21.08L53.2872 22.574L52.3692 22.592L53.6112 26.552L54.9432 21.584H54.1872L54.2412 20.108L57.7332 20.036ZM65.7637 25.85L60.4537 26.012C60.4537 26.228 60.5077 26.426 60.6157 26.606C60.7357 26.786 60.8797 26.948 61.0477 27.092C61.2277 27.224 61.4257 27.332 61.6417 27.416C61.8577 27.488 62.0737 27.53 62.2897 27.542C62.6017 27.554 62.9137 27.506 63.2257 27.398C63.5497 27.29 63.8077 27.134 63.9997 26.93L65.0257 28.244C64.6537 28.652 64.2397 28.928 63.7837 29.072C63.3277 29.228 62.8357 29.3 62.3077 29.288C61.7917 29.276 61.2937 29.174 60.8137 28.982C60.3337 28.79 59.9137 28.514 59.5537 28.154C59.1937 27.782 58.9117 27.326 58.7077 26.786C58.5157 26.246 58.4377 25.616 58.4737 24.896C58.5097 24.248 58.6537 23.69 58.9057 23.222C59.1577 22.742 59.4637 22.352 59.8237 22.052C60.1957 21.752 60.5977 21.53 61.0297 21.386C61.4617 21.242 61.8757 21.17 62.2717 21.17C62.5957 21.17 62.9677 21.236 63.3877 21.368C63.8197 21.488 64.2157 21.722 64.5757 22.07C64.9477 22.406 65.2537 22.88 65.4937 23.492C65.7337 24.104 65.8237 24.89 65.7637 25.85ZM63.8737 24.284C63.8137 23.828 63.6157 23.48 63.2797 23.24C62.9557 23 62.6137 22.886 62.2537 22.898C61.8817 22.91 61.5157 23.048 61.1557 23.312C60.8077 23.576 60.6037 23.942 60.5437 24.41L63.8737 24.284Z" fill="#87643C"/>
</svg>
