<svg width="106" height="46" viewBox="0 0 106 46" fill="none" xmlns="http://www.w3.org/2000/svg">
<rect width="106" height="46" rx="23" fill="#87653C"/>
<rect x="4" y="4" width="98" height="38" rx="19" fill="#FFCA28" stroke="white" stroke-width="2"/>
<circle cx="83" cy="23" r="15" fill="#87643C"/>
<path d="M18.27 28.856L9.378 28.874L9.414 27.074L10.602 27.056L10.566 17.876L9.36 17.894L9.414 16.22L14.58 16.184L14.616 17.786L12.726 17.822L12.6 27.02L16.524 26.966L16.65 25.13L18.216 25.112L18.27 28.856ZM26.6608 29.252L23.8528 29.324V28.64C23.5048 28.976 23.0548 29.168 22.5028 29.216C21.9628 29.276 21.4288 29.216 20.9008 29.036C20.3848 28.856 19.9408 28.568 19.5688 28.172C19.1968 27.764 19.0048 27.266 18.9928 26.678C18.9808 25.826 19.2508 25.142 19.8028 24.626C20.3668 24.11 21.0748 23.834 21.9268 23.798C22.3228 23.774 22.6708 23.81 22.9708 23.906C23.2828 23.99 23.5288 24.098 23.7088 24.23C23.7088 23.858 23.6068 23.534 23.4028 23.258C23.2108 22.97 22.9468 22.778 22.6108 22.682C22.2868 22.586 21.9088 22.598 21.4768 22.718C21.0568 22.826 20.6128 23.078 20.1448 23.474L19.2808 22.124C19.4968 21.908 19.7728 21.704 20.1088 21.512C20.4448 21.32 20.8168 21.176 21.2248 21.08C21.6448 20.984 22.0828 20.954 22.5388 20.99C23.0068 21.026 23.4688 21.164 23.9248 21.404C24.4288 21.668 24.8008 21.992 25.0408 22.376C25.2928 22.748 25.4668 23.186 25.5628 23.69C25.6588 24.182 25.7068 24.746 25.7068 25.382C25.7188 26.018 25.7308 26.732 25.7428 27.524L26.5888 27.506L26.6608 29.252ZM23.7628 27.11L23.7268 25.796C23.5828 25.7 23.3968 25.616 23.1688 25.544C22.9528 25.46 22.7128 25.412 22.4488 25.4C21.9688 25.4 21.6088 25.514 21.3688 25.742C21.1288 25.958 21.0148 26.252 21.0268 26.624C21.0268 26.888 21.1168 27.122 21.2968 27.326C21.4768 27.518 21.6988 27.65 21.9628 27.722C22.2388 27.794 22.5328 27.788 22.8448 27.704C23.1688 27.608 23.4748 27.41 23.7628 27.11ZM32.7596 23.24L31.3196 23.312C31.3076 22.952 31.2116 22.688 31.0316 22.52C30.8636 22.34 30.6296 22.244 30.3296 22.232C30.0656 22.232 29.8076 22.31 29.5556 22.466C29.3156 22.622 29.2016 22.868 29.2136 23.204C29.2256 23.528 29.4056 23.81 29.7536 24.05C30.1016 24.29 30.4796 24.542 30.8876 24.806C31.2956 25.07 31.6616 25.382 31.9856 25.742C32.3216 26.09 32.4776 26.546 32.4536 27.11C32.4296 27.698 32.2436 28.202 31.8956 28.622C31.5476 29.042 30.9596 29.258 30.1316 29.27C29.7236 29.27 29.3336 29.198 28.9616 29.054C28.5896 28.922 28.2836 28.724 28.0436 28.46C27.8036 28.184 27.6476 27.848 27.5756 27.452C27.5036 27.056 27.5576 26.606 27.7376 26.102L29.2676 26.678C29.1476 26.99 29.1476 27.242 29.2676 27.434C29.3996 27.614 29.5616 27.722 29.7536 27.758C29.9456 27.794 30.1316 27.758 30.3116 27.65C30.5036 27.53 30.6056 27.326 30.6176 27.038C30.6176 26.75 30.4556 26.498 30.1316 26.282C29.8196 26.054 29.4656 25.808 29.0696 25.544C28.6736 25.28 28.3016 24.974 27.9536 24.626C27.6176 24.278 27.4316 23.834 27.3956 23.294C27.3356 22.634 27.4436 22.1 27.7196 21.692C28.0076 21.284 28.3556 20.99 28.7636 20.81C29.1836 20.63 29.6156 20.564 30.0596 20.612C30.5156 20.648 30.8936 20.786 31.1936 21.026V20.27L32.6516 20.216L32.7596 23.24ZM40.7312 26.678C40.7192 27.17 40.6352 27.584 40.4792 27.92C40.3232 28.256 40.1192 28.532 39.8672 28.748C39.6152 28.952 39.3212 29.102 38.9852 29.198C38.6492 29.294 38.2952 29.342 37.9232 29.342C37.5512 29.342 37.1792 29.276 36.8072 29.144C36.4472 29.012 36.1172 28.808 35.8172 28.532C35.5172 28.256 35.2712 27.908 35.0792 27.488C34.8992 27.056 34.8092 26.54 34.8092 25.94L34.7732 21.89H33.4952L33.4772 20.054L34.8452 20.036L34.8092 16.76H36.6992L36.7352 20L39.7232 19.964L39.6692 21.512L36.7532 21.548L36.8072 25.742C36.8072 25.958 36.8192 26.174 36.8432 26.39C36.8792 26.594 36.9392 26.78 37.0232 26.948C37.1072 27.104 37.2272 27.236 37.3832 27.344C37.5512 27.44 37.7612 27.494 38.0132 27.506C38.3972 27.518 38.6612 27.44 38.8052 27.272C38.9492 27.092 39.0272 26.912 39.0392 26.732C39.0632 26.576 39.0452 26.456 38.9852 26.372C38.9372 26.288 38.8712 26.246 38.7872 26.246C38.7152 26.234 38.6372 26.27 38.5532 26.354C38.4812 26.426 38.4332 26.54 38.4092 26.696L37.1312 26.138C37.1432 25.814 37.2752 25.49 37.5272 25.166C37.7792 24.842 38.2172 24.668 38.8412 24.644C39.4172 24.62 39.8792 24.812 40.2272 25.22C40.5752 25.628 40.7432 26.114 40.7312 26.678Z" fill="#87643C"/>
</svg>
