<svg width="112" height="40" viewBox="0 0 112 40" fill="none" xmlns="http://www.w3.org/2000/svg">
<rect x="0.5" y="0.5" width="111" height="39" rx="19.5" fill="#721111" stroke="#7C3232"/>
<circle cx="91.2407" cy="20.2407" r="15.2407" fill="url(#paint0_radial_10_46)"/>
<path d="M14.5229 26L11.9629 21.552H10.5709V26H8.74688V14.88H12.5869C13.4402 14.88 14.1602 15.0293 14.7469 15.328C15.3442 15.6267 15.7869 16.0267 16.0749 16.528C16.3735 17.0293 16.5229 17.5893 16.5229 18.208C16.5229 18.9333 16.3095 19.5947 15.8829 20.192C15.4669 20.7787 14.8215 21.1787 13.9469 21.392L16.6989 26H14.5229ZM10.5709 20.096H12.5869C13.2695 20.096 13.7815 19.9253 14.1229 19.584C14.4749 19.2427 14.6509 18.784 14.6509 18.208C14.6509 17.632 14.4802 17.184 14.1389 16.864C13.7975 16.5333 13.2802 16.368 12.5869 16.368H10.5709V20.096ZM26.9363 21.376C26.9363 21.7067 26.9149 22.0053 26.8723 22.272H20.1363C20.1896 22.976 20.4509 23.5413 20.9203 23.968C21.3896 24.3947 21.9656 24.608 22.6483 24.608C23.6296 24.608 24.3229 24.1973 24.7283 23.376H26.6962C26.4296 24.1867 25.9443 24.8533 25.2403 25.376C24.5469 25.888 23.6829 26.144 22.6483 26.144C21.8056 26.144 21.0483 25.9573 20.3763 25.584C19.7149 25.2 19.1923 24.6667 18.8083 23.984C18.4349 23.2907 18.2483 22.4907 18.2483 21.584C18.2483 20.6773 18.4296 19.8827 18.7923 19.2C19.1656 18.5067 19.6829 17.9733 20.3443 17.6C21.0163 17.2267 21.7843 17.04 22.6483 17.04C23.4803 17.04 24.2216 17.2213 24.8723 17.584C25.5229 17.9467 26.0296 18.4587 26.3923 19.12C26.7549 19.7707 26.9363 20.5227 26.9363 21.376ZM25.0323 20.8C25.0216 20.128 24.7816 19.5893 24.3123 19.184C23.8429 18.7787 23.2616 18.576 22.5683 18.576C21.9389 18.576 21.4003 18.7787 20.9523 19.184C20.5043 19.5787 20.2376 20.1173 20.1523 20.8H25.0323ZM39.4033 17.04C40.0966 17.04 40.7153 17.184 41.2593 17.472C41.8139 17.76 42.2459 18.1867 42.5553 18.752C42.8753 19.3173 43.0353 20 43.0353 20.8V26H41.2273V21.072C41.2273 20.2827 41.0299 19.68 40.6353 19.264C40.2406 18.8373 39.7019 18.624 39.0193 18.624C38.3366 18.624 37.7926 18.8373 37.3873 19.264C36.9926 19.68 36.7953 20.2827 36.7953 21.072V26H34.9873V21.072C34.9873 20.2827 34.7899 19.68 34.3953 19.264C34.0006 18.8373 33.4619 18.624 32.7793 18.624C32.0966 18.624 31.5526 18.8373 31.1473 19.264C30.7526 19.68 30.5553 20.2827 30.5553 21.072V26H28.7313V17.184H30.5553V18.192C30.8539 17.8293 31.2326 17.5467 31.6913 17.344C32.1499 17.1413 32.6406 17.04 33.1633 17.04C33.8673 17.04 34.4966 17.1893 35.0513 17.488C35.6059 17.7867 36.0326 18.2187 36.3313 18.784C36.5979 18.2507 37.0139 17.8293 37.5793 17.52C38.1446 17.2 38.7526 17.04 39.4033 17.04ZM49.1803 26.144C48.3483 26.144 47.5963 25.9573 46.9243 25.584C46.2523 25.2 45.7243 24.6667 45.3403 23.984C44.9563 23.2907 44.7643 22.4907 44.7643 21.584C44.7643 20.688 44.9616 19.8933 45.3563 19.2C45.7509 18.5067 46.2896 17.9733 46.9723 17.6C47.6549 17.2267 48.4176 17.04 49.2603 17.04C50.1029 17.04 50.8656 17.2267 51.5483 17.6C52.2309 17.9733 52.7696 18.5067 53.1643 19.2C53.5589 19.8933 53.7563 20.688 53.7563 21.584C53.7563 22.48 53.5536 23.2747 53.1483 23.968C52.7429 24.6613 52.1883 25.2 51.4843 25.584C50.7909 25.9573 50.0229 26.144 49.1803 26.144ZM49.1803 24.56C49.6496 24.56 50.0869 24.448 50.4923 24.224C50.9083 24 51.2443 23.664 51.5003 23.216C51.7563 22.768 51.8843 22.224 51.8843 21.584C51.8843 20.944 51.7616 20.4053 51.5163 19.968C51.2709 19.52 50.9456 19.184 50.5403 18.96C50.1349 18.736 49.6976 18.624 49.2283 18.624C48.7589 18.624 48.3216 18.736 47.9163 18.96C47.5216 19.184 47.2069 19.52 46.9723 19.968C46.7376 20.4053 46.6203 20.944 46.6203 21.584C46.6203 22.5333 46.8603 23.2693 47.3403 23.792C47.8309 24.304 48.4443 24.56 49.1803 24.56ZM58.9674 24.368L61.4634 17.184H63.3994L60.0394 26H57.8634L54.5194 17.184H56.4714L58.9674 24.368ZM72.8581 21.376C72.8581 21.7067 72.8368 22.0053 72.7941 22.272H66.0581C66.1115 22.976 66.3728 23.5413 66.8421 23.968C67.3115 24.3947 67.8875 24.608 68.5701 24.608C69.5515 24.608 70.2448 24.1973 70.6501 23.376H72.6181C72.3515 24.1867 71.8661 24.8533 71.1621 25.376C70.4688 25.888 69.6048 26.144 68.5701 26.144C67.7275 26.144 66.9701 25.9573 66.2981 25.584C65.6368 25.2 65.1141 24.6667 64.7301 23.984C64.3568 23.2907 64.1701 22.4907 64.1701 21.584C64.1701 20.6773 64.3515 19.8827 64.7141 19.2C65.0875 18.5067 65.6048 17.9733 66.2661 17.6C66.9381 17.2267 67.7061 17.04 68.5701 17.04C69.4021 17.04 70.1435 17.2213 70.7941 17.584C71.4448 17.9467 71.9515 18.4587 72.3141 19.12C72.6768 19.7707 72.8581 20.5227 72.8581 21.376ZM70.9541 20.8C70.9435 20.128 70.7035 19.5893 70.2341 19.184C69.7648 18.7787 69.1835 18.576 68.4901 18.576C67.8608 18.576 67.3221 18.7787 66.8741 19.184C66.4261 19.5787 66.1595 20.1173 66.0741 20.8H70.9541Z" fill="white"/>
<defs>
<radialGradient id="paint0_radial_10_46" cx="0" cy="0" r="1" gradientUnits="userSpaceOnUse" gradientTransform="translate(91.2407 20.2407) rotate(90) scale(15.2407)">
<stop offset="0.399038" stop-color="#721111"/>
<stop offset="0.764423" stop-color="#AC7474"/>
<stop offset="0.9375" stop-color="#E2A5A5"/>
</radialGradient>
</defs>
</svg>
