<svg width="100" height="40" viewBox="0 0 100 40" fill="none" xmlns="http://www.w3.org/2000/svg">
<rect x="0.5" y="0.5" width="99" height="39" rx="19.5" fill="#721111" stroke="#7C3232"/>
<circle cx="21.2407" cy="20.2407" r="15.2407" fill="url(#paint0_radial_2_19)"/>
<path d="M52.1971 14.88V16.368H47.4771V19.648H51.1571V21.136H47.4771V26H45.6531V14.88H52.1971ZM54.8155 16.016C54.4848 16.016 54.2075 15.904 53.9835 15.68C53.7595 15.456 53.6475 15.1787 53.6475 14.848C53.6475 14.5173 53.7595 14.24 53.9835 14.016C54.2075 13.792 54.4848 13.68 54.8155 13.68C55.1355 13.68 55.4075 13.792 55.6315 14.016C55.8555 14.24 55.9675 14.5173 55.9675 14.848C55.9675 15.1787 55.8555 15.456 55.6315 15.68C55.4075 15.904 55.1355 16.016 54.8155 16.016ZM55.7115 17.184V26H53.8875V17.184H55.7115ZM59.9303 18.464C60.1969 18.016 60.5489 17.6693 60.9863 17.424C61.4343 17.168 61.9623 17.04 62.5703 17.04V18.928H62.1063C61.3916 18.928 60.8476 19.1093 60.4743 19.472C60.1116 19.8347 59.9303 20.464 59.9303 21.36V26H58.1063V17.184H59.9303V18.464ZM67.4469 26.144C66.7535 26.144 66.1295 26.0213 65.5749 25.776C65.0309 25.52 64.5989 25.1787 64.2789 24.752C63.9589 24.3147 63.7882 23.8293 63.7669 23.296H65.6549C65.6869 23.6693 65.8629 23.984 66.1829 24.24C66.5135 24.4853 66.9242 24.608 67.4149 24.608C67.9269 24.608 68.3215 24.512 68.5989 24.32C68.8869 24.1173 69.0309 23.8613 69.0309 23.552C69.0309 23.2213 68.8709 22.976 68.5509 22.816C68.2415 22.656 67.7455 22.48 67.0629 22.288C66.4015 22.1067 65.8629 21.9307 65.4469 21.76C65.0309 21.5893 64.6682 21.328 64.3589 20.976C64.0602 20.624 63.9109 20.16 63.9109 19.584C63.9109 19.1147 64.0495 18.688 64.3269 18.304C64.6042 17.9093 64.9989 17.6 65.5109 17.376C66.0335 17.152 66.6309 17.04 67.3029 17.04C68.3055 17.04 69.1109 17.296 69.7189 17.808C70.3375 18.3093 70.6682 18.9973 70.7109 19.872H68.8869C68.8549 19.4773 68.6949 19.1627 68.4069 18.928C68.1189 18.6933 67.7295 18.576 67.2389 18.576C66.7589 18.576 66.3909 18.6667 66.1349 18.848C65.8789 19.0293 65.7509 19.2693 65.7509 19.568C65.7509 19.8027 65.8362 20 66.0069 20.16C66.1775 20.32 66.3855 20.448 66.6309 20.544C66.8762 20.6293 67.2389 20.7413 67.7189 20.88C68.3589 21.0507 68.8815 21.2267 69.2869 21.408C69.7029 21.5787 70.0602 21.8347 70.3589 22.176C70.6575 22.5173 70.8122 22.9707 70.8229 23.536C70.8229 24.0373 70.6842 24.4853 70.4069 24.88C70.1295 25.2747 69.7349 25.584 69.2229 25.808C68.7215 26.032 68.1295 26.144 67.4469 26.144ZM74.9218 18.672V23.552C74.9218 23.8827 74.9964 24.1227 75.1458 24.272C75.3058 24.4107 75.5724 24.48 75.9458 24.48H77.0658V26H75.6258C74.8044 26 74.1751 25.808 73.7378 25.424C73.3004 25.04 73.0818 24.416 73.0818 23.552V18.672H72.0418V17.184H73.0818V14.992H74.9218V17.184H77.0658V18.672H74.9218Z" fill="white"/>
<defs>
<radialGradient id="paint0_radial_2_19" cx="0" cy="0" r="1" gradientUnits="userSpaceOnUse" gradientTransform="translate(21.2407 20.2407) rotate(90) scale(15.2407)">
<stop offset="0.399038" stop-color="#721111"/>
<stop offset="0.764423" stop-color="#AC7474"/>
<stop offset="0.9375" stop-color="#E2A5A5"/>
</radialGradient>
</defs>
</svg>
