<svg width="117" height="40" viewBox="0 0 117 40" fill="none" xmlns="http://www.w3.org/2000/svg">
<rect x="0.5" y="0.5" width="111" height="39" rx="19.5" fill="#721111" stroke="#7C3232"/>
<circle cx="21.2407" cy="20.2407" r="15.2407" fill="url(#paint0_radial_9_20)"/>
<path d="M67.9821 23.728H63.3261L62.5261 26H60.6221L64.6061 14.864H66.7181L70.7021 26H68.7821L67.9821 23.728ZM67.4701 22.24L65.6621 17.072L63.8381 22.24H67.4701ZM71.8264 21.552C71.8264 20.6667 72.0077 19.8827 72.3704 19.2C72.7437 18.5173 73.245 17.9893 73.8744 17.616C74.5144 17.232 75.2237 17.04 76.0024 17.04C76.5784 17.04 77.1437 17.168 77.6984 17.424C78.2637 17.6693 78.7117 18 79.0424 18.416V14.16H80.8824V26H79.0424V24.672C78.7437 25.0987 78.3277 25.4507 77.7944 25.728C77.2717 26.0053 76.669 26.144 75.9864 26.144C75.2184 26.144 74.5144 25.952 73.8744 25.568C73.245 25.1733 72.7437 24.6293 72.3704 23.936C72.0077 23.232 71.8264 22.4373 71.8264 21.552ZM79.0424 21.584C79.0424 20.976 78.9144 20.448 78.6584 20C78.413 19.552 78.0877 19.2107 77.6824 18.976C77.277 18.7413 76.8397 18.624 76.3704 18.624C75.901 18.624 75.4637 18.7413 75.0584 18.976C74.653 19.2 74.3224 19.536 74.0664 19.984C73.821 20.4213 73.6984 20.944 73.6984 21.552C73.6984 22.16 73.821 22.6933 74.0664 23.152C74.3224 23.6107 74.653 23.9627 75.0584 24.208C75.4744 24.4427 75.9117 24.56 76.3704 24.56C76.8397 24.56 77.277 24.4427 77.6824 24.208C78.0877 23.9733 78.413 23.632 78.6584 23.184C78.9144 22.7253 79.0424 22.192 79.0424 21.584ZM82.6701 21.552C82.6701 20.6667 82.8515 19.8827 83.2141 19.2C83.5875 18.5173 84.0888 17.9893 84.7181 17.616C85.3581 17.232 86.0675 17.04 86.8461 17.04C87.4221 17.04 87.9875 17.168 88.5421 17.424C89.1075 17.6693 89.5555 18 89.8861 18.416V14.16H91.7261V26H89.8861V24.672C89.5875 25.0987 89.1715 25.4507 88.6381 25.728C88.1155 26.0053 87.5128 26.144 86.8301 26.144C86.0621 26.144 85.3581 25.952 84.7181 25.568C84.0888 25.1733 83.5875 24.6293 83.2141 23.936C82.8515 23.232 82.6701 22.4373 82.6701 21.552ZM89.8861 21.584C89.8861 20.976 89.7581 20.448 89.5021 20C89.2568 19.552 88.9315 19.2107 88.5261 18.976C88.1208 18.7413 87.6835 18.624 87.2141 18.624C86.7448 18.624 86.3075 18.7413 85.9021 18.976C85.4968 19.2 85.1661 19.536 84.9101 19.984C84.6648 20.4213 84.5421 20.944 84.5421 21.552C84.5421 22.16 84.6648 22.6933 84.9101 23.152C85.1661 23.6107 85.4968 23.9627 85.9021 24.208C86.3181 24.4427 86.7555 24.56 87.2141 24.56C87.6835 24.56 88.1208 24.4427 88.5261 24.208C88.9315 23.9733 89.2568 23.632 89.5021 23.184C89.7581 22.7253 89.8861 22.192 89.8861 21.584Z" fill="white"/>
<defs>
<radialGradient id="paint0_radial_9_20" cx="0" cy="0" r="1" gradientUnits="userSpaceOnUse" gradientTransform="translate(21.2407 20.2407) rotate(90) scale(15.2407)">
<stop offset="0.399038" stop-color="#721111"/>
<stop offset="0.764423" stop-color="#AC7474"/>
<stop offset="0.9375" stop-color="#E2A5A5"/>
</radialGradient>
</defs>
</svg>
