<svg width="106" height="46" viewBox="0 0 106 46" fill="none" xmlns="http://www.w3.org/2000/svg">
<rect width="106" height="46" rx="23" fill="#87653C"/>
<rect x="4" y="4" width="98" height="38" rx="19" fill="#FFCA28" stroke="white" stroke-width="2"/>
<circle cx="23" cy="23" r="15" fill="#87643C"/>
<path d="M68.198 19.91L66.83 19.982L66.722 18.56L62.438 18.632L62.528 22.484L64.562 22.412L64.544 20.306H66.146L66.29 24.968L64.544 25.04L64.472 23.996L62.546 24.068L62.528 27.488L64.832 27.452L64.814 29.324L59.414 29.252L59.36 27.668L60.494 27.596L60.35 18.686L59.468 18.65L59.414 16.904L68.162 16.814L68.198 19.91ZM72.2345 19.226C72.2585 19.598 72.1445 19.916 71.8925 20.18C71.6525 20.432 71.3465 20.558 70.9745 20.558C70.6025 20.558 70.2665 20.456 69.9665 20.252C69.6785 20.048 69.5345 19.736 69.5345 19.316C69.5345 18.944 69.6485 18.62 69.8765 18.344C70.1165 18.056 70.4225 17.912 70.7945 17.912C71.1665 17.912 71.4965 18.026 71.7845 18.254C72.0725 18.482 72.2225 18.806 72.2345 19.226ZM73.3685 28.982H69.2465L69.1925 27.362L70.4345 27.308L70.4885 23.132L68.9405 23.06L68.9225 21.368L72.3245 21.278L72.3425 27.236L73.3685 27.272V28.982ZM81.0925 23.132C81.1765 23.648 81.1225 24.068 80.9305 24.392C80.7385 24.704 80.5405 24.944 80.3365 25.112L79.0045 24.086C79.2805 23.882 79.3705 23.654 79.2745 23.402C79.1785 23.138 78.9505 22.982 78.5905 22.934C78.4465 22.91 78.2905 22.916 78.1225 22.952C77.9665 22.988 77.8165 23.06 77.6725 23.168C77.5285 23.264 77.4085 23.39 77.3125 23.546C77.2165 23.702 77.1685 23.888 77.1685 24.104L77.1325 27.632L78.7525 27.668L78.7885 29.018L74.2165 29.072L74.1985 27.506H75.3145L75.2785 22.52L74.1085 22.466L74.0905 20.972H77.0605L77.0425 21.89C77.2465 21.65 77.4985 21.488 77.7985 21.404C78.1105 21.308 78.4225 21.26 78.7345 21.26C78.8905 21.26 79.0885 21.29 79.3285 21.35C79.5805 21.41 79.8265 21.512 80.0665 21.656C80.3065 21.8 80.5225 21.992 80.7145 22.232C80.9065 22.472 81.0325 22.772 81.0925 23.132ZM87.2244 23.24L85.7844 23.312C85.7724 22.952 85.6764 22.688 85.4964 22.52C85.3284 22.34 85.0944 22.244 84.7944 22.232C84.5304 22.232 84.2724 22.31 84.0204 22.466C83.7804 22.622 83.6664 22.868 83.6784 23.204C83.6904 23.528 83.8704 23.81 84.2184 24.05C84.5664 24.29 84.9444 24.542 85.3524 24.806C85.7604 25.07 86.1264 25.382 86.4504 25.742C86.7864 26.09 86.9424 26.546 86.9184 27.11C86.8944 27.698 86.7084 28.202 86.3604 28.622C86.0124 29.042 85.4244 29.258 84.5964 29.27C84.1884 29.27 83.7984 29.198 83.4264 29.054C83.0544 28.922 82.7484 28.724 82.5084 28.46C82.2684 28.184 82.1124 27.848 82.0404 27.452C81.9684 27.056 82.0224 26.606 82.2024 26.102L83.7324 26.678C83.6124 26.99 83.6124 27.242 83.7324 27.434C83.8644 27.614 84.0264 27.722 84.2184 27.758C84.4104 27.794 84.5964 27.758 84.7764 27.65C84.9684 27.53 85.0704 27.326 85.0824 27.038C85.0824 26.75 84.9204 26.498 84.5964 26.282C84.2844 26.054 83.9304 25.808 83.5344 25.544C83.1384 25.28 82.7664 24.974 82.4184 24.626C82.0824 24.278 81.8964 23.834 81.8604 23.294C81.8004 22.634 81.9084 22.1 82.1844 21.692C82.4724 21.284 82.8204 20.99 83.2284 20.81C83.6484 20.63 84.0804 20.564 84.5244 20.612C84.9804 20.648 85.3584 20.786 85.6584 21.026V20.27L87.1164 20.216L87.2244 23.24ZM95.196 26.678C95.184 27.17 95.1 27.584 94.944 27.92C94.788 28.256 94.584 28.532 94.332 28.748C94.08 28.952 93.786 29.102 93.45 29.198C93.114 29.294 92.76 29.342 92.388 29.342C92.016 29.342 91.644 29.276 91.272 29.144C90.912 29.012 90.582 28.808 90.282 28.532C89.982 28.256 89.736 27.908 89.544 27.488C89.364 27.056 89.274 26.54 89.274 25.94L89.238 21.89H87.96L87.942 20.054L89.31 20.036L89.274 16.76H91.164L91.2 20L94.188 19.964L94.134 21.512L91.218 21.548L91.272 25.742C91.272 25.958 91.284 26.174 91.308 26.39C91.344 26.594 91.404 26.78 91.488 26.948C91.572 27.104 91.692 27.236 91.848 27.344C92.016 27.44 92.226 27.494 92.478 27.506C92.862 27.518 93.126 27.44 93.27 27.272C93.414 27.092 93.492 26.912 93.504 26.732C93.528 26.576 93.51 26.456 93.45 26.372C93.402 26.288 93.336 26.246 93.252 26.246C93.18 26.234 93.102 26.27 93.018 26.354C92.946 26.426 92.898 26.54 92.874 26.696L91.596 26.138C91.608 25.814 91.74 25.49 91.992 25.166C92.244 24.842 92.682 24.668 93.306 24.644C93.882 24.62 94.344 24.812 94.692 25.22C95.04 25.628 95.208 26.114 95.196 26.678Z" fill="#87643C"/>
</svg>
