<svg width="100" height="40" viewBox="0 0 100 40" fill="none" xmlns="http://www.w3.org/2000/svg">
<rect x="0.5" y="0.5" width="99" height="39" rx="19.5" fill="#721111" stroke="#7C3232"/>
<circle cx="78.2407" cy="20.2407" r="15.2407" fill="url(#paint0_radial_10_41)"/>
<path d="M20.2974 24.528H24.0574V26H18.4734V14.88H20.2974V24.528ZM24.9748 21.552C24.9748 20.6667 25.1561 19.8827 25.5188 19.2C25.8921 18.5173 26.3935 17.9893 27.0228 17.616C27.6628 17.232 28.3668 17.04 29.1348 17.04C29.8281 17.04 30.4308 17.1787 30.9428 17.456C31.4655 17.7227 31.8815 18.0587 32.1908 18.464V17.184H34.0308V26H32.1908V24.688C31.8815 25.104 31.4601 25.4507 30.9268 25.728C30.3935 26.0053 29.7855 26.144 29.1028 26.144C28.3455 26.144 27.6521 25.952 27.0228 25.568C26.3935 25.1733 25.8921 24.6293 25.5188 23.936C25.1561 23.232 24.9748 22.4373 24.9748 21.552ZM32.1908 21.584C32.1908 20.976 32.0628 20.448 31.8068 20C31.5615 19.552 31.2361 19.2107 30.8308 18.976C30.4255 18.7413 29.9881 18.624 29.5188 18.624C29.0495 18.624 28.6121 18.7413 28.2068 18.976C27.8015 19.2 27.4708 19.536 27.2148 19.984C26.9695 20.4213 26.8468 20.944 26.8468 21.552C26.8468 22.16 26.9695 22.6933 27.2148 23.152C27.4708 23.6107 27.8015 23.9627 28.2068 24.208C28.6228 24.4427 29.0601 24.56 29.5188 24.56C29.9881 24.56 30.4255 24.4427 30.8308 24.208C31.2361 23.9733 31.5615 23.632 31.8068 23.184C32.0628 22.7253 32.1908 22.192 32.1908 21.584ZM39.6266 26.144C38.9332 26.144 38.3092 26.0213 37.7546 25.776C37.2106 25.52 36.7786 25.1787 36.4586 24.752C36.1386 24.3147 35.9679 23.8293 35.9466 23.296H37.8346C37.8666 23.6693 38.0426 23.984 38.3626 24.24C38.6932 24.4853 39.1039 24.608 39.5946 24.608C40.1066 24.608 40.5012 24.512 40.7786 24.32C41.0666 24.1173 41.2106 23.8613 41.2106 23.552C41.2106 23.2213 41.0506 22.976 40.7306 22.816C40.4212 22.656 39.9252 22.48 39.2426 22.288C38.5812 22.1067 38.0426 21.9307 37.6266 21.76C37.2106 21.5893 36.8479 21.328 36.5386 20.976C36.2399 20.624 36.0906 20.16 36.0906 19.584C36.0906 19.1147 36.2292 18.688 36.5066 18.304C36.7839 17.9093 37.1786 17.6 37.6906 17.376C38.2132 17.152 38.8106 17.04 39.4826 17.04C40.4852 17.04 41.2906 17.296 41.8986 17.808C42.5172 18.3093 42.8479 18.9973 42.8906 19.872H41.0666C41.0346 19.4773 40.8746 19.1627 40.5866 18.928C40.2986 18.6933 39.9092 18.576 39.4186 18.576C38.9386 18.576 38.5706 18.6667 38.3146 18.848C38.0586 19.0293 37.9306 19.2693 37.9306 19.568C37.9306 19.8027 38.0159 20 38.1866 20.16C38.3572 20.32 38.5652 20.448 38.8106 20.544C39.0559 20.6293 39.4186 20.7413 39.8986 20.88C40.5386 21.0507 41.0612 21.2267 41.4666 21.408C41.8826 21.5787 42.2399 21.8347 42.5386 22.176C42.8372 22.5173 42.9919 22.9707 43.0026 23.536C43.0026 24.0373 42.8639 24.4853 42.5866 24.88C42.3092 25.2747 41.9146 25.584 41.4026 25.808C40.9012 26.032 40.3092 26.144 39.6266 26.144ZM47.1014 18.672V23.552C47.1014 23.8827 47.1761 24.1227 47.3254 24.272C47.4854 24.4107 47.7521 24.48 48.1254 24.48H49.2454V26H47.8054C46.9841 26 46.3548 25.808 45.9174 25.424C45.4801 25.04 45.2614 24.416 45.2614 23.552V18.672H44.2214V17.184H45.2614V14.992H47.1014V17.184H49.2454V18.672H47.1014Z" fill="white"/>
<defs>
<radialGradient id="paint0_radial_10_41" cx="0" cy="0" r="1" gradientUnits="userSpaceOnUse" gradientTransform="translate(78.2407 20.2407) rotate(90) scale(15.2407)">
<stop offset="0.399038" stop-color="#721111"/>
<stop offset="0.764423" stop-color="#AC7474"/>
<stop offset="0.9375" stop-color="#E2A5A5"/>
</radialGradient>
</defs>
</svg>
