<svg width="70" height="29" viewBox="0 0 70 29" fill="none" xmlns="http://www.w3.org/2000/svg">
<rect width="70" height="29" rx="14.5" fill="#D9D9D9"/>
<rect x="39" y="2" width="26" height="26" rx="13" fill="#660000"/>
<path d="M22 14C22 15.5913 21.3679 17.1174 20.2426 18.2426C19.1174 19.3679 17.5913 20 16 20C14.4087 20 12.8826 19.3679 11.7574 18.2426C10.6321 17.1174 10 15.5913 10 14C10 12.4087 10.6321 10.8826 11.7574 9.75736C12.8826 8.63214 14.4087 8 16 8C17.5913 8 19.1174 8.63214 20.2426 9.75736C21.3679 10.8826 22 12.4087 22 14Z" fill="#660000"/>
<path fill-rule="evenodd" clip-rule="evenodd" d="M16 3.25C16.1989 3.25 16.3897 3.32902 16.5303 3.46967C16.671 3.61032 16.75 3.80109 16.75 4V5C16.75 5.19891 16.671 5.38968 16.5303 5.53033C16.3897 5.67098 16.1989 5.75 16 5.75C15.8011 5.75 15.6103 5.67098 15.4697 5.53033C15.329 5.38968 15.25 5.19891 15.25 5V4C15.25 3.80109 15.329 3.61032 15.4697 3.46967C15.6103 3.32902 15.8011 3.25 16 3.25ZM8.399 6.399C8.53963 6.25855 8.73025 6.17966 8.929 6.17966C9.12775 6.17966 9.31837 6.25855 9.459 6.399L9.852 6.791C9.98869 6.93239 10.0644 7.1218 10.0628 7.31845C10.0611 7.5151 9.98235 7.70325 9.84336 7.84237C9.70437 7.98149 9.5163 8.06046 9.31965 8.06226C9.123 8.06406 8.93352 7.98855 8.792 7.852L8.399 7.459C8.25855 7.31837 8.17966 7.12775 8.17966 6.929C8.17966 6.73025 8.25855 6.53963 8.399 6.399ZM23.601 6.399C23.7415 6.53963 23.8203 6.73025 23.8203 6.929C23.8203 7.12775 23.7415 7.31837 23.601 7.459L23.208 7.852C23.0658 7.98448 22.8778 8.0566 22.6835 8.05317C22.4892 8.04975 22.3038 7.97103 22.1664 7.83362C22.029 7.69621 21.9503 7.51082 21.9468 7.31652C21.9434 7.12222 22.0155 6.93417 22.148 6.792L22.541 6.399C22.6816 6.25855 22.8722 6.17966 23.071 6.17966C23.2697 6.17966 23.4604 6.25855 23.601 6.399ZM5.25 14C5.25 13.8011 5.32902 13.6103 5.46967 13.4697C5.61032 13.329 5.80109 13.25 6 13.25H7C7.19891 13.25 7.38968 13.329 7.53033 13.4697C7.67098 13.6103 7.75 13.8011 7.75 14C7.75 14.1989 7.67098 14.3897 7.53033 14.5303C7.38968 14.671 7.19891 14.75 7 14.75H6C5.80109 14.75 5.61032 14.671 5.46967 14.5303C5.32902 14.3897 5.25 14.1989 5.25 14ZM24.25 14C24.25 13.8011 24.329 13.6103 24.4697 13.4697C24.6103 13.329 24.8011 13.25 25 13.25H26C26.1989 13.25 26.3897 13.329 26.5303 13.4697C26.671 13.6103 26.75 13.8011 26.75 14C26.75 14.1989 26.671 14.3897 26.5303 14.5303C26.3897 14.671 26.1989 14.75 26 14.75H25C24.8011 14.75 24.6103 14.671 24.4697 14.5303C24.329 14.3897 24.25 14.1989 24.25 14ZM22.148 20.148C22.2886 20.0076 22.4792 19.9287 22.678 19.9287C22.8768 19.9287 23.0674 20.0076 23.208 20.148L23.601 20.541C23.6747 20.6097 23.7338 20.6925 23.7748 20.7845C23.8158 20.8765 23.8378 20.9758 23.8396 21.0765C23.8414 21.1772 23.8228 21.2772 23.7851 21.3706C23.7474 21.464 23.6913 21.5488 23.62 21.62C23.5488 21.6913 23.464 21.7474 23.3706 21.7851C23.2772 21.8228 23.1772 21.8414 23.0765 21.8396C22.9758 21.8378 22.8765 21.8158 22.7845 21.7748C22.6925 21.7338 22.6097 21.6747 22.541 21.601L22.148 21.208C22.0076 21.0674 21.9287 20.8768 21.9287 20.678C21.9287 20.4792 22.0076 20.2886 22.148 20.148ZM9.852 20.148C9.99245 20.2886 10.0713 20.4792 10.0713 20.678C10.0713 20.8768 9.99245 21.0674 9.852 21.208L9.459 21.601C9.39034 21.6747 9.30754 21.7338 9.21554 21.7748C9.12354 21.8158 9.02423 21.8378 8.92352 21.8396C8.82282 21.8414 8.72279 21.8228 8.6294 21.7851C8.53601 21.7474 8.45118 21.6913 8.37996 21.62C8.30874 21.5488 8.2526 21.464 8.21488 21.3706C8.17716 21.2772 8.15863 21.1772 8.16041 21.0765C8.16219 20.9758 8.18423 20.8765 8.22522 20.7845C8.26621 20.6925 8.32531 20.6097 8.399 20.541L8.791 20.148C8.86065 20.0783 8.94335 20.023 9.03438 19.9853C9.1254 19.9476 9.22297 19.9282 9.3215 19.9282C9.42003 19.9282 9.5176 19.9476 9.60862 19.9853C9.69965 20.023 9.78235 20.0783 9.852 20.148ZM16 22.25C16.1989 22.25 16.3897 22.329 16.5303 22.4697C16.671 22.6103 16.75 22.8011 16.75 23V24C16.75 24.1989 16.671 24.3897 16.5303 24.5303C16.3897 24.671 16.1989 24.75 16 24.75C15.8011 24.75 15.6103 24.671 15.4697 24.5303C15.329 24.3897 15.25 24.1989 15.25 24V23C15.25 22.8011 15.329 22.6103 15.4697 22.4697C15.6103 22.329 15.8011 22.25 16 22.25Z" fill="#660000"/>
<path d="M52 25C57.523 25 62 20.523 62 15C62 14.537 61.306 14.46 61.067 14.857C60.5572 15.7013 59.862 16.4186 59.034 16.9545C58.206 17.4903 57.2669 17.8307 56.2878 17.9499C55.3088 18.0691 54.3154 17.9639 53.383 17.6423C52.4507 17.3207 51.6037 16.7911 50.9063 16.0937C50.2089 15.3963 49.6793 14.5493 49.3577 13.617C49.0361 12.6846 48.9309 11.6912 49.0501 10.7122C49.1693 9.73311 49.5097 8.794 50.0455 7.96599C50.5814 7.13797 51.2987 6.44275 52.143 5.933C52.54 5.693 52.463 5 52 5C46.477 5 42 9.477 42 15C42 20.523 46.477 25 52 25Z" fill="#D9D9D9"/>
</svg>
