<svg width="146" height="26" viewBox="0 0 146 26" fill="none" xmlns="http://www.w3.org/2000/svg">
<rect width="146" height="26" rx="13" fill="#660000"/>
<rect width="81" height="26" rx="13" fill="#D9D9D9"/>
<path d="M42 12C42 13.5913 41.3679 15.1174 40.2426 16.2426C39.1174 17.3679 37.5913 18 36 18C34.4087 18 32.8826 17.3679 31.7574 16.2426C30.6321 15.1174 30 13.5913 30 12C30 10.4087 30.6321 8.88258 31.7574 7.75736C32.8826 6.63214 34.4087 6 36 6C37.5913 6 39.1174 6.63214 40.2426 7.75736C41.3679 8.88258 42 10.4087 42 12Z" fill="#660000"/>
<path fill-rule="evenodd" clip-rule="evenodd" d="M36 1.25C36.1989 1.25 36.3897 1.32902 36.5303 1.46967C36.671 1.61032 36.75 1.80109 36.75 2V3C36.75 3.19891 36.671 3.38968 36.5303 3.53033C36.3897 3.67098 36.1989 3.75 36 3.75C35.8011 3.75 35.6103 3.67098 35.4697 3.53033C35.329 3.38968 35.25 3.19891 35.25 3V2C35.25 1.80109 35.329 1.61032 35.4697 1.46967C35.6103 1.32902 35.8011 1.25 36 1.25ZM28.399 4.399C28.5396 4.25855 28.7302 4.17966 28.929 4.17966C29.1278 4.17966 29.3184 4.25855 29.459 4.399L29.852 4.791C29.9887 4.93239 30.0644 5.1218 30.0628 5.31845C30.0611 5.5151 29.9824 5.70325 29.8434 5.84237C29.7044 5.98149 29.5163 6.06046 29.3197 6.06226C29.123 6.06406 28.9335 5.98855 28.792 5.852L28.399 5.459C28.2585 5.31837 28.1797 5.12775 28.1797 4.929C28.1797 4.73025 28.2585 4.53963 28.399 4.399ZM43.601 4.399C43.7415 4.53963 43.8203 4.73025 43.8203 4.929C43.8203 5.12775 43.7415 5.31837 43.601 5.459L43.208 5.852C43.0658 5.98448 42.8778 6.0566 42.6835 6.05317C42.4892 6.04975 42.3038 5.97103 42.1664 5.83362C42.029 5.69621 41.9503 5.51082 41.9468 5.31652C41.9434 5.12222 42.0155 4.93417 42.148 4.792L42.541 4.399C42.6816 4.25855 42.8722 4.17966 43.071 4.17966C43.2697 4.17966 43.4604 4.25855 43.601 4.399ZM25.25 12C25.25 11.8011 25.329 11.6103 25.4697 11.4697C25.6103 11.329 25.8011 11.25 26 11.25H27C27.1989 11.25 27.3897 11.329 27.5303 11.4697C27.671 11.6103 27.75 11.8011 27.75 12C27.75 12.1989 27.671 12.3897 27.5303 12.5303C27.3897 12.671 27.1989 12.75 27 12.75H26C25.8011 12.75 25.6103 12.671 25.4697 12.5303C25.329 12.3897 25.25 12.1989 25.25 12ZM44.25 12C44.25 11.8011 44.329 11.6103 44.4697 11.4697C44.6103 11.329 44.8011 11.25 45 11.25H46C46.1989 11.25 46.3897 11.329 46.5303 11.4697C46.671 11.6103 46.75 11.8011 46.75 12C46.75 12.1989 46.671 12.3897 46.5303 12.5303C46.3897 12.671 46.1989 12.75 46 12.75H45C44.8011 12.75 44.6103 12.671 44.4697 12.5303C44.329 12.3897 44.25 12.1989 44.25 12ZM42.148 18.148C42.2886 18.0076 42.4792 17.9287 42.678 17.9287C42.8768 17.9287 43.0674 18.0076 43.208 18.148L43.601 18.541C43.6747 18.6097 43.7338 18.6925 43.7748 18.7845C43.8158 18.8765 43.8378 18.9758 43.8396 19.0765C43.8414 19.1772 43.8228 19.2772 43.7851 19.3706C43.7474 19.464 43.6913 19.5488 43.62 19.62C43.5488 19.6913 43.464 19.7474 43.3706 19.7851C43.2772 19.8228 43.1772 19.8414 43.0765 19.8396C42.9758 19.8378 42.8765 19.8158 42.7845 19.7748C42.6925 19.7338 42.6097 19.6747 42.541 19.601L42.148 19.208C42.0076 19.0674 41.9287 18.8768 41.9287 18.678C41.9287 18.4792 42.0076 18.2886 42.148 18.148ZM29.852 18.148C29.9925 18.2886 30.0713 18.4792 30.0713 18.678C30.0713 18.8768 29.9925 19.0674 29.852 19.208L29.459 19.601C29.3903 19.6747 29.3075 19.7338 29.2155 19.7748C29.1235 19.8158 29.0242 19.8378 28.9235 19.8396C28.8228 19.8414 28.7228 19.8228 28.6294 19.7851C28.536 19.7474 28.4512 19.6913 28.38 19.62C28.3087 19.5488 28.2526 19.464 28.2149 19.3706C28.1772 19.2772 28.1586 19.1772 28.1604 19.0765C28.1622 18.9758 28.1842 18.8765 28.2252 18.7845C28.2662 18.6925 28.3253 18.6097 28.399 18.541L28.791 18.148C28.8607 18.0783 28.9434 18.023 29.0344 17.9853C29.1254 17.9476 29.223 17.9282 29.3215 17.9282C29.42 17.9282 29.5176 17.9476 29.6086 17.9853C29.6996 18.023 29.7824 18.0783 29.852 18.148ZM36 20.25C36.1989 20.25 36.3897 20.329 36.5303 20.4697C36.671 20.6103 36.75 20.8011 36.75 21V22C36.75 22.1989 36.671 22.3897 36.5303 22.5303C36.3897 22.671 36.1989 22.75 36 22.75C35.8011 22.75 35.6103 22.671 35.4697 22.5303C35.329 22.3897 35.25 22.1989 35.25 22V21C35.25 20.8011 35.329 20.6103 35.4697 20.4697C35.6103 20.329 35.8011 20.25 36 20.25Z" fill="#660000"/>
<path d="M112 23C117.523 23 122 18.523 122 13C122 12.537 121.306 12.46 121.067 12.857C120.557 13.7013 119.862 14.4186 119.034 14.9545C118.206 15.4903 117.267 15.8307 116.288 15.9499C115.309 16.0691 114.315 15.9639 113.383 15.6423C112.451 15.3207 111.604 14.7911 110.906 14.0937C110.209 13.3963 109.679 12.5493 109.358 11.617C109.036 10.6846 108.931 9.69123 109.05 8.71217C109.169 7.73311 109.51 6.794 110.046 5.96599C110.581 5.13797 111.299 4.44275 112.143 3.933C112.54 3.693 112.463 3 112 3C106.477 3 102 7.477 102 13C102 18.523 106.477 23 112 23Z" fill="#D9D9D9"/>
</svg>
