<svg width="320" height="60" viewBox="0 0 320 60" fill="none" xmlns="http://www.w3.org/2000/svg">
<rect x="1.5" y="1.5" width="317" height="57" rx="28.5" fill="url(#paint0_linear_0_29)" stroke="#370A0B" stroke-width="3"/>
<path d="M113.296 41.168C112.176 41.168 111.168 40.976 110.272 40.592C109.376 40.192 108.672 39.632 108.16 38.912C107.648 38.192 107.392 37.352 107.392 36.392H110.32C110.384 37.112 110.664 37.704 111.16 38.168C111.672 38.632 112.384 38.864 113.296 38.864C114.24 38.864 114.976 38.64 115.504 38.192C116.032 37.728 116.296 37.136 116.296 36.416C116.296 35.856 116.128 35.4 115.792 35.048C115.472 34.696 115.064 34.424 114.568 34.232C114.088 34.04 113.416 33.832 112.552 33.608C111.464 33.32 110.576 33.032 109.888 32.744C109.216 32.44 108.64 31.976 108.16 31.352C107.68 30.728 107.44 29.896 107.44 28.856C107.44 27.896 107.68 27.056 108.16 26.336C108.64 25.616 109.312 25.064 110.176 24.68C111.04 24.296 112.04 24.104 113.176 24.104C114.792 24.104 116.112 24.512 117.136 25.328C118.176 26.128 118.752 27.232 118.864 28.64H115.84C115.792 28.032 115.504 27.512 114.976 27.08C114.448 26.648 113.752 26.432 112.888 26.432C112.104 26.432 111.464 26.632 110.968 27.032C110.472 27.432 110.224 28.008 110.224 28.76C110.224 29.272 110.376 29.696 110.68 30.032C111 30.352 111.4 30.608 111.88 30.8C112.36 30.992 113.016 31.2 113.848 31.424C114.952 31.728 115.848 32.032 116.536 32.336C117.24 32.64 117.832 33.112 118.312 33.752C118.808 34.376 119.056 35.216 119.056 36.272C119.056 37.12 118.824 37.92 118.36 38.672C117.912 39.424 117.248 40.032 116.368 40.496C115.504 40.944 114.48 41.168 113.296 41.168ZM121.372 34.328C121.372 33 121.644 31.824 122.188 30.8C122.748 29.776 123.5 28.984 124.444 28.424C125.404 27.848 126.46 27.56 127.612 27.56C128.652 27.56 129.556 27.768 130.324 28.184C131.108 28.584 131.732 29.088 132.196 29.696V27.776H134.956V41H132.196V39.032C131.732 39.656 131.1 40.176 130.3 40.592C129.5 41.008 128.588 41.216 127.564 41.216C126.428 41.216 125.388 40.928 124.444 40.352C123.5 39.76 122.748 38.944 122.188 37.904C121.644 36.848 121.372 35.656 121.372 34.328ZM132.196 34.376C132.196 33.464 132.004 32.672 131.62 32C131.252 31.328 130.764 30.816 130.156 30.464C129.548 30.112 128.892 29.936 128.188 29.936C127.484 29.936 126.828 30.112 126.22 30.464C125.612 30.8 125.116 31.304 124.732 31.976C124.364 32.632 124.18 33.416 124.18 34.328C124.18 35.24 124.364 36.04 124.732 36.728C125.116 37.416 125.612 37.944 126.22 38.312C126.844 38.664 127.5 38.84 128.188 38.84C128.892 38.84 129.548 38.664 130.156 38.312C130.764 37.96 131.252 37.448 131.62 36.776C132.004 36.088 132.196 35.288 132.196 34.376ZM141.286 29.696C141.686 29.024 142.214 28.504 142.87 28.136C143.542 27.752 144.334 27.56 145.246 27.56V30.392H144.55C143.478 30.392 142.662 30.664 142.102 31.208C141.558 31.752 141.286 32.696 141.286 34.04V41H138.55V27.776H141.286V29.696ZM150.497 38.792H156.137V41H147.761V24.32H150.497V38.792ZM164.161 41.216C162.913 41.216 161.785 40.936 160.777 40.376C159.769 39.8 158.977 39 158.401 37.976C157.825 36.936 157.537 35.736 157.537 34.376C157.537 33.032 157.833 31.84 158.425 30.8C159.017 29.76 159.825 28.96 160.849 28.4C161.873 27.84 163.017 27.56 164.281 27.56C165.545 27.56 166.689 27.84 167.713 28.4C168.737 28.96 169.545 29.76 170.137 30.8C170.729 31.84 171.025 33.032 171.025 34.376C171.025 35.72 170.721 36.912 170.113 37.952C169.505 38.992 168.673 39.8 167.617 40.376C166.577 40.936 165.425 41.216 164.161 41.216ZM164.161 38.84C164.865 38.84 165.521 38.672 166.129 38.336C166.753 38 167.257 37.496 167.641 36.824C168.025 36.152 168.217 35.336 168.217 34.376C168.217 33.416 168.033 32.608 167.665 31.952C167.297 31.28 166.809 30.776 166.201 30.44C165.593 30.104 164.937 29.936 164.233 29.936C163.529 29.936 162.873 30.104 162.265 30.44C161.673 30.776 161.201 31.28 160.849 31.952C160.497 32.608 160.321 33.416 160.321 34.376C160.321 35.8 160.681 36.904 161.401 37.688C162.137 38.456 163.057 38.84 164.161 38.84ZM176.922 30.008V37.328C176.922 37.824 177.034 38.184 177.258 38.408C177.498 38.616 177.898 38.72 178.458 38.72H180.138V41H177.978C176.746 41 175.802 40.712 175.146 40.136C174.49 39.56 174.162 38.624 174.162 37.328V30.008H172.602V27.776H174.162V24.488H176.922V27.776H180.138V30.008H176.922ZM185.851 30.008V37.328C185.851 37.824 185.963 38.184 186.187 38.408C186.427 38.616 186.827 38.72 187.387 38.72H189.067V41H186.907C185.675 41 184.731 40.712 184.075 40.136C183.419 39.56 183.091 38.624 183.091 37.328V30.008H181.531V27.776H183.091V24.488H185.851V27.776H189.067V30.008H185.851ZM203.709 34.064C203.709 34.56 203.677 35.008 203.613 35.408H193.509C193.589 36.464 193.981 37.312 194.685 37.952C195.389 38.592 196.253 38.912 197.277 38.912C198.749 38.912 199.789 38.296 200.397 37.064H203.349C202.949 38.28 202.221 39.28 201.165 40.064C200.125 40.832 198.829 41.216 197.277 41.216C196.013 41.216 194.877 40.936 193.869 40.376C192.877 39.8 192.093 39 191.517 37.976C190.957 36.936 190.677 35.736 190.677 34.376C190.677 33.016 190.949 31.824 191.493 30.8C192.053 29.76 192.829 28.96 193.821 28.4C194.829 27.84 195.981 27.56 197.277 27.56C198.525 27.56 199.637 27.832 200.613 28.376C201.589 28.92 202.349 29.688 202.893 30.68C203.437 31.656 203.709 32.784 203.709 34.064ZM200.853 33.2C200.837 32.192 200.477 31.384 199.773 30.776C199.069 30.168 198.197 29.864 197.157 29.864C196.213 29.864 195.405 30.168 194.733 30.776C194.061 31.368 193.661 32.176 193.533 33.2H200.853Z" fill="#FEBF25"/>
<defs>
<linearGradient id="paint0_linear_0_29" x1="0" y1="30" x2="320" y2="30" gradientUnits="userSpaceOnUse">
<stop offset="1" stop-color="#722320"/>
</linearGradient>
</defs>
</svg>
