<svg width="87" height="87" viewBox="0 0 87 87" fill="none" xmlns="http://www.w3.org/2000/svg">
<path d="M59.8125 32.625C59.8125 41.6341 52.5091 48.9375 43.5 48.9375C34.4909 48.9375 27.1875 41.6341 27.1875 32.625C27.1875 23.6159 34.4909 16.3125 43.5 16.3125C52.5091 16.3125 59.8125 23.6159 59.8125 32.625Z" fill="#EFCED9"/>
<path fill-rule="evenodd" clip-rule="evenodd" d="M0 43.5C0 19.4756 19.4756 0 43.5 0C67.5244 0 87 19.4756 87 43.5C87 67.5244 67.5244 87 43.5 87C19.4756 87 0 67.5244 0 43.5ZM43.5 5.4375C22.4787 5.4375 5.4375 22.4787 5.4375 43.5C5.4375 52.4905 8.55458 60.753 13.767 67.2657C17.6334 61.0373 26.1252 54.375 43.5 54.375C60.8748 54.375 69.3666 61.0373 73.233 67.2657C78.4454 60.753 81.5625 52.4905 81.5625 43.5C81.5625 22.4787 64.5213 5.4375 43.5 5.4375Z" fill="#EFCED9"/>
</svg>
