<svg width="27" height="38" viewBox="0 0 27 38" fill="none" xmlns="http://www.w3.org/2000/svg">
<g clip-path="url(#clip0_6_74)">
<path d="M26.7676 9.09744C26.7676 6.422 25.9611 2.52581 24.4209 0.257687C24.367 0.178267 24.2948 0.113307 24.2106 0.0684128C24.1263 0.0235187 24.0325 3.9045e-05 23.9373 0L2.8303 0C2.73507 3.9045e-05 2.64128 0.0235187 2.55701 0.0684128C2.47275 0.113307 2.40055 0.178267 2.34665 0.257687C0.806478 2.52819 0 6.42319 0 9.09744C0 16.1417 5.55261 23.9756 12.913 24.3794V34.4375H8.10117C6.76174 34.3484 5.75335 35.3685 5.75335 36.7234V37.4062C5.75335 37.5637 5.81519 37.7147 5.92526 37.8261C6.03534 37.9374 6.18463 38 6.3403 38H20.4273C20.5829 38 20.7322 37.9374 20.8423 37.8261C20.9524 37.7147 21.0142 37.5637 21.0142 37.4062V36.8125C21.0142 35.4302 19.9823 34.3484 18.6664 34.4375H14.087V24.3794C21.4474 23.9756 26.7676 16.1417 26.7676 9.09744ZM19.8403 36.8125H6.92726V36.7234C6.92726 36.024 7.40974 35.5359 8.10117 35.5359H18.6664C19.3367 35.5359 19.8403 36.0846 19.8403 36.8125ZM3.14843 1.1875H23.6191C24.8553 3.19675 25.5338 6.49563 25.5831 8.82075C24.517 8.57069 23.4257 8.44714 22.3314 8.45263C18.6206 8.45263 16.7447 9.54631 14.9298 10.6044C13.1725 11.6292 11.5126 12.597 8.11644 12.597C4.7203 12.597 3.06274 11.6268 1.30657 10.602L1.27135 10.5806C1.21265 10.0831 1.17391 9.58669 1.17391 9.09744C1.17391 6.76637 1.86417 3.27631 3.14843 1.1875ZM1.539 12.0982C3.132 12.9877 4.95861 13.7821 8.11761 13.7821C11.8272 13.7821 13.7031 12.6884 15.518 11.6304C17.2753 10.6067 18.9352 9.63775 22.3325 9.63775C23.5358 9.63775 24.5853 9.76837 25.5479 10.0177C25.0818 16.3258 19.9401 23.2287 13.385 23.2287C7.54591 23.2299 2.83265 17.7519 1.539 12.0982Z" fill="black"/>
</g>
<defs>
<clipPath id="clip0_6_74">
<rect width="27" height="38" fill="white"/>
</clipPath>
</defs>
</svg>
