<svg width="144" height="41" viewBox="0 0 144 41" fill="none" xmlns="http://www.w3.org/2000/svg">
<g filter="url(#filter0_i_10_55)">
<path d="M16.86 29.24C16.86 30.38 16.59 31.34 16.05 32.12C15.53 32.88 14.84 33.49 13.98 33.95C13.12 34.41 12.18 34.74 11.16 34.94C10.16 35.12 9.19 35.21 8.25 35.21C7.65 35.21 7.05 35.16 6.45 35.06C5.85 34.96 5.26 34.81 4.68 34.61C4.24 34.45 3.8 34.27 3.36 34.07C2.94 33.85 2.5 33.7 2.04 33.62C1.96 33.06 1.87 32.51 1.77 31.97C1.67 31.41 1.57 30.85 1.47 30.29C1.45 30.13 1.42 29.98 1.38 29.84C1.36 29.7 1.35 29.56 1.35 29.42C1.35 29.08 1.42 28.84 1.56 28.7C1.7 28.56 1.95 28.49 2.31 28.49C2.61 28.49 2.82 28.55 2.94 28.67C3.06 28.79 3.15 28.99 3.21 29.27C3.45 30.27 3.73 31.14 4.05 31.88C4.39 32.62 4.88 33.19 5.52 33.59C6.16 33.97 7.06 34.16 8.22 34.16C9.7 34.16 10.92 33.81 11.88 33.11C12.86 32.41 13.35 31.26 13.35 29.66C13.35 28.9 13.16 28.25 12.78 27.71C12.4 27.15 11.92 26.67 11.34 26.27C10.78 25.87 10.2 25.53 9.6 25.25C8.98 24.91 8.35 24.59 7.71 24.29C7.09 23.99 6.46 23.68 5.82 23.36C5.2 23.06 4.56 22.67 3.9 22.19C3.24 21.69 2.68 21.12 2.22 20.48C1.78 19.82 1.56 19.11 1.56 18.35C1.56 17.03 1.91 15.95 2.61 15.11C3.31 14.27 4.2 13.65 5.28 13.25C6.38 12.85 7.51 12.65 8.67 12.65C9.43 12.65 10.13 12.73 10.77 12.89C11.43 13.05 12.11 13.26 12.81 13.52C13.19 13.66 13.57 13.76 13.95 13.82C14.33 13.88 14.71 13.93 15.09 13.97C15.15 14.57 15.21 15.18 15.27 15.8C15.33 16.4 15.42 16.99 15.54 17.57C15.56 17.65 15.58 17.73 15.6 17.81C15.62 17.89 15.63 17.98 15.63 18.08C15.63 18.42 15.5 18.64 15.24 18.74C14.98 18.84 14.71 18.89 14.43 18.89C14.35 18.89 14.24 18.88 14.1 18.86C13.98 18.84 13.89 18.79 13.83 18.71C13.79 18.67 13.76 18.6 13.74 18.5C13.72 18.4 13.71 18.32 13.71 18.26C13.45 16.72 12.92 15.54 12.12 14.72C11.32 13.9 10.1 13.49 8.46 13.49C7.26 13.49 6.33 13.82 5.67 14.48C5.01 15.14 4.68 16.07 4.68 17.27C4.68 18.09 4.9 18.79 5.34 19.37C5.78 19.95 6.36 20.45 7.08 20.87C7.8 21.29 8.59 21.69 9.45 22.07C10.33 22.43 11.2 22.81 12.06 23.21C12.94 23.61 13.74 24.08 14.46 24.62C15.18 25.14 15.76 25.78 16.2 26.54C16.64 27.28 16.86 28.18 16.86 29.24ZM27.5025 34.55C27.5025 34.67 27.4425 34.78 27.3225 34.88C27.2225 34.98 27.1125 35.03 26.9925 35.03C26.2925 35.03 25.5925 35.02 24.8925 35C24.1925 34.96 23.4925 34.94 22.7925 34.94C22.2125 34.94 21.6225 34.96 21.0225 35C20.4425 35.02 19.8625 35.03 19.2825 35.03C19.1825 35.03 19.0925 34.98 19.0125 34.88C18.9325 34.76 18.8925 34.66 18.8925 34.58C18.8925 34.34 19.0025 34.21 19.2225 34.19C19.4625 34.15 19.7125 34.14 19.9725 34.16C20.2525 34.18 20.5125 34.19 20.7525 34.19C21.0125 34.19 21.2325 34.13 21.4125 34.01C21.5925 33.87 21.6825 33.67 21.6825 33.41V29.51L21.7125 21.29C21.7125 21.01 21.6625 20.78 21.5625 20.6C21.4825 20.4 21.2725 20.3 20.9325 20.3C20.6725 20.3 20.4025 20.32 20.1225 20.36C19.8625 20.4 19.5925 20.42 19.3125 20.42C19.2325 20.42 19.1325 20.4 19.0125 20.36C18.8925 20.3 18.8325 20.22 18.8325 20.12C18.8325 19.86 18.9325 19.71 19.1325 19.67C19.3925 19.59 19.6525 19.54 19.9125 19.52C20.1725 19.48 20.4325 19.44 20.6925 19.4C21.2525 19.3 21.8025 19.19 22.3425 19.07C22.9025 18.93 23.4625 18.8 24.0225 18.68C24.1425 18.64 24.2525 18.62 24.3525 18.62C24.7125 18.62 24.8925 18.77 24.8925 19.07C24.8925 21.45 24.8825 23.84 24.8625 26.24C24.8425 28.62 24.8325 31.01 24.8325 33.41C24.8325 33.77 25.0025 33.99 25.3425 34.07C25.6825 34.13 25.9825 34.16 26.2425 34.16C26.4025 34.16 26.5525 34.16 26.6925 34.16C26.8525 34.14 27.0025 34.13 27.1425 34.13C27.2225 34.13 27.3025 34.18 27.3825 34.28C27.4625 34.38 27.5025 34.47 27.5025 34.55ZM25.0425 13.76C25.0425 14.32 24.8425 14.77 24.4425 15.11C24.0425 15.45 23.5725 15.62 23.0325 15.62C22.4925 15.62 22.0225 15.45 21.6225 15.11C21.2225 14.77 21.0225 14.32 21.0225 13.76C21.0225 13.2 21.2225 12.75 21.6225 12.41C22.0225 12.07 22.4925 11.9 23.0325 11.9C23.5725 11.9 24.0425 12.07 24.4425 12.41C24.8425 12.75 25.0425 13.2 25.0425 13.76ZM40.245 35.93C40.245 35.15 40.035 34.59 39.615 34.25C39.215 33.89 38.705 33.66 38.085 33.56C37.485 33.44 36.895 33.36 36.315 33.32L33.165 33.08C32.765 33.54 32.465 34 32.265 34.46C32.085 34.92 31.995 35.47 31.995 36.11C31.995 37.03 32.205 37.7 32.625 38.12C33.065 38.54 33.615 38.8 34.275 38.9C34.955 39.02 35.655 39.08 36.375 39.08C37.075 39.08 37.715 38.98 38.295 38.78C38.875 38.58 39.345 38.25 39.705 37.79C40.065 37.33 40.245 36.71 40.245 35.93ZM38.775 23.96C38.775 23.54 38.745 23.08 38.685 22.58C38.625 22.06 38.505 21.56 38.325 21.08C38.165 20.6 37.915 20.21 37.575 19.91C37.235 19.61 36.785 19.46 36.225 19.46C35.385 19.46 34.745 19.69 34.305 20.15C33.865 20.61 33.565 21.19 33.405 21.89C33.245 22.57 33.165 23.26 33.165 23.96C33.165 24.68 33.225 25.39 33.345 26.09C33.485 26.77 33.775 27.33 34.215 27.77C34.655 28.21 35.325 28.43 36.225 28.43C36.785 28.43 37.235 28.28 37.575 27.98C37.915 27.68 38.165 27.3 38.325 26.84C38.505 26.36 38.625 25.87 38.685 25.37C38.745 24.85 38.775 24.38 38.775 23.96ZM44.445 19.1C44.445 19.56 44.315 19.86 44.055 20C43.815 20.14 43.495 20.21 43.095 20.21C42.615 20.21 42.135 20.21 41.655 20.21C41.175 20.19 40.695 20.17 40.215 20.15C40.835 20.61 41.275 21.2 41.535 21.92C41.795 22.64 41.925 23.38 41.925 24.14C41.925 25.14 41.645 26.02 41.085 26.78C40.525 27.54 39.805 28.13 38.925 28.55C38.065 28.97 37.165 29.18 36.225 29.18C35.925 29.18 35.625 29.17 35.325 29.15C35.045 29.13 34.765 29.11 34.485 29.09C34.225 29.29 33.945 29.54 33.645 29.84C33.365 30.14 33.225 30.47 33.225 30.83C33.225 31.11 33.365 31.32 33.645 31.46C33.925 31.6 34.245 31.69 34.605 31.73C34.965 31.77 35.245 31.8 35.445 31.82L39.135 32.12C39.835 32.16 40.515 32.29 41.175 32.51C41.835 32.73 42.385 33.08 42.825 33.56C43.265 34.02 43.485 34.66 43.485 35.48C43.485 36.32 43.235 37.03 42.735 37.61C42.255 38.21 41.635 38.68 40.875 39.02C40.115 39.38 39.315 39.64 38.475 39.8C37.655 39.96 36.905 40.04 36.225 40.04C35.685 40.04 35.025 40.01 34.245 39.95C33.465 39.91 32.695 39.79 31.935 39.59C31.175 39.39 30.535 39.07 30.015 38.63C29.515 38.21 29.265 37.62 29.265 36.86C29.265 36.08 29.535 35.36 30.075 34.7C30.615 34.02 31.165 33.45 31.725 32.99C31.485 32.89 31.195 32.73 30.855 32.51C30.515 32.29 30.345 32.04 30.345 31.76C30.345 31.44 30.425 31.18 30.585 30.98C30.765 30.76 30.945 30.55 31.125 30.35C31.425 30.01 31.735 29.69 32.055 29.39C32.375 29.09 32.695 28.79 33.015 28.49C31.995 28.01 31.235 27.4 30.735 26.66C30.235 25.9 29.985 24.95 29.985 23.81C29.985 22.75 30.285 21.84 30.885 21.08C31.505 20.32 32.285 19.74 33.225 19.34C34.165 18.92 35.115 18.71 36.075 18.71C36.535 18.71 37.065 18.76 37.665 18.86C38.285 18.96 38.805 19.12 39.225 19.34C39.325 19.36 39.415 19.37 39.495 19.37C39.575 19.37 39.655 19.37 39.735 19.37C40.455 19.37 41.155 19.27 41.835 19.07C42.515 18.85 43.135 18.52 43.695 18.08C43.735 18.04 43.775 18.01 43.815 17.99C43.875 17.95 43.935 17.93 43.995 17.93C44.215 17.93 44.345 18.09 44.385 18.41C44.425 18.71 44.445 18.94 44.445 19.1ZM63.2777 34.58C63.2777 34.76 63.2177 34.88 63.0977 34.94C62.9777 35 62.8377 35.03 62.6777 35.03C62.0577 35.03 61.4277 35.02 60.7877 35C60.1477 34.98 59.5077 34.97 58.8677 34.97C58.3677 34.97 57.8477 34.98 57.3077 35C56.7877 35.02 56.2677 35.03 55.7477 35.03C55.6677 35.03 55.5877 34.98 55.5077 34.88C55.4277 34.78 55.3877 34.69 55.3877 34.61C55.3877 34.35 55.4877 34.2 55.6877 34.16C55.9077 34.12 56.1177 34.11 56.3177 34.13C56.5377 34.15 56.7477 34.16 56.9477 34.16C57.4677 34.16 57.7377 33.9 57.7577 33.38C57.7977 32.92 57.8077 32.46 57.7877 32C57.7877 31.54 57.7877 31.09 57.7877 30.65V26.93C57.7877 26.51 57.7777 25.95 57.7577 25.25C57.7577 24.53 57.7377 23.83 57.6977 23.15C57.6577 22.45 57.5777 21.92 57.4577 21.56C57.1177 20.54 56.4377 20.03 55.4177 20.03C54.8177 20.03 54.3177 20.12 53.9177 20.3C53.5377 20.46 53.0977 20.71 52.5977 21.05C52.2977 21.27 51.9977 21.51 51.6977 21.77C51.4177 22.03 51.1577 22.31 50.9177 22.61C50.9177 24.41 50.9177 26.21 50.9177 28.01C50.9177 29.79 50.9177 31.57 50.9177 33.35C50.9177 33.61 51.0277 33.81 51.2477 33.95C51.4677 34.07 51.6877 34.13 51.9077 34.13C52.0677 34.13 52.2177 34.12 52.3577 34.1C52.5177 34.08 52.6677 34.07 52.8077 34.07C52.8877 34.07 52.9677 34.12 53.0477 34.22C53.1277 34.32 53.1677 34.41 53.1677 34.49C53.1677 34.63 53.1077 34.75 52.9877 34.85C52.8877 34.93 52.7777 34.97 52.6577 34.97C52.0377 34.97 51.4177 34.96 50.7977 34.94C50.1777 34.92 49.5577 34.91 48.9377 34.91C48.4377 34.91 47.9377 34.92 47.4377 34.94C46.9377 34.96 46.4377 34.97 45.9377 34.97C45.8177 34.97 45.7177 34.93 45.6377 34.85C45.5577 34.75 45.5177 34.65 45.5177 34.55C45.5177 34.33 45.6177 34.2 45.8177 34.16C46.0177 34.1 46.2377 34.08 46.4777 34.1C46.7177 34.12 46.9077 34.13 47.0477 34.13C47.5277 34.13 47.7877 33.87 47.8277 33.35C47.8477 33.07 47.8577 32.79 47.8577 32.51C47.8577 32.23 47.8577 31.96 47.8577 31.7C47.8577 29.98 47.8477 28.25 47.8277 26.51C47.8277 24.77 47.8177 23.03 47.7977 21.29C47.7977 21.07 47.7577 20.82 47.6777 20.54C47.5977 20.26 47.4177 20.12 47.1377 20.12C46.8777 20.12 46.6277 20.16 46.3877 20.24C46.1477 20.32 45.8977 20.36 45.6377 20.36C45.3777 20.36 45.2477 20.24 45.2477 20C45.2477 19.86 45.2677 19.77 45.3077 19.73C45.3477 19.69 45.4377 19.66 45.5777 19.64C45.9377 19.54 46.3077 19.47 46.6877 19.43C47.0677 19.37 47.4477 19.3 47.8277 19.22C48.1677 19.14 48.5077 19.06 48.8477 18.98C49.1877 18.88 49.5277 18.83 49.8677 18.83C50.1077 18.83 50.2777 18.9 50.3777 19.04C50.4777 19.18 50.5477 19.4 50.5877 19.7C50.6477 20 50.6877 20.3 50.7077 20.6C50.7477 20.9 50.7677 21.14 50.7677 21.32C51.4277 20.7 52.2077 20.13 53.1077 19.61C54.0077 19.07 54.9177 18.8 55.8377 18.8C56.5377 18.8 57.2377 18.88 57.9377 19.04C58.6377 19.2 59.2377 19.5 59.7377 19.94C60.2577 20.36 60.5777 20.98 60.6977 21.8C60.7377 22.14 60.7777 22.5 60.8177 22.88C60.8577 23.24 60.8777 23.59 60.8777 23.93C60.8777 25.49 60.8777 27.05 60.8777 28.61C60.8777 30.17 60.8777 31.73 60.8777 33.29C60.8777 33.63 60.9677 33.86 61.1477 33.98C61.3277 34.1 61.5777 34.16 61.8977 34.16C62.0577 34.16 62.2077 34.15 62.3477 34.13C62.5077 34.11 62.6677 34.1 62.8277 34.1C62.9477 34.1 63.0477 34.16 63.1277 34.28C63.2277 34.38 63.2777 34.48 63.2777 34.58ZM81.8128 13.4C81.8128 13.76 81.6528 13.94 81.3328 13.94C81.1128 13.94 80.8928 13.94 80.6728 13.94C80.4528 13.92 80.2328 13.91 80.0128 13.91C79.8128 13.91 79.5928 13.99 79.3528 14.15C79.1328 14.29 79.0228 14.48 79.0228 14.72V33.38C79.0228 33.62 79.1228 33.8 79.3228 33.92C79.5228 34.02 79.7228 34.07 79.9228 34.07C80.1428 34.07 80.3628 34.07 80.5828 34.07C80.8228 34.05 81.0528 34.04 81.2728 34.04C81.5928 34.04 81.7528 34.18 81.7528 34.46C81.7528 34.62 81.7328 34.76 81.6928 34.88C81.6528 34.98 81.5428 35.03 81.3628 35.03C80.6628 35.03 79.9528 35.01 79.2328 34.97C78.5328 34.91 77.8228 34.88 77.1028 34.88C76.7828 34.88 76.4528 34.89 76.1128 34.91C75.7728 34.91 75.4328 34.92 75.0928 34.94C74.7528 34.96 74.4028 34.99 74.0428 35.03C73.7028 35.07 73.3628 35.09 73.0228 35.09C72.9028 35.09 72.8028 35.04 72.7228 34.94C72.6428 34.82 72.6028 34.7 72.6028 34.58C72.6028 34.44 72.6428 34.32 72.7228 34.22C72.8228 34.12 72.9428 34.07 73.0828 34.07C73.3028 34.07 73.5228 34.08 73.7428 34.1C73.9828 34.1 74.2228 34.1 74.4628 34.1C74.6628 34.1 74.9028 34.05 75.1828 33.95C75.4628 33.83 75.6028 33.64 75.6028 33.38V14.69C75.6028 14.33 75.4428 14.11 75.1228 14.03C74.8028 13.93 74.4428 13.89 74.0428 13.91C73.6628 13.93 73.3628 13.94 73.1428 13.94C72.8628 13.94 72.7228 13.78 72.7228 13.46C72.7228 13.3 72.7328 13.17 72.7528 13.07C72.7928 12.97 72.9128 12.92 73.1128 12.92C73.7528 12.92 74.3928 12.94 75.0328 12.98C75.6928 13.02 76.3428 13.04 76.9828 13.04C77.4428 13.04 77.8928 13.04 78.3328 13.04C78.7928 13.04 79.2428 13.03 79.6828 13.01C79.9628 13.01 80.2428 13 80.5228 12.98C80.8228 12.94 81.1028 12.92 81.3628 12.92C81.5028 12.92 81.6128 12.97 81.6928 13.07C81.7728 13.17 81.8128 13.28 81.8128 13.4ZM102.125 34.58C102.125 34.76 102.065 34.88 101.945 34.94C101.825 35 101.685 35.03 101.525 35.03C100.905 35.03 100.275 35.02 99.6354 35C98.9954 34.98 98.3554 34.97 97.7154 34.97C97.2154 34.97 96.6954 34.98 96.1554 35C95.6354 35.02 95.1154 35.03 94.5954 35.03C94.5154 35.03 94.4354 34.98 94.3554 34.88C94.2754 34.78 94.2354 34.69 94.2354 34.61C94.2354 34.35 94.3354 34.2 94.5354 34.16C94.7554 34.12 94.9654 34.11 95.1654 34.13C95.3854 34.15 95.5954 34.16 95.7954 34.16C96.3154 34.16 96.5854 33.9 96.6054 33.38C96.6454 32.92 96.6554 32.46 96.6354 32C96.6354 31.54 96.6354 31.09 96.6354 30.65V26.93C96.6354 26.51 96.6254 25.95 96.6054 25.25C96.6054 24.53 96.5854 23.83 96.5454 23.15C96.5054 22.45 96.4254 21.92 96.3054 21.56C95.9654 20.54 95.2854 20.03 94.2654 20.03C93.6654 20.03 93.1654 20.12 92.7654 20.3C92.3854 20.46 91.9454 20.71 91.4454 21.05C91.1454 21.27 90.8454 21.51 90.5454 21.77C90.2654 22.03 90.0054 22.31 89.7654 22.61C89.7654 24.41 89.7654 26.21 89.7654 28.01C89.7654 29.79 89.7654 31.57 89.7654 33.35C89.7654 33.61 89.8754 33.81 90.0954 33.95C90.3154 34.07 90.5354 34.13 90.7554 34.13C90.9154 34.13 91.0654 34.12 91.2054 34.1C91.3654 34.08 91.5154 34.07 91.6554 34.07C91.7354 34.07 91.8154 34.12 91.8954 34.22C91.9754 34.32 92.0154 34.41 92.0154 34.49C92.0154 34.63 91.9554 34.75 91.8354 34.85C91.7354 34.93 91.6254 34.97 91.5054 34.97C90.8854 34.97 90.2654 34.96 89.6454 34.94C89.0254 34.92 88.4054 34.91 87.7854 34.91C87.2854 34.91 86.7854 34.92 86.2854 34.94C85.7854 34.96 85.2854 34.97 84.7854 34.97C84.6654 34.97 84.5654 34.93 84.4854 34.85C84.4054 34.75 84.3654 34.65 84.3654 34.55C84.3654 34.33 84.4654 34.2 84.6654 34.16C84.8654 34.1 85.0854 34.08 85.3254 34.1C85.5654 34.12 85.7554 34.13 85.8954 34.13C86.3754 34.13 86.6354 33.87 86.6754 33.35C86.6954 33.07 86.7054 32.79 86.7054 32.51C86.7054 32.23 86.7054 31.96 86.7054 31.7C86.7054 29.98 86.6954 28.25 86.6754 26.51C86.6754 24.77 86.6654 23.03 86.6454 21.29C86.6454 21.07 86.6054 20.82 86.5254 20.54C86.4454 20.26 86.2654 20.12 85.9854 20.12C85.7254 20.12 85.4754 20.16 85.2354 20.24C84.9954 20.32 84.7454 20.36 84.4854 20.36C84.2254 20.36 84.0954 20.24 84.0954 20C84.0954 19.86 84.1154 19.77 84.1554 19.73C84.1954 19.69 84.2854 19.66 84.4254 19.64C84.7854 19.54 85.1554 19.47 85.5354 19.43C85.9154 19.37 86.2954 19.3 86.6754 19.22C87.0154 19.14 87.3554 19.06 87.6954 18.98C88.0354 18.88 88.3754 18.83 88.7154 18.83C88.9554 18.83 89.1254 18.9 89.2254 19.04C89.3254 19.18 89.3954 19.4 89.4354 19.7C89.4954 20 89.5354 20.3 89.5554 20.6C89.5954 20.9 89.6154 21.14 89.6154 21.32C90.2754 20.7 91.0554 20.13 91.9554 19.61C92.8554 19.07 93.7654 18.8 94.6854 18.8C95.3854 18.8 96.0854 18.88 96.7854 19.04C97.4854 19.2 98.0854 19.5 98.5854 19.94C99.1054 20.36 99.4254 20.98 99.5454 21.8C99.5854 22.14 99.6254 22.5 99.6654 22.88C99.7054 23.24 99.7254 23.59 99.7254 23.93C99.7254 25.49 99.7254 27.05 99.7254 28.61C99.7254 30.17 99.7254 31.73 99.7254 33.29C99.7254 33.63 99.8154 33.86 99.9954 33.98C100.175 34.1 100.425 34.16 100.745 34.16C100.905 34.16 101.055 34.15 101.195 34.13C101.355 34.11 101.515 34.1 101.675 34.1C101.795 34.1 101.895 34.16 101.975 34.28C102.075 34.38 102.125 34.48 102.125 34.58Z" fill="black"/>
<g clip-path="url(#clip0_10_55)">
<path d="M143.768 9.09744C143.768 6.422 142.961 2.52581 141.421 0.257687C141.367 0.178267 141.295 0.113307 141.211 0.0684128C141.126 0.0235187 141.032 3.9045e-05 140.937 0L119.83 0C119.735 3.9045e-05 119.641 0.0235187 119.557 0.0684128C119.473 0.113307 119.401 0.178267 119.347 0.257687C117.806 2.52819 117 6.42319 117 9.09744C117 16.1417 122.553 23.9756 129.913 24.3794V34.4375H125.101C123.762 34.3484 122.753 35.3685 122.753 36.7234V37.4062C122.753 37.5637 122.815 37.7147 122.925 37.8261C123.035 37.9374 123.185 38 123.34 38H137.427C137.583 38 137.732 37.9374 137.842 37.8261C137.952 37.7147 138.014 37.5637 138.014 37.4062V36.8125C138.014 35.4302 136.982 34.3484 135.666 34.4375H131.087V24.3794C138.447 23.9756 143.768 16.1417 143.768 9.09744ZM136.84 36.8125H123.927V36.7234C123.927 36.024 124.41 35.5359 125.101 35.5359H135.666C136.337 35.5359 136.84 36.0846 136.84 36.8125ZM120.148 1.1875H140.619C141.855 3.19675 142.534 6.49563 142.583 8.82075C141.517 8.57069 140.426 8.44714 139.331 8.45263C135.621 8.45263 133.745 9.54631 131.93 10.6044C130.172 11.6292 128.513 12.597 125.116 12.597C121.72 12.597 120.063 11.6268 118.307 10.602L118.271 10.5806C118.213 10.0831 118.174 9.58669 118.174 9.09744C118.174 6.76637 118.864 3.27631 120.148 1.1875ZM118.539 12.0982C120.132 12.9877 121.959 13.7821 125.118 13.7821C128.827 13.7821 130.703 12.6884 132.518 11.6304C134.275 10.6067 135.935 9.63775 139.333 9.63775C140.536 9.63775 141.585 9.76837 142.548 10.0177C142.082 16.3258 136.94 23.2287 130.385 23.2287C124.546 23.2299 119.833 17.7519 118.539 12.0982Z" fill="black"/>
</g>
</g>
<defs>
<filter id="filter0_i_10_55" x="1.34998" y="0" width="142.65" height="44.04" filterUnits="userSpaceOnUse" color-interpolation-filters="sRGB">
<feFlood flood-opacity="0" result="BackgroundImageFix"/>
<feBlend mode="normal" in="SourceGraphic" in2="BackgroundImageFix" result="shape"/>
<feColorMatrix in="SourceAlpha" type="matrix" values="0 0 0 0 0 0 0 0 0 0 0 0 0 0 0 0 0 0 127 0" result="hardAlpha"/>
<feOffset dy="4"/>
<feGaussianBlur stdDeviation="2"/>
<feComposite in2="hardAlpha" operator="arithmetic" k2="-1" k3="1"/>
<feColorMatrix type="matrix" values="0 0 0 0 0 0 0 0 0 0 0 0 0 0 0 0 0 0 0.25 0"/>
<feBlend mode="normal" in2="shape" result="effect1_innerShadow_10_55"/>
</filter>
<clipPath id="clip0_10_55">
<rect width="27" height="38" fill="white" transform="translate(117)"/>
</clipPath>
</defs>
</svg>
