<svg width="271" height="65" viewBox="0 0 271 65" fill="none" xmlns="http://www.w3.org/2000/svg">
<path d="M70.365 13.705C70.365 12.935 70.15 12.37 69.72 12.01C69.29 11.64 68.71 11.455 67.98 11.455C67.77 11.455 67.56 11.46 67.35 11.47C67.15 11.47 66.95 11.47 66.75 11.47C66.67 11.47 66.59 11.505 66.51 11.575C66.43 11.635 66.39 11.705 66.39 11.785V16C66.59 16.15 66.84 16.24 67.14 16.27C67.44 16.3 67.71 16.315 67.95 16.315C68.79 16.315 69.4 16.085 69.78 15.625C70.17 15.155 70.365 14.515 70.365 13.705ZM72.18 13.66C72.18 14.32 72.06 14.86 71.82 15.28C71.58 15.69 71.255 16.01 70.845 16.24C70.445 16.46 69.99 16.615 69.48 16.705C68.97 16.795 68.44 16.84 67.89 16.84C67.64 16.84 67.39 16.825 67.14 16.795C66.9 16.765 66.655 16.735 66.405 16.705C66.405 17.445 66.405 18.185 66.405 18.925C66.405 19.665 66.405 20.405 66.405 21.145C66.405 21.295 66.46 21.395 66.57 21.445C66.69 21.485 66.81 21.505 66.93 21.505C67.07 21.505 67.205 21.5 67.335 21.49C67.465 21.48 67.595 21.475 67.725 21.475C67.865 21.475 67.935 21.56 67.935 21.73C67.935 21.79 67.91 21.85 67.86 21.91C67.82 21.97 67.765 22 67.695 22C67.385 22 67.065 21.995 66.735 21.985C66.415 21.965 66.095 21.955 65.775 21.955C65.395 21.955 65.01 21.965 64.62 21.985C64.23 21.995 63.845 22.01 63.465 22.03C63.395 22 63.35 21.98 63.33 21.97C63.31 21.95 63.3 21.89 63.3 21.79C63.3 21.72 63.315 21.66 63.345 21.61C63.385 21.56 63.445 21.535 63.525 21.535C63.615 21.535 63.705 21.54 63.795 21.55C63.895 21.55 63.99 21.55 64.08 21.55C64.14 21.55 64.2 21.55 64.26 21.55C64.32 21.54 64.38 21.53 64.44 21.52C64.52 21.49 64.575 21.45 64.605 21.4C64.635 21.34 64.655 21.27 64.665 21.19C64.675 21.05 64.675 20.91 64.665 20.77C64.665 20.63 64.665 20.495 64.665 20.365C64.675 20.075 64.68 19.785 64.68 19.495C64.68 19.205 64.68 18.915 64.68 18.625C64.68 17.485 64.675 16.345 64.665 15.205C64.665 14.065 64.665 12.925 64.665 11.785C64.665 11.615 64.59 11.515 64.44 11.485C64.3 11.445 64.165 11.425 64.035 11.425C63.945 11.425 63.855 11.43 63.765 11.44C63.675 11.45 63.585 11.455 63.495 11.455C63.365 11.455 63.3 11.385 63.3 11.245C63.3 11.165 63.31 11.1 63.33 11.05C63.35 11 63.41 10.975 63.51 10.975C63.84 10.975 64.17 10.985 64.5 11.005C64.83 11.025 65.16 11.035 65.49 11.035C66.01 11.035 66.525 11.025 67.035 11.005C67.555 10.985 68.07 10.975 68.58 10.975C69.01 10.975 69.435 11.02 69.855 11.11C70.285 11.2 70.675 11.35 71.025 11.56C71.375 11.77 71.655 12.05 71.865 12.4C72.075 12.74 72.18 13.16 72.18 13.66ZM77.6854 20.26C77.6654 19.82 77.6504 19.375 77.6404 18.925C77.6404 18.475 77.6304 18.03 77.6104 17.59H77.4754C77.1654 17.59 76.8304 17.64 76.4704 17.74C76.1104 17.83 75.7704 17.97 75.4504 18.16C75.1304 18.35 74.8654 18.585 74.6554 18.865C74.4554 19.145 74.3554 19.465 74.3554 19.825C74.3554 20.265 74.4704 20.615 74.7004 20.875C74.9404 21.125 75.2854 21.25 75.7354 21.25C75.9354 21.25 76.1604 21.195 76.4104 21.085C76.6604 20.975 76.9004 20.845 77.1304 20.695C77.3604 20.535 77.5454 20.39 77.6854 20.26ZM80.4604 21.22C80.4604 21.29 80.4254 21.375 80.3554 21.475C80.2954 21.565 80.2404 21.635 80.1904 21.685C80.0604 21.805 79.9104 21.89 79.7404 21.94C79.5704 21.98 79.4004 22 79.2304 22C78.8204 22 78.5054 21.9 78.2854 21.7C78.0654 21.5 77.9004 21.215 77.7904 20.845C77.4204 21.175 77.0054 21.45 76.5454 21.67C76.0954 21.89 75.6154 22 75.1054 22C74.7154 22 74.3554 21.93 74.0254 21.79C73.6954 21.64 73.4254 21.42 73.2154 21.13C73.0154 20.84 72.9154 20.49 72.9154 20.08C72.9154 19.68 73.0154 19.33 73.2154 19.03C73.4154 18.73 73.6704 18.475 73.9804 18.265C74.2904 18.055 74.6104 17.885 74.9404 17.755C75.3704 17.575 75.8104 17.445 76.2604 17.365C76.7204 17.275 77.1754 17.19 77.6254 17.11C77.6154 16.81 77.6004 16.475 77.5804 16.105C77.5604 15.735 77.4804 15.415 77.3404 15.145C77.2404 14.935 77.0854 14.745 76.8754 14.575C76.6754 14.395 76.4504 14.305 76.2004 14.305C75.7804 14.305 75.4354 14.425 75.1654 14.665C74.8954 14.905 74.7204 15.23 74.6404 15.64C74.6304 15.71 74.6254 15.785 74.6254 15.865C74.6254 15.945 74.6154 16.015 74.5954 16.075C74.5754 16.145 74.5154 16.2 74.4154 16.24C74.3254 16.28 74.2454 16.3 74.1754 16.3C73.9554 16.3 73.7654 16.245 73.6054 16.135C73.4554 16.015 73.3804 15.835 73.3804 15.595C73.3804 15.465 73.4004 15.355 73.4404 15.265C73.5004 15.095 73.6054 14.935 73.7554 14.785C73.9154 14.625 74.0904 14.49 74.2804 14.38C74.4804 14.26 74.6604 14.175 74.8204 14.125C75.0404 14.055 75.2854 14 75.5554 13.96C75.8254 13.91 76.0704 13.885 76.2904 13.885C76.8204 13.885 77.2954 14 77.7154 14.23C78.1454 14.45 78.4804 14.76 78.7204 15.16C78.9704 15.56 79.0954 16.035 79.0954 16.585V17.05C79.0954 17.63 79.0904 18.21 79.0804 18.79C79.0804 19.36 79.0954 19.935 79.1254 20.515C79.1454 20.705 79.1854 20.89 79.2454 21.07C79.3054 21.24 79.4554 21.325 79.6954 21.325C79.8154 21.325 79.9304 21.295 80.0404 21.235C80.1604 21.175 80.2654 21.145 80.3554 21.145C80.4254 21.145 80.4604 21.17 80.4604 21.22ZM86.7745 19.78C86.7745 20.23 86.6745 20.6 86.4745 20.89C86.2745 21.18 86.0095 21.405 85.6795 21.565C85.3595 21.725 85.0095 21.84 84.6295 21.91C84.2495 21.97 83.8745 22 83.5045 22C83.3145 22 83.1245 21.985 82.9345 21.955C82.7545 21.925 82.5745 21.895 82.3945 21.865C82.2445 21.835 82.0895 21.815 81.9295 21.805C81.7795 21.795 81.6345 21.77 81.4945 21.73C81.4245 21.49 81.3595 21.25 81.2995 21.01C81.2495 20.76 81.1845 20.52 81.1045 20.29C81.0945 20.24 81.0645 20.155 81.0145 20.035C80.9745 19.905 80.9545 19.82 80.9545 19.78C80.9545 19.68 80.9995 19.615 81.0895 19.585C81.1895 19.555 81.2745 19.54 81.3445 19.54C81.3945 19.54 81.4395 19.56 81.4795 19.6C81.5295 19.64 81.5645 19.68 81.5845 19.72C81.6345 19.79 81.6745 19.865 81.7045 19.945C81.7345 20.025 81.7695 20.105 81.8095 20.185C81.8795 20.305 81.9445 20.425 82.0045 20.545C82.0745 20.655 82.1595 20.755 82.2595 20.845C82.4395 21.025 82.6495 21.175 82.8895 21.295C83.1395 21.405 83.3895 21.46 83.6395 21.46C84.1095 21.46 84.4945 21.37 84.7945 21.19C85.1045 21 85.2595 20.645 85.2595 20.125C85.2595 19.815 85.1595 19.555 84.9595 19.345C84.7695 19.125 84.5195 18.935 84.2095 18.775C83.8995 18.605 83.5695 18.445 83.2195 18.295C82.8795 18.135 82.5545 17.96 82.2445 17.77C81.9345 17.57 81.6795 17.335 81.4795 17.065C81.2895 16.785 81.1945 16.445 81.1945 16.045C81.1945 15.555 81.3245 15.15 81.5845 14.83C81.8445 14.51 82.1745 14.275 82.5745 14.125C82.9845 13.965 83.4045 13.885 83.8345 13.885C84.1245 13.885 84.3845 13.92 84.6145 13.99C84.8545 14.05 85.1095 14.13 85.3795 14.23C85.4995 14.27 85.6395 14.29 85.7995 14.29C85.8495 14.29 85.8995 14.29 85.9495 14.29C86.0095 14.29 86.0645 14.285 86.1145 14.275C86.1445 14.535 86.1795 14.805 86.2195 15.085C86.2695 15.355 86.2945 15.62 86.2945 15.88C86.2945 15.98 86.2645 16.07 86.2045 16.15C86.1445 16.22 86.0595 16.255 85.9495 16.255C85.7795 16.255 85.6645 16.185 85.6045 16.045C85.5645 15.955 85.5295 15.86 85.4995 15.76C85.4795 15.66 85.4545 15.56 85.4245 15.46C85.3045 15.13 85.0895 14.86 84.7795 14.65C84.4695 14.44 84.1395 14.335 83.7895 14.335C83.3195 14.335 82.9895 14.48 82.7995 14.77C82.6095 15.05 82.5145 15.405 82.5145 15.835C82.5145 15.995 82.5495 16.14 82.6195 16.27C82.6895 16.4 82.7795 16.52 82.8895 16.63C82.9895 16.73 83.0995 16.815 83.2195 16.885C83.3395 16.955 83.4645 17.02 83.5945 17.08C83.8845 17.21 84.2095 17.355 84.5695 17.515C84.9395 17.665 85.2895 17.84 85.6195 18.04C85.9595 18.24 86.2345 18.485 86.4445 18.775C86.6645 19.055 86.7745 19.39 86.7745 19.78ZM93.4689 19.78C93.4689 20.23 93.3689 20.6 93.1689 20.89C92.9689 21.18 92.7039 21.405 92.3739 21.565C92.0539 21.725 91.7039 21.84 91.3239 21.91C90.9439 21.97 90.5689 22 90.1989 22C90.0089 22 89.8189 21.985 89.6289 21.955C89.4489 21.925 89.2689 21.895 89.0889 21.865C88.9389 21.835 88.7839 21.815 88.6239 21.805C88.4739 21.795 88.3289 21.77 88.1889 21.73C88.1189 21.49 88.0539 21.25 87.9939 21.01C87.9439 20.76 87.8789 20.52 87.7989 20.29C87.7889 20.24 87.7589 20.155 87.7089 20.035C87.6689 19.905 87.6489 19.82 87.6489 19.78C87.6489 19.68 87.6939 19.615 87.7839 19.585C87.8839 19.555 87.9689 19.54 88.0389 19.54C88.0889 19.54 88.1339 19.56 88.1739 19.6C88.2239 19.64 88.2589 19.68 88.2789 19.72C88.3289 19.79 88.3689 19.865 88.3989 19.945C88.4289 20.025 88.4639 20.105 88.5039 20.185C88.5739 20.305 88.6389 20.425 88.6989 20.545C88.7689 20.655 88.8539 20.755 88.9539 20.845C89.1339 21.025 89.3439 21.175 89.5839 21.295C89.8339 21.405 90.0839 21.46 90.3339 21.46C90.8039 21.46 91.1889 21.37 91.4889 21.19C91.7989 21 91.9539 20.645 91.9539 20.125C91.9539 19.815 91.8539 19.555 91.6539 19.345C91.4639 19.125 91.2139 18.935 90.9039 18.775C90.5939 18.605 90.2639 18.445 89.9139 18.295C89.5739 18.135 89.2489 17.96 88.9389 17.77C88.6289 17.57 88.3739 17.335 88.1739 17.065C87.9839 16.785 87.8889 16.445 87.8889 16.045C87.8889 15.555 88.0189 15.15 88.2789 14.83C88.5389 14.51 88.8689 14.275 89.2689 14.125C89.6789 13.965 90.0989 13.885 90.5289 13.885C90.8189 13.885 91.0789 13.92 91.3089 13.99C91.5489 14.05 91.8039 14.13 92.0739 14.23C92.1939 14.27 92.3339 14.29 92.4939 14.29C92.5439 14.29 92.5939 14.29 92.6439 14.29C92.7039 14.29 92.7589 14.285 92.8089 14.275C92.8389 14.535 92.8739 14.805 92.9139 15.085C92.9639 15.355 92.9889 15.62 92.9889 15.88C92.9889 15.98 92.9589 16.07 92.8989 16.15C92.8389 16.22 92.7539 16.255 92.6439 16.255C92.4739 16.255 92.3589 16.185 92.2989 16.045C92.2589 15.955 92.2239 15.86 92.1939 15.76C92.1739 15.66 92.1489 15.56 92.1189 15.46C91.9989 15.13 91.7839 14.86 91.4739 14.65C91.1639 14.44 90.8339 14.335 90.4839 14.335C90.0139 14.335 89.6839 14.48 89.4939 14.77C89.3039 15.05 89.2089 15.405 89.2089 15.835C89.2089 15.995 89.2439 16.14 89.3139 16.27C89.3839 16.4 89.4739 16.52 89.5839 16.63C89.6839 16.73 89.7939 16.815 89.9139 16.885C90.0339 16.955 90.1589 17.02 90.2889 17.08C90.5789 17.21 90.9039 17.355 91.2639 17.515C91.6339 17.665 91.9839 17.84 92.3139 18.04C92.6539 18.24 92.9289 18.485 93.1389 18.775C93.3589 19.055 93.4689 19.39 93.4689 19.78ZM106.718 14.08C106.718 14.23 106.658 14.31 106.538 14.32C106.418 14.32 106.303 14.32 106.193 14.32C106.083 14.32 105.983 14.34 105.893 14.38C105.803 14.41 105.733 14.48 105.683 14.59C105.653 14.67 105.623 14.76 105.593 14.86C105.563 14.96 105.538 15.055 105.518 15.145C105.448 15.365 105.373 15.59 105.293 15.82C105.223 16.04 105.153 16.265 105.083 16.495C104.803 17.405 104.518 18.32 104.228 19.24C103.938 20.15 103.638 21.06 103.328 21.97L101.888 22.015C101.608 21.045 101.318 20.08 101.018 19.12C100.728 18.15 100.438 17.18 100.148 16.21C99.8582 17.18 99.5532 18.145 99.2332 19.105C98.9132 20.065 98.5882 21.02 98.2582 21.97L96.7582 22.015C96.5482 21.225 96.3482 20.435 96.1582 19.645C95.9782 18.845 95.7882 18.05 95.5882 17.26C95.5182 17 95.4532 16.74 95.3932 16.48C95.3332 16.21 95.2682 15.945 95.1982 15.685C95.1582 15.565 95.1232 15.445 95.0932 15.325C95.0732 15.195 95.0382 15.07 94.9882 14.95C94.9682 14.89 94.9432 14.825 94.9132 14.755C94.8832 14.675 94.8432 14.615 94.7932 14.575C94.7532 14.535 94.7082 14.51 94.6582 14.5C94.6082 14.49 94.5582 14.485 94.5082 14.485C94.4382 14.485 94.3682 14.49 94.2982 14.5C94.2282 14.51 94.1532 14.515 94.0732 14.515C94.0332 14.515 93.9932 14.495 93.9532 14.455C93.9132 14.415 93.8932 14.375 93.8932 14.335C93.8932 14.255 93.9032 14.205 93.9232 14.185C93.9532 14.155 94.0032 14.135 94.0732 14.125C94.1232 14.115 94.1782 14.11 94.2382 14.11C94.3082 14.11 94.3732 14.105 94.4332 14.095C94.5832 14.075 94.7332 14.055 94.8832 14.035C95.0432 14.015 95.2032 13.995 95.3632 13.975C95.4832 13.955 95.6082 13.935 95.7382 13.915C95.8682 13.895 95.9982 13.885 96.1282 13.885C96.2082 13.885 96.2632 13.905 96.2932 13.945C96.3232 13.975 96.3482 14.02 96.3682 14.08C96.4082 14.18 96.4382 14.295 96.4582 14.425C96.4782 14.555 96.5032 14.675 96.5332 14.785L96.8932 16.375C97.0632 17.135 97.2332 17.895 97.4032 18.655C97.5732 19.415 97.7382 20.18 97.8982 20.95C98.1482 20.17 98.3882 19.395 98.6182 18.625C98.8582 17.845 99.0982 17.065 99.3382 16.285C99.4182 16.045 99.4882 15.805 99.5482 15.565C99.6182 15.315 99.6882 15.07 99.7582 14.83C99.7782 14.72 99.7982 14.605 99.8182 14.485C99.8482 14.365 99.8832 14.25 99.9232 14.14C99.9732 14.01 100.088 13.945 100.268 13.945C100.448 13.935 100.593 13.93 100.703 13.93C100.763 13.93 100.813 13.935 100.853 13.945C100.903 13.955 100.948 13.99 100.988 14.05C101.008 14.08 101.048 14.195 101.108 14.395C101.168 14.595 101.233 14.825 101.303 15.085C101.373 15.335 101.433 15.56 101.483 15.76C101.533 15.95 101.563 16.06 101.573 16.09C101.803 16.9 102.028 17.715 102.248 18.535C102.478 19.345 102.708 20.155 102.938 20.965C103.288 19.925 103.608 18.875 103.898 17.815C104.198 16.745 104.468 15.675 104.708 14.605C104.718 14.585 104.723 14.55 104.723 14.5C104.723 14.39 104.688 14.33 104.618 14.32C104.548 14.3 104.468 14.29 104.378 14.29C104.308 14.29 104.233 14.295 104.153 14.305C104.073 14.305 103.993 14.305 103.913 14.305C103.753 14.305 103.673 14.23 103.673 14.08C103.673 14.02 103.698 13.975 103.748 13.945C103.798 13.915 103.853 13.9 103.913 13.9C104.133 13.9 104.353 13.905 104.573 13.915C104.803 13.915 105.028 13.915 105.248 13.915C105.458 13.915 105.663 13.915 105.863 13.915C106.073 13.905 106.283 13.9 106.493 13.9C106.543 13.9 106.593 13.915 106.643 13.945C106.693 13.975 106.718 14.02 106.718 14.08ZM113.657 18.01C113.657 17.6 113.627 17.18 113.567 16.75C113.507 16.32 113.392 15.92 113.222 15.55C113.052 15.18 112.807 14.885 112.487 14.665C112.177 14.435 111.762 14.32 111.242 14.32C110.762 14.32 110.367 14.44 110.057 14.68C109.757 14.92 109.527 15.235 109.367 15.625C109.207 16.005 109.092 16.41 109.022 16.84C108.962 17.26 108.932 17.66 108.932 18.04C108.932 18.46 108.962 18.88 109.022 19.3C109.092 19.71 109.212 20.09 109.382 20.44C109.552 20.79 109.797 21.07 110.117 21.28C110.437 21.49 110.852 21.595 111.362 21.595C111.862 21.595 112.262 21.485 112.562 21.265C112.872 21.045 113.102 20.755 113.252 20.395C113.412 20.035 113.517 19.645 113.567 19.225C113.627 18.805 113.657 18.4 113.657 18.01ZM115.367 18.07C115.367 18.83 115.182 19.51 114.812 20.11C114.452 20.71 113.962 21.185 113.342 21.535C112.732 21.875 112.047 22.045 111.287 22.045C110.537 22.045 109.862 21.875 109.262 21.535C108.662 21.185 108.182 20.71 107.822 20.11C107.472 19.51 107.297 18.84 107.297 18.1C107.297 17.33 107.472 16.625 107.822 15.985C108.172 15.345 108.652 14.835 109.262 14.455C109.872 14.065 110.567 13.87 111.347 13.87C112.207 13.87 112.932 14.045 113.522 14.395C114.122 14.745 114.577 15.235 114.887 15.865C115.207 16.495 115.367 17.23 115.367 18.07ZM122.583 15.28C122.583 15.42 122.538 15.53 122.448 15.61C122.358 15.69 122.243 15.73 122.103 15.73C121.923 15.73 121.793 15.68 121.713 15.58C121.643 15.48 121.583 15.365 121.533 15.235C121.493 15.105 121.433 14.99 121.353 14.89C121.283 14.79 121.153 14.74 120.963 14.74C120.773 14.74 120.568 14.825 120.348 14.995C120.138 15.165 119.938 15.375 119.748 15.625C119.558 15.875 119.398 16.125 119.268 16.375C119.148 16.625 119.083 16.83 119.073 16.99C119.063 17.2 119.058 17.415 119.058 17.635C119.058 17.845 119.058 18.055 119.058 18.265C119.058 18.745 119.058 19.23 119.058 19.72C119.068 20.2 119.073 20.68 119.073 21.16C119.073 21.29 119.133 21.39 119.253 21.46C119.373 21.52 119.488 21.55 119.598 21.55C119.698 21.55 119.793 21.545 119.883 21.535C119.973 21.525 120.068 21.52 120.168 21.52C120.218 21.52 120.263 21.545 120.303 21.595C120.343 21.645 120.363 21.69 120.363 21.73C120.363 21.79 120.338 21.855 120.288 21.925C120.248 21.985 120.198 22.015 120.138 22.015C119.818 22.015 119.498 22.01 119.178 22C118.858 21.98 118.538 21.97 118.218 21.97C117.908 21.97 117.598 21.975 117.288 21.985C116.978 21.995 116.663 22 116.343 22C116.293 22 116.248 21.97 116.208 21.91C116.178 21.85 116.163 21.8 116.163 21.76C116.163 21.63 116.213 21.555 116.313 21.535C116.423 21.515 116.543 21.51 116.673 21.52C116.803 21.53 116.923 21.535 117.033 21.535C117.313 21.535 117.458 21.405 117.468 21.145C117.498 20.685 117.513 20.225 117.513 19.765C117.513 19.305 117.513 18.845 117.513 18.385V17.275C117.513 16.925 117.508 16.575 117.498 16.225C117.498 15.875 117.483 15.525 117.453 15.175C117.443 15.005 117.398 14.88 117.318 14.8C117.238 14.71 117.108 14.665 116.928 14.665C116.848 14.665 116.768 14.675 116.688 14.695C116.608 14.715 116.528 14.725 116.448 14.725C116.288 14.725 116.208 14.655 116.208 14.515C116.208 14.425 116.253 14.365 116.343 14.335C116.443 14.295 116.548 14.27 116.658 14.26C116.778 14.25 116.888 14.235 116.988 14.215C117.388 14.155 117.773 14.08 118.143 13.99C118.173 13.99 118.258 13.975 118.398 13.945C118.538 13.905 118.613 13.885 118.623 13.885C118.763 13.885 118.868 13.945 118.938 14.065C118.958 14.095 118.973 14.19 118.983 14.35C118.993 14.51 118.998 14.695 118.998 14.905C118.998 15.105 118.998 15.295 118.998 15.475C118.998 15.645 118.998 15.76 118.998 15.82C119.218 15.48 119.463 15.16 119.733 14.86C120.013 14.56 120.323 14.315 120.663 14.125C121.013 13.935 121.403 13.84 121.833 13.84C122.113 13.84 122.288 13.915 122.358 14.065C122.438 14.205 122.493 14.39 122.523 14.62C122.543 14.72 122.558 14.83 122.568 14.95C122.578 15.06 122.583 15.17 122.583 15.28ZM128.783 16.405C128.783 16.085 128.723 15.78 128.603 15.49C128.483 15.2 128.303 14.96 128.063 14.77C127.833 14.58 127.543 14.485 127.193 14.485C126.733 14.485 126.348 14.605 126.038 14.845C125.738 15.075 125.503 15.38 125.333 15.76C125.163 16.13 125.043 16.525 124.973 16.945C124.903 17.365 124.868 17.76 124.868 18.13C124.868 18.46 124.898 18.815 124.958 19.195C125.018 19.565 125.123 19.92 125.273 20.26C125.433 20.6 125.643 20.875 125.903 21.085C126.173 21.295 126.518 21.4 126.938 21.4C127.138 21.4 127.343 21.34 127.553 21.22C127.773 21.1 127.953 20.97 128.093 20.83C128.313 20.62 128.483 20.385 128.603 20.125C128.723 19.855 128.783 19.57 128.783 19.27V16.405ZM131.678 21.415C131.678 21.545 131.583 21.655 131.393 21.745C131.203 21.835 130.993 21.905 130.763 21.955C130.543 22.005 130.383 22.03 130.283 22.03C129.893 22.03 129.598 21.9 129.398 21.64C129.198 21.38 129.033 21.09 128.903 20.77C128.683 21.11 128.388 21.395 128.018 21.625C127.658 21.845 127.273 21.955 126.863 21.955C126.553 21.955 126.228 21.93 125.888 21.88C125.558 21.83 125.263 21.725 125.003 21.565C124.433 21.205 123.998 20.72 123.698 20.11C123.408 19.5 123.263 18.865 123.263 18.205C123.263 17.405 123.413 16.69 123.713 16.06C124.013 15.42 124.453 14.915 125.033 14.545C125.623 14.175 126.333 13.99 127.163 13.99C127.393 13.99 127.668 14.05 127.988 14.17C128.308 14.28 128.563 14.405 128.753 14.545V11.8C128.753 11.5 128.688 11.33 128.558 11.29C128.428 11.25 128.233 11.23 127.973 11.23C127.873 11.23 127.778 11.235 127.688 11.245C127.598 11.245 127.503 11.245 127.403 11.245C127.363 11.245 127.308 11.23 127.238 11.2C127.178 11.16 127.148 11.115 127.148 11.065C127.148 10.985 127.178 10.935 127.238 10.915C127.298 10.885 127.358 10.865 127.418 10.855C127.638 10.805 127.853 10.77 128.063 10.75C128.283 10.72 128.498 10.69 128.708 10.66C128.928 10.62 129.143 10.58 129.353 10.54C129.563 10.49 129.773 10.435 129.983 10.375C130.013 10.365 130.053 10.36 130.103 10.36C130.253 10.36 130.328 10.425 130.328 10.555C130.328 11.745 130.323 12.94 130.313 14.14C130.303 15.33 130.298 16.52 130.298 17.71V20.23C130.298 20.39 130.313 20.56 130.343 20.74C130.383 20.91 130.453 21.055 130.553 21.175C130.663 21.295 130.818 21.355 131.018 21.355C131.118 21.355 131.213 21.34 131.303 21.31C131.393 21.27 131.473 21.25 131.543 21.25C131.593 21.25 131.628 21.27 131.648 21.31C131.668 21.34 131.678 21.375 131.678 21.415Z" fill="#686666"/>
<path d="M146.442 53.67C146.442 53.782 146.405 53.8613 146.33 53.908C146.255 53.9547 146.167 53.978 146.064 53.978C145.952 53.978 145.873 53.9593 145.826 53.922C145.789 53.8847 145.751 53.8193 145.714 53.726C145.415 52.7553 144.767 52.27 143.768 52.27H141.29V56.414C141.701 56.4047 142.111 56.4 142.522 56.4C142.942 56.3907 143.357 56.3673 143.768 56.33C144.048 56.302 144.323 56.2647 144.594 56.218C144.865 56.1713 145.135 56.1247 145.406 56.078C145.415 56.078 145.42 56.078 145.42 56.078C145.429 56.078 145.439 56.078 145.448 56.078C145.476 56.078 145.513 56.0873 145.56 56.106C145.616 56.1247 145.644 56.1527 145.644 56.19C145.644 56.2553 145.611 56.372 145.546 56.54C145.49 56.708 145.448 56.82 145.42 56.876C145.355 56.9973 145.252 57.058 145.112 57.058C145.037 57.058 144.963 57.058 144.888 57.058C144.813 57.0487 144.739 57.0393 144.664 57.03C144.281 56.9833 143.899 56.96 143.516 56.96C143.133 56.96 142.751 56.96 142.368 56.96C142.237 56.96 142.083 56.9693 141.906 56.988C141.738 57.0067 141.593 57.058 141.472 57.142C141.351 57.226 141.29 57.3613 141.29 57.548V60.81C141.29 60.9033 141.318 60.9967 141.374 61.09C141.43 61.1833 141.495 61.2627 141.57 61.328C141.701 61.44 141.859 61.5053 142.046 61.524C142.242 61.5427 142.419 61.552 142.578 61.552C142.774 61.552 142.872 61.636 142.872 61.804C142.872 61.8973 142.835 61.9627 142.76 62C142.695 62.028 142.625 62.042 142.55 62.042C142.391 62.042 142.228 62.0327 142.06 62.014C141.901 62.0047 141.743 62 141.584 62C141.397 62 141.211 62 141.024 62C140.837 62 140.651 62 140.464 62C140.147 62 139.829 62.0093 139.512 62.028C139.195 62.056 138.877 62.07 138.56 62.07C138.495 62.07 138.434 62.0513 138.378 62.014C138.322 61.986 138.294 61.9393 138.294 61.874C138.294 61.7153 138.364 61.6267 138.504 61.608C138.812 61.5613 139.05 61.5147 139.218 61.468C139.395 61.412 139.521 61.3047 139.596 61.146C139.671 60.9873 139.708 60.7353 139.708 60.39V52.83C139.708 52.6247 139.638 52.4893 139.498 52.424C139.358 52.3587 139.195 52.3307 139.008 52.34C138.821 52.34 138.663 52.34 138.532 52.34C138.439 52.34 138.355 52.3213 138.28 52.284C138.205 52.2467 138.168 52.1767 138.168 52.074C138.168 51.8687 138.266 51.766 138.462 51.766C138.63 51.766 138.798 51.7707 138.966 51.78C139.143 51.7893 139.316 51.794 139.484 51.794C139.895 51.794 140.305 51.794 140.716 51.794C141.136 51.794 141.551 51.794 141.962 51.794C142.429 51.794 142.895 51.7893 143.362 51.78C143.838 51.7613 144.305 51.752 144.762 51.752C145.219 51.752 145.672 51.738 146.12 51.71C146.176 51.99 146.241 52.3213 146.316 52.704C146.4 53.0773 146.442 53.3993 146.442 53.67ZM153.055 58.276C153.055 57.8933 153.027 57.5013 152.971 57.1C152.915 56.6987 152.808 56.3253 152.649 55.98C152.49 55.6347 152.262 55.3593 151.963 55.154C151.674 54.9393 151.286 54.832 150.801 54.832C150.353 54.832 149.984 54.944 149.695 55.168C149.415 55.392 149.2 55.686 149.051 56.05C148.902 56.4047 148.794 56.7827 148.729 57.184C148.673 57.576 148.645 57.9493 148.645 58.304C148.645 58.696 148.673 59.088 148.729 59.48C148.794 59.8627 148.906 60.2173 149.065 60.544C149.224 60.8707 149.452 61.132 149.751 61.328C150.05 61.524 150.437 61.622 150.913 61.622C151.38 61.622 151.753 61.5193 152.033 61.314C152.322 61.1087 152.537 60.838 152.677 60.502C152.826 60.166 152.924 59.802 152.971 59.41C153.027 59.018 153.055 58.64 153.055 58.276ZM154.651 58.332C154.651 59.0413 154.478 59.676 154.133 60.236C153.797 60.796 153.34 61.2393 152.761 61.566C152.192 61.8833 151.552 62.042 150.843 62.042C150.143 62.042 149.513 61.8833 148.953 61.566C148.393 61.2393 147.945 60.796 147.609 60.236C147.282 59.676 147.119 59.0507 147.119 58.36C147.119 57.6413 147.282 56.9833 147.609 56.386C147.936 55.7887 148.384 55.3127 148.953 54.958C149.522 54.594 150.171 54.412 150.899 54.412C151.702 54.412 152.378 54.5753 152.929 54.902C153.489 55.2287 153.914 55.686 154.203 56.274C154.502 56.862 154.651 57.548 154.651 58.332ZM161.387 55.728C161.387 55.8587 161.345 55.9613 161.261 56.036C161.177 56.1107 161.069 56.148 160.939 56.148C160.771 56.148 160.649 56.1013 160.575 56.008C160.509 55.9147 160.453 55.8073 160.407 55.686C160.369 55.5647 160.313 55.4573 160.239 55.364C160.173 55.2707 160.052 55.224 159.875 55.224C159.697 55.224 159.506 55.3033 159.301 55.462C159.105 55.6207 158.918 55.8167 158.741 56.05C158.563 56.2833 158.414 56.5167 158.293 56.75C158.181 56.9833 158.12 57.1747 158.111 57.324C158.101 57.52 158.097 57.7207 158.097 57.926C158.097 58.122 158.097 58.318 158.097 58.514C158.097 58.962 158.097 59.4147 158.097 59.872C158.106 60.32 158.111 60.768 158.111 61.216C158.111 61.3373 158.167 61.4307 158.279 61.496C158.391 61.552 158.498 61.58 158.601 61.58C158.694 61.58 158.783 61.5753 158.867 61.566C158.951 61.5567 159.039 61.552 159.133 61.552C159.179 61.552 159.221 61.5753 159.259 61.622C159.296 61.6687 159.315 61.7107 159.315 61.748C159.315 61.804 159.291 61.8647 159.245 61.93C159.207 61.986 159.161 62.014 159.105 62.014C158.806 62.014 158.507 62.0093 158.209 62C157.91 61.9813 157.611 61.972 157.313 61.972C157.023 61.972 156.734 61.9767 156.445 61.986C156.155 61.9953 155.861 62 155.563 62C155.516 62 155.474 61.972 155.437 61.916C155.409 61.86 155.395 61.8133 155.395 61.776C155.395 61.6547 155.441 61.5847 155.535 61.566C155.637 61.5473 155.749 61.5427 155.871 61.552C155.992 61.5613 156.104 61.566 156.207 61.566C156.468 61.566 156.603 61.4447 156.613 61.202C156.641 60.7727 156.655 60.3433 156.655 59.914C156.655 59.4847 156.655 59.0553 156.655 58.626V57.59C156.655 57.2633 156.65 56.9367 156.641 56.61C156.641 56.2833 156.627 55.9567 156.599 55.63C156.589 55.4713 156.547 55.3547 156.473 55.28C156.398 55.196 156.277 55.154 156.109 55.154C156.034 55.154 155.959 55.1633 155.885 55.182C155.81 55.2007 155.735 55.21 155.661 55.21C155.511 55.21 155.437 55.1447 155.437 55.014C155.437 54.93 155.479 54.874 155.563 54.846C155.656 54.8087 155.754 54.7853 155.857 54.776C155.969 54.7667 156.071 54.7527 156.165 54.734C156.538 54.678 156.897 54.608 157.243 54.524C157.271 54.524 157.35 54.51 157.481 54.482C157.611 54.4447 157.681 54.426 157.691 54.426C157.821 54.426 157.919 54.482 157.985 54.594C158.003 54.622 158.017 54.7107 158.027 54.86C158.036 55.0093 158.041 55.182 158.041 55.378C158.041 55.5647 158.041 55.742 158.041 55.91C158.041 56.0687 158.041 56.176 158.041 56.232C158.246 55.9147 158.475 55.616 158.727 55.336C158.988 55.056 159.277 54.8273 159.595 54.65C159.921 54.4727 160.285 54.384 160.687 54.384C160.948 54.384 161.111 54.454 161.177 54.594C161.251 54.7247 161.303 54.8973 161.331 55.112C161.349 55.2053 161.363 55.308 161.373 55.42C161.382 55.5227 161.387 55.6253 161.387 55.728ZM167.103 62.434C167.103 62.07 167.005 61.8087 166.809 61.65C166.623 61.482 166.385 61.3747 166.095 61.328C165.815 61.272 165.54 61.2347 165.269 61.216L163.799 61.104C163.613 61.3187 163.473 61.5333 163.379 61.748C163.295 61.9627 163.253 62.2193 163.253 62.518C163.253 62.9473 163.351 63.26 163.547 63.456C163.753 63.652 164.009 63.7733 164.317 63.82C164.635 63.876 164.961 63.904 165.297 63.904C165.624 63.904 165.923 63.8573 166.193 63.764C166.464 63.6707 166.683 63.5167 166.851 63.302C167.019 63.0873 167.103 62.798 167.103 62.434ZM166.417 56.848C166.417 56.652 166.403 56.4373 166.375 56.204C166.347 55.9613 166.291 55.728 166.207 55.504C166.133 55.28 166.016 55.098 165.857 54.958C165.699 54.818 165.489 54.748 165.227 54.748C164.835 54.748 164.537 54.8553 164.331 55.07C164.126 55.2847 163.986 55.5553 163.911 55.882C163.837 56.1993 163.799 56.5213 163.799 56.848C163.799 57.184 163.827 57.5153 163.883 57.842C163.949 58.1593 164.084 58.4207 164.289 58.626C164.495 58.8313 164.807 58.934 165.227 58.934C165.489 58.934 165.699 58.864 165.857 58.724C166.016 58.584 166.133 58.4067 166.207 58.192C166.291 57.968 166.347 57.7393 166.375 57.506C166.403 57.2633 166.417 57.044 166.417 56.848ZM169.063 54.58C169.063 54.7947 169.003 54.9347 168.881 55C168.769 55.0653 168.62 55.098 168.433 55.098C168.209 55.098 167.985 55.098 167.761 55.098C167.537 55.0887 167.313 55.0793 167.089 55.07C167.379 55.2847 167.584 55.56 167.705 55.896C167.827 56.232 167.887 56.5773 167.887 56.932C167.887 57.3987 167.757 57.8093 167.495 58.164C167.234 58.5187 166.898 58.794 166.487 58.99C166.086 59.186 165.666 59.284 165.227 59.284C165.087 59.284 164.947 59.2793 164.807 59.27C164.677 59.2607 164.546 59.2513 164.415 59.242C164.294 59.3353 164.163 59.452 164.023 59.592C163.893 59.732 163.827 59.886 163.827 60.054C163.827 60.1847 163.893 60.2827 164.023 60.348C164.154 60.4133 164.303 60.4553 164.471 60.474C164.639 60.4927 164.77 60.5067 164.863 60.516L166.585 60.656C166.912 60.6747 167.229 60.7353 167.537 60.838C167.845 60.9407 168.102 61.104 168.307 61.328C168.513 61.5427 168.615 61.8413 168.615 62.224C168.615 62.616 168.499 62.9473 168.265 63.218C168.041 63.498 167.752 63.7173 167.397 63.876C167.043 64.044 166.669 64.1653 166.277 64.24C165.895 64.3147 165.545 64.352 165.227 64.352C164.975 64.352 164.667 64.338 164.303 64.31C163.939 64.2913 163.58 64.2353 163.225 64.142C162.871 64.0487 162.572 63.8993 162.329 63.694C162.096 63.498 161.979 63.2227 161.979 62.868C161.979 62.504 162.105 62.168 162.357 61.86C162.609 61.5427 162.866 61.2767 163.127 61.062C163.015 61.0153 162.88 60.9407 162.721 60.838C162.563 60.7353 162.483 60.6187 162.483 60.488C162.483 60.3387 162.521 60.2173 162.595 60.124C162.679 60.0213 162.763 59.9233 162.847 59.83C162.987 59.6713 163.132 59.522 163.281 59.382C163.431 59.242 163.58 59.102 163.729 58.962C163.253 58.738 162.899 58.4533 162.665 58.108C162.432 57.7533 162.315 57.31 162.315 56.778C162.315 56.2833 162.455 55.8587 162.735 55.504C163.025 55.1493 163.389 54.8787 163.827 54.692C164.266 54.496 164.709 54.398 165.157 54.398C165.372 54.398 165.619 54.4213 165.899 54.468C166.189 54.5147 166.431 54.5893 166.627 54.692C166.674 54.7013 166.716 54.706 166.753 54.706C166.791 54.706 166.828 54.706 166.865 54.706C167.201 54.706 167.528 54.6593 167.845 54.566C168.163 54.4633 168.452 54.3093 168.713 54.104C168.732 54.0853 168.751 54.0713 168.769 54.062C168.797 54.0433 168.825 54.034 168.853 54.034C168.956 54.034 169.017 54.1087 169.035 54.258C169.054 54.398 169.063 54.5053 169.063 54.58ZM175.682 58.276C175.682 57.8933 175.654 57.5013 175.598 57.1C175.542 56.6987 175.435 56.3253 175.276 55.98C175.117 55.6347 174.889 55.3593 174.59 55.154C174.301 54.9393 173.913 54.832 173.428 54.832C172.98 54.832 172.611 54.944 172.322 55.168C172.042 55.392 171.827 55.686 171.678 56.05C171.529 56.4047 171.421 56.7827 171.356 57.184C171.3 57.576 171.272 57.9493 171.272 58.304C171.272 58.696 171.3 59.088 171.356 59.48C171.421 59.8627 171.533 60.2173 171.692 60.544C171.851 60.8707 172.079 61.132 172.378 61.328C172.677 61.524 173.064 61.622 173.54 61.622C174.007 61.622 174.38 61.5193 174.66 61.314C174.949 61.1087 175.164 60.838 175.304 60.502C175.453 60.166 175.551 59.802 175.598 59.41C175.654 59.018 175.682 58.64 175.682 58.276ZM177.278 58.332C177.278 59.0413 177.105 59.676 176.76 60.236C176.424 60.796 175.967 61.2393 175.388 61.566C174.819 61.8833 174.179 62.042 173.47 62.042C172.77 62.042 172.14 61.8833 171.58 61.566C171.02 61.2393 170.572 60.796 170.236 60.236C169.909 59.676 169.746 59.0507 169.746 58.36C169.746 57.6413 169.909 56.9833 170.236 56.386C170.563 55.7887 171.011 55.3127 171.58 54.958C172.149 54.594 172.798 54.412 173.526 54.412C174.329 54.412 175.005 54.5753 175.556 54.902C176.116 55.2287 176.541 55.686 176.83 56.274C177.129 56.862 177.278 57.548 177.278 58.332ZM183.048 61.272C183.048 61.384 182.982 61.4867 182.852 61.58C182.721 61.6733 182.562 61.7573 182.376 61.832C182.189 61.8973 182.007 61.9487 181.83 61.986C181.662 62.0233 181.531 62.042 181.438 62.042C180.952 62.042 180.57 61.986 180.29 61.874C180.01 61.7527 179.809 61.552 179.688 61.272C179.576 60.9827 179.52 60.5953 179.52 60.11C179.52 59.3353 179.524 58.556 179.534 57.772C179.543 56.988 179.552 56.204 179.562 55.42H178.946C178.908 55.42 178.871 55.42 178.834 55.42C178.806 55.42 178.768 55.4247 178.722 55.434C178.666 55.434 178.61 55.448 178.554 55.476C178.507 55.504 178.456 55.518 178.4 55.518C178.372 55.518 178.339 55.5087 178.302 55.49C178.274 55.462 178.26 55.434 178.26 55.406C178.26 55.3687 178.288 55.2893 178.344 55.168C178.409 55.0373 178.451 54.9533 178.47 54.916C178.498 54.9253 178.549 54.93 178.624 54.93H179.59L179.604 53.166C179.828 53.0353 180.028 52.8767 180.206 52.69C180.383 52.5033 180.56 52.3213 180.738 52.144C180.803 52.0973 180.864 52.074 180.92 52.074C180.957 52.074 180.999 52.0833 181.046 52.102C181.102 52.1207 181.125 52.1533 181.116 52.2L181.046 54.916C181.316 54.9067 181.587 54.8973 181.858 54.888C182.138 54.8787 182.413 54.874 182.684 54.874C182.861 54.874 182.95 54.958 182.95 55.126C182.95 55.322 182.852 55.42 182.656 55.42H181.046C181.036 56.0547 181.027 56.6893 181.018 57.324C181.018 57.9587 181.018 58.5933 181.018 59.228C181.018 59.48 181.018 59.7367 181.018 59.998C181.018 60.25 181.022 60.502 181.032 60.754C181.041 60.9593 181.125 61.1133 181.284 61.216C181.452 61.3187 181.634 61.37 181.83 61.37C182.007 61.37 182.203 61.328 182.418 61.244C182.642 61.16 182.796 61.118 182.88 61.118C182.992 61.118 183.048 61.1693 183.048 61.272ZM193.437 54.258C193.437 53.5393 193.236 53.012 192.835 52.676C192.433 52.3307 191.892 52.158 191.211 52.158C191.015 52.158 190.819 52.1627 190.623 52.172C190.436 52.172 190.249 52.172 190.062 52.172C189.988 52.172 189.913 52.2047 189.839 52.27C189.764 52.326 189.727 52.3913 189.727 52.466V56.4C189.913 56.54 190.147 56.624 190.427 56.652C190.707 56.68 190.959 56.694 191.183 56.694C191.967 56.694 192.536 56.4793 192.891 56.05C193.255 55.6113 193.437 55.014 193.437 54.258ZM195.131 54.216C195.131 54.832 195.019 55.336 194.794 55.728C194.571 56.1107 194.267 56.4093 193.885 56.624C193.511 56.8293 193.087 56.974 192.611 57.058C192.135 57.142 191.64 57.184 191.127 57.184C190.893 57.184 190.66 57.17 190.427 57.142C190.203 57.114 189.974 57.086 189.741 57.058C189.741 57.7487 189.741 58.4393 189.741 59.13C189.741 59.8207 189.741 60.5113 189.741 61.202C189.741 61.342 189.792 61.4353 189.895 61.482C190.007 61.5193 190.119 61.538 190.231 61.538C190.361 61.538 190.487 61.5333 190.609 61.524C190.73 61.5147 190.851 61.51 190.973 61.51C191.103 61.51 191.169 61.5893 191.169 61.748C191.169 61.804 191.145 61.86 191.099 61.916C191.061 61.972 191.01 62 190.945 62C190.655 62 190.357 61.9953 190.049 61.986C189.75 61.9673 189.451 61.958 189.153 61.958C188.798 61.958 188.439 61.9673 188.075 61.986C187.711 61.9953 187.351 62.0093 186.997 62.028C186.931 62 186.889 61.9813 186.871 61.972C186.852 61.9533 186.843 61.8973 186.843 61.804C186.843 61.7387 186.857 61.6827 186.885 61.636C186.922 61.5893 186.978 61.566 187.053 61.566C187.137 61.566 187.221 61.5707 187.305 61.58C187.398 61.58 187.487 61.58 187.571 61.58C187.627 61.58 187.683 61.58 187.739 61.58C187.795 61.5707 187.851 61.5613 187.907 61.552C187.981 61.524 188.033 61.4867 188.061 61.44C188.089 61.384 188.107 61.3187 188.117 61.244C188.126 61.1133 188.126 60.9827 188.117 60.852C188.117 60.7213 188.117 60.5953 188.117 60.474C188.126 60.2033 188.131 59.9327 188.131 59.662C188.131 59.3913 188.131 59.1207 188.131 58.85C188.131 57.786 188.126 56.722 188.117 55.658C188.117 54.594 188.117 53.53 188.117 52.466C188.117 52.3073 188.047 52.214 187.907 52.186C187.776 52.1487 187.65 52.13 187.529 52.13C187.445 52.13 187.361 52.1347 187.277 52.144C187.193 52.1533 187.109 52.158 187.024 52.158C186.903 52.158 186.843 52.0927 186.843 51.962C186.843 51.8873 186.852 51.8267 186.871 51.78C186.889 51.7333 186.945 51.71 187.039 51.71C187.347 51.71 187.655 51.7193 187.963 51.738C188.271 51.7567 188.579 51.766 188.887 51.766C189.372 51.766 189.853 51.7567 190.329 51.738C190.814 51.7193 191.295 51.71 191.771 51.71C192.172 51.71 192.569 51.752 192.961 51.836C193.362 51.92 193.726 52.06 194.053 52.256C194.379 52.452 194.641 52.7133 194.837 53.04C195.033 53.3573 195.131 53.7493 195.131 54.216ZM200.269 60.376C200.25 59.9653 200.236 59.55 200.227 59.13C200.227 58.71 200.217 58.2947 200.199 57.884H200.073C199.783 57.884 199.471 57.9307 199.135 58.024C198.799 58.108 198.481 58.2387 198.183 58.416C197.884 58.5933 197.637 58.8127 197.441 59.074C197.254 59.3353 197.161 59.634 197.161 59.97C197.161 60.3807 197.268 60.7073 197.483 60.95C197.707 61.1833 198.029 61.3 198.449 61.3C198.635 61.3 198.845 61.2487 199.079 61.146C199.312 61.0433 199.536 60.922 199.751 60.782C199.965 60.6327 200.138 60.4973 200.269 60.376ZM202.859 61.272C202.859 61.3373 202.826 61.4167 202.761 61.51C202.705 61.594 202.653 61.6593 202.607 61.706C202.485 61.818 202.345 61.8973 202.187 61.944C202.028 61.9813 201.869 62 201.711 62C201.328 62 201.034 61.9067 200.829 61.72C200.623 61.5333 200.469 61.2673 200.367 60.922C200.021 61.23 199.634 61.4867 199.205 61.692C198.785 61.8973 198.337 62 197.861 62C197.497 62 197.161 61.9347 196.853 61.804C196.545 61.664 196.293 61.4587 196.097 61.188C195.91 60.9173 195.817 60.5907 195.817 60.208C195.817 59.8347 195.91 59.508 196.097 59.228C196.283 58.948 196.521 58.71 196.811 58.514C197.1 58.318 197.399 58.1593 197.707 58.038C198.108 57.87 198.519 57.7487 198.939 57.674C199.368 57.59 199.793 57.5107 200.213 57.436C200.203 57.156 200.189 56.8433 200.171 56.498C200.152 56.1527 200.077 55.854 199.947 55.602C199.853 55.406 199.709 55.2287 199.513 55.07C199.326 54.902 199.116 54.818 198.883 54.818C198.491 54.818 198.169 54.93 197.917 55.154C197.665 55.378 197.501 55.6813 197.427 56.064C197.417 56.1293 197.413 56.1993 197.413 56.274C197.413 56.3487 197.403 56.414 197.385 56.47C197.366 56.5353 197.31 56.5867 197.217 56.624C197.133 56.6613 197.058 56.68 196.993 56.68C196.787 56.68 196.61 56.6287 196.461 56.526C196.321 56.414 196.251 56.246 196.251 56.022C196.251 55.9007 196.269 55.798 196.307 55.714C196.363 55.5553 196.461 55.406 196.601 55.266C196.75 55.1167 196.913 54.9907 197.091 54.888C197.277 54.776 197.445 54.6967 197.595 54.65C197.8 54.5847 198.029 54.5333 198.281 54.496C198.533 54.4493 198.761 54.426 198.967 54.426C199.461 54.426 199.905 54.5333 200.297 54.748C200.698 54.9533 201.011 55.2427 201.235 55.616C201.468 55.9893 201.585 56.4327 201.585 56.946V57.38C201.585 57.9213 201.58 58.4627 201.571 59.004C201.571 59.536 201.585 60.0727 201.613 60.614C201.631 60.7913 201.669 60.964 201.725 61.132C201.781 61.2907 201.921 61.37 202.145 61.37C202.257 61.37 202.364 61.342 202.467 61.286C202.579 61.23 202.677 61.202 202.761 61.202C202.826 61.202 202.859 61.2253 202.859 61.272ZM208.752 59.928C208.752 60.348 208.659 60.6933 208.472 60.964C208.285 61.2347 208.038 61.4447 207.73 61.594C207.431 61.7433 207.105 61.8507 206.75 61.916C206.395 61.972 206.045 62 205.7 62C205.523 62 205.345 61.986 205.168 61.958C205 61.93 204.832 61.902 204.664 61.874C204.524 61.846 204.379 61.8273 204.23 61.818C204.09 61.8087 203.955 61.7853 203.824 61.748C203.759 61.524 203.698 61.3 203.642 61.076C203.595 60.8427 203.535 60.6187 203.46 60.404C203.451 60.3573 203.423 60.278 203.376 60.166C203.339 60.0447 203.32 59.9653 203.32 59.928C203.32 59.8347 203.362 59.774 203.446 59.746C203.539 59.718 203.619 59.704 203.684 59.704C203.731 59.704 203.773 59.7227 203.81 59.76C203.857 59.7973 203.889 59.8347 203.908 59.872C203.955 59.9373 203.992 60.0073 204.02 60.082C204.048 60.1567 204.081 60.2313 204.118 60.306C204.183 60.418 204.244 60.53 204.3 60.642C204.365 60.7447 204.445 60.838 204.538 60.922C204.706 61.09 204.902 61.23 205.126 61.342C205.359 61.4447 205.593 61.496 205.826 61.496C206.265 61.496 206.624 61.412 206.904 61.244C207.193 61.0667 207.338 60.7353 207.338 60.25C207.338 59.9607 207.245 59.718 207.058 59.522C206.881 59.3167 206.647 59.1393 206.358 58.99C206.069 58.8313 205.761 58.682 205.434 58.542C205.117 58.3927 204.813 58.2293 204.524 58.052C204.235 57.8653 203.997 57.646 203.81 57.394C203.633 57.1327 203.544 56.8153 203.544 56.442C203.544 55.9847 203.665 55.6067 203.908 55.308C204.151 55.0093 204.459 54.79 204.832 54.65C205.215 54.5007 205.607 54.426 206.008 54.426C206.279 54.426 206.521 54.4587 206.736 54.524C206.96 54.58 207.198 54.6547 207.45 54.748C207.562 54.7853 207.693 54.804 207.842 54.804C207.889 54.804 207.935 54.804 207.982 54.804C208.038 54.804 208.089 54.7993 208.136 54.79C208.164 55.0327 208.197 55.2847 208.234 55.546C208.281 55.798 208.304 56.0453 208.304 56.288C208.304 56.3813 208.276 56.4653 208.22 56.54C208.164 56.6053 208.085 56.638 207.982 56.638C207.823 56.638 207.716 56.5727 207.66 56.442C207.623 56.358 207.59 56.2693 207.562 56.176C207.543 56.0827 207.52 55.9893 207.492 55.896C207.38 55.588 207.179 55.336 206.89 55.14C206.601 54.944 206.293 54.846 205.966 54.846C205.527 54.846 205.219 54.9813 205.042 55.252C204.865 55.5133 204.776 55.8447 204.776 56.246C204.776 56.3953 204.809 56.5307 204.874 56.652C204.939 56.7733 205.023 56.8853 205.126 56.988C205.219 57.0813 205.322 57.1607 205.434 57.226C205.546 57.2913 205.663 57.352 205.784 57.408C206.055 57.5293 206.358 57.6647 206.694 57.814C207.039 57.954 207.366 58.1173 207.674 58.304C207.991 58.4907 208.248 58.7193 208.444 58.99C208.649 59.2513 208.752 59.564 208.752 59.928ZM215 59.928C215 60.348 214.907 60.6933 214.72 60.964C214.533 61.2347 214.286 61.4447 213.978 61.594C213.679 61.7433 213.353 61.8507 212.998 61.916C212.643 61.972 212.293 62 211.948 62C211.771 62 211.593 61.986 211.416 61.958C211.248 61.93 211.08 61.902 210.912 61.874C210.772 61.846 210.627 61.8273 210.478 61.818C210.338 61.8087 210.203 61.7853 210.072 61.748C210.007 61.524 209.946 61.3 209.89 61.076C209.843 60.8427 209.783 60.6187 209.708 60.404C209.699 60.3573 209.671 60.278 209.624 60.166C209.587 60.0447 209.568 59.9653 209.568 59.928C209.568 59.8347 209.61 59.774 209.694 59.746C209.787 59.718 209.867 59.704 209.932 59.704C209.979 59.704 210.021 59.7227 210.058 59.76C210.105 59.7973 210.137 59.8347 210.156 59.872C210.203 59.9373 210.24 60.0073 210.268 60.082C210.296 60.1567 210.329 60.2313 210.366 60.306C210.431 60.418 210.492 60.53 210.548 60.642C210.613 60.7447 210.693 60.838 210.786 60.922C210.954 61.09 211.15 61.23 211.374 61.342C211.607 61.4447 211.841 61.496 212.074 61.496C212.513 61.496 212.872 61.412 213.152 61.244C213.441 61.0667 213.586 60.7353 213.586 60.25C213.586 59.9607 213.493 59.718 213.306 59.522C213.129 59.3167 212.895 59.1393 212.606 58.99C212.317 58.8313 212.009 58.682 211.682 58.542C211.365 58.3927 211.061 58.2293 210.772 58.052C210.483 57.8653 210.245 57.646 210.058 57.394C209.881 57.1327 209.792 56.8153 209.792 56.442C209.792 55.9847 209.913 55.6067 210.156 55.308C210.399 55.0093 210.707 54.79 211.08 54.65C211.463 54.5007 211.855 54.426 212.256 54.426C212.527 54.426 212.769 54.4587 212.984 54.524C213.208 54.58 213.446 54.6547 213.698 54.748C213.81 54.7853 213.941 54.804 214.09 54.804C214.137 54.804 214.183 54.804 214.23 54.804C214.286 54.804 214.337 54.7993 214.384 54.79C214.412 55.0327 214.445 55.2847 214.482 55.546C214.529 55.798 214.552 56.0453 214.552 56.288C214.552 56.3813 214.524 56.4653 214.468 56.54C214.412 56.6053 214.333 56.638 214.23 56.638C214.071 56.638 213.964 56.5727 213.908 56.442C213.871 56.358 213.838 56.2693 213.81 56.176C213.791 56.0827 213.768 55.9893 213.74 55.896C213.628 55.588 213.427 55.336 213.138 55.14C212.849 54.944 212.541 54.846 212.214 54.846C211.775 54.846 211.467 54.9813 211.29 55.252C211.113 55.5133 211.024 55.8447 211.024 56.246C211.024 56.3953 211.057 56.5307 211.122 56.652C211.187 56.7733 211.271 56.8853 211.374 56.988C211.467 57.0813 211.57 57.1607 211.682 57.226C211.794 57.2913 211.911 57.352 212.032 57.408C212.303 57.5293 212.606 57.6647 212.942 57.814C213.287 57.954 213.614 58.1173 213.922 58.304C214.239 58.4907 214.496 58.7193 214.692 58.99C214.897 59.2513 215 59.564 215 59.928ZM221.248 59.928C221.248 60.348 221.155 60.6933 220.968 60.964C220.781 61.2347 220.534 61.4447 220.226 61.594C219.927 61.7433 219.601 61.8507 219.246 61.916C218.891 61.972 218.541 62 218.196 62C218.019 62 217.841 61.986 217.664 61.958C217.496 61.93 217.328 61.902 217.16 61.874C217.02 61.846 216.875 61.8273 216.726 61.818C216.586 61.8087 216.451 61.7853 216.32 61.748C216.255 61.524 216.194 61.3 216.138 61.076C216.091 60.8427 216.031 60.6187 215.956 60.404C215.947 60.3573 215.919 60.278 215.872 60.166C215.835 60.0447 215.816 59.9653 215.816 59.928C215.816 59.8347 215.858 59.774 215.942 59.746C216.035 59.718 216.115 59.704 216.18 59.704C216.227 59.704 216.269 59.7227 216.306 59.76C216.353 59.7973 216.385 59.8347 216.404 59.872C216.451 59.9373 216.488 60.0073 216.516 60.082C216.544 60.1567 216.577 60.2313 216.614 60.306C216.679 60.418 216.74 60.53 216.796 60.642C216.861 60.7447 216.941 60.838 217.034 60.922C217.202 61.09 217.398 61.23 217.622 61.342C217.855 61.4447 218.089 61.496 218.322 61.496C218.761 61.496 219.12 61.412 219.4 61.244C219.689 61.0667 219.834 60.7353 219.834 60.25C219.834 59.9607 219.741 59.718 219.554 59.522C219.377 59.3167 219.143 59.1393 218.854 58.99C218.565 58.8313 218.257 58.682 217.93 58.542C217.613 58.3927 217.309 58.2293 217.02 58.052C216.731 57.8653 216.493 57.646 216.306 57.394C216.129 57.1327 216.04 56.8153 216.04 56.442C216.04 55.9847 216.161 55.6067 216.404 55.308C216.647 55.0093 216.955 54.79 217.328 54.65C217.711 54.5007 218.103 54.426 218.504 54.426C218.775 54.426 219.017 54.4587 219.232 54.524C219.456 54.58 219.694 54.6547 219.946 54.748C220.058 54.7853 220.189 54.804 220.338 54.804C220.385 54.804 220.431 54.804 220.478 54.804C220.534 54.804 220.585 54.7993 220.632 54.79C220.66 55.0327 220.693 55.2847 220.73 55.546C220.777 55.798 220.8 56.0453 220.8 56.288C220.8 56.3813 220.772 56.4653 220.716 56.54C220.66 56.6053 220.581 56.638 220.478 56.638C220.319 56.638 220.212 56.5727 220.156 56.442C220.119 56.358 220.086 56.2693 220.058 56.176C220.039 56.0827 220.016 55.9893 219.988 55.896C219.876 55.588 219.675 55.336 219.386 55.14C219.097 54.944 218.789 54.846 218.462 54.846C218.023 54.846 217.715 54.9813 217.538 55.252C217.361 55.5133 217.272 55.8447 217.272 56.246C217.272 56.3953 217.305 56.5307 217.37 56.652C217.435 56.7733 217.519 56.8853 217.622 56.988C217.715 57.0813 217.818 57.1607 217.93 57.226C218.042 57.2913 218.159 57.352 218.28 57.408C218.551 57.5293 218.854 57.6647 219.19 57.814C219.535 57.954 219.862 58.1173 220.17 58.304C220.487 58.4907 220.744 58.7193 220.94 58.99C221.145 59.2513 221.248 59.564 221.248 59.928ZM233.614 54.608C233.614 54.748 233.558 54.8227 233.446 54.832C233.334 54.832 233.227 54.832 233.124 54.832C233.022 54.832 232.928 54.8507 232.844 54.888C232.76 54.916 232.695 54.9813 232.648 55.084C232.62 55.1587 232.592 55.2427 232.564 55.336C232.536 55.4293 232.513 55.518 232.494 55.602C232.429 55.8073 232.359 56.0173 232.284 56.232C232.219 56.4373 232.154 56.6473 232.088 56.862C231.827 57.7113 231.561 58.5653 231.29 59.424C231.02 60.2733 230.74 61.1227 230.45 61.972L229.106 62.014C228.845 61.1087 228.574 60.208 228.294 59.312C228.024 58.4067 227.753 57.5013 227.482 56.596C227.212 57.5013 226.927 58.402 226.628 59.298C226.33 60.194 226.026 61.0853 225.718 61.972L224.318 62.014C224.122 61.2767 223.936 60.5393 223.758 59.802C223.59 59.0553 223.413 58.3133 223.226 57.576C223.161 57.3333 223.1 57.0907 223.044 56.848C222.988 56.596 222.928 56.3487 222.862 56.106C222.825 55.994 222.792 55.882 222.764 55.77C222.746 55.6487 222.713 55.532 222.666 55.42C222.648 55.364 222.624 55.3033 222.596 55.238C222.568 55.1633 222.531 55.1073 222.484 55.07C222.447 55.0327 222.405 55.0093 222.358 55C222.312 54.9907 222.265 54.986 222.218 54.986C222.153 54.986 222.088 54.9907 222.022 55C221.957 55.0093 221.887 55.014 221.812 55.014C221.775 55.014 221.738 54.9953 221.7 54.958C221.663 54.9207 221.644 54.8833 221.644 54.846C221.644 54.7713 221.654 54.7247 221.672 54.706C221.7 54.678 221.747 54.6593 221.812 54.65C221.859 54.6407 221.91 54.636 221.966 54.636C222.032 54.636 222.092 54.6313 222.148 54.622C222.288 54.6033 222.428 54.5847 222.568 54.566C222.718 54.5473 222.867 54.5287 223.016 54.51C223.128 54.4913 223.245 54.4727 223.366 54.454C223.488 54.4353 223.609 54.426 223.73 54.426C223.805 54.426 223.856 54.4447 223.884 54.482C223.912 54.51 223.936 54.552 223.954 54.608C223.992 54.7013 224.02 54.8087 224.038 54.93C224.057 55.0513 224.08 55.1633 224.108 55.266L224.444 56.75C224.603 57.4593 224.762 58.1687 224.92 58.878C225.079 59.5873 225.233 60.3013 225.382 61.02C225.616 60.292 225.84 59.5687 226.054 58.85C226.278 58.122 226.502 57.394 226.726 56.666C226.801 56.442 226.866 56.218 226.922 55.994C226.988 55.7607 227.053 55.532 227.118 55.308C227.137 55.2053 227.156 55.098 227.174 54.986C227.202 54.874 227.235 54.7667 227.272 54.664C227.319 54.5427 227.426 54.482 227.594 54.482C227.762 54.4727 227.898 54.468 228 54.468C228.056 54.468 228.103 54.4727 228.14 54.482C228.187 54.4913 228.229 54.524 228.266 54.58C228.285 54.608 228.322 54.7153 228.378 54.902C228.434 55.0887 228.495 55.3033 228.56 55.546C228.626 55.7793 228.682 55.9893 228.728 56.176C228.775 56.3533 228.803 56.456 228.812 56.484C229.027 57.24 229.237 58.0007 229.442 58.766C229.657 59.522 229.872 60.278 230.086 61.034C230.413 60.0633 230.712 59.0833 230.982 58.094C231.262 57.0953 231.514 56.0967 231.738 55.098C231.748 55.0793 231.752 55.0467 231.752 55C231.752 54.8973 231.72 54.8413 231.654 54.832C231.589 54.8133 231.514 54.804 231.43 54.804C231.365 54.804 231.295 54.8087 231.22 54.818C231.146 54.818 231.071 54.818 230.996 54.818C230.847 54.818 230.772 54.748 230.772 54.608C230.772 54.552 230.796 54.51 230.842 54.482C230.889 54.454 230.94 54.44 230.996 54.44C231.202 54.44 231.407 54.4447 231.612 54.454C231.827 54.454 232.037 54.454 232.242 54.454C232.438 54.454 232.63 54.454 232.816 54.454C233.012 54.4447 233.208 54.44 233.404 54.44C233.451 54.44 233.498 54.454 233.544 54.482C233.591 54.51 233.614 54.552 233.614 54.608ZM240.09 58.276C240.09 57.8933 240.062 57.5013 240.006 57.1C239.95 56.6987 239.843 56.3253 239.684 55.98C239.525 55.6347 239.297 55.3593 238.998 55.154C238.709 54.9393 238.321 54.832 237.836 54.832C237.388 54.832 237.019 54.944 236.73 55.168C236.45 55.392 236.235 55.686 236.086 56.05C235.937 56.4047 235.829 56.7827 235.764 57.184C235.708 57.576 235.68 57.9493 235.68 58.304C235.68 58.696 235.708 59.088 235.764 59.48C235.829 59.8627 235.941 60.2173 236.1 60.544C236.259 60.8707 236.487 61.132 236.786 61.328C237.085 61.524 237.472 61.622 237.948 61.622C238.415 61.622 238.788 61.5193 239.068 61.314C239.357 61.1087 239.572 60.838 239.712 60.502C239.861 60.166 239.959 59.802 240.006 59.41C240.062 59.018 240.09 58.64 240.09 58.276ZM241.686 58.332C241.686 59.0413 241.513 59.676 241.168 60.236C240.832 60.796 240.375 61.2393 239.796 61.566C239.227 61.8833 238.587 62.042 237.878 62.042C237.178 62.042 236.548 61.8833 235.988 61.566C235.428 61.2393 234.98 60.796 234.644 60.236C234.317 59.676 234.154 59.0507 234.154 58.36C234.154 57.6413 234.317 56.9833 234.644 56.386C234.971 55.7887 235.419 55.3127 235.988 54.958C236.557 54.594 237.206 54.412 237.934 54.412C238.737 54.412 239.413 54.5753 239.964 54.902C240.524 55.2287 240.949 55.686 241.238 56.274C241.537 56.862 241.686 57.548 241.686 58.332ZM248.422 55.728C248.422 55.8587 248.38 55.9613 248.296 56.036C248.212 56.1107 248.104 56.148 247.974 56.148C247.806 56.148 247.684 56.1013 247.61 56.008C247.544 55.9147 247.488 55.8073 247.442 55.686C247.404 55.5647 247.348 55.4573 247.274 55.364C247.208 55.2707 247.087 55.224 246.91 55.224C246.732 55.224 246.541 55.3033 246.336 55.462C246.14 55.6207 245.953 55.8167 245.776 56.05C245.598 56.2833 245.449 56.5167 245.328 56.75C245.216 56.9833 245.155 57.1747 245.146 57.324C245.136 57.52 245.132 57.7207 245.132 57.926C245.132 58.122 245.132 58.318 245.132 58.514C245.132 58.962 245.132 59.4147 245.132 59.872C245.141 60.32 245.146 60.768 245.146 61.216C245.146 61.3373 245.202 61.4307 245.314 61.496C245.426 61.552 245.533 61.58 245.636 61.58C245.729 61.58 245.818 61.5753 245.902 61.566C245.986 61.5567 246.074 61.552 246.168 61.552C246.214 61.552 246.256 61.5753 246.294 61.622C246.331 61.6687 246.35 61.7107 246.35 61.748C246.35 61.804 246.326 61.8647 246.28 61.93C246.242 61.986 246.196 62.014 246.14 62.014C245.841 62.014 245.542 62.0093 245.244 62C244.945 61.9813 244.646 61.972 244.348 61.972C244.058 61.972 243.769 61.9767 243.48 61.986C243.19 61.9953 242.896 62 242.598 62C242.551 62 242.509 61.972 242.472 61.916C242.444 61.86 242.43 61.8133 242.43 61.776C242.43 61.6547 242.476 61.5847 242.57 61.566C242.672 61.5473 242.784 61.5427 242.906 61.552C243.027 61.5613 243.139 61.566 243.242 61.566C243.503 61.566 243.638 61.4447 243.648 61.202C243.676 60.7727 243.69 60.3433 243.69 59.914C243.69 59.4847 243.69 59.0553 243.69 58.626V57.59C243.69 57.2633 243.685 56.9367 243.676 56.61C243.676 56.2833 243.662 55.9567 243.634 55.63C243.624 55.4713 243.582 55.3547 243.508 55.28C243.433 55.196 243.312 55.154 243.144 55.154C243.069 55.154 242.994 55.1633 242.92 55.182C242.845 55.2007 242.77 55.21 242.696 55.21C242.546 55.21 242.472 55.1447 242.472 55.014C242.472 54.93 242.514 54.874 242.598 54.846C242.691 54.8087 242.789 54.7853 242.892 54.776C243.004 54.7667 243.106 54.7527 243.2 54.734C243.573 54.678 243.932 54.608 244.278 54.524C244.306 54.524 244.385 54.51 244.516 54.482C244.646 54.4447 244.716 54.426 244.726 54.426C244.856 54.426 244.954 54.482 245.02 54.594C245.038 54.622 245.052 54.7107 245.062 54.86C245.071 55.0093 245.076 55.182 245.076 55.378C245.076 55.5647 245.076 55.742 245.076 55.91C245.076 56.0687 245.076 56.176 245.076 56.232C245.281 55.9147 245.51 55.616 245.762 55.336C246.023 55.056 246.312 54.8273 246.63 54.65C246.956 54.4727 247.32 54.384 247.722 54.384C247.983 54.384 248.146 54.454 248.212 54.594C248.286 54.7247 248.338 54.8973 248.366 55.112C248.384 55.2053 248.398 55.308 248.408 55.42C248.417 55.5227 248.422 55.6253 248.422 55.728ZM254.208 56.778C254.208 56.4793 254.152 56.1947 254.04 55.924C253.928 55.6533 253.76 55.4293 253.536 55.252C253.322 55.0747 253.051 54.986 252.724 54.986C252.295 54.986 251.936 55.098 251.646 55.322C251.366 55.5367 251.147 55.8213 250.988 56.176C250.83 56.5213 250.718 56.89 250.652 57.282C250.587 57.674 250.554 58.0427 250.554 58.388C250.554 58.696 250.582 59.0273 250.638 59.382C250.694 59.7273 250.792 60.0587 250.932 60.376C251.082 60.6933 251.278 60.95 251.52 61.146C251.772 61.342 252.094 61.44 252.486 61.44C252.673 61.44 252.864 61.384 253.06 61.272C253.266 61.16 253.434 61.0387 253.564 60.908C253.77 60.712 253.928 60.4927 254.04 60.25C254.152 59.998 254.208 59.732 254.208 59.452V56.778ZM256.91 61.454C256.91 61.5753 256.822 61.678 256.644 61.762C256.467 61.846 256.271 61.9113 256.056 61.958C255.851 62.0047 255.702 62.028 255.608 62.028C255.244 62.028 254.969 61.9067 254.782 61.664C254.596 61.4213 254.442 61.1507 254.32 60.852C254.115 61.1693 253.84 61.4353 253.494 61.65C253.158 61.8553 252.799 61.958 252.416 61.958C252.127 61.958 251.824 61.9347 251.506 61.888C251.198 61.8413 250.923 61.7433 250.68 61.594C250.148 61.258 249.742 60.8053 249.462 60.236C249.192 59.6667 249.056 59.074 249.056 58.458C249.056 57.7113 249.196 57.044 249.476 56.456C249.756 55.8587 250.167 55.3873 250.708 55.042C251.259 54.6967 251.922 54.524 252.696 54.524C252.911 54.524 253.168 54.58 253.466 54.692C253.765 54.7947 254.003 54.9113 254.18 55.042V52.48C254.18 52.2 254.12 52.0413 253.998 52.004C253.877 51.9667 253.695 51.948 253.452 51.948C253.359 51.948 253.27 51.9527 253.186 51.962C253.102 51.962 253.014 51.962 252.92 51.962C252.883 51.962 252.832 51.948 252.766 51.92C252.71 51.8827 252.682 51.8407 252.682 51.794C252.682 51.7193 252.71 51.6727 252.766 51.654C252.822 51.626 252.878 51.6073 252.934 51.598C253.14 51.5513 253.34 51.5187 253.536 51.5C253.742 51.472 253.942 51.444 254.138 51.416C254.344 51.3787 254.544 51.3413 254.74 51.304C254.936 51.2573 255.132 51.206 255.328 51.15C255.356 51.1407 255.394 51.136 255.44 51.136C255.58 51.136 255.65 51.1967 255.65 51.318C255.65 52.4287 255.646 53.544 255.636 54.664C255.627 55.7747 255.622 56.8853 255.622 57.996V60.348C255.622 60.4973 255.636 60.656 255.664 60.824C255.702 60.9827 255.767 61.118 255.86 61.23C255.963 61.342 256.108 61.398 256.294 61.398C256.388 61.398 256.476 61.384 256.56 61.356C256.644 61.3187 256.719 61.3 256.784 61.3C256.831 61.3 256.864 61.3187 256.882 61.356C256.901 61.384 256.91 61.4167 256.91 61.454ZM261.971 61.02C261.971 61.3187 261.863 61.566 261.649 61.762C261.434 61.958 261.177 62.056 260.879 62.056C260.589 62.056 260.333 61.958 260.109 61.762C259.894 61.566 259.787 61.3187 259.787 61.02C259.787 60.7213 259.894 60.4787 260.109 60.292C260.333 60.096 260.589 59.998 260.879 59.998C261.177 59.998 261.434 60.096 261.649 60.292C261.863 60.4787 261.971 60.7213 261.971 61.02ZM263.987 53.81C263.987 54.1553 263.893 54.496 263.707 54.832C263.529 55.1587 263.31 55.4293 263.049 55.644C262.843 55.812 262.624 55.9707 262.391 56.12C262.167 56.26 261.961 56.4233 261.775 56.61C261.532 56.8527 261.359 57.1093 261.257 57.38C261.163 57.6413 261.117 57.9447 261.117 58.29C261.117 58.4207 261.117 58.556 261.117 58.696C261.117 58.836 261.117 58.9713 261.117 59.102H260.445C260.445 58.934 260.44 58.766 260.431 58.598C260.431 58.43 260.431 58.262 260.431 58.094C260.431 57.73 260.463 57.422 260.529 57.17C260.594 56.9087 260.701 56.6707 260.851 56.456C261 56.232 261.201 55.994 261.453 55.742C261.779 55.4153 262.027 55.0793 262.195 54.734C262.363 54.3887 262.447 53.978 262.447 53.502C262.447 52.998 262.325 52.6013 262.083 52.312C261.849 52.0133 261.467 51.864 260.935 51.864C260.617 51.864 260.323 51.9153 260.053 52.018C259.782 52.1113 259.563 52.2653 259.395 52.48C259.227 52.6947 259.143 52.9793 259.143 53.334C259.143 53.4647 259.166 53.5907 259.213 53.712C259.259 53.8333 259.283 53.9593 259.283 54.09C259.283 54.342 259.199 54.5287 259.031 54.65C258.872 54.7713 258.676 54.832 258.443 54.832C258.191 54.832 258.018 54.7527 257.925 54.594C257.841 54.4353 257.799 54.244 257.799 54.02C257.799 53.852 257.827 53.684 257.883 53.516C257.939 53.348 258.009 53.1893 258.093 53.04C258.391 52.4987 258.797 52.102 259.311 51.85C259.833 51.5887 260.393 51.458 260.991 51.458C261.476 51.458 261.947 51.5373 262.405 51.696C262.862 51.8547 263.24 52.1067 263.539 52.452C263.837 52.7973 263.987 53.25 263.987 53.81Z" fill="#AB1616"/>
<line x1="4" y1="31.5" x2="271" y2="31.5" stroke="black"/>
<path d="M267.75 18C266.763 16.287 265.342 14.8643 263.631 13.8751C261.919 12.8858 259.977 12.365 258 12.365C256.023 12.365 254.081 12.8858 252.369 13.8751C250.658 14.8643 249.237 16.287 248.25 18" stroke="black" stroke-width="0.5" stroke-linecap="round" stroke-linejoin="round"/>
<path d="M258 21.9445C260.178 21.9445 261.944 20.1785 261.944 18C261.944 15.8215 260.178 14.0555 258 14.0555C255.821 14.0555 254.055 15.8215 254.055 18C254.055 20.1785 255.821 21.9445 258 21.9445Z" stroke="black" stroke-width="0.5" stroke-linecap="round" stroke-linejoin="round"/>
<path d="M248.25 18C249.237 19.713 250.658 21.1357 252.369 22.1249C254.081 23.1142 256.023 23.635 258 23.635C259.977 23.635 261.919 23.1142 263.631 22.1249C265.342 21.1357 266.763 19.713 267.75 18" stroke="black" stroke-width="0.5" stroke-linecap="round" stroke-linejoin="round"/>
<g filter="url(#filter0_d_10_56)">
<path d="M14.5 15.7083C14.1321 15.704 13.7717 15.8125 13.4674 16.0192C13.163 16.2259 12.9293 16.5209 12.7977 16.8645C12.6661 17.208 12.6428 17.5836 12.7312 17.9408C12.8195 18.2979 13.0151 18.6195 13.2916 18.8621V20.5417C13.2916 20.8621 13.419 21.1695 13.6456 21.3961C13.8722 21.6227 14.1795 21.75 14.5 21.75C14.8204 21.75 15.1278 21.6227 15.3544 21.3961C15.581 21.1695 15.7083 20.8621 15.7083 20.5417V18.8621C15.9849 18.6195 16.1805 18.2979 16.2688 17.9408C16.3571 17.5836 16.3339 17.208 16.2023 16.8645C16.0706 16.5209 15.8369 16.2259 15.5326 16.0192C15.2282 15.8125 14.8679 15.704 14.5 15.7083ZM20.5416 10.875V8.45832C20.5416 6.85597 19.9051 5.31925 18.7721 4.18622C17.6391 3.05319 16.1023 2.41666 14.5 2.41666C12.8976 2.41666 11.3609 3.05319 10.2279 4.18622C9.09484 5.31925 8.45831 6.85597 8.45831 8.45832V10.875C7.4969 10.875 6.57487 11.2569 5.89505 11.9367C5.21523 12.6165 4.83331 13.5386 4.83331 14.5V22.9583C4.83331 23.9197 5.21523 24.8418 5.89505 25.5216C6.57487 26.2014 7.4969 26.5833 8.45831 26.5833H20.5416C21.5031 26.5833 22.4251 26.2014 23.1049 25.5216C23.7847 24.8418 24.1666 23.9197 24.1666 22.9583V14.5C24.1666 13.5386 23.7847 12.6165 23.1049 11.9367C22.4251 11.2569 21.5031 10.875 20.5416 10.875ZM10.875 8.45832C10.875 7.49691 11.2569 6.57488 11.9367 5.89506C12.6165 5.21524 13.5386 4.83332 14.5 4.83332C15.4614 4.83332 16.3834 5.21524 17.0632 5.89506C17.7431 6.57488 18.125 7.49691 18.125 8.45832V10.875H10.875V8.45832ZM21.75 22.9583C21.75 23.2788 21.6227 23.5861 21.3961 23.8127C21.1695 24.0394 20.8621 24.1667 20.5416 24.1667H8.45831C8.13784 24.1667 7.8305 24.0394 7.60389 23.8127C7.37729 23.5861 7.24998 23.2788 7.24998 22.9583V14.5C7.24998 14.1795 7.37729 13.8722 7.60389 13.6456C7.8305 13.419 8.13784 13.2917 8.45831 13.2917H20.5416C20.8621 13.2917 21.1695 13.419 21.3961 13.6456C21.6227 13.8722 21.75 14.1795 21.75 14.5V22.9583Z" fill="#353434"/>
</g>
<defs>
<filter id="filter0_d_10_56" x="-4" y="0" width="37" height="37" filterUnits="userSpaceOnUse" color-interpolation-filters="sRGB">
<feFlood flood-opacity="0" result="BackgroundImageFix"/>
<feColorMatrix in="SourceAlpha" type="matrix" values="0 0 0 0 0 0 0 0 0 0 0 0 0 0 0 0 0 0 127 0" result="hardAlpha"/>
<feOffset dy="4"/>
<feGaussianBlur stdDeviation="2"/>
<feComposite in2="hardAlpha" operator="out"/>
<feColorMatrix type="matrix" values="0 0 0 0 0 0 0 0 0 0 0 0 0 0 0 0 0 0 0.25 0"/>
<feBlend mode="normal" in2="BackgroundImageFix" result="effect1_dropShadow_10_56"/>
<feBlend mode="normal" in="SourceGraphic" in2="effect1_dropShadow_10_56" result="shape"/>
</filter>
</defs>
</svg>
