<svg width="275" height="42" viewBox="0 0 275 42" fill="none" xmlns="http://www.w3.org/2000/svg">
<path d="M76.735 29.39C76.735 29.57 76.715 29.755 76.675 29.945C76.645 30.125 76.615 30.305 76.585 30.485C76.565 30.685 76.55 30.89 76.54 31.1C76.53 31.3 76.5 31.5 76.45 31.7C76.44 31.77 76.4 31.835 76.33 31.895C76.27 31.955 76.2 31.985 76.12 31.985C75.05 31.985 73.98 31.98 72.91 31.97C71.84 31.95 70.77 31.94 69.7 31.94C69.37 31.94 69.04 31.955 68.71 31.985C68.39 32.005 68.07 32.015 67.75 32.015C67.69 32.015 67.625 32 67.555 31.97C67.485 31.93 67.45 31.875 67.45 31.805C67.45 31.675 67.5 31.59 67.6 31.55C67.7 31.51 67.82 31.49 67.96 31.49C68.11 31.49 68.255 31.48 68.395 31.46C68.535 31.44 68.655 31.38 68.755 31.28C68.855 31.17 68.905 30.99 68.905 30.74L68.89 22.205C68.89 21.975 68.825 21.83 68.695 21.77C68.565 21.7 68.405 21.665 68.215 21.665C68.135 21.665 68.05 21.67 67.96 21.68C67.88 21.68 67.8 21.68 67.72 21.68C67.62 21.68 67.53 21.66 67.45 21.62C67.37 21.58 67.33 21.505 67.33 21.395C67.33 21.175 67.435 21.065 67.645 21.065C67.815 21.065 67.985 21.07 68.155 21.08C68.325 21.09 68.495 21.095 68.665 21.095C69.675 21.095 70.68 21.09 71.68 21.08C72.69 21.06 73.7 21.05 74.71 21.05C75.19 21.05 75.67 21.035 76.15 21.005C76.19 21.295 76.24 21.59 76.3 21.89C76.36 22.18 76.41 22.475 76.45 22.775C76.47 22.825 76.485 22.88 76.495 22.94C76.505 23 76.51 23.055 76.51 23.105C76.51 23.225 76.465 23.31 76.375 23.36C76.295 23.4 76.2 23.42 76.09 23.42C75.99 23.42 75.915 23.405 75.865 23.375C75.815 23.335 75.77 23.265 75.73 23.165C75.56 22.585 75.32 22.18 75.01 21.95C74.7 21.72 74.24 21.605 73.63 21.605H70.6V26.015C70.98 26.005 71.355 26 71.725 26C72.095 25.99 72.465 25.975 72.835 25.955C73.225 25.935 73.605 25.9 73.975 25.85C74.345 25.79 74.72 25.725 75.1 25.655C75.11 25.655 75.115 25.655 75.115 25.655C75.125 25.655 75.135 25.655 75.145 25.655C75.175 25.655 75.215 25.665 75.265 25.685C75.325 25.705 75.355 25.735 75.355 25.775C75.355 25.845 75.32 25.97 75.25 26.15C75.19 26.33 75.145 26.45 75.115 26.51C75.045 26.64 74.94 26.705 74.8 26.705C74.72 26.705 74.635 26.705 74.545 26.705C74.465 26.695 74.385 26.685 74.305 26.675C74.125 26.655 73.945 26.64 73.765 26.63C73.585 26.62 73.405 26.61 73.225 26.6C72.975 26.6 72.73 26.6 72.49 26.6C72.25 26.6 72.005 26.6 71.755 26.6C71.615 26.6 71.45 26.61 71.26 26.63C71.08 26.65 70.925 26.705 70.795 26.795C70.665 26.885 70.6 27.03 70.6 27.23V30.815C70.6 31.105 70.66 31.285 70.78 31.355C70.91 31.415 71.1 31.445 71.35 31.445H72.655C72.925 31.445 73.225 31.43 73.555 31.4C73.895 31.37 74.22 31.31 74.53 31.22C74.85 31.13 75.11 30.99 75.31 30.8C75.52 30.6 75.68 30.37 75.79 30.11C75.91 29.85 76.03 29.595 76.15 29.345C76.2 29.235 76.3 29.18 76.45 29.18C76.52 29.18 76.585 29.195 76.645 29.225C76.705 29.255 76.735 29.31 76.735 29.39ZM90.8324 31.775C90.8324 31.845 90.8024 31.905 90.7424 31.955C90.6924 31.995 90.6324 32.015 90.5624 32.015C90.4624 32.015 90.3624 32.01 90.2624 32C90.1724 32 90.0724 31.995 89.9624 31.985C89.7724 31.975 89.5874 31.97 89.4074 31.97C89.2274 31.97 89.0424 31.97 88.8524 31.97C88.5524 31.97 88.2524 31.98 87.9524 32C87.6624 32.01 87.3724 32.015 87.0824 32.015C87.0424 32.015 86.9974 31.99 86.9474 31.94C86.9074 31.89 86.8874 31.845 86.8874 31.805C86.8874 31.695 86.9374 31.63 87.0374 31.61C87.1474 31.58 87.2674 31.57 87.3974 31.58C87.5274 31.59 87.6274 31.595 87.6974 31.595C87.9574 31.595 88.0874 31.465 88.0874 31.205C88.0874 30.565 88.0924 29.93 88.1024 29.3C88.1124 28.66 88.1174 28.02 88.1174 27.38C88.1174 27.18 88.1124 26.925 88.1024 26.615C88.0924 26.295 88.0724 25.985 88.0424 25.685C88.0124 25.375 87.9574 25.135 87.8774 24.965C87.7974 24.765 87.6674 24.625 87.4874 24.545C87.3074 24.455 87.1124 24.41 86.9024 24.41C86.6924 24.41 86.4624 24.475 86.2124 24.605C85.9624 24.735 85.7174 24.89 85.4774 25.07C85.2474 25.25 85.0574 25.41 84.9074 25.55C84.9274 25.68 84.9374 25.82 84.9374 25.97C84.9374 26.11 84.9374 26.25 84.9374 26.39C84.9374 26.68 84.9374 26.975 84.9374 27.275C84.9474 27.565 84.9524 27.855 84.9524 28.145C84.9524 28.655 84.9474 29.165 84.9374 29.675C84.9374 30.185 84.9374 30.695 84.9374 31.205C84.9374 31.335 84.9924 31.435 85.1024 31.505C85.2224 31.565 85.3424 31.595 85.4624 31.595C85.5424 31.595 85.6174 31.59 85.6874 31.58C85.7674 31.57 85.8474 31.565 85.9274 31.565C85.9774 31.565 86.0224 31.59 86.0624 31.64C86.1024 31.69 86.1224 31.735 86.1224 31.775C86.1224 31.845 86.0924 31.905 86.0324 31.955C85.9824 31.995 85.9224 32.015 85.8524 32.015C85.7524 32.015 85.6524 32.01 85.5524 32C85.4624 32 85.3624 31.995 85.2524 31.985C85.0624 31.975 84.8724 31.97 84.6824 31.97C84.5024 31.97 84.3224 31.97 84.1424 31.97C83.8524 31.97 83.5624 31.98 83.2724 32C82.9924 32.01 82.7074 32.015 82.4174 32.015C82.3774 32.015 82.3324 31.99 82.2824 31.94C82.2424 31.89 82.2224 31.845 82.2224 31.805C82.2224 31.685 82.2774 31.615 82.3874 31.595C82.4874 31.575 82.5874 31.57 82.6874 31.58C82.7974 31.59 82.9024 31.595 83.0024 31.595C83.2624 31.595 83.3924 31.465 83.3924 31.205C83.3924 30.535 83.3924 29.87 83.3924 29.21C83.4024 28.54 83.4074 27.87 83.4074 27.2C83.4074 27 83.4024 26.76 83.3924 26.48C83.3924 26.2 83.3724 25.92 83.3324 25.64C83.3024 25.36 83.2474 25.135 83.1674 24.965C83.0974 24.805 82.9874 24.68 82.8374 24.59C82.6874 24.49 82.5224 24.44 82.3424 24.44C82.2124 24.44 82.0774 24.455 81.9374 24.485C81.7774 24.525 81.5874 24.615 81.3674 24.755C81.1574 24.895 80.9524 25.05 80.7524 25.22C80.5524 25.38 80.3924 25.525 80.2724 25.655C80.2724 26.575 80.2724 27.5 80.2724 28.43C80.2724 29.36 80.2724 30.285 80.2724 31.205C80.2724 31.335 80.3224 31.435 80.4224 31.505C80.5224 31.565 80.6274 31.595 80.7374 31.595C80.8174 31.595 80.8924 31.59 80.9624 31.58C81.0324 31.57 81.1024 31.565 81.1724 31.565C81.2224 31.565 81.2674 31.59 81.3074 31.64C81.3474 31.69 81.3674 31.735 81.3674 31.775C81.3674 31.845 81.3374 31.905 81.2774 31.955C81.2274 31.995 81.1674 32.015 81.0974 32.015C81.0074 32.015 80.9174 32.01 80.8274 32C80.7374 32 80.6424 31.995 80.5424 31.985C80.3624 31.975 80.1824 31.97 80.0024 31.97C79.8224 31.97 79.6424 31.97 79.4624 31.97C79.1724 31.97 78.8774 31.98 78.5774 32C78.2774 32.01 77.9774 32.015 77.6774 32.015C77.6274 32.015 77.5824 31.99 77.5424 31.94C77.5024 31.89 77.4824 31.845 77.4824 31.805C77.4824 31.685 77.5374 31.615 77.6474 31.595C77.7574 31.575 77.8674 31.57 77.9774 31.58C78.0974 31.59 78.2124 31.595 78.3224 31.595C78.5924 31.595 78.7274 31.465 78.7274 31.205C78.7274 30.195 78.7224 29.185 78.7124 28.175C78.7124 27.155 78.7124 26.14 78.7124 25.13C78.7124 24.99 78.6924 24.865 78.6524 24.755C78.6124 24.635 78.5074 24.575 78.3374 24.575C78.2074 24.575 78.0824 24.59 77.9624 24.62C77.8424 24.65 77.7174 24.665 77.5874 24.665C77.4374 24.665 77.3624 24.59 77.3624 24.44C77.3624 24.36 77.4124 24.305 77.5124 24.275C77.5624 24.255 77.6174 24.245 77.6774 24.245C77.7474 24.245 77.8124 24.24 77.8724 24.23C78.0124 24.21 78.1474 24.19 78.2774 24.17C78.4174 24.14 78.5524 24.115 78.6824 24.095C78.8624 24.065 79.0424 24.025 79.2224 23.975C79.4024 23.925 79.5874 23.9 79.7774 23.9C79.8974 23.9 79.9824 23.935 80.0324 24.005C80.1024 24.115 80.1474 24.28 80.1674 24.5C80.1874 24.71 80.2024 24.88 80.2124 25.01C80.5224 24.75 80.8724 24.495 81.2624 24.245C81.6624 23.985 82.0724 23.855 82.4924 23.855C82.9924 23.855 83.4324 23.93 83.8124 24.08C84.1924 24.23 84.5074 24.535 84.7574 24.995C85.0874 24.705 85.4624 24.44 85.8824 24.2C86.3024 23.95 86.7374 23.825 87.1874 23.825C87.8574 23.825 88.3724 23.915 88.7324 24.095C89.0924 24.275 89.3424 24.56 89.4824 24.95C89.6324 25.34 89.7074 25.855 89.7074 26.495C89.7074 27.275 89.6974 28.06 89.6774 28.85C89.6674 29.63 89.6624 30.41 89.6624 31.19C89.6624 31.34 89.7074 31.44 89.7974 31.49C89.8974 31.54 90.0124 31.565 90.1424 31.565C90.2824 31.565 90.4024 31.565 90.5024 31.565C90.5824 31.565 90.6574 31.575 90.7274 31.595C90.7974 31.615 90.8324 31.675 90.8324 31.775ZM96.2313 30.26C96.2113 29.82 96.1963 29.375 96.1863 28.925C96.1863 28.475 96.1763 28.03 96.1563 27.59H96.0213C95.7113 27.59 95.3763 27.64 95.0163 27.74C94.6563 27.83 94.3163 27.97 93.9963 28.16C93.6763 28.35 93.4113 28.585 93.2013 28.865C93.0013 29.145 92.9013 29.465 92.9013 29.825C92.9013 30.265 93.0163 30.615 93.2463 30.875C93.4863 31.125 93.8313 31.25 94.2813 31.25C94.4813 31.25 94.7063 31.195 94.9563 31.085C95.2063 30.975 95.4463 30.845 95.6763 30.695C95.9063 30.535 96.0913 30.39 96.2313 30.26ZM99.0063 31.22C99.0063 31.29 98.9713 31.375 98.9013 31.475C98.8413 31.565 98.7863 31.635 98.7363 31.685C98.6063 31.805 98.4563 31.89 98.2863 31.94C98.1163 31.98 97.9463 32 97.7763 32C97.3663 32 97.0513 31.9 96.8313 31.7C96.6113 31.5 96.4463 31.215 96.3363 30.845C95.9663 31.175 95.5513 31.45 95.0913 31.67C94.6413 31.89 94.1613 32 93.6513 32C93.2613 32 92.9013 31.93 92.5713 31.79C92.2413 31.64 91.9713 31.42 91.7613 31.13C91.5613 30.84 91.4613 30.49 91.4613 30.08C91.4613 29.68 91.5613 29.33 91.7613 29.03C91.9613 28.73 92.2163 28.475 92.5263 28.265C92.8363 28.055 93.1563 27.885 93.4863 27.755C93.9163 27.575 94.3563 27.445 94.8063 27.365C95.2663 27.275 95.7213 27.19 96.1713 27.11C96.1613 26.81 96.1463 26.475 96.1263 26.105C96.1063 25.735 96.0263 25.415 95.8863 25.145C95.7863 24.935 95.6313 24.745 95.4213 24.575C95.2213 24.395 94.9963 24.305 94.7463 24.305C94.3263 24.305 93.9813 24.425 93.7113 24.665C93.4413 24.905 93.2663 25.23 93.1863 25.64C93.1763 25.71 93.1713 25.785 93.1713 25.865C93.1713 25.945 93.1613 26.015 93.1413 26.075C93.1213 26.145 93.0613 26.2 92.9613 26.24C92.8713 26.28 92.7913 26.3 92.7213 26.3C92.5013 26.3 92.3113 26.245 92.1513 26.135C92.0013 26.015 91.9263 25.835 91.9263 25.595C91.9263 25.465 91.9463 25.355 91.9863 25.265C92.0463 25.095 92.1513 24.935 92.3013 24.785C92.4613 24.625 92.6363 24.49 92.8263 24.38C93.0263 24.26 93.2063 24.175 93.3663 24.125C93.5863 24.055 93.8313 24 94.1013 23.96C94.3713 23.91 94.6163 23.885 94.8363 23.885C95.3663 23.885 95.8413 24 96.2613 24.23C96.6913 24.45 97.0263 24.76 97.2663 25.16C97.5163 25.56 97.6413 26.035 97.6413 26.585V27.05C97.6413 27.63 97.6363 28.21 97.6263 28.79C97.6263 29.36 97.6413 29.935 97.6713 30.515C97.6913 30.705 97.7313 30.89 97.7913 31.07C97.8513 31.24 98.0013 31.325 98.2413 31.325C98.3613 31.325 98.4763 31.295 98.5863 31.235C98.7063 31.175 98.8113 31.145 98.9013 31.145C98.9713 31.145 99.0063 31.17 99.0063 31.22ZM103.91 31.775C103.91 31.835 103.88 31.89 103.82 31.94C103.77 31.99 103.715 32.015 103.655 32.015C103.305 32.015 102.955 32.01 102.605 32C102.255 31.98 101.905 31.97 101.555 31.97C101.265 31.97 100.97 31.98 100.67 32C100.38 32.01 100.09 32.015 99.8004 32.015C99.7504 32.015 99.7054 31.99 99.6654 31.94C99.6254 31.88 99.6054 31.83 99.6054 31.79C99.6054 31.67 99.6604 31.605 99.7704 31.595C99.8904 31.575 100.015 31.57 100.145 31.58C100.285 31.59 100.415 31.595 100.535 31.595C100.665 31.595 100.775 31.565 100.865 31.505C100.955 31.435 101 31.335 101 31.205V29.255L101.015 25.145C101.015 25.005 100.99 24.89 100.94 24.8C100.9 24.7 100.795 24.65 100.625 24.65C100.495 24.65 100.36 24.66 100.22 24.68C100.09 24.7 99.9554 24.71 99.8154 24.71C99.7754 24.71 99.7254 24.7 99.6654 24.68C99.6054 24.65 99.5754 24.61 99.5754 24.56C99.5754 24.43 99.6254 24.355 99.7254 24.335C99.8554 24.295 99.9854 24.27 100.115 24.26C100.245 24.24 100.375 24.22 100.505 24.2C100.785 24.15 101.06 24.095 101.33 24.035C101.61 23.965 101.89 23.9 102.17 23.84C102.23 23.82 102.285 23.81 102.335 23.81C102.515 23.81 102.605 23.885 102.605 24.035C102.605 25.225 102.6 26.42 102.59 27.62C102.58 28.81 102.575 30.005 102.575 31.205C102.575 31.385 102.66 31.495 102.83 31.535C103 31.565 103.15 31.58 103.28 31.58C103.36 31.58 103.435 31.58 103.505 31.58C103.585 31.57 103.66 31.565 103.73 31.565C103.77 31.565 103.81 31.59 103.85 31.64C103.89 31.69 103.91 31.735 103.91 31.775ZM102.68 21.38C102.68 21.66 102.58 21.885 102.38 22.055C102.18 22.225 101.945 22.31 101.675 22.31C101.405 22.31 101.17 22.225 100.97 22.055C100.77 21.885 100.67 21.66 100.67 21.38C100.67 21.1 100.77 20.875 100.97 20.705C101.17 20.535 101.405 20.45 101.675 20.45C101.945 20.45 102.18 20.535 102.38 20.705C102.58 20.875 102.68 21.1 102.68 21.38ZM109.037 31.775C109.037 31.835 109.007 31.89 108.947 31.94C108.897 31.99 108.842 32.015 108.782 32.015C108.472 32.015 108.157 32.01 107.837 32C107.517 31.98 107.197 31.97 106.877 31.97C106.687 31.97 106.497 31.97 106.307 31.97C106.127 31.97 105.942 31.975 105.752 31.985C105.642 31.995 105.532 32 105.422 32C105.312 32.01 105.202 32.015 105.092 32.015C105.032 32.015 104.982 31.985 104.942 31.925C104.912 31.865 104.897 31.81 104.897 31.76C104.897 31.66 104.952 31.595 105.062 31.565C105.152 31.545 105.247 31.54 105.347 31.55C105.457 31.56 105.562 31.565 105.662 31.565C105.782 31.565 105.887 31.535 105.977 31.475C106.077 31.405 106.127 31.305 106.127 31.175C106.127 30.405 106.132 29.63 106.142 28.85C106.152 28.07 106.157 27.295 106.157 26.525C106.157 25.745 106.152 24.965 106.142 24.185C106.132 23.405 106.127 22.625 106.127 21.845C106.127 21.735 106.107 21.63 106.067 21.53C106.037 21.42 105.952 21.365 105.812 21.365C105.642 21.365 105.472 21.39 105.302 21.44C105.132 21.49 104.957 21.515 104.777 21.515C104.747 21.515 104.702 21.505 104.642 21.485C104.582 21.465 104.552 21.435 104.552 21.395C104.552 21.265 104.597 21.185 104.687 21.155C104.807 21.105 104.932 21.075 105.062 21.065C105.192 21.045 105.312 21.02 105.422 20.99C105.742 20.91 106.057 20.825 106.367 20.735C106.687 20.645 107.002 20.55 107.312 20.45C107.342 20.44 107.367 20.435 107.387 20.435C107.417 20.425 107.447 20.42 107.477 20.42C107.617 20.42 107.687 20.495 107.687 20.645C107.687 20.925 107.687 21.21 107.687 21.5C107.687 21.78 107.687 22.065 107.687 22.355V26.375C107.687 27.165 107.687 27.965 107.687 28.775C107.697 29.575 107.702 30.375 107.702 31.175C107.702 31.305 107.762 31.405 107.882 31.475C108.002 31.535 108.117 31.565 108.227 31.565C108.337 31.565 108.442 31.56 108.542 31.55C108.652 31.54 108.757 31.535 108.857 31.535C108.897 31.535 108.937 31.565 108.977 31.625C109.017 31.685 109.037 31.735 109.037 31.775ZM118.002 31.775C118.002 31.835 117.972 31.89 117.912 31.94C117.862 31.99 117.807 32.015 117.747 32.015C117.397 32.015 117.047 32.01 116.697 32C116.347 31.98 115.997 31.97 115.647 31.97C115.357 31.97 115.062 31.98 114.762 32C114.472 32.01 114.182 32.015 113.892 32.015C113.842 32.015 113.797 31.99 113.757 31.94C113.717 31.88 113.697 31.83 113.697 31.79C113.697 31.67 113.752 31.605 113.862 31.595C113.982 31.575 114.107 31.57 114.237 31.58C114.377 31.59 114.507 31.595 114.627 31.595C114.757 31.595 114.867 31.565 114.957 31.505C115.047 31.435 115.092 31.335 115.092 31.205V29.255L115.107 25.145C115.107 25.005 115.082 24.89 115.032 24.8C114.992 24.7 114.887 24.65 114.717 24.65C114.587 24.65 114.452 24.66 114.312 24.68C114.182 24.7 114.047 24.71 113.907 24.71C113.867 24.71 113.817 24.7 113.757 24.68C113.697 24.65 113.667 24.61 113.667 24.56C113.667 24.43 113.717 24.355 113.817 24.335C113.947 24.295 114.077 24.27 114.207 24.26C114.337 24.24 114.467 24.22 114.597 24.2C114.877 24.15 115.152 24.095 115.422 24.035C115.702 23.965 115.982 23.9 116.262 23.84C116.322 23.82 116.377 23.81 116.427 23.81C116.607 23.81 116.697 23.885 116.697 24.035C116.697 25.225 116.692 26.42 116.682 27.62C116.672 28.81 116.667 30.005 116.667 31.205C116.667 31.385 116.752 31.495 116.922 31.535C117.092 31.565 117.242 31.58 117.372 31.58C117.452 31.58 117.527 31.58 117.597 31.58C117.677 31.57 117.752 31.565 117.822 31.565C117.862 31.565 117.902 31.59 117.942 31.64C117.982 31.69 118.002 31.735 118.002 31.775ZM116.772 21.38C116.772 21.66 116.672 21.885 116.472 22.055C116.272 22.225 116.037 22.31 115.767 22.31C115.497 22.31 115.262 22.225 115.062 22.055C114.862 21.885 114.762 21.66 114.762 21.38C114.762 21.1 114.862 20.875 115.062 20.705C115.262 20.535 115.497 20.45 115.767 20.45C116.037 20.45 116.272 20.535 116.472 20.705C116.672 20.875 116.772 21.1 116.772 21.38ZM124.448 26.405C124.448 26.085 124.388 25.78 124.268 25.49C124.148 25.2 123.968 24.96 123.728 24.77C123.498 24.58 123.208 24.485 122.858 24.485C122.398 24.485 122.013 24.605 121.703 24.845C121.403 25.075 121.168 25.38 120.998 25.76C120.828 26.13 120.708 26.525 120.638 26.945C120.568 27.365 120.533 27.76 120.533 28.13C120.533 28.46 120.563 28.815 120.623 29.195C120.683 29.565 120.788 29.92 120.938 30.26C121.098 30.6 121.308 30.875 121.568 31.085C121.838 31.295 122.183 31.4 122.603 31.4C122.803 31.4 123.008 31.34 123.218 31.22C123.438 31.1 123.618 30.97 123.758 30.83C123.978 30.62 124.148 30.385 124.268 30.125C124.388 29.855 124.448 29.57 124.448 29.27V26.405ZM127.343 31.415C127.343 31.545 127.248 31.655 127.058 31.745C126.868 31.835 126.658 31.905 126.428 31.955C126.208 32.005 126.048 32.03 125.948 32.03C125.558 32.03 125.263 31.9 125.063 31.64C124.863 31.38 124.698 31.09 124.568 30.77C124.348 31.11 124.053 31.395 123.683 31.625C123.323 31.845 122.938 31.955 122.528 31.955C122.218 31.955 121.893 31.93 121.553 31.88C121.223 31.83 120.928 31.725 120.668 31.565C120.098 31.205 119.663 30.72 119.363 30.11C119.073 29.5 118.928 28.865 118.928 28.205C118.928 27.405 119.078 26.69 119.378 26.06C119.678 25.42 120.118 24.915 120.698 24.545C121.288 24.175 121.998 23.99 122.828 23.99C123.058 23.99 123.333 24.05 123.653 24.17C123.973 24.28 124.228 24.405 124.418 24.545V21.8C124.418 21.5 124.353 21.33 124.223 21.29C124.093 21.25 123.898 21.23 123.638 21.23C123.538 21.23 123.443 21.235 123.353 21.245C123.263 21.245 123.168 21.245 123.068 21.245C123.028 21.245 122.973 21.23 122.903 21.2C122.843 21.16 122.813 21.115 122.813 21.065C122.813 20.985 122.843 20.935 122.903 20.915C122.963 20.885 123.023 20.865 123.083 20.855C123.303 20.805 123.518 20.77 123.728 20.75C123.948 20.72 124.163 20.69 124.373 20.66C124.593 20.62 124.808 20.58 125.018 20.54C125.228 20.49 125.438 20.435 125.648 20.375C125.678 20.365 125.718 20.36 125.768 20.36C125.918 20.36 125.993 20.425 125.993 20.555C125.993 21.745 125.988 22.94 125.978 24.14C125.968 25.33 125.963 26.52 125.963 27.71V30.23C125.963 30.39 125.978 30.56 126.008 30.74C126.048 30.91 126.118 31.055 126.218 31.175C126.328 31.295 126.483 31.355 126.683 31.355C126.783 31.355 126.878 31.34 126.968 31.31C127.058 31.27 127.138 31.25 127.208 31.25C127.258 31.25 127.293 31.27 127.313 31.31C127.333 31.34 127.343 31.375 127.343 31.415ZM134.22 20.105L128.79 32.975L128.1 32.645L133.515 19.775L134.22 20.105ZM152.775 31.775C152.775 31.845 152.745 31.9 152.685 31.94C152.625 31.98 152.56 32 152.49 32C152.15 32 151.805 32 151.455 32C151.105 31.99 150.755 31.985 150.405 31.985C150.225 31.985 150.04 31.985 149.85 31.985C149.67 31.985 149.49 31.99 149.31 32C149.14 32.01 148.97 32.02 148.8 32.03C148.63 32.04 148.46 32.045 148.29 32.045C148.1 32.045 148.005 31.945 148.005 31.745C148.005 31.645 148.03 31.585 148.08 31.565C148.14 31.535 148.21 31.52 148.29 31.52C148.37 31.52 148.45 31.525 148.53 31.535C148.62 31.535 148.705 31.535 148.785 31.535C149.025 31.535 149.19 31.515 149.28 31.475C149.38 31.425 149.435 31.345 149.445 31.235C149.455 31.115 149.46 30.95 149.46 30.74V21.98C149.09 22.96 148.71 23.94 148.32 24.92C147.94 25.9 147.55 26.88 147.15 27.86C146.98 28.27 146.81 28.68 146.64 29.09C146.47 29.49 146.3 29.895 146.13 30.305C146.06 30.485 145.99 30.67 145.92 30.86C145.85 31.04 145.77 31.215 145.68 31.385C145.64 31.455 145.58 31.505 145.5 31.535C145.43 31.565 145.355 31.58 145.275 31.58C145.195 31.58 145.115 31.565 145.035 31.535C144.965 31.505 144.91 31.455 144.87 31.385C144.8 31.225 144.73 31.07 144.66 30.92C144.59 30.76 144.52 30.6 144.45 30.44C144.3 30.1 144.15 29.765 144 29.435C143.86 29.095 143.72 28.76 143.58 28.43C143.15 27.41 142.725 26.39 142.305 25.37C141.885 24.34 141.46 23.315 141.03 22.295C141.03 23.775 141.03 25.255 141.03 26.735C141.04 28.215 141.045 29.695 141.045 31.175C141.045 31.345 141.105 31.45 141.225 31.49C141.345 31.52 141.47 31.535 141.6 31.535C141.72 31.535 141.84 31.53 141.96 31.52C142.08 31.51 142.195 31.505 142.305 31.505C142.365 31.505 142.405 31.535 142.425 31.595C142.455 31.655 142.47 31.71 142.47 31.76C142.47 31.81 142.45 31.865 142.41 31.925C142.37 31.975 142.32 32 142.26 32C141.99 32 141.715 31.995 141.435 31.985C141.165 31.965 140.895 31.955 140.625 31.955C140.395 31.955 140.16 31.965 139.92 31.985C139.68 32.005 139.445 32.015 139.215 32.015C139.115 32.015 139.035 32.005 138.975 31.985C138.925 31.965 138.9 31.885 138.9 31.745C138.9 31.605 138.985 31.535 139.155 31.535C139.225 31.535 139.295 31.54 139.365 31.55C139.445 31.56 139.52 31.565 139.59 31.565C139.73 31.565 139.885 31.55 140.055 31.52C140.225 31.48 140.315 31.365 140.325 31.175C140.335 31.005 140.335 30.83 140.325 30.65C140.325 30.46 140.325 30.275 140.325 30.095C140.325 29.785 140.325 29.48 140.325 29.18C140.325 28.87 140.325 28.56 140.325 28.25C140.325 27.19 140.33 26.13 140.34 25.07C140.35 24 140.355 22.935 140.355 21.875C140.355 21.705 140.28 21.59 140.13 21.53C139.98 21.47 139.835 21.44 139.695 21.44C139.605 21.44 139.515 21.45 139.425 21.47C139.335 21.48 139.245 21.485 139.155 21.485C139.085 21.485 139.025 21.455 138.975 21.395C138.935 21.335 138.915 21.275 138.915 21.215C138.915 21.045 139 20.96 139.17 20.96C139.29 20.96 139.41 20.965 139.53 20.975C139.65 20.985 139.77 20.99 139.89 20.99C140.1 21 140.31 21.01 140.52 21.02C140.73 21.02 140.94 21.02 141.15 21.02C141.35 21.02 141.55 21.015 141.75 21.005C141.96 20.985 142.16 20.97 142.35 20.96L145.83 29.255C146.37 27.865 146.935 26.485 147.525 25.115C148.115 23.745 148.66 22.36 149.16 20.96C149.42 20.96 149.68 20.965 149.94 20.975C150.21 20.975 150.475 20.975 150.735 20.975C151.025 20.975 151.32 20.965 151.62 20.945C151.92 20.925 152.215 20.915 152.505 20.915C152.575 20.915 152.63 20.945 152.67 21.005C152.71 21.055 152.73 21.11 152.73 21.17C152.73 21.23 152.71 21.29 152.67 21.35C152.63 21.41 152.575 21.44 152.505 21.44C152.385 21.44 152.265 21.435 152.145 21.425C152.025 21.415 151.9 21.41 151.77 21.41C151.67 21.41 151.54 21.44 151.38 21.5C151.23 21.55 151.155 21.64 151.155 21.77C151.155 22.54 151.155 23.31 151.155 24.08C151.155 24.85 151.155 25.62 151.155 26.39C151.155 27.09 151.155 27.795 151.155 28.505C151.155 29.205 151.155 29.91 151.155 30.62C151.155 30.71 151.155 30.83 151.155 30.98C151.155 31.13 151.175 31.245 151.215 31.325C151.265 31.425 151.345 31.485 151.455 31.505C151.575 31.515 151.68 31.52 151.77 31.52C151.9 31.52 152.025 31.52 152.145 31.52C152.275 31.51 152.4 31.505 152.52 31.505C152.69 31.505 152.775 31.595 152.775 31.775ZM159.844 28.01C159.844 27.6 159.814 27.18 159.754 26.75C159.694 26.32 159.579 25.92 159.409 25.55C159.239 25.18 158.994 24.885 158.674 24.665C158.364 24.435 157.949 24.32 157.429 24.32C156.949 24.32 156.554 24.44 156.244 24.68C155.944 24.92 155.714 25.235 155.554 25.625C155.394 26.005 155.279 26.41 155.209 26.84C155.149 27.26 155.119 27.66 155.119 28.04C155.119 28.46 155.149 28.88 155.209 29.3C155.279 29.71 155.399 30.09 155.569 30.44C155.739 30.79 155.984 31.07 156.304 31.28C156.624 31.49 157.039 31.595 157.549 31.595C158.049 31.595 158.449 31.485 158.749 31.265C159.059 31.045 159.289 30.755 159.439 30.395C159.599 30.035 159.704 29.645 159.754 29.225C159.814 28.805 159.844 28.4 159.844 28.01ZM161.554 28.07C161.554 28.83 161.369 29.51 160.999 30.11C160.639 30.71 160.149 31.185 159.529 31.535C158.919 31.875 158.234 32.045 157.474 32.045C156.724 32.045 156.049 31.875 155.449 31.535C154.849 31.185 154.369 30.71 154.009 30.11C153.659 29.51 153.484 28.84 153.484 28.1C153.484 27.33 153.659 26.625 154.009 25.985C154.359 25.345 154.839 24.835 155.449 24.455C156.059 24.065 156.754 23.87 157.534 23.87C158.394 23.87 159.119 24.045 159.709 24.395C160.309 24.745 160.764 25.235 161.074 25.865C161.394 26.495 161.554 27.23 161.554 28.07ZM169.251 27.74C169.251 27.4 169.221 27.05 169.161 26.69C169.101 26.32 168.991 25.98 168.831 25.67C168.681 25.35 168.471 25.09 168.201 24.89C167.931 24.69 167.586 24.59 167.166 24.59C166.986 24.59 166.771 24.645 166.521 24.755C166.281 24.865 166.096 24.98 165.966 25.1C165.776 25.28 165.626 25.485 165.516 25.715C165.416 25.935 165.366 26.175 165.366 26.435C165.366 26.925 165.361 27.425 165.351 27.935C165.351 28.435 165.351 28.935 165.351 29.435C165.351 29.545 165.346 29.725 165.336 29.975C165.336 30.225 165.341 30.47 165.351 30.71C165.371 30.94 165.401 31.1 165.441 31.19C165.511 31.32 165.651 31.415 165.861 31.475C166.081 31.535 166.261 31.565 166.401 31.565C166.921 31.565 167.361 31.455 167.721 31.235C168.091 31.005 168.386 30.705 168.606 30.335C168.836 29.955 169.001 29.54 169.101 29.09C169.201 28.64 169.251 28.19 169.251 27.74ZM170.931 27.755C170.931 28.575 170.751 29.305 170.391 29.945C170.031 30.585 169.531 31.09 168.891 31.46C168.261 31.83 167.531 32.015 166.701 32.015C166.351 32.015 165.991 31.965 165.621 31.865C165.261 31.755 164.921 31.7 164.601 31.7C164.521 31.7 164.441 31.705 164.361 31.715C164.291 31.725 164.216 31.73 164.136 31.73C163.906 31.73 163.791 31.63 163.791 31.43C163.791 31.39 163.791 31.355 163.791 31.325C163.801 31.285 163.806 31.245 163.806 31.205C163.856 30.825 163.881 30.415 163.881 29.975C163.881 29.525 163.881 29.11 163.881 28.73C163.881 27.57 163.876 26.41 163.866 25.25C163.856 24.09 163.846 22.935 163.836 21.785C163.836 21.635 163.821 21.51 163.791 21.41C163.771 21.31 163.666 21.26 163.476 21.26C163.336 21.26 163.196 21.27 163.056 21.29C162.926 21.3 162.791 21.305 162.651 21.305C162.591 21.305 162.531 21.295 162.471 21.275C162.421 21.245 162.396 21.195 162.396 21.125C162.396 21.055 162.426 21.005 162.486 20.975C162.556 20.935 162.616 20.91 162.666 20.9C162.926 20.84 163.186 20.79 163.446 20.75C163.716 20.7 163.981 20.65 164.241 20.6C164.361 20.58 164.521 20.545 164.721 20.495C164.921 20.435 165.071 20.405 165.171 20.405C165.291 20.405 165.351 20.45 165.351 20.54C165.351 20.62 165.351 20.7 165.351 20.78V24.815C165.661 24.565 166.021 24.36 166.431 24.2C166.841 24.04 167.246 23.96 167.646 23.96C168.376 23.96 168.981 24.14 169.461 24.5C169.951 24.85 170.316 25.315 170.556 25.895C170.806 26.465 170.931 27.085 170.931 27.755ZM176.171 31.775C176.171 31.835 176.141 31.89 176.081 31.94C176.031 31.99 175.976 32.015 175.916 32.015C175.566 32.015 175.216 32.01 174.866 32C174.516 31.98 174.166 31.97 173.816 31.97C173.526 31.97 173.231 31.98 172.931 32C172.641 32.01 172.351 32.015 172.061 32.015C172.011 32.015 171.966 31.99 171.926 31.94C171.886 31.88 171.866 31.83 171.866 31.79C171.866 31.67 171.921 31.605 172.031 31.595C172.151 31.575 172.276 31.57 172.406 31.58C172.546 31.59 172.676 31.595 172.796 31.595C172.926 31.595 173.036 31.565 173.126 31.505C173.216 31.435 173.261 31.335 173.261 31.205V29.255L173.276 25.145C173.276 25.005 173.251 24.89 173.201 24.8C173.161 24.7 173.056 24.65 172.886 24.65C172.756 24.65 172.621 24.66 172.481 24.68C172.351 24.7 172.216 24.71 172.076 24.71C172.036 24.71 171.986 24.7 171.926 24.68C171.866 24.65 171.836 24.61 171.836 24.56C171.836 24.43 171.886 24.355 171.986 24.335C172.116 24.295 172.246 24.27 172.376 24.26C172.506 24.24 172.636 24.22 172.766 24.2C173.046 24.15 173.321 24.095 173.591 24.035C173.871 23.965 174.151 23.9 174.431 23.84C174.491 23.82 174.546 23.81 174.596 23.81C174.776 23.81 174.866 23.885 174.866 24.035C174.866 25.225 174.861 26.42 174.851 27.62C174.841 28.81 174.836 30.005 174.836 31.205C174.836 31.385 174.921 31.495 175.091 31.535C175.261 31.565 175.411 31.58 175.541 31.58C175.621 31.58 175.696 31.58 175.766 31.58C175.846 31.57 175.921 31.565 175.991 31.565C176.031 31.565 176.071 31.59 176.111 31.64C176.151 31.69 176.171 31.735 176.171 31.775ZM174.941 21.38C174.941 21.66 174.841 21.885 174.641 22.055C174.441 22.225 174.206 22.31 173.936 22.31C173.666 22.31 173.431 22.225 173.231 22.055C173.031 21.885 172.931 21.66 172.931 21.38C172.931 21.1 173.031 20.875 173.231 20.705C173.431 20.535 173.666 20.45 173.936 20.45C174.206 20.45 174.441 20.535 174.641 20.705C174.841 20.875 174.941 21.1 174.941 21.38ZM181.297 31.775C181.297 31.835 181.267 31.89 181.207 31.94C181.157 31.99 181.102 32.015 181.042 32.015C180.732 32.015 180.417 32.01 180.097 32C179.777 31.98 179.457 31.97 179.137 31.97C178.947 31.97 178.757 31.97 178.567 31.97C178.387 31.97 178.202 31.975 178.012 31.985C177.902 31.995 177.792 32 177.682 32C177.572 32.01 177.462 32.015 177.352 32.015C177.292 32.015 177.242 31.985 177.202 31.925C177.172 31.865 177.157 31.81 177.157 31.76C177.157 31.66 177.212 31.595 177.322 31.565C177.412 31.545 177.507 31.54 177.607 31.55C177.717 31.56 177.822 31.565 177.922 31.565C178.042 31.565 178.147 31.535 178.237 31.475C178.337 31.405 178.387 31.305 178.387 31.175C178.387 30.405 178.392 29.63 178.402 28.85C178.412 28.07 178.417 27.295 178.417 26.525C178.417 25.745 178.412 24.965 178.402 24.185C178.392 23.405 178.387 22.625 178.387 21.845C178.387 21.735 178.367 21.63 178.327 21.53C178.297 21.42 178.212 21.365 178.072 21.365C177.902 21.365 177.732 21.39 177.562 21.44C177.392 21.49 177.217 21.515 177.037 21.515C177.007 21.515 176.962 21.505 176.902 21.485C176.842 21.465 176.812 21.435 176.812 21.395C176.812 21.265 176.857 21.185 176.947 21.155C177.067 21.105 177.192 21.075 177.322 21.065C177.452 21.045 177.572 21.02 177.682 20.99C178.002 20.91 178.317 20.825 178.627 20.735C178.947 20.645 179.262 20.55 179.572 20.45C179.602 20.44 179.627 20.435 179.647 20.435C179.677 20.425 179.707 20.42 179.737 20.42C179.877 20.42 179.947 20.495 179.947 20.645C179.947 20.925 179.947 21.21 179.947 21.5C179.947 21.78 179.947 22.065 179.947 22.355V26.375C179.947 27.165 179.947 27.965 179.947 28.775C179.957 29.575 179.962 30.375 179.962 31.175C179.962 31.305 180.022 31.405 180.142 31.475C180.262 31.535 180.377 31.565 180.487 31.565C180.597 31.565 180.702 31.56 180.802 31.55C180.912 31.54 181.017 31.535 181.117 31.535C181.157 31.535 181.197 31.565 181.237 31.625C181.277 31.685 181.297 31.735 181.297 31.775ZM187.623 26.69C187.623 26.41 187.608 26.13 187.578 25.85C187.558 25.57 187.498 25.315 187.398 25.085C187.308 24.845 187.163 24.655 186.963 24.515C186.763 24.365 186.483 24.29 186.123 24.29C185.673 24.29 185.308 24.415 185.028 24.665C184.758 24.915 184.548 25.23 184.398 25.61C184.248 25.98 184.138 26.35 184.068 26.72C184.288 26.73 184.508 26.74 184.728 26.75C184.958 26.75 185.183 26.75 185.403 26.75C185.773 26.75 186.143 26.745 186.513 26.735C186.883 26.715 187.253 26.7 187.623 26.69ZM189.543 30.17C189.543 30.2 189.533 30.235 189.513 30.275C189.463 30.365 189.373 30.48 189.243 30.62C189.113 30.75 188.973 30.875 188.823 30.995C188.683 31.115 188.568 31.21 188.478 31.28C188.138 31.52 187.763 31.71 187.353 31.85C186.943 31.98 186.528 32.045 186.108 32.045C185.758 32.045 185.378 31.99 184.968 31.88C184.568 31.76 184.218 31.605 183.918 31.415C183.358 31.045 182.948 30.565 182.688 29.975C182.438 29.375 182.313 28.75 182.313 28.1C182.313 27.36 182.458 26.67 182.748 26.03C183.038 25.39 183.503 24.87 184.143 24.47C184.433 24.29 184.763 24.145 185.133 24.035C185.503 23.925 185.858 23.87 186.198 23.87C186.798 23.87 187.323 23.99 187.773 24.23C188.233 24.47 188.593 24.815 188.853 25.265C189.113 25.705 189.243 26.23 189.243 26.84C189.243 27.03 189.193 27.15 189.093 27.2C189.003 27.24 188.873 27.26 188.703 27.26C188.503 27.26 188.303 27.255 188.103 27.245C187.903 27.235 187.703 27.225 187.503 27.215C187.233 27.205 186.963 27.2 186.693 27.2C186.433 27.19 186.173 27.185 185.913 27.185C185.593 27.185 185.268 27.185 184.938 27.185C184.618 27.185 184.298 27.19 183.978 27.2C183.968 27.36 183.958 27.515 183.948 27.665C183.938 27.815 183.933 27.97 183.933 28.13C183.933 28.48 183.973 28.85 184.053 29.24C184.133 29.62 184.258 29.975 184.428 30.305C184.608 30.635 184.843 30.905 185.133 31.115C185.423 31.325 185.783 31.43 186.213 31.43C186.653 31.43 187.068 31.365 187.458 31.235C187.848 31.105 188.208 30.895 188.538 30.605C188.638 30.515 188.723 30.42 188.793 30.32C188.873 30.22 188.953 30.12 189.033 30.02C189.093 29.94 189.173 29.9 189.273 29.9C189.343 29.9 189.403 29.93 189.453 29.99C189.513 30.04 189.543 30.1 189.543 30.17ZM205.172 21.185C205.172 21.315 205.127 21.4 205.037 21.44C204.957 21.47 204.857 21.485 204.737 21.485C204.627 21.475 204.527 21.47 204.437 21.47C204.187 21.47 204.017 21.5 203.927 21.56C203.847 21.61 203.802 21.7 203.792 21.83C203.792 21.95 203.792 22.115 203.792 22.325V31.805C203.792 31.845 203.767 31.885 203.717 31.925C203.677 31.965 203.632 31.985 203.582 31.985H202.817C202.777 31.755 202.702 31.53 202.592 31.31C202.492 31.09 202.372 30.89 202.232 30.71C201.182 29.33 200.132 27.955 199.082 26.585C198.032 25.205 196.997 23.82 195.977 22.43C195.977 23.88 195.977 25.335 195.977 26.795C195.977 28.255 195.977 29.715 195.977 31.175C195.977 31.345 196.047 31.45 196.187 31.49C196.337 31.53 196.477 31.55 196.607 31.55C196.717 31.55 196.822 31.545 196.922 31.535C197.022 31.525 197.122 31.52 197.222 31.52C197.362 31.52 197.432 31.6 197.432 31.76C197.432 31.86 197.412 31.935 197.372 31.985C197.332 32.025 197.257 32.045 197.147 32.045C197.047 32.045 196.952 32.035 196.862 32.015C196.772 32.005 196.677 31.995 196.577 31.985C196.417 31.975 196.257 31.97 196.097 31.97C195.937 31.97 195.772 31.97 195.602 31.97C195.342 31.97 195.077 31.98 194.807 32C194.547 32.03 194.287 32.045 194.027 32.045C193.937 32.045 193.877 32.025 193.847 31.985C193.827 31.945 193.817 31.89 193.817 31.82C193.817 31.71 193.837 31.635 193.877 31.595C193.917 31.555 193.992 31.535 194.102 31.535C194.202 31.535 194.297 31.54 194.387 31.55C194.477 31.55 194.567 31.55 194.657 31.55C194.797 31.55 194.917 31.53 195.017 31.49C195.127 31.45 195.187 31.345 195.197 31.175C195.217 30.985 195.222 30.795 195.212 30.605C195.212 30.405 195.212 30.21 195.212 30.02L195.197 28.205C195.197 27.165 195.207 26.125 195.227 25.085C195.247 24.035 195.257 22.985 195.257 21.935C195.257 21.705 195.177 21.565 195.017 21.515C194.867 21.465 194.702 21.44 194.522 21.44C194.452 21.44 194.382 21.445 194.312 21.455C194.242 21.465 194.172 21.47 194.102 21.47C194.032 21.47 193.967 21.455 193.907 21.425C193.847 21.385 193.817 21.33 193.817 21.26C193.817 21.06 193.907 20.96 194.087 20.96C194.347 20.96 194.607 20.97 194.867 20.99C195.127 21 195.382 21.005 195.632 21.005C195.832 21.005 196.027 21.005 196.217 21.005C196.417 20.995 196.612 20.99 196.802 20.99C197.182 21.49 197.567 21.985 197.957 22.475C198.347 22.955 198.737 23.435 199.127 23.915C199.777 24.715 200.427 25.515 201.077 26.315C201.727 27.115 202.382 27.91 203.042 28.7L203.057 27.26C203.057 26.35 203.052 25.44 203.042 24.53C203.042 23.62 203.042 22.71 203.042 21.8C203.042 21.68 202.997 21.595 202.907 21.545C202.817 21.485 202.717 21.455 202.607 21.455C202.467 21.455 202.327 21.46 202.187 21.47C202.057 21.48 201.922 21.485 201.782 21.485C201.722 21.485 201.672 21.46 201.632 21.41C201.602 21.35 201.587 21.295 201.587 21.245C201.587 21.135 201.597 21.065 201.617 21.035C201.647 20.995 201.722 20.975 201.842 20.975C202.102 20.975 202.367 20.98 202.637 20.99C202.907 21 203.172 21.005 203.432 21.005C203.692 21.005 203.952 21 204.212 20.99C204.482 20.97 204.747 20.96 205.007 20.96C205.117 20.96 205.172 21.035 205.172 21.185ZM214.656 31.535C214.656 31.665 214.561 31.765 214.371 31.835C214.191 31.905 213.991 31.955 213.771 31.985C213.561 32.005 213.406 32.015 213.306 32.015C212.966 32.015 212.691 31.895 212.481 31.655C212.281 31.415 212.126 31.15 212.016 30.86C211.676 31.26 211.246 31.56 210.726 31.76C210.206 31.96 209.686 32.06 209.166 32.06C208.246 32.06 207.601 31.82 207.231 31.34C206.871 30.86 206.691 30.185 206.691 29.315C206.691 28.575 206.691 27.835 206.691 27.095C206.701 26.345 206.711 25.595 206.721 24.845C206.721 24.725 206.696 24.63 206.646 24.56C206.606 24.48 206.516 24.44 206.376 24.44C206.296 24.44 206.216 24.445 206.136 24.455C206.056 24.465 205.976 24.47 205.896 24.47C205.856 24.47 205.811 24.45 205.761 24.41C205.721 24.37 205.701 24.335 205.701 24.305C205.701 24.215 205.721 24.16 205.761 24.14C205.801 24.12 205.861 24.105 205.941 24.095C206.041 24.075 206.141 24.065 206.241 24.065C206.341 24.065 206.441 24.06 206.541 24.05C206.721 24.03 206.896 24.015 207.066 24.005C207.246 23.995 207.426 23.985 207.606 23.975C207.686 23.965 207.766 23.955 207.846 23.945C207.926 23.935 208.006 23.93 208.086 23.93C208.136 23.93 208.181 23.975 208.221 24.065C208.261 24.145 208.281 24.21 208.281 24.26C208.281 25.12 208.271 25.985 208.251 26.855C208.231 27.715 208.221 28.575 208.221 29.435C208.221 29.625 208.226 29.825 208.236 30.035C208.246 30.245 208.286 30.44 208.356 30.62C208.466 30.89 208.661 31.08 208.941 31.19C209.231 31.3 209.511 31.355 209.781 31.355C210.071 31.355 210.366 31.3 210.666 31.19C210.976 31.07 211.241 30.9 211.461 30.68C211.681 30.46 211.806 30.19 211.836 29.87C211.856 29.68 211.866 29.49 211.866 29.3C211.866 29.1 211.866 28.905 211.866 28.715V24.8C211.866 24.7 211.831 24.62 211.761 24.56C211.701 24.5 211.621 24.47 211.521 24.47C211.421 24.47 211.321 24.475 211.221 24.485C211.131 24.495 211.036 24.5 210.936 24.5C210.786 24.5 210.711 24.435 210.711 24.305C210.711 24.235 210.726 24.19 210.756 24.17C210.796 24.14 210.846 24.12 210.906 24.11C211.026 24.09 211.151 24.08 211.281 24.08C211.411 24.07 211.541 24.06 211.671 24.05C211.891 24.03 212.146 24 212.436 23.96C212.726 23.92 212.971 23.9 213.171 23.9C213.221 23.9 213.271 23.93 213.321 23.99C213.381 24.05 213.406 24.105 213.396 24.155C213.386 25.225 213.376 26.3 213.366 27.38C213.356 28.46 213.351 29.54 213.351 30.62C213.351 30.84 213.401 31.03 213.501 31.19C213.601 31.35 213.776 31.43 214.026 31.43C214.106 31.43 214.186 31.42 214.266 31.4C214.346 31.37 214.426 31.355 214.506 31.355C214.606 31.355 214.656 31.415 214.656 31.535ZM228.44 31.775C228.44 31.845 228.41 31.905 228.35 31.955C228.3 31.995 228.24 32.015 228.17 32.015C228.07 32.015 227.97 32.01 227.87 32C227.78 32 227.68 31.995 227.57 31.985C227.38 31.975 227.195 31.97 227.015 31.97C226.835 31.97 226.65 31.97 226.46 31.97C226.16 31.97 225.86 31.98 225.56 32C225.27 32.01 224.98 32.015 224.69 32.015C224.65 32.015 224.605 31.99 224.555 31.94C224.515 31.89 224.495 31.845 224.495 31.805C224.495 31.695 224.545 31.63 224.645 31.61C224.755 31.58 224.875 31.57 225.005 31.58C225.135 31.59 225.235 31.595 225.305 31.595C225.565 31.595 225.695 31.465 225.695 31.205C225.695 30.565 225.7 29.93 225.71 29.3C225.72 28.66 225.725 28.02 225.725 27.38C225.725 27.18 225.72 26.925 225.71 26.615C225.7 26.295 225.68 25.985 225.65 25.685C225.62 25.375 225.565 25.135 225.485 24.965C225.405 24.765 225.275 24.625 225.095 24.545C224.915 24.455 224.72 24.41 224.51 24.41C224.3 24.41 224.07 24.475 223.82 24.605C223.57 24.735 223.325 24.89 223.085 25.07C222.855 25.25 222.665 25.41 222.515 25.55C222.535 25.68 222.545 25.82 222.545 25.97C222.545 26.11 222.545 26.25 222.545 26.39C222.545 26.68 222.545 26.975 222.545 27.275C222.555 27.565 222.56 27.855 222.56 28.145C222.56 28.655 222.555 29.165 222.545 29.675C222.545 30.185 222.545 30.695 222.545 31.205C222.545 31.335 222.6 31.435 222.71 31.505C222.83 31.565 222.95 31.595 223.07 31.595C223.15 31.595 223.225 31.59 223.295 31.58C223.375 31.57 223.455 31.565 223.535 31.565C223.585 31.565 223.63 31.59 223.67 31.64C223.71 31.69 223.73 31.735 223.73 31.775C223.73 31.845 223.7 31.905 223.64 31.955C223.59 31.995 223.53 32.015 223.46 32.015C223.36 32.015 223.26 32.01 223.16 32C223.07 32 222.97 31.995 222.86 31.985C222.67 31.975 222.48 31.97 222.29 31.97C222.11 31.97 221.93 31.97 221.75 31.97C221.46 31.97 221.17 31.98 220.88 32C220.6 32.01 220.315 32.015 220.025 32.015C219.985 32.015 219.94 31.99 219.89 31.94C219.85 31.89 219.83 31.845 219.83 31.805C219.83 31.685 219.885 31.615 219.995 31.595C220.095 31.575 220.195 31.57 220.295 31.58C220.405 31.59 220.51 31.595 220.61 31.595C220.87 31.595 221 31.465 221 31.205C221 30.535 221 29.87 221 29.21C221.01 28.54 221.015 27.87 221.015 27.2C221.015 27 221.01 26.76 221 26.48C221 26.2 220.98 25.92 220.94 25.64C220.91 25.36 220.855 25.135 220.775 24.965C220.705 24.805 220.595 24.68 220.445 24.59C220.295 24.49 220.13 24.44 219.95 24.44C219.82 24.44 219.685 24.455 219.545 24.485C219.385 24.525 219.195 24.615 218.975 24.755C218.765 24.895 218.56 25.05 218.36 25.22C218.16 25.38 218 25.525 217.88 25.655C217.88 26.575 217.88 27.5 217.88 28.43C217.88 29.36 217.88 30.285 217.88 31.205C217.88 31.335 217.93 31.435 218.03 31.505C218.13 31.565 218.235 31.595 218.345 31.595C218.425 31.595 218.5 31.59 218.57 31.58C218.64 31.57 218.71 31.565 218.78 31.565C218.83 31.565 218.875 31.59 218.915 31.64C218.955 31.69 218.975 31.735 218.975 31.775C218.975 31.845 218.945 31.905 218.885 31.955C218.835 31.995 218.775 32.015 218.705 32.015C218.615 32.015 218.525 32.01 218.435 32C218.345 32 218.25 31.995 218.15 31.985C217.97 31.975 217.79 31.97 217.61 31.97C217.43 31.97 217.25 31.97 217.07 31.97C216.78 31.97 216.485 31.98 216.185 32C215.885 32.01 215.585 32.015 215.285 32.015C215.235 32.015 215.19 31.99 215.15 31.94C215.11 31.89 215.09 31.845 215.09 31.805C215.09 31.685 215.145 31.615 215.255 31.595C215.365 31.575 215.475 31.57 215.585 31.58C215.705 31.59 215.82 31.595 215.93 31.595C216.2 31.595 216.335 31.465 216.335 31.205C216.335 30.195 216.33 29.185 216.32 28.175C216.32 27.155 216.32 26.14 216.32 25.13C216.32 24.99 216.3 24.865 216.26 24.755C216.22 24.635 216.115 24.575 215.945 24.575C215.815 24.575 215.69 24.59 215.57 24.62C215.45 24.65 215.325 24.665 215.195 24.665C215.045 24.665 214.97 24.59 214.97 24.44C214.97 24.36 215.02 24.305 215.12 24.275C215.17 24.255 215.225 24.245 215.285 24.245C215.355 24.245 215.42 24.24 215.48 24.23C215.62 24.21 215.755 24.19 215.885 24.17C216.025 24.14 216.16 24.115 216.29 24.095C216.47 24.065 216.65 24.025 216.83 23.975C217.01 23.925 217.195 23.9 217.385 23.9C217.505 23.9 217.59 23.935 217.64 24.005C217.71 24.115 217.755 24.28 217.775 24.5C217.795 24.71 217.81 24.88 217.82 25.01C218.13 24.75 218.48 24.495 218.87 24.245C219.27 23.985 219.68 23.855 220.1 23.855C220.6 23.855 221.04 23.93 221.42 24.08C221.8 24.23 222.115 24.535 222.365 24.995C222.695 24.705 223.07 24.44 223.49 24.2C223.91 23.95 224.345 23.825 224.795 23.825C225.465 23.825 225.98 23.915 226.34 24.095C226.7 24.275 226.95 24.56 227.09 24.95C227.24 25.34 227.315 25.855 227.315 26.495C227.315 27.275 227.305 28.06 227.285 28.85C227.275 29.63 227.27 30.41 227.27 31.19C227.27 31.34 227.315 31.44 227.405 31.49C227.505 31.54 227.62 31.565 227.75 31.565C227.89 31.565 228.01 31.565 228.11 31.565C228.19 31.565 228.265 31.575 228.335 31.595C228.405 31.615 228.44 31.675 228.44 31.775ZM235.594 27.74C235.594 27.4 235.564 27.05 235.504 26.69C235.444 26.32 235.334 25.98 235.174 25.67C235.024 25.35 234.814 25.09 234.544 24.89C234.274 24.69 233.929 24.59 233.509 24.59C233.329 24.59 233.114 24.645 232.864 24.755C232.624 24.865 232.439 24.98 232.309 25.1C232.119 25.28 231.969 25.485 231.859 25.715C231.759 25.935 231.709 26.175 231.709 26.435C231.709 26.925 231.704 27.425 231.694 27.935C231.694 28.435 231.694 28.935 231.694 29.435C231.694 29.545 231.689 29.725 231.679 29.975C231.679 30.225 231.684 30.47 231.694 30.71C231.714 30.94 231.744 31.1 231.784 31.19C231.854 31.32 231.994 31.415 232.204 31.475C232.424 31.535 232.604 31.565 232.744 31.565C233.264 31.565 233.704 31.455 234.064 31.235C234.434 31.005 234.729 30.705 234.949 30.335C235.179 29.955 235.344 29.54 235.444 29.09C235.544 28.64 235.594 28.19 235.594 27.74ZM237.274 27.755C237.274 28.575 237.094 29.305 236.734 29.945C236.374 30.585 235.874 31.09 235.234 31.46C234.604 31.83 233.874 32.015 233.044 32.015C232.694 32.015 232.334 31.965 231.964 31.865C231.604 31.755 231.264 31.7 230.944 31.7C230.864 31.7 230.784 31.705 230.704 31.715C230.634 31.725 230.559 31.73 230.479 31.73C230.249 31.73 230.134 31.63 230.134 31.43C230.134 31.39 230.134 31.355 230.134 31.325C230.144 31.285 230.149 31.245 230.149 31.205C230.199 30.825 230.224 30.415 230.224 29.975C230.224 29.525 230.224 29.11 230.224 28.73C230.224 27.57 230.219 26.41 230.209 25.25C230.199 24.09 230.189 22.935 230.179 21.785C230.179 21.635 230.164 21.51 230.134 21.41C230.114 21.31 230.009 21.26 229.819 21.26C229.679 21.26 229.539 21.27 229.399 21.29C229.269 21.3 229.134 21.305 228.994 21.305C228.934 21.305 228.874 21.295 228.814 21.275C228.764 21.245 228.739 21.195 228.739 21.125C228.739 21.055 228.769 21.005 228.829 20.975C228.899 20.935 228.959 20.91 229.009 20.9C229.269 20.84 229.529 20.79 229.789 20.75C230.059 20.7 230.324 20.65 230.584 20.6C230.704 20.58 230.864 20.545 231.064 20.495C231.264 20.435 231.414 20.405 231.514 20.405C231.634 20.405 231.694 20.45 231.694 20.54C231.694 20.62 231.694 20.7 231.694 20.78V24.815C232.004 24.565 232.364 24.36 232.774 24.2C233.184 24.04 233.589 23.96 233.989 23.96C234.719 23.96 235.324 24.14 235.804 24.5C236.294 24.85 236.659 25.315 236.899 25.895C237.149 26.465 237.274 27.085 237.274 27.755ZM243.624 26.69C243.624 26.41 243.609 26.13 243.579 25.85C243.559 25.57 243.499 25.315 243.399 25.085C243.309 24.845 243.164 24.655 242.964 24.515C242.764 24.365 242.484 24.29 242.124 24.29C241.674 24.29 241.309 24.415 241.029 24.665C240.759 24.915 240.549 25.23 240.399 25.61C240.249 25.98 240.139 26.35 240.069 26.72C240.289 26.73 240.509 26.74 240.729 26.75C240.959 26.75 241.184 26.75 241.404 26.75C241.774 26.75 242.144 26.745 242.514 26.735C242.884 26.715 243.254 26.7 243.624 26.69ZM245.544 30.17C245.544 30.2 245.534 30.235 245.514 30.275C245.464 30.365 245.374 30.48 245.244 30.62C245.114 30.75 244.974 30.875 244.824 30.995C244.684 31.115 244.569 31.21 244.479 31.28C244.139 31.52 243.764 31.71 243.354 31.85C242.944 31.98 242.529 32.045 242.109 32.045C241.759 32.045 241.379 31.99 240.969 31.88C240.569 31.76 240.219 31.605 239.919 31.415C239.359 31.045 238.949 30.565 238.689 29.975C238.439 29.375 238.314 28.75 238.314 28.1C238.314 27.36 238.459 26.67 238.749 26.03C239.039 25.39 239.504 24.87 240.144 24.47C240.434 24.29 240.764 24.145 241.134 24.035C241.504 23.925 241.859 23.87 242.199 23.87C242.799 23.87 243.324 23.99 243.774 24.23C244.234 24.47 244.594 24.815 244.854 25.265C245.114 25.705 245.244 26.23 245.244 26.84C245.244 27.03 245.194 27.15 245.094 27.2C245.004 27.24 244.874 27.26 244.704 27.26C244.504 27.26 244.304 27.255 244.104 27.245C243.904 27.235 243.704 27.225 243.504 27.215C243.234 27.205 242.964 27.2 242.694 27.2C242.434 27.19 242.174 27.185 241.914 27.185C241.594 27.185 241.269 27.185 240.939 27.185C240.619 27.185 240.299 27.19 239.979 27.2C239.969 27.36 239.959 27.515 239.949 27.665C239.939 27.815 239.934 27.97 239.934 28.13C239.934 28.48 239.974 28.85 240.054 29.24C240.134 29.62 240.259 29.975 240.429 30.305C240.609 30.635 240.844 30.905 241.134 31.115C241.424 31.325 241.784 31.43 242.214 31.43C242.654 31.43 243.069 31.365 243.459 31.235C243.849 31.105 244.209 30.895 244.539 30.605C244.639 30.515 244.724 30.42 244.794 30.32C244.874 30.22 244.954 30.12 245.034 30.02C245.094 29.94 245.174 29.9 245.274 29.9C245.344 29.9 245.404 29.93 245.454 29.99C245.514 30.04 245.544 30.1 245.544 30.17ZM252.443 25.28C252.443 25.42 252.398 25.53 252.308 25.61C252.218 25.69 252.103 25.73 251.963 25.73C251.783 25.73 251.653 25.68 251.573 25.58C251.503 25.48 251.443 25.365 251.393 25.235C251.353 25.105 251.293 24.99 251.213 24.89C251.143 24.79 251.013 24.74 250.823 24.74C250.633 24.74 250.428 24.825 250.208 24.995C249.998 25.165 249.798 25.375 249.608 25.625C249.418 25.875 249.258 26.125 249.128 26.375C249.008 26.625 248.943 26.83 248.933 26.99C248.923 27.2 248.918 27.415 248.918 27.635C248.918 27.845 248.918 28.055 248.918 28.265C248.918 28.745 248.918 29.23 248.918 29.72C248.928 30.2 248.933 30.68 248.933 31.16C248.933 31.29 248.993 31.39 249.113 31.46C249.233 31.52 249.348 31.55 249.458 31.55C249.558 31.55 249.653 31.545 249.743 31.535C249.833 31.525 249.928 31.52 250.028 31.52C250.078 31.52 250.123 31.545 250.163 31.595C250.203 31.645 250.223 31.69 250.223 31.73C250.223 31.79 250.198 31.855 250.148 31.925C250.108 31.985 250.058 32.015 249.998 32.015C249.678 32.015 249.358 32.01 249.038 32C248.718 31.98 248.398 31.97 248.078 31.97C247.768 31.97 247.458 31.975 247.148 31.985C246.838 31.995 246.523 32 246.203 32C246.153 32 246.108 31.97 246.068 31.91C246.038 31.85 246.023 31.8 246.023 31.76C246.023 31.63 246.073 31.555 246.173 31.535C246.283 31.515 246.403 31.51 246.533 31.52C246.663 31.53 246.783 31.535 246.893 31.535C247.173 31.535 247.318 31.405 247.328 31.145C247.358 30.685 247.373 30.225 247.373 29.765C247.373 29.305 247.373 28.845 247.373 28.385V27.275C247.373 26.925 247.368 26.575 247.358 26.225C247.358 25.875 247.343 25.525 247.313 25.175C247.303 25.005 247.258 24.88 247.178 24.8C247.098 24.71 246.968 24.665 246.788 24.665C246.708 24.665 246.628 24.675 246.548 24.695C246.468 24.715 246.388 24.725 246.308 24.725C246.148 24.725 246.068 24.655 246.068 24.515C246.068 24.425 246.113 24.365 246.203 24.335C246.303 24.295 246.408 24.27 246.518 24.26C246.638 24.25 246.748 24.235 246.848 24.215C247.248 24.155 247.633 24.08 248.003 23.99C248.033 23.99 248.118 23.975 248.258 23.945C248.398 23.905 248.473 23.885 248.483 23.885C248.623 23.885 248.728 23.945 248.798 24.065C248.818 24.095 248.833 24.19 248.843 24.35C248.853 24.51 248.858 24.695 248.858 24.905C248.858 25.105 248.858 25.295 248.858 25.475C248.858 25.645 248.858 25.76 248.858 25.82C249.078 25.48 249.323 25.16 249.593 24.86C249.873 24.56 250.183 24.315 250.523 24.125C250.873 23.935 251.263 23.84 251.693 23.84C251.973 23.84 252.148 23.915 252.218 24.065C252.298 24.205 252.353 24.39 252.383 24.62C252.403 24.72 252.418 24.83 252.428 24.95C252.438 25.06 252.443 25.17 252.443 25.28Z" fill="#686666"/>
<path d="M19 17C22.3137 17 25 14.3137 25 11C25 7.68629 22.3137 5 19 5C15.6863 5 13 7.68629 13 11C13 14.3137 15.6863 17 19 17Z" stroke="black" stroke-linecap="round"/>
<path d="M30 33V29C30 22.804 25.01 17 19 17C12.99 17 8 22.804 8 29V33" stroke="black" stroke-linecap="round"/>
<line x1="8" y1="41.5" x2="275" y2="41.5" stroke="black"/>
</svg>
