<svg width="350" height="29" viewBox="0 0 350 29" fill="none" xmlns="http://www.w3.org/2000/svg">
<path d="M12 8C12 6.4087 11.3679 4.88258 10.2426 3.75736C9.11742 2.63214 7.5913 2 6 2C4.4087 2 2.88258 2.63214 1.75736 3.75736C0.632141 4.88258 2.40279e-07 6.4087 0 8V14H6H11.5L12 8Z" fill="#256F5F"/>
<path d="M350 7C350 5.14349 349.263 3.36301 347.95 2.05025C346.637 0.737498 344.857 1.40163e-07 343 0C341.143 -1.40163e-07 339.363 0.737498 338.05 2.05025C336.737 3.36301 336 5.14348 336 7V14H343H350V7Z" fill="#256F5F"/>
<path d="M16.9107 9.28516C17.1026 8.45195 16.9827 7.57735 16.5739 6.82643C16.1651 6.0755 15.4955 5.5002 14.6916 5.2091C13.8877 4.918 13.005 4.93124 12.2102 5.24632C11.4153 5.5614 10.7633 6.15652 10.3772 6.91937L10.5 14H13.5H17L16.9107 9.28516Z" fill="#256F5F"/>
<path d="M21 9.5C21 8.58893 20.6447 7.71377 20.0097 7.06047C19.3747 6.40718 18.5099 6.02724 17.5992 6.00141C16.6885 5.97557 15.8036 6.30587 15.1326 6.92211C14.4616 7.53836 14.0573 8.39197 14.0056 9.30158L14 14H17.5992H21L21 9.5Z" fill="#256F5F"/>
<path d="M28 8.5C28 7.30653 27.5259 6.16193 26.682 5.31802C25.8381 4.47411 24.6935 4 23.5 4C22.3065 4 21.1619 4.47411 20.318 5.31802C19.4741 6.16193 19 7.30653 19 8.5V14H23.5H28V8.5Z" fill="#256F5F"/>
<path d="M33 8.5C33 7.98455 32.8862 7.47546 32.6666 7.00912C32.447 6.54277 32.1272 6.13067 31.7299 5.80228C31.3326 5.47388 30.8676 5.23729 30.3683 5.10942C29.869 4.98154 29.3476 4.96553 28.8413 5.06254C28.3351 5.15955 27.8565 5.36717 27.4398 5.67058C27.0231 5.97398 26.6786 6.36568 26.4308 6.81768C26.1831 7.26968 26.0382 7.77082 26.0066 8.2853C25.975 8.79978 26.0574 9.3149 26.2479 9.79383V14H29H33L33 8.5Z" fill="#256F5F"/>
<path d="M40.9998 9.5C40.9998 8.90905 40.8834 8.32389 40.6572 7.77792C40.4311 7.23196 40.0996 6.73588 39.6817 6.31802C39.2639 5.90016 38.7678 5.56869 38.2218 5.34254C37.6759 5.1164 37.0907 5 36.4998 5C35.9088 5 35.3236 5.1164 34.7777 5.34254C34.2317 5.56869 33.7356 5.90016 33.3178 6.31802C32.8999 6.73588 32.5684 7.23196 32.3423 7.77792C32.1162 8.32389 31.9998 8.90905 31.9998 9.5L32 14H36.4998H40.9998V9.5Z" fill="#256F5F"/>
<path d="M47 10.5C47 9.57174 46.6313 8.6815 45.9749 8.02513C45.3185 7.36875 44.4283 7 43.5 7C42.5717 7 41.6815 7.36875 41.0251 8.02513C40.3687 8.6815 40 9.57174 40 10.5V14H43.5H47V10.5Z" fill="#256F5F"/>
<path d="M53 12C53 10.9391 52.6313 9.92172 51.9749 9.17157C51.3185 8.42143 50.4283 8 49.5 8C48.5717 8 47.6815 8.42143 47.0251 9.17157C46.3687 9.92172 46 10.9391 46 12V14H49.5H53V12Z" fill="#256F5F"/>
<path d="M59 11.6667C59 10.429 58.5786 9.242 57.8284 8.36683C57.0783 7.49167 56.0609 7 55 7C53.9391 7 52.9217 7.49167 52.1716 8.36683C51.4214 9.242 51 10.429 51 11.6667V14H55H59V11.6667Z" fill="#256F5F"/>
<path d="M65 11.6667C65 10.429 64.5786 9.242 63.8284 8.36683C63.0783 7.49167 62.0609 7 61 7C59.9391 7 58.9217 7.49167 58.1716 8.36683C57.4214 9.242 57 10.429 57 11.6667V14H61H65V11.6667Z" fill="#256F5F"/>
<path d="M81 12C81 10.9391 80.5786 9.92172 79.8284 9.17157C79.0783 8.42143 78.0609 8 77 8C75.9391 8 74.9217 8.42143 74.1716 9.17157C73.4214 9.92172 73 10.9391 73 12V14H77H81V12Z" fill="#256F5F"/>
<path d="M86 11.6667C86 10.429 85.5786 9.242 84.8284 8.36683C84.0783 7.49167 83.0609 7 82 7C80.9391 7 79.9217 7.49167 79.1716 8.36683C78.4214 9.242 78 10.429 78 11.6667V14H82H86V11.6667Z" fill="#256F5F"/>
<path d="M91 11.6667C91 10.429 90.5786 9.242 89.8284 8.36683C89.0783 7.49167 88.0609 7 87 7C85.9391 7 84.9217 7.49167 84.1716 8.36683C83.4214 9.242 83 10.429 83 11.6667V14H87H91V11.6667Z" fill="#256F5F"/>
<path d="M97 12.3333C97 11.4493 96.5786 10.6014 95.8284 9.97631C95.0783 9.35119 94.0609 9 93 9C91.9391 9 90.9217 9.35119 90.1716 9.97631C89.4214 10.6014 89 11.4493 89 12.3333V14H93H97V12.3333Z" fill="#256F5F"/>
<path d="M102 11.6667C102 10.429 101.579 9.242 100.828 8.36683C100.078 7.49167 99.0609 7 98 7C96.9391 7 95.9217 7.49167 95.1716 8.36683C94.4214 9.242 94 10.429 94 11.6667V14H98H102V11.6667Z" fill="#256F5F"/>
<path d="M109 11.3333C109 9.91885 108.526 8.56229 107.682 7.5621C106.838 6.5619 105.693 6 104.5 6C103.307 6 102.162 6.5619 101.318 7.5621C100.474 8.56229 100 9.91884 100 11.3333V14H104.5H109V11.3333Z" fill="#256F5F"/>
<path d="M113 12C113 10.9391 112.631 9.92172 111.975 9.17157C111.318 8.42143 110.428 8 109.5 8C108.572 8 107.682 8.42143 107.025 9.17157C106.369 9.92172 106 10.9391 106 12V14H109.5H113V12Z" fill="#256F5F"/>
<path d="M119 11.6667C119 10.429 118.526 9.242 117.682 8.36683C116.838 7.49167 115.693 7 114.5 7C113.307 7 112.162 7.49167 111.318 8.36683C110.474 9.242 110 10.429 110 11.6667V14H114.5H119V11.6667Z" fill="#256F5F"/>
<path d="M126 11.3333C126 9.91885 125.526 8.56229 124.682 7.5621C123.838 6.5619 122.693 6 121.5 6C120.307 6 119.162 6.5619 118.318 7.5621C117.474 8.56229 117 9.91884 117 11.3333V14H121.5H126V11.3333Z" fill="#256F5F"/>
<path d="M130 12C130 10.9391 129.631 9.92172 128.975 9.17157C128.318 8.42143 127.428 8 126.5 8C125.572 8 124.682 8.42143 124.025 9.17157C123.369 9.92172 123 10.9391 123 12V14H126.5H130V12Z" fill="#256F5F"/>
<path d="M135 11.6667C135 10.429 134.631 9.242 133.975 8.36683C133.318 7.49167 132.428 7 131.5 7C130.572 7 129.682 7.49167 129.025 8.36683C128.369 9.242 128 10.429 128 11.6667V14H131.5H135V11.6667Z" fill="#256F5F"/>
<path d="M217 11.6667C217 10.429 216.631 9.242 215.975 8.36683C215.318 7.49167 214.428 7 213.5 7C212.572 7 211.682 7.49167 211.025 8.36683C210.369 9.242 210 10.429 210 11.6667V14H213.5H217V11.6667Z" fill="#256F5F"/>
<path d="M211 11.3333C211 9.91885 210.579 8.56229 209.828 7.5621C209.078 6.5619 208.061 6 207 6C205.939 6 204.922 6.5619 204.172 7.5621C203.421 8.56229 203 9.91884 203 11.3333V14H207H211V11.3333Z" fill="#256F5F"/>
<path d="M206 11.3333C206 9.91885 205.579 8.56229 204.828 7.5621C204.078 6.5619 203.061 6 202 6C200.939 6 199.922 6.5619 199.172 7.5621C198.421 8.56229 198 9.91884 198 11.3333V14H202H206V11.3333Z" fill="#256F5F"/>
<path d="M200 11.3333C200 9.91885 199.473 8.56229 198.536 7.5621C197.598 6.5619 196.326 6 195 6C193.674 6 192.402 6.5619 191.464 7.5621C190.527 8.56229 190 9.91884 190 11.3333V14H195H200V11.3333Z" fill="#256F5F"/>
<path d="M193 12C193 10.9391 192.579 9.92172 191.828 9.17157C191.078 8.42143 190.061 8 189 8C187.939 8 186.922 8.42143 186.172 9.17157C185.421 9.92172 185 10.9391 185 12V14H189H193V12Z" fill="#256F5F"/>
<path d="M188 11.6667C188 10.429 187.579 9.242 186.828 8.36683C186.078 7.49167 185.061 7 184 7C182.939 7 181.922 7.49167 181.172 8.36683C180.421 9.242 180 10.429 180 11.6667V14H184H188V11.6667Z" fill="#256F5F"/>
<path d="M182 12.3333C182 11.4493 181.631 10.6014 180.975 9.97631C180.318 9.35119 179.428 9 178.5 9C177.572 9 176.682 9.35119 176.025 9.97631C175.369 10.6014 175 11.4493 175 12.3333V14H178.5H182V12.3333Z" fill="#256F5F"/>
<path d="M176 12C176 10.9391 175.631 9.92172 174.975 9.17157C174.318 8.42143 173.428 8 172.5 8C171.572 8 170.682 8.42143 170.025 9.17157C169.369 9.92172 169 10.9391 169 12V14H172.5H176V12Z" fill="#256F5F"/>
<path d="M170 11.6667C170 10.429 169.526 9.242 168.682 8.36683C167.838 7.49167 166.693 7 165.5 7C164.307 7 163.162 7.49167 162.318 8.36683C161.474 9.242 161 10.429 161 11.6667V14H165.5H170V11.6667Z" fill="#256F5F"/>
<path d="M75 11C75 9.4087 74.4205 7.88258 73.3891 6.75736C72.3576 5.63214 70.9587 5 69.5 5C68.0413 5 66.6424 5.63214 65.6109 6.75736C64.5795 7.88258 64 9.4087 64 11V14H69.5H75V11Z" fill="#256F5F"/>
<path d="M338.6 14C338.6 13.2593 338.864 7.02616 338.6 6.34467C338.336 5.66318 337.95 5.04735 337.464 4.53412C336.979 4.02089 336.404 3.62084 335.774 3.35797C335.145 3.0951 334.473 2.97483 333.801 3.00438C333.128 3.03392 332.467 3.21267 331.859 3.52989C331.25 3.84712 330.706 4.29629 330.259 4.85046C329.813 5.40462 329.472 6.05237 329.258 6.75482C329.045 7.45728 328.962 8.19998 329.016 8.93836L329.258 14H334.5H338.6Z" fill="#256F5F"/>
<path d="M330.738 14C330.738 13.3939 331.01 8.29413 330.738 7.73655C330.466 7.17896 330.069 6.6751 329.569 6.25519C329.069 5.83527 328.478 5.50796 327.83 5.29289C327.182 5.07781 326.491 4.97941 325.799 5.00358C325.106 5.02775 324.427 5.174 323.8 5.43355C323.174 5.6931 322.614 6.0606 322.155 6.51401C321.695 6.96742 321.344 7.49739 321.125 8.07213C320.905 8.64687 320.82 9.25453 320.875 9.85866L321.125 14H326.519H330.738Z" fill="#256F5F"/>
<path d="M321.879 14C321.879 13.2593 322.151 7.02616 321.879 6.34467C321.608 5.66318 321.21 5.04735 320.71 4.53412C320.211 4.02089 319.619 3.62084 318.971 3.35797C318.324 3.0951 317.633 2.97483 316.94 3.00438C316.248 3.03392 315.568 3.21267 314.942 3.52989C314.316 3.84712 313.756 4.29629 313.296 4.85046C312.836 5.40462 312.486 6.05237 312.266 6.75482C312.046 7.45728 311.961 8.19998 312.016 8.93836L312.266 14H317.66H321.879Z" fill="#256F5F"/>
<path d="M314.453 14C314.453 13.2593 314.778 7.02616 314.453 6.34467C314.127 5.66318 313.65 5.04735 313.05 4.53412C312.45 4.02089 311.741 3.62084 310.963 3.35797C310.186 3.0951 309.357 2.97483 308.526 3.00438C307.695 3.03392 306.879 3.21267 306.128 3.52989C305.376 3.84712 304.704 4.29629 304.153 4.85046C303.601 5.40462 303.18 6.05237 302.917 6.75482C302.653 7.45728 302.551 8.19998 302.617 8.93836L302.917 14H309.389H314.453Z" fill="#256F5F"/>
<path d="M304 9C304 8.2832 303.83 7.57478 303.503 6.92277C303.175 6.27076 302.697 5.6904 302.101 5.22103C301.506 4.75166 300.806 4.40427 300.049 4.20239C299.292 4.00052 298.497 3.94888 297.717 4.05099C296.936 4.1531 296.189 4.40656 295.526 4.79419C294.862 5.18183 294.299 5.69457 293.872 6.29766C293.446 6.90075 293.168 7.58008 293.056 8.28961C292.944 8.99914 293.001 9.72226 293.223 10.41V14H298H304V9Z" fill="#256F5F"/>
<path d="M294.094 9.3162C294.176 8.65472 294.059 7.97695 293.75 7.33187C293.442 6.6868 292.951 6.09053 292.312 5.58614C291.673 5.08176 290.902 4.68186 290.056 4.41535C289.209 4.14884 288.307 4.02236 287.416 4.04507C286.525 4.06777 285.667 4.23909 284.903 4.54664C284.139 4.85419 283.488 5.29029 282.999 5.82343C282.509 6.35657 282.193 6.97343 282.072 7.62944C281.951 8.28546 282.029 8.96423 282.3 9.61672L282.3 14L288 14L294.094 14L294.094 9.3162Z" fill="#256F5F"/>
<path d="M286.315 8.69702C286.315 8.1271 286.155 7.5649 285.847 7.05433C285.539 6.54376 285.091 6.09865 284.539 5.75377C283.986 5.40889 283.344 5.17357 282.663 5.0662C281.982 4.95883 281.28 4.98232 280.611 5.13483C279.943 5.28733 279.326 5.56473 278.81 5.94535C278.294 6.32597 277.892 6.79951 277.635 7.32897C277.378 7.85843 277.274 8.42948 277.33 8.99751C277.387 9.56554 277.602 10.1152 277.96 10.6035V14H281.461H286.315L286.315 8.69702Z" fill="#256F5F"/>
<path d="M280 10.5C280 9.9764 279.849 9.45947 279.558 8.98729C279.267 8.51512 278.844 8.09974 278.319 7.77175C277.794 7.44377 277.181 7.21153 276.526 7.09217C275.87 6.9728 275.189 6.96934 274.531 7.08203C273.874 7.19473 273.257 7.42072 272.727 7.74335C272.197 8.06598 271.767 8.47702 271.468 8.9462C271.169 9.41538 271.009 9.93073 271 10.4543C270.992 10.9778 271.134 11.4963 271.417 11.9714L271.468 14H275.5H280V10.5Z" fill="#256F5F"/>
<path d="M273 10C273 9.4016 272.866 8.81082 272.607 8.27119C272.348 7.73157 271.972 7.25684 271.506 6.882C271.039 6.50716 270.495 6.24175 269.912 6.10533C269.329 5.96891 268.723 5.96495 268.139 6.09375C267.555 6.22255 267.007 6.48083 266.535 6.84954C266.064 7.21826 265.681 7.68803 265.416 8.22423C265.15 8.76043 265.008 9.34941 265 9.94776C264.993 10.5461 265.119 11.1386 265.371 11.6815L265.416 14H269H273V10Z" fill="#256F5F"/>
<path d="M267 9.5C267 8.8268 266.866 8.16217 266.607 7.55509C266.348 6.94801 265.972 6.41395 265.506 5.99225C265.039 5.57056 264.495 5.27197 263.912 5.1185C263.329 4.96502 262.723 4.96057 262.139 5.10547C261.555 5.25037 261.007 5.54093 260.535 5.95574C260.064 6.37054 259.681 6.89903 259.416 7.50226C259.15 8.10548 259.008 8.76808 259 9.44123C258.993 10.1144 259.119 10.7809 259.371 11.3917L259.416 14H263H267V9.5Z" fill="#256F5F"/>
<path d="M262 10.5C262 9.9764 261.883 9.45947 261.656 8.98729C261.43 8.51512 261.101 8.09974 260.692 7.77175C260.284 7.44377 259.808 7.21153 259.298 7.09217C258.788 6.9728 258.258 6.96934 257.747 7.08203C257.235 7.19473 256.756 7.42072 256.343 7.74335C255.931 8.06598 255.596 8.47702 255.364 8.9462C255.131 9.41538 255.007 9.93073 255 10.4543C254.993 10.9778 255.104 11.4963 255.324 11.9714L255.364 14H258.5H262V10.5Z" fill="#256F5F"/>
<path d="M256 10C256 9.4016 255.866 8.81082 255.607 8.27119C255.348 7.73157 254.972 7.25684 254.506 6.882C254.039 6.50716 253.495 6.24175 252.912 6.10533C252.329 5.96891 251.723 5.96495 251.139 6.09375C250.555 6.22255 250.007 6.48083 249.535 6.84954C249.064 7.21826 248.681 7.68803 248.416 8.22423C248.15 8.76043 248.008 9.34941 248 9.94776C247.993 10.5461 248.119 11.1386 248.371 11.6815L248.416 14H252H256V10Z" fill="#256F5F"/>
<path d="M249 9.5C249 8.8268 248.883 8.16217 248.656 7.55509C248.43 6.94801 248.101 6.41395 247.692 5.99225C247.284 5.57056 246.808 5.27197 246.298 5.1185C245.788 4.96502 245.258 4.96057 244.747 5.10547C244.235 5.25037 243.756 5.54093 243.343 5.95574C242.931 6.37054 242.596 6.89903 242.364 7.50226C242.131 8.10548 242.007 8.76808 242 9.44123C241.993 10.1144 242.104 10.7809 242.324 11.3917L242.364 14H245.5H249V9.5Z" fill="#256F5F"/>
<path d="M243 9.5C243 8.8268 242.849 8.16217 242.558 7.55509C242.267 6.94801 241.844 6.41395 241.319 5.99225C240.794 5.57056 240.181 5.27197 239.526 5.1185C238.87 4.96502 238.189 4.96057 237.531 5.10547C236.874 5.25037 236.257 5.54093 235.727 5.95574C235.197 6.37054 234.767 6.89903 234.468 7.50226C234.169 8.10548 234.009 8.76808 234 9.44123C233.992 10.1144 234.134 10.7809 234.417 11.3917L234.468 14H238.5H243V9.5Z" fill="#256F5F"/>
<path d="M236 10.5C236 9.9764 235.883 9.45947 235.656 8.98729C235.43 8.51512 235.101 8.09974 234.692 7.77175C234.284 7.44377 233.808 7.21153 233.298 7.09217C232.788 6.9728 232.258 6.96934 231.747 7.08203C231.235 7.19473 230.756 7.42072 230.343 7.74335C229.931 8.06598 229.596 8.47702 229.364 8.9462C229.131 9.41538 229.007 9.93073 229 10.4543C228.993 10.9778 229.104 11.4963 229.324 11.9714L229.364 14H232.5H236V10.5Z" fill="#256F5F"/>
<path d="M231 10C231 9.4016 230.883 8.81082 230.656 8.27119C230.43 7.73157 230.101 7.25684 229.692 6.882C229.284 6.50716 228.808 6.24175 228.298 6.10533C227.788 5.96891 227.258 5.96495 226.747 6.09375C226.235 6.22255 225.756 6.48083 225.343 6.84954C224.931 7.21826 224.596 7.68803 224.364 8.22423C224.131 8.76043 224.007 9.34941 224 9.94776C223.993 10.5461 224.104 11.1386 224.324 11.6815L224.364 14H227.5H231V10Z" fill="#256F5F"/>
<path d="M225 10C225 9.4016 224.849 8.81082 224.558 8.27119C224.267 7.73157 223.844 7.25684 223.319 6.882C222.794 6.50716 222.181 6.24175 221.526 6.10533C220.87 5.96891 220.189 5.96495 219.531 6.09375C218.874 6.22255 218.257 6.48083 217.727 6.84954C217.197 7.21826 216.767 7.68803 216.468 8.22423C216.169 8.76043 216.009 9.34941 216 9.94776C215.992 10.5461 216.134 11.1386 216.417 11.6815L216.468 14H220.5H225V10Z" fill="#256F5F"/>
<path d="M142 10C142 9.4016 141.849 8.81082 141.558 8.27119C141.267 7.73157 140.844 7.25684 140.319 6.882C139.794 6.50716 139.181 6.24175 138.526 6.10533C137.87 5.96891 137.189 5.96495 136.531 6.09375C135.874 6.22255 135.257 6.48083 134.727 6.84954C134.197 7.21826 133.767 7.68803 133.468 8.22423C133.169 8.76043 133.009 9.34941 133 9.94776C132.992 10.5461 133.134 11.1386 133.417 11.6815L133.468 14H137.5H142V10Z" fill="#256F5F"/>
<path d="M149 10.5C149 9.9764 148.849 9.45947 148.558 8.98729C148.267 8.51512 147.844 8.09974 147.319 7.77175C146.794 7.44377 146.181 7.21153 145.526 7.09217C144.87 6.9728 144.189 6.96934 143.531 7.08203C142.874 7.19473 142.257 7.42072 141.727 7.74335C141.197 8.06598 140.767 8.47702 140.468 8.9462C140.169 9.41538 140.009 9.93073 140 10.4543C139.992 10.9778 140.134 11.4963 140.417 11.9714L140.468 14H144.5H149V10.5Z" fill="#256F5F"/>
<path d="M153 11C153 10.5512 152.899 10.1081 152.705 9.70339C152.511 9.29867 152.229 8.94263 151.879 8.6615C151.529 8.38037 151.121 8.18131 150.684 8.079C150.247 7.97668 149.793 7.97372 149.354 8.07032C148.916 8.16691 148.505 8.36062 148.151 8.63716C147.798 8.9137 147.511 9.26602 147.312 9.66817C147.113 10.0703 147.006 10.5121 147 10.9608C146.994 11.4096 147.089 11.8539 147.278 12.2612L147.312 14H150H153V11Z" fill="#256F5F"/>
<path d="M158 10.5C158 9.9764 157.899 9.45947 157.705 8.98729C157.511 8.51512 157.229 8.09974 156.879 7.77175C156.529 7.44377 156.121 7.21153 155.684 7.09217C155.247 6.9728 154.793 6.96934 154.354 7.08203C153.916 7.19473 153.505 7.42072 153.151 7.74335C152.798 8.06598 152.511 8.47702 152.312 8.9462C152.113 9.41538 152.006 9.93073 152 10.4543C151.994 10.9778 152.089 11.4963 152.278 11.9714L152.312 14H155H158V10.5Z" fill="#256F5F"/>
<path d="M163 11C163 10.5512 162.899 10.1081 162.705 9.70339C162.511 9.29867 162.229 8.94263 161.879 8.6615C161.529 8.38037 161.121 8.18131 160.684 8.079C160.247 7.97668 159.793 7.97372 159.354 8.07032C158.916 8.16691 158.505 8.36062 158.151 8.63716C157.798 8.9137 157.511 9.26602 157.312 9.66817C157.113 10.0703 157.006 10.5121 157 10.9608C156.994 11.4096 157.089 11.8539 157.278 12.2612L157.312 14H160H163V11Z" fill="#256F5F"/>
<path d="M142 10C142 9.4016 141.849 8.81082 141.558 8.27119C141.267 7.73157 140.844 7.25684 140.319 6.882C139.794 6.50716 139.181 6.24175 138.526 6.10533C137.87 5.96891 137.189 5.96495 136.531 6.09375C135.874 6.22255 135.257 6.48083 134.727 6.84954C134.197 7.21826 133.767 7.68803 133.468 8.22423C133.169 8.76043 133.009 9.34941 133 9.94776C132.992 10.5461 133.134 11.1386 133.417 11.6815L133.468 14H137.5H142V10Z" fill="#256F5F"/>
<rect y="14" width="350" height="15" fill="#5D9356"/>
</svg>
