<svg width="350" height="29" viewBox="0 0 350 29" fill="none" xmlns="http://www.w3.org/2000/svg">
<path d="M6 2.5C7.36751 2.5 8.68249 3.00932 9.69141 3.92285L9.88867 4.11133C10.9167 5.13932 11.4952 6.53195 11.499 7.98535L11.04 13.5H0.5V8L0.506836 7.72754C0.569722 6.45869 1.07016 5.25032 1.92285 4.30859L2.11133 4.11133C3.07838 3.14428 4.36805 2.57421 5.72754 2.50684L6 2.5Z" fill="#256F5F" stroke="#256F5F"/>
<path d="M343 0.5C344.724 0.5 346.378 1.18433 347.597 2.40332C348.816 3.62231 349.5 5.27609 349.5 7V13.5H336.5V7L336.508 6.67773C336.582 5.17832 337.174 3.75056 338.182 2.6377L338.403 2.40332C339.546 1.26051 341.071 0.587499 342.678 0.507812L343 0.5Z" fill="#256F5F" stroke="#256F5F"/>
<path d="M12.3948 5.71094C12.9908 5.47478 13.6444 5.43643 14.26 5.59766L14.5217 5.67969C15.2106 5.92926 15.7847 6.42193 16.135 7.06543C16.4854 7.70905 16.5875 8.4587 16.4231 9.17285L16.4094 9.2334L16.4104 9.29492L16.4905 13.5H10.9915L10.8792 7.0459C11.1708 6.5202 11.6106 6.09369 12.1448 5.82324L12.3948 5.71094Z" fill="#256F5F" stroke="#256F5F"/>
<path d="M17.585 6.50098C18.3656 6.52312 19.1071 6.84921 19.6514 7.40918C20.1956 7.96912 20.5 8.71918 20.5 9.5V13.5H14.501L14.5049 9.32031C14.5456 8.64181 14.8157 8.00019 15.2656 7.49805L15.4707 7.29004C15.974 6.82786 16.6179 6.55335 17.2939 6.50684L17.585 6.50098Z" fill="#256F5F" stroke="#256F5F"/>
<path d="M23.5 4.5C24.4946 4.5 25.4508 4.87069 26.1846 5.53516L26.3281 5.67188C27.0783 6.42202 27.5 7.43913 27.5 8.5V13.5H19.5V8.5L19.5049 8.30176C19.5506 7.37893 19.915 6.50032 20.5352 5.81543L20.6719 5.67188C21.3752 4.96859 22.3131 4.5539 23.3018 4.50488L23.5 4.5Z" fill="#256F5F" stroke="#256F5F"/>
<path d="M26.748 9.69824L26.7129 9.60938C26.5496 9.19899 26.4788 8.75725 26.5059 8.31641C26.5296 7.93049 26.6275 7.55292 26.7939 7.20508L26.8691 7.05762C27.055 6.71863 27.3048 6.41954 27.6035 6.17578L27.7344 6.0752C28.0468 5.84771 28.3995 5.6822 28.7734 5.58887L28.9355 5.55371C29.3152 5.48097 29.7048 5.48268 30.083 5.55762L30.2441 5.59375C30.6187 5.68968 30.9709 5.85696 31.2812 6.08594L31.4111 6.1875C31.7515 6.46887 32.0257 6.82215 32.2139 7.22168C32.4021 7.62141 32.5 8.05819 32.5 8.5V13.5H26.748V9.69824Z" fill="#256F5F" stroke="#256F5F"/>
<path d="M36.4998 5.5C37.0249 5.5 37.5448 5.60376 38.03 5.80469C38.4546 5.98056 38.8455 6.2282 39.1853 6.53613L39.3279 6.67188C39.6993 7.04331 39.9941 7.48443 40.1951 7.96973C40.396 8.45494 40.4998 8.97483 40.4998 9.5V13.5H32.4998V9.5L32.5046 9.30371C32.5271 8.8456 32.6286 8.39439 32.8044 7.96973C32.9803 7.54513 33.228 7.1543 33.5359 6.81445L33.6716 6.67188C33.9966 6.3469 34.3743 6.07992 34.7888 5.88379L34.9695 5.80469C35.3941 5.62883 35.8454 5.52739 36.3035 5.50488L36.4998 5.5Z" fill="#256F5F" stroke="#256F5F"/>
<path d="M43.5 7.5C44.2956 7.5 45.0585 7.8163 45.6211 8.37891C46.1837 8.94152 46.5 9.70435 46.5 10.5V13.5H40.5V10.5L40.5146 10.2031C40.5732 9.61451 40.8048 9.05615 41.1797 8.59863L41.3789 8.37891C41.8711 7.88671 42.5165 7.58291 43.2031 7.51465L43.5 7.5Z" fill="#256F5F" stroke="#256F5F"/>
<path d="M49.5 8.5C50.2242 8.5 50.9341 8.80817 51.4893 9.38281L51.5986 9.50098C52.1698 10.1538 52.5 11.0518 52.5 12V13.5H46.5V12L46.5039 11.8232C46.5396 10.9996 46.8237 10.2234 47.2969 9.62598L47.4014 9.50098C47.9352 8.89093 48.6337 8.54473 49.3555 8.50391L49.5 8.5Z" fill="#256F5F" stroke="#256F5F"/>
<path d="M55 7.5C55.8447 7.5 56.6735 7.86646 57.3213 8.55078L57.4492 8.69238C58.1156 9.46993 58.5 10.5393 58.5 11.667V13.5H51.5V11.667L51.5049 11.4561C51.5466 10.4765 51.8778 9.55325 52.4297 8.8418L52.5508 8.69238C53.1736 7.96571 53.9891 7.5536 54.8311 7.50488L55 7.5Z" fill="#256F5F" stroke="#256F5F"/>
<path d="M61 7.5C61.8447 7.5 62.6735 7.86646 63.3213 8.55078L63.4492 8.69238C64.1156 9.46993 64.5 10.5393 64.5 11.667V13.5H57.5V11.667L57.5049 11.4561C57.5466 10.4765 57.8778 9.55325 58.4297 8.8418L58.5508 8.69238C59.1736 7.96571 59.9891 7.5536 60.8311 7.50488L61 7.5Z" fill="#256F5F" stroke="#256F5F"/>
<path d="M77 8.5C77.8701 8.5 78.7066 8.82412 79.3486 9.40527L79.4746 9.52539C80.131 10.1818 80.5 11.0717 80.5 12V13.5H73.5V12L73.5039 11.8262C73.544 11.019 73.8629 10.2505 74.4053 9.65137L74.5254 9.52539C75.1407 8.9101 75.9612 8.54688 76.8262 8.50391L77 8.5Z" fill="#256F5F" stroke="#256F5F"/>
<path d="M82 7.5C82.8447 7.5 83.6735 7.86646 84.3213 8.55078L84.4492 8.69238C85.1156 9.46993 85.5 10.5393 85.5 11.667V13.5H78.5V11.667L78.5049 11.4561C78.5466 10.4765 78.8778 9.55325 79.4297 8.8418L79.5508 8.69238C80.1736 7.96571 80.9891 7.5536 81.8311 7.50488L82 7.5Z" fill="#256F5F" stroke="#256F5F"/>
<path d="M87 7.5C87.8447 7.5 88.6735 7.86646 89.3213 8.55078L89.4492 8.69238C90.1156 9.46993 90.5 10.5393 90.5 11.667V13.5H83.5V11.667L83.5049 11.4561C83.5466 10.4765 83.8778 9.55325 84.4297 8.8418L84.5508 8.69238C85.1736 7.96571 85.9891 7.5536 86.8311 7.50488L87 7.5Z" fill="#256F5F" stroke="#256F5F"/>
<path d="M93 9.5C93.8949 9.5 94.7429 9.77824 95.3828 10.2607L95.5088 10.3604C96.1582 10.9016 96.4999 11.6142 96.5 12.333V13.5H89.5V12.333L89.5039 12.1982C89.5413 11.5706 89.8386 10.9556 90.373 10.4639L90.4912 10.3604C91.0619 9.88479 91.8236 9.58278 92.6445 9.51465L93 9.5Z" fill="#256F5F" stroke="#256F5F"/>
<path d="M98 7.5C98.8447 7.5 99.6735 7.86646 100.321 8.55078L100.449 8.69238C101.116 9.46993 101.5 10.5393 101.5 11.667V13.5H94.5V11.667L94.5049 11.4561C94.5466 10.4765 94.8778 9.55325 95.4297 8.8418L95.5508 8.69238C96.1736 7.96571 96.9891 7.5536 97.8311 7.50488L98 7.5Z" fill="#256F5F" stroke="#256F5F"/>
<path d="M104.5 6.5C105.531 6.5 106.541 6.98488 107.3 7.88477C108.061 8.78712 108.5 10.0264 108.5 11.333V13.5H100.5V11.333L100.505 11.0889C100.553 9.95377 100.931 8.88316 101.562 8.05762L101.7 7.88477C102.412 7.04124 103.344 6.56251 104.307 6.50586L104.5 6.5Z" fill="#256F5F" stroke="#256F5F"/>
<path d="M109.5 8.5C110.224 8.5 110.934 8.80817 111.489 9.38281L111.599 9.50098C112.17 10.1538 112.5 11.0518 112.5 12V13.5H106.5V12L106.504 11.8232C106.54 10.9996 106.824 10.2234 107.297 9.62598L107.401 9.50098C107.935 8.89093 108.634 8.54473 109.355 8.50391L109.5 8.5Z" fill="#256F5F" stroke="#256F5F"/>
<path d="M114.5 7.5C115.489 7.5 116.443 7.88223 117.178 8.57227L117.322 8.71387C118.074 9.49398 118.5 10.5562 118.5 11.667V13.5H110.5V11.667L110.505 11.459C110.551 10.4931 110.919 9.57593 111.541 8.86328L111.678 8.71387C112.382 7.98308 113.319 7.55546 114.303 7.50488L114.5 7.5Z" fill="#256F5F" stroke="#256F5F"/>
<path d="M121.5 6.5C122.531 6.5 123.541 6.98488 124.3 7.88477C125.061 8.78712 125.5 10.0264 125.5 11.333V13.5H117.5V11.333L117.505 11.0889C117.553 9.95377 117.931 8.88316 118.562 8.05762L118.7 7.88477C119.412 7.04124 120.344 6.56251 121.307 6.50586L121.5 6.5Z" fill="#256F5F" stroke="#256F5F"/>
<path d="M126.5 8.5C127.224 8.5 127.934 8.80817 128.489 9.38281L128.599 9.50098C129.17 10.1538 129.5 11.0518 129.5 12V13.5H123.5V12L123.504 11.8232C123.54 10.9996 123.824 10.2234 124.297 9.62598L124.401 9.50098C124.935 8.89093 125.634 8.54473 126.355 8.50391L126.5 8.5Z" fill="#256F5F" stroke="#256F5F"/>
<path d="M131.5 7.5C132.195 7.5 132.9 7.84489 133.464 8.52637L133.575 8.66699C134.158 9.4444 134.5 10.5227 134.5 11.667V13.5H128.5V11.667L128.504 11.4531C128.541 10.46 128.835 9.52873 129.318 8.81641L129.425 8.66699C129.97 7.94058 130.665 7.55067 131.361 7.50488L131.5 7.5Z" fill="#256F5F" stroke="#256F5F"/>
<path d="M213.5 7.5C214.195 7.5 214.9 7.84489 215.464 8.52637L215.575 8.66699C216.158 9.4444 216.5 10.5227 216.5 11.667V13.5H210.5V11.667L210.504 11.4531C210.541 10.46 210.835 9.52873 211.318 8.81641L211.425 8.66699C211.97 7.94058 212.665 7.55067 213.361 7.50488L213.5 7.5Z" fill="#256F5F" stroke="#256F5F"/>
<path d="M207 6.5C207.874 6.5 208.754 6.9626 209.429 7.8623C210.105 8.76466 210.5 10.0121 210.5 11.333V13.5H203.5V11.333L203.505 11.0869C203.548 9.93963 203.887 8.86174 204.448 8.03516L204.571 7.8623C205.204 7.01889 206.017 6.56001 206.836 6.50586L207 6.5Z" fill="#256F5F" stroke="#256F5F"/>
<path d="M202 6.5C202.874 6.5 203.754 6.9626 204.429 7.8623C205.105 8.76466 205.5 10.0121 205.5 11.333V13.5H198.5V11.333L198.505 11.0869C198.548 9.93963 198.887 8.86174 199.448 8.03516L199.571 7.8623C200.204 7.01889 201.017 6.56001 201.836 6.50586L202 6.5Z" fill="#256F5F" stroke="#256F5F"/>
<path d="M195 6.5C196.109 6.5 197.181 6.94 198.009 7.73926L198.171 7.9043C199.019 8.80852 199.5 10.0413 199.5 11.333V13.5H190.5V11.333L190.506 11.0918C190.558 9.96864 190.973 8.90348 191.675 8.07715L191.829 7.9043C192.623 7.05765 193.676 6.56431 194.778 6.50586L195 6.5Z" fill="#256F5F" stroke="#256F5F"/>
<path d="M189 8.5C189.87 8.5 190.707 8.82412 191.349 9.40527L191.475 9.52539C192.131 10.1818 192.5 11.0717 192.5 12V13.5H185.5V12L185.504 11.8262C185.544 11.019 185.863 10.2505 186.405 9.65137L186.525 9.52539C187.141 8.9101 187.961 8.54688 188.826 8.50391L189 8.5Z" fill="#256F5F" stroke="#256F5F"/>
<path d="M184 7.5C184.845 7.5 185.674 7.86646 186.321 8.55078L186.449 8.69238C187.116 9.46993 187.5 10.5393 187.5 11.667V13.5H180.5V11.667L180.505 11.4561C180.547 10.4765 180.878 9.55325 181.43 8.8418L181.551 8.69238C182.174 7.96571 182.989 7.5536 183.831 7.50488L184 7.5Z" fill="#256F5F" stroke="#256F5F"/>
<path d="M178.5 9.5C179.203 9.5 179.877 9.73328 180.41 10.1494L180.63 10.3389C181.19 10.8722 181.5 11.5898 181.5 12.333V13.5H175.5V12.333L175.515 12.0557C175.572 11.5049 175.8 10.9796 176.172 10.5469L176.37 10.3389C176.861 9.87133 177.509 9.57912 178.201 9.51367L178.5 9.5Z" fill="#256F5F" stroke="#256F5F"/>
<path d="M172.5 8.5C173.224 8.5 173.934 8.80817 174.489 9.38281L174.599 9.50098C175.17 10.1538 175.5 11.0518 175.5 12V13.5H169.5V12L169.504 11.8232C169.54 10.9996 169.824 10.2234 170.297 9.62598L170.401 9.50098C170.935 8.89093 171.634 8.54473 172.355 8.50391L172.5 8.5Z" fill="#256F5F" stroke="#256F5F"/>
<path d="M165.5 7.5C166.489 7.5 167.443 7.88223 168.178 8.57227L168.322 8.71387C169.074 9.49398 169.5 10.5562 169.5 11.667V13.5H161.5V11.667L161.505 11.459C161.551 10.4931 161.919 9.57593 162.541 8.86328L162.678 8.71387C163.382 7.98308 164.319 7.55546 165.303 7.50488L165.5 7.5Z" fill="#256F5F" stroke="#256F5F"/>
<path d="M69.5 5.5C70.8113 5.5 72.0788 6.06838 73.0205 7.0957C73.9634 8.12446 74.5 9.52807 74.5 11V13.5H64.5V11L64.5059 10.7246C64.5641 9.44499 65.0272 8.23215 65.8076 7.29199L65.9795 7.0957C66.8624 6.13254 68.0316 5.57295 69.2549 5.50684L69.5 5.5Z" fill="#256F5F" stroke="#256F5F"/>
<path d="M333.822 3.50391C334.346 3.48092 334.87 3.55984 335.369 3.7373L335.582 3.81934C336.074 4.02497 336.532 4.32599 336.933 4.70898L337.102 4.87793C337.486 5.28431 337.803 5.76403 338.038 6.29492L338.134 6.52539C338.13 6.51507 338.138 6.5348 338.149 6.60938C338.159 6.67605 338.169 6.7652 338.178 6.87695C338.195 7.10008 338.206 7.39169 338.212 7.7334C338.224 8.41575 338.216 9.27449 338.199 10.1406C338.175 11.436 338.133 12.7673 338.113 13.5H329.735L329.516 8.91406L329.515 8.90234L329.502 8.64746C329.488 8.13939 329.545 7.63228 329.669 7.14355L329.736 6.90039C329.908 6.33757 330.167 5.81504 330.501 5.35645L330.648 5.16406C331.054 4.66153 331.545 4.25782 332.09 3.97363C332.567 3.72503 333.077 3.57144 333.599 3.51953L333.822 3.50391Z" fill="#256F5F" stroke="#256F5F"/>
<path d="M325.817 5.50293C326.371 5.4836 326.924 5.55086 327.449 5.69922L327.672 5.76758C328.189 5.93916 328.664 6.18761 329.075 6.5L329.247 6.6377C329.692 7.01175 330.042 7.45692 330.281 7.94336C330.283 7.94982 330.287 7.9631 330.291 7.98535C330.3 8.03294 330.31 8.10003 330.319 8.18848C330.335 8.36488 330.347 8.59834 330.353 8.87598C330.365 9.43012 330.357 10.13 330.34 10.8379C330.316 11.8402 330.276 12.8821 330.254 13.5H321.595L321.374 9.82812L321.373 9.82129V9.81348L321.361 9.61523C321.345 9.15389 321.422 8.69219 321.591 8.25098C321.76 7.80948 322.018 7.39406 322.356 7.02539L322.506 6.87012C322.866 6.51496 323.298 6.21564 323.781 5.98828L323.991 5.89551C324.561 5.65938 325.183 5.52506 325.817 5.50293Z" fill="#256F5F" stroke="#256F5F"/>
<path d="M316.962 3.50391C317.504 3.48081 318.047 3.55988 318.563 3.73828L318.783 3.82129C319.293 4.02802 319.765 4.3301 320.179 4.71387L320.353 4.88281C320.749 5.28973 321.075 5.76957 321.316 6.2998L321.415 6.5293C321.411 6.51863 321.418 6.53801 321.43 6.61133C321.44 6.67755 321.45 6.76637 321.459 6.87793C321.476 7.10067 321.488 7.39173 321.494 7.7334C321.507 8.41552 321.498 9.27443 321.481 10.1406C321.456 11.4354 321.413 12.7671 321.393 13.5H312.742L312.516 8.91406L312.515 8.90137L312.502 8.64746C312.486 8.05602 312.567 7.4658 312.743 6.9043C312.919 6.34267 313.186 5.82095 313.529 5.3623L313.681 5.16992C314.046 4.72999 314.479 4.36458 314.959 4.08887L315.168 3.97559C315.661 3.72592 316.19 3.57278 316.729 3.52051L316.962 3.50391Z" fill="#256F5F" stroke="#256F5F"/>
<path d="M308.544 3.50391C309.219 3.47994 309.891 3.56308 310.531 3.74707L310.802 3.83203C311.432 4.04488 312.012 4.35331 312.514 4.74219L312.725 4.91406C313.206 5.3252 313.597 5.80593 313.885 6.33203L314.002 6.56055C313.993 6.54273 314.001 6.55471 314.014 6.62598C314.026 6.68905 314.038 6.77558 314.049 6.88574C314.069 7.10565 314.083 7.39458 314.091 7.73535C314.106 8.41553 314.095 9.27288 314.075 10.1387C314.045 11.4304 313.993 12.7656 313.969 13.5H303.387L303.116 8.90918V8.90137L303.115 8.89355L303.099 8.64551C303.083 8.14805 303.152 7.65073 303.302 7.16992L303.385 6.93066C303.593 6.37645 303.91 5.8568 304.324 5.39648L304.507 5.20312C305.011 4.69691 305.628 4.28333 306.322 3.99023C306.929 3.73382 307.584 3.57467 308.255 3.52051L308.544 3.50391Z" fill="#256F5F" stroke="#256F5F"/>
<path d="M293.724 10.3311L293.699 10.2559C293.526 9.71905 293.465 9.15915 293.52 8.60449L293.55 8.36719C293.637 7.81485 293.838 7.28095 294.144 6.79297L294.281 6.58594C294.617 6.1115 295.048 5.69611 295.556 5.36328L295.778 5.22559C296.307 4.91667 296.896 4.6999 297.515 4.58789L297.781 4.54688C298.408 4.46492 299.045 4.4914 299.658 4.62305L299.92 4.68555C300.526 4.84736 301.091 5.11034 301.585 5.45898L301.792 5.61426C302.333 6.04009 302.762 6.56362 303.056 7.14746C303.349 7.73112 303.5 8.36259 303.5 9V13.5H293.724V10.3311Z" fill="#256F5F" stroke="#256F5F"/>
<path d="M287.429 4.54525C288.16 4.52661 288.9 4.615 289.606 4.80488L289.906 4.89222C290.7 5.14214 291.415 5.51488 292.002 5.97828C292.589 6.44188 293.029 6.98092 293.3 7.54799C293.57 8.1133 293.667 8.69518 293.598 9.25481L293.594 9.28582L293.594 9.31635L293.594 13.4994L288 13.4997L282.799 13.4995L282.8 9.61661L282.799 9.51717L282.762 9.42491L282.681 9.21122C282.536 8.78281 282.487 8.35016 282.532 7.92938L282.563 7.71967C282.653 7.23355 282.871 6.76518 283.213 6.34082L283.367 6.16209C283.746 5.74977 284.241 5.39446 284.831 5.12215L285.089 5.01041C285.705 4.7624 286.394 4.60875 287.117 4.5598L287.429 4.54525Z" fill="#256F5F" stroke="#256F5F"/>
<path d="M278.46 10.4395L278.363 10.3076C278.055 9.88702 277.875 9.42173 277.828 8.94824C277.787 8.53409 277.848 8.1158 278.01 7.7168L278.085 7.54688C278.276 7.15318 278.565 6.78825 278.94 6.47754L279.106 6.34766C279.507 6.05268 279.98 5.82481 280.498 5.67969L280.723 5.62207C281.253 5.50113 281.808 5.46996 282.353 5.5293L282.585 5.56055C283.126 5.64588 283.636 5.81953 284.085 6.06738L284.273 6.17773C284.704 6.44648 285.055 6.7795 285.313 7.15137L285.419 7.3125C285.682 7.74888 285.815 8.22276 285.815 8.69727V13.5H278.46V10.4395Z" fill="#256F5F" stroke="#256F5F"/>
<path d="M274.616 7.5752C275.216 7.4724 275.839 7.47512 276.437 7.58398C276.96 7.67929 277.448 7.85242 277.875 8.08984L278.054 8.19531C278.521 8.48727 278.887 8.85064 279.133 9.25C279.378 9.64804 279.5 10.0748 279.5 10.5V13.5H271.956L271.917 11.959L271.913 11.8281L271.847 11.7158L271.763 11.5645C271.607 11.2596 271.52 10.9412 271.503 10.6221L271.5 10.4629C271.506 10.0907 271.607 9.71807 271.801 9.36523L271.89 9.21484C272.111 8.86705 272.423 8.54805 272.814 8.28125L272.987 8.1709C273.46 7.88339 274.016 7.67805 274.616 7.5752Z" fill="#256F5F" stroke="#256F5F"/>
<path d="M268.247 6.58203C268.694 6.48353 269.156 6.47374 269.605 6.55273L269.798 6.5918C270.244 6.69624 270.665 6.88753 271.036 7.15332L271.192 7.27148C271.549 7.55837 271.846 7.91236 272.066 8.3125L272.156 8.4873C272.383 8.95947 272.5 9.47641 272.5 10V13.5H265.906L265.87 11.6719L265.868 11.5664L265.824 11.4717L265.747 11.291C265.603 10.9271 265.52 10.5416 265.503 10.1504L265.5 9.9541C265.506 9.49605 265.602 9.04408 265.781 8.62402L265.864 8.44629C266.068 8.03577 266.349 7.66938 266.692 7.36816L266.844 7.24316C267.205 6.96097 267.617 6.75301 268.057 6.62988L268.247 6.58203Z" fill="#256F5F" stroke="#256F5F"/>
<path d="M262.26 5.59082C262.7 5.48178 263.153 5.47106 263.596 5.55859L263.784 5.60156C264.286 5.73375 264.76 5.99286 265.17 6.36328C265.529 6.68773 265.831 7.09067 266.056 7.55078L266.147 7.75098C266.379 8.29481 266.5 8.89277 266.5 9.5V13.5H259.907L259.87 11.3828L259.869 11.2891L259.833 11.2012L259.754 10.9941C259.606 10.574 259.52 10.1276 259.503 9.67383L259.5 9.44727C259.506 8.9161 259.605 8.39331 259.789 7.90918L259.873 7.7041C260.081 7.23153 260.368 6.81377 260.714 6.47266L260.865 6.33105C261.227 6.01233 261.638 5.78022 262.072 5.64355L262.26 5.59082Z" fill="#256F5F" stroke="#256F5F"/>
<path d="M257.854 7.57031C258.238 7.48582 258.634 7.47711 259.02 7.54492L259.184 7.5791C259.566 7.6686 259.927 7.83185 260.245 8.05957L260.379 8.16113C260.729 8.44219 261.011 8.79854 261.205 9.20312C261.399 9.60784 261.5 10.0512 261.5 10.5V13.5H255.854L255.824 11.9619L255.822 11.8564L255.778 11.7607L255.712 11.6064C255.588 11.2945 255.517 10.9642 255.503 10.6289L255.5 10.4609C255.505 10.0682 255.587 9.68049 255.741 9.32031L255.812 9.16797C255.986 8.81598 256.228 8.50238 256.522 8.24414L256.651 8.13672C256.961 7.89479 257.314 7.71688 257.691 7.61133L257.854 7.57031Z" fill="#256F5F" stroke="#256F5F"/>
<path d="M251.247 6.58203C251.694 6.48353 252.156 6.47374 252.605 6.55273L252.798 6.5918C253.244 6.69624 253.665 6.88753 254.036 7.15332L254.192 7.27148C254.549 7.55837 254.846 7.91236 255.066 8.3125L255.156 8.4873C255.383 8.95947 255.5 9.47641 255.5 10V13.5H248.906L248.87 11.6719L248.868 11.5664L248.824 11.4717L248.747 11.291C248.603 10.9271 248.52 10.5416 248.503 10.1504L248.5 9.9541C248.506 9.49605 248.602 9.04408 248.781 8.62402L248.864 8.44629C249.068 8.03577 249.349 7.66938 249.692 7.36816L249.844 7.24316C250.205 6.96097 250.617 6.75301 251.057 6.62988L251.247 6.58203Z" fill="#256F5F" stroke="#256F5F"/>
<path d="M244.883 5.58691C245.25 5.48294 245.627 5.47221 245.996 5.55566L246.153 5.59766C246.521 5.70831 246.877 5.91266 247.198 6.20801L247.333 6.33984C247.688 6.707 247.983 7.18039 248.188 7.72949C248.392 8.27853 248.5 8.88406 248.5 9.5V13.5H242.855L242.824 11.3838L242.823 11.3008L242.795 11.2227L242.725 11.0127C242.594 10.5884 242.518 10.1366 242.503 9.67676L242.5 9.44629C242.505 8.90728 242.593 8.37785 242.756 7.88867L242.83 7.68164C243.014 7.20449 243.266 6.78681 243.566 6.44824L243.698 6.30859C244.012 5.99349 244.361 5.76789 244.726 5.63672L244.883 5.58691Z" fill="#256F5F" stroke="#256F5F"/>
<path d="M237.639 5.59375C238.15 5.48105 238.678 5.47016 239.192 5.56055L239.412 5.60547C239.995 5.74191 240.539 6.00704 241.006 6.38184C241.472 6.75667 241.849 7.23189 242.107 7.77148C242.366 8.31101 242.5 8.90173 242.5 9.5V13.5H234.958L234.917 11.3818L234.915 11.2773L234.871 11.1816L234.782 10.9756C234.617 10.5596 234.523 10.119 234.504 9.67188L234.5 9.44824C234.507 8.92466 234.617 8.40788 234.822 7.92773L234.916 7.72461C235.149 7.25527 235.47 6.83652 235.863 6.49219L236.035 6.34961C236.448 6.02696 236.919 5.7892 237.422 5.64844L237.639 5.59375Z" fill="#256F5F" stroke="#256F5F"/>
<path d="M231.854 7.57031C232.238 7.48582 232.634 7.47711 233.02 7.54492L233.184 7.5791C233.566 7.6686 233.927 7.83185 234.245 8.05957L234.379 8.16113C234.729 8.44219 235.011 8.79854 235.205 9.20312C235.399 9.60784 235.5 10.0512 235.5 10.5V13.5H229.854L229.824 11.9619L229.822 11.8564L229.778 11.7607L229.712 11.6064C229.588 11.2945 229.517 10.9642 229.503 10.6289L229.5 10.4609C229.505 10.0682 229.587 9.68049 229.741 9.32031L229.812 9.16797C229.986 8.81598 230.228 8.50238 230.522 8.24414L230.651 8.13672C230.961 7.89479 231.314 7.71688 231.691 7.61133L231.854 7.57031Z" fill="#256F5F" stroke="#256F5F"/>
<path d="M226.869 6.57812C227.244 6.48373 227.631 6.47496 228.008 6.55078L228.169 6.58789C228.543 6.68811 228.901 6.87288 229.22 7.13379L229.354 7.25C229.707 7.57337 229.995 7.98791 230.195 8.46484C230.395 8.94175 230.5 9.46657 230.5 10V13.5H224.855L224.824 11.6729L224.822 11.5801L224.788 11.4941L224.719 11.3115C224.591 10.9433 224.518 10.5516 224.503 10.1533L224.5 9.95312C224.505 9.48629 224.591 9.02733 224.75 8.60254L224.822 8.42285C225.002 8.00853 225.249 7.64337 225.546 7.3457L225.677 7.22266C225.988 6.94477 226.339 6.7425 226.709 6.62402L226.869 6.57812Z" fill="#256F5F" stroke="#256F5F"/>
<path d="M219.628 6.58398C220.146 6.4826 220.68 6.4734 221.201 6.55469L221.424 6.59473C221.94 6.70222 222.424 6.89856 222.85 7.16895L223.028 7.28906C223.494 7.62188 223.865 8.03991 224.118 8.50879C224.371 8.97727 224.5 9.48665 224.5 10V13.5H216.957L216.917 11.6709L216.914 11.5537L216.86 11.4502L216.774 11.2715C216.614 10.9112 216.522 10.5315 216.504 10.1475L216.5 9.95508C216.507 9.50595 216.612 9.06081 216.812 8.64453L216.904 8.46777C217.132 8.0597 217.449 7.69179 217.841 7.38672L218.013 7.25977C218.425 6.97316 218.899 6.76037 219.407 6.63379L219.628 6.58398Z" fill="#256F5F" stroke="#256F5F"/>
<path d="M136.628 6.58398C137.146 6.4826 137.68 6.4734 138.201 6.55469L138.424 6.59473C138.94 6.70222 139.424 6.89856 139.85 7.16895L140.028 7.28906C140.494 7.62188 140.865 8.03991 141.118 8.50879C141.371 8.97727 141.5 9.48665 141.5 10V13.5H133.957L133.917 11.6709L133.914 11.5537L133.86 11.4502L133.774 11.2715C133.614 10.9112 133.522 10.5315 133.504 10.1475L133.5 9.95508C133.507 9.50595 133.612 9.06081 133.812 8.64453L133.904 8.46777C134.132 8.0597 134.449 7.69179 134.841 7.38672L135.013 7.25977C135.425 6.97316 135.899 6.76037 136.407 6.63379L136.628 6.58398Z" fill="#256F5F" stroke="#256F5F"/>
<path d="M143.616 7.5752C144.216 7.4724 144.839 7.47512 145.437 7.58398C145.96 7.67929 146.448 7.85242 146.875 8.08984L147.054 8.19531C147.521 8.48727 147.887 8.85064 148.133 9.25C148.378 9.64804 148.5 10.0748 148.5 10.5V13.5H140.956L140.917 11.959L140.913 11.8281L140.847 11.7158L140.763 11.5645C140.607 11.2596 140.52 10.9412 140.503 10.6221L140.5 10.4629C140.506 10.0907 140.607 9.71807 140.801 9.36523L140.89 9.21484C141.111 8.86705 141.423 8.54805 141.814 8.28125L141.987 8.1709C142.46 7.88339 143.016 7.67805 143.616 7.5752Z" fill="#256F5F" stroke="#256F5F"/>
<path d="M149.462 8.55859C149.781 8.48816 150.111 8.48161 150.433 8.53809L150.57 8.56543C150.934 8.65071 151.275 8.81656 151.566 9.05078C151.821 9.25576 152.033 9.509 152.19 9.79492L152.255 9.91992C152.416 10.257 152.5 10.6262 152.5 11V13.5H147.802L147.778 12.251L147.775 12.1465L147.731 12.0508L147.677 11.9219C147.574 11.662 147.514 11.3868 147.502 11.1074L147.5 10.9678C147.504 10.6406 147.573 10.3176 147.701 10.0176L147.76 9.89062C147.905 9.5974 148.106 9.33528 148.352 9.12012L148.46 9.03125C148.718 8.82964 149.012 8.68074 149.326 8.59277L149.462 8.55859Z" fill="#256F5F" stroke="#256F5F"/>
<path d="M154.479 7.56641C154.832 7.4754 155.199 7.47784 155.552 7.57422C155.861 7.65876 156.158 7.81489 156.425 8.03711L156.537 8.13672C156.795 8.37815 157.012 8.67984 157.176 9.02637L157.243 9.17773C157.412 9.58793 157.5 10.04 157.5 10.5V13.5H152.804L152.778 11.9629L152.776 11.8721L152.742 11.7871L152.685 11.6299C152.577 11.3128 152.515 10.9753 152.502 10.6318L152.5 10.46C152.505 10.0575 152.577 9.66227 152.711 9.29688L152.772 9.1416C152.924 8.78505 153.131 8.47203 153.38 8.21777L153.488 8.1123C153.748 7.87534 154.04 7.70456 154.347 7.60449L154.479 7.56641Z" fill="#256F5F" stroke="#256F5F"/>
<path d="M159.462 8.55859C159.781 8.48816 160.111 8.48161 160.433 8.53809L160.57 8.56543C160.934 8.65071 161.275 8.81656 161.566 9.05078C161.821 9.25576 162.033 9.509 162.19 9.79492L162.255 9.91992C162.416 10.257 162.5 10.6262 162.5 11V13.5H157.802L157.778 12.251L157.775 12.1465L157.731 12.0508L157.677 11.9219C157.574 11.662 157.514 11.3868 157.502 11.1074L157.5 10.9678C157.504 10.6406 157.573 10.3176 157.701 10.0176L157.76 9.89062C157.905 9.5974 158.106 9.33528 158.352 9.12012L158.46 9.03125C158.718 8.82964 159.012 8.68074 159.326 8.59277L159.462 8.55859Z" fill="#256F5F" stroke="#256F5F"/>
<path d="M136.628 6.58398C137.146 6.4826 137.68 6.4734 138.201 6.55469L138.424 6.59473C138.94 6.70222 139.424 6.89856 139.85 7.16895L140.028 7.28906C140.494 7.62188 140.865 8.03991 141.118 8.50879C141.371 8.97727 141.5 9.48665 141.5 10V13.5H133.957L133.917 11.6709L133.914 11.5537L133.86 11.4502L133.774 11.2715C133.614 10.9112 133.522 10.5315 133.504 10.1475L133.5 9.95508C133.507 9.50595 133.612 9.06081 133.812 8.64453L133.904 8.46777C134.132 8.0597 134.449 7.69179 134.841 7.38672L135.013 7.25977C135.425 6.97316 135.899 6.76037 136.407 6.63379L136.628 6.58398Z" fill="#256F5F" stroke="#256F5F"/>
<rect y="14" width="350" height="15" fill="url(#paint0_linear_38_1009)"/>
<defs>
<linearGradient id="paint0_linear_38_1009" x1="175" y1="14" x2="175" y2="29" gradientUnits="userSpaceOnUse">
<stop offset="0.947115" stop-color="#5B7D38"/>
<stop offset="1" stop-color="#3D5837"/>
</linearGradient>
</defs>
</svg>
