<svg width="350" height="141" viewBox="0 0 350 141" fill="none" xmlns="http://www.w3.org/2000/svg">
<path d="M0 0H350V141H0V0Z" fill="url(#paint0_linear_57_58)"/>
<circle cx="75.0577" cy="31" r="15" fill="#AEAA99"/>
<circle cx="96.5577" cy="41.5" r="10.5" fill="#AEAA99"/>
<ellipse cx="111.558" cy="47.5" rx="7.5" ry="4.5" fill="#AEAA99"/>
<ellipse cx="120.696" cy="49.8873" rx="8.5" ry="1.87871" transform="rotate(7.10828 120.696 49.8873)" fill="#AEAA99"/>
<circle cx="53.5577" cy="40.5" r="11.5" fill="#AEAA99"/>
<circle cx="42.0577" cy="42" r="4" fill="#AEAA99"/>
<ellipse cx="35.1944" cy="45.6414" rx="9" ry="5.05541" transform="rotate(-18.43 35.1944 45.6414)" fill="#AEAA99"/>
<path d="M34.8203 45.2771C35.2611 47.2184 30.7803 49.8908 24.8121 51.2459C18.844 52.6011 11.111 52.3155 13.4093 50.5C16.4093 48.1302 17.4093 46.5 23.2158 44.2156C29.184 42.8605 34.3794 43.3357 34.8203 45.2771Z" fill="#AEAA99"/>
<rect x="17.5433" y="49" width="107" height="3" fill="#AEAA99"/>
<rect x="38.4095" y="41" width="66" height="11" fill="#AEAA99"/>
<path d="M65.4095 51.5C65.4095 51.0404 65.2931 50.5852 65.067 50.1606C64.8409 49.736 64.5094 49.3501 64.0915 49.0251C63.6737 48.7001 63.1776 48.4423 62.6316 48.2664C62.0857 48.0905 61.5005 48 60.9095 48C60.3186 48 59.7334 48.0905 59.1875 48.2664C58.6415 48.4423 58.1454 48.7001 57.7276 49.0251C57.3097 49.3501 56.9782 49.736 56.7521 50.1606C56.5259 50.5852 56.4095 51.0404 56.4095 51.5L60.9095 51.5H65.4095Z" fill="#9C9696"/>
<path d="M82.9095 51.5C82.9095 49.1131 80.4613 44.3239 78.7735 42.636C77.0857 40.9482 74.7965 40 72.4095 40C70.0226 40 67.7334 40.9482 66.0456 42.636C64.3578 44.3239 62.4095 49.1131 62.4095 51.5H72.4095H82.9095Z" fill="#9C9696"/>
<path d="M95.5302 51.5C96.9095 51.5 96.4095 51 95.9095 50.5C95.6169 50.2073 95.1768 49.7616 94.7931 49.4793C94.4094 49.1971 93.9062 48.953 93.3268 48.768C92.7474 48.583 92.1089 48.4625 91.466 48.417C90.8231 48.3714 90.195 48.4021 89.6355 48.5064C89.0759 48.6106 88.6015 48.7854 88.253 49.0158C87.9045 49.2461 87.6921 49.5251 87.6342 49.8289C87.5762 50.1327 87.6637 51.192 87.9095 51.5L91.4095 51.5L95.5302 51.5Z" fill="#9C9696"/>
<path d="M88.9096 51.5C89.0698 50.9644 88.1804 49.8878 87.9673 49.2829C87.7543 48.6779 87.3641 48.0929 86.8381 47.5899C86.3121 47.0869 85.67 46.6846 84.9799 46.4258C84.2898 46.167 83.5775 46.0613 82.9185 46.1199C82.2596 46.1786 81.851 46.1405 81.4096 46.5C80.8476 46.7412 80.0086 47.4414 79.9096 48C79.8107 48.5587 78.6381 50.4003 78.9096 51C79.1811 51.5997 80.4096 51.5 81.9536 51.568L84.9096 51.5L86.9096 51.5L88.9096 51.5Z" fill="#9C9696"/>
<ellipse cx="304.968" cy="49.1419" rx="11.8861" ry="12.1419" fill="#AEAA99"/>
<ellipse cx="322.004" cy="57.6412" rx="8.32029" ry="8.49932" fill="#AEAA99"/>
<ellipse cx="333.89" cy="62.498" rx="5.94307" ry="3.64256" fill="#AEAA99"/>
<ellipse cx="6.73772" cy="1.52025" rx="6.73772" ry="1.52025" transform="matrix(0.991984 0.126365 -0.121177 0.992631 334.633 62.0699)" fill="#AEAA99"/>
<ellipse cx="287.931" cy="56.8317" rx="9.1127" ry="9.30877" fill="#AEAA99"/>
<ellipse cx="278.818" cy="58.0459" rx="3.16964" ry="3.23783" fill="#AEAA99"/>
<ellipse cx="7.14717" cy="4.08361" rx="7.14717" ry="4.08361" transform="matrix(0.946655 -0.322249 0.310134 0.950693 265.347 59.4144)" fill="#AEAA99"/>
<path d="M273.083 60.6986C273.432 62.2701 269.882 64.4332 265.152 65.5301C260.423 66.6271 254.296 66.396 256.117 64.9263C258.494 63.0081 259.286 61.6885 263.888 59.8394C268.617 58.7425 272.734 59.1271 273.083 60.6986Z" fill="#AEAA99"/>
<rect x="259.393" y="63.7122" width="84.7878" height="2.42838" fill="#AEAA99"/>
<rect x="275.927" y="57.2365" width="52.299" height="8.90405" fill="#AEAA99"/>
<path d="M297.322 65.7358C297.322 65.3637 297.23 64.9953 297.051 64.6516C296.872 64.3078 296.609 63.9955 296.278 63.7324C295.947 63.4694 295.554 63.2607 295.121 63.1183C294.688 62.9759 294.225 62.9026 293.756 62.9026C293.288 62.9026 292.824 62.9759 292.392 63.1183C291.959 63.2607 291.566 63.4694 291.235 63.7324C290.904 63.9955 290.641 64.3078 290.462 64.6516C290.283 64.9953 290.191 65.3637 290.191 65.7358L293.756 65.7358H297.322Z" fill="#9C9696"/>
<path d="M311.189 65.7358C311.189 63.8036 309.249 59.927 307.912 58.5608C306.574 57.1945 304.76 56.427 302.869 56.427C300.978 56.427 299.164 57.1945 297.826 58.5608C296.489 59.927 294.945 63.8036 294.945 65.7358H302.869H311.189Z" fill="#9C9696"/>
<path d="M321.19 65.7357C322.283 65.7357 321.887 65.331 321.491 64.9263C321.259 64.6894 320.91 64.3286 320.606 64.1001C320.302 63.8717 319.903 63.6741 319.444 63.5243C318.985 63.3746 318.479 63.2771 317.97 63.2402C317.46 63.2033 316.962 63.2281 316.519 63.3125C316.076 63.3969 315.7 63.5384 315.423 63.7249C315.147 63.9113 314.979 64.1372 314.933 64.3831C314.887 64.629 314.957 65.4865 315.151 65.7357L317.925 65.7357L321.19 65.7357Z" fill="#9C9696"/>
<path d="M315.944 65.7358C316.071 65.3022 315.366 64.4307 315.197 63.941C315.028 63.4514 314.719 62.9778 314.302 62.5707C313.886 62.1635 313.377 61.8379 312.83 61.6284C312.283 61.4189 311.719 61.3333 311.197 61.3808C310.674 61.4283 310.351 61.3975 310.001 61.6885C309.556 61.8837 308.891 62.4505 308.812 62.9026C308.734 63.3548 307.805 64.8456 308.02 65.331C308.235 65.8165 309.208 65.7358 310.432 65.7908L312.774 65.7358L314.359 65.7358L315.944 65.7358Z" fill="#9C9696"/>
<path d="M68 80C68 78.7524 67.4774 75.0171 67 73.8645C66.5226 72.7119 66.0997 71.6646 65.2175 70.7825C64.3354 69.9003 63.2881 69.2006 62.1355 68.7231C60.9829 68.2457 59.7476 68 58.5 68C57.2524 68 56.0171 68.2457 54.8645 68.7231C53.7119 69.2006 52.6646 69.9003 51.7825 70.7825C50.9003 71.6646 50.4774 72.7119 50 73.8645C49.5226 75.0171 48.5 78.7524 48.5 80H58.5H68Z" fill="#AEAA99"/>
<path d="M73.9454 77.5C73.9454 76.4391 73.1956 75.2501 72.4454 74.5C71.6953 73.7499 70.5063 73.5 69.4454 73.5C68 73.5 67.2501 73.7499 66.5 74.5C65.7499 75.2501 65.4454 76.4391 65.4454 77.5V80H70H74L73.9454 77.5Z" fill="#AEAA99"/>
<path d="M84.5 79C84.5 78.6022 83.3152 77.7206 82.0962 77.4393C80.8772 77.158 79.2239 76.5 77.5 76.5C75.7761 76.5 72.5 76 72.5 77C71.281 77.2813 71 78.1022 71 78.5V80H77H81H83.5C83.5 80 84.5 80 84.5 79.5C84.5 79 84.5 79 84.5 79Z" fill="#AEAA99"/>
<path d="M51 76C51 75.4355 50.8805 74.8775 50.6495 74.3625C50.4184 73.8474 50.0809 73.3872 49.6592 73.0119C49.2376 72.6367 48.7412 72.3549 48.2029 72.1852C47.6646 72.0154 47.0964 71.9615 46.5357 72.027C45.9751 72.0926 45.4346 72.276 44.9499 72.5653C44.4652 72.8546 44.0473 73.2432 43.7235 73.7056C43.3997 74.168 43.1774 74.6936 43.0713 75.248C42.9652 75.8025 42.8698 76.4507 43 77L43 80H43.5H47H51V76Z" fill="#AEAA99"/>
<path d="M44.1382 78.6262C44.1382 78.1831 43.9909 77.7455 43.707 77.3448C43.4231 76.9442 43.0096 76.5904 42.4962 76.309C41.9828 76.0276 41.3823 75.8254 40.7378 75.7172C40.0933 75.6089 39.4208 75.5971 38.7686 75.6828C38.1165 75.7684 37.5009 75.9492 36.9661 76.2124C36.4313 76.4755 35.9906 76.8143 35.6756 77.2045C35.3606 77.5947 35.1792 78.0266 35.1443 78.4691C35.1095 78.9116 35.248 79.59 35.5 80H37H39H41.5H44.1382V78.6262Z" fill="#AEAA99"/>
<path d="M38 79C38 80 36.4853 80 34 80C31.5147 80 29 80.0523 29 79.5C29 78.9477 31.0147 78 33.5 78C35.9853 78 38 78.4477 38 79Z" fill="#AEAA99"/>
<path d="M202.512 33.5581C203.97 31.7417 204.293 26.2035 204.664 23.8913C205.035 21.5791 204.805 19.1981 203.995 16.974C203.185 14.7498 201.822 12.756 200.036 11.1815C198.249 9.60691 196.098 8.5037 193.787 7.97631C191.475 7.44892 189.079 7.51482 186.825 8.16775C184.572 8.82069 182.535 10.0391 180.909 11.7075C179.283 13.3759 178.121 15.4391 177.532 17.7017C176.944 19.9643 176.949 22.3514 177.547 24.637L178 33.5L190.991 33.5974L202.512 33.5581Z" fill="#AEAA99"/>
<path d="M207.486 27.6284C207.486 26.8095 207.17 26.0241 206.608 25.445C206.045 24.866 205.282 24.5406 204.486 24.5406C203.691 24.5406 202.927 24.866 202.365 25.445C201.802 26.0241 201.486 26.8095 201.486 27.6284V33.5406H205.486H207.486V27.6284Z" fill="#AEAA99"/>
<path d="M220.986 33.5407C221.255 32.7101 221.672 28.8632 221.475 27.9672C221.277 27.0713 220.85 26.1954 220.223 25.4008C219.596 24.6062 218.784 23.9119 217.844 23.3665C216.904 22.821 215.859 22.4375 214.782 22.2427C213.704 22.0478 212.62 22.0464 211.605 22.2385C210.59 22.4305 209.668 22.8114 208.905 23.3546C208.141 23.8979 207.554 24.5903 207.183 25.3836C206.813 26.1769 206.669 27.052 206.762 27.9478L206.762 33.5407L214.782 33.5407L220.986 33.5407Z" fill="#AEAA99"/>
<path d="M232.486 33.0406C232.58 32.5377 232.424 32.3352 231.833 31.77C231.242 31.2049 230.341 30.654 229.215 30.1697C228.088 29.6855 226.775 29.2839 225.398 29.0033C224.022 28.7226 222.629 28.5722 221.352 28.5663C220.074 28.5603 218.955 28.6991 218.1 28.9694C217.245 29.2397 216.682 29.6325 216.467 30.1105C216.251 30.5886 216.388 31.1359 216.866 31.7006C217.344 32.2652 218.146 32.8284 219.197 33.3366L220.986 33.5406L224.986 33.5406L231.833 33.5406L232.486 33.0406Z" fill="#AEAA99"/>
<path d="M182.659 21.2412C182.333 19.9726 181.706 18.7958 180.819 17.7848C179.931 16.7738 178.802 15.9504 177.502 15.3664C176.202 14.7823 174.76 14.4502 173.265 14.391C171.771 14.3317 170.256 14.5466 168.817 15.022C167.378 15.4975 166.045 16.2232 164.903 17.1538C163.761 18.0843 162.833 19.1994 162.179 20.4292C161.524 21.6589 161.157 22.9766 161.101 24.2996C161.044 25.6225 161.299 26.9221 161.849 28.1166L161.849 33.5406L174.486 33.5406L182.486 33.5406L182.659 21.2412Z" fill="#AEAA99"/>
<path d="M163.986 29.5406C163.986 28.8343 163.746 28.1379 163.285 27.5078C162.824 26.8777 162.156 26.3315 161.333 25.9134C160.511 25.4954 159.558 25.2173 158.551 25.1015C157.545 24.9857 156.513 25.0356 155.54 25.2471C154.567 25.4586 153.679 25.8258 152.948 26.3189C152.218 26.812 151.665 27.4172 151.335 28.0856C151.005 28.754 150.907 29.4667 151.049 30.1662C151.191 30.8656 150.752 32.961 151.335 33.5406H151.986H157.486H163.986L163.986 29.5406Z" fill="#AEAA99"/>
<path d="M153.918 30.03C153.882 29.7633 153.644 29.5269 153.219 29.3347C152.794 29.1426 152.191 28.9988 151.445 28.9119C150.7 28.825 149.827 28.7968 148.88 28.8289C147.932 28.8611 146.93 28.953 145.932 29.0991C144.934 29.2452 143.962 29.4425 143.073 29.6793C142.184 29.916 141.397 30.1872 140.759 30.4768C140.12 30.7663 139.644 31.0682 139.359 31.3643C139.073 31.6605 138.984 31.9448 139.097 32.2002L138.986 33.5406L145.986 33.5407L153.918 33.5407L153.918 30.03Z" fill="#AEAA99"/>
<path d="M141.986 33.0406C141.986 32.8802 141.87 32.7221 141.649 32.5798C141.427 32.4374 141.105 32.3149 140.712 32.2226C140.318 32.1303 139.863 32.071 139.386 32.0496C138.909 32.0282 138.424 32.0453 137.971 32.0996C137.518 32.1539 137.111 32.2437 136.784 32.3615C136.457 32.4792 136.22 32.6214 136.093 32.7762C135.966 32.9309 135.986 33.0406 136.053 33.2504C136.154 33.4073 136.18 33.4169 136.486 33.5406H138.986H140.712L141.986 33.0406Z" fill="#AEAA99"/>
<path d="M293.012 98.22C293.011 97.3244 293.227 96.4372 293.648 95.6089C294.07 94.7807 294.688 94.0276 295.468 93.3927C296.249 92.7578 297.175 92.2535 298.196 91.9086C299.216 91.5637 300.31 91.385 301.415 91.3827L301.427 98.2021L293.012 98.22Z" fill="#AEAA99"/>
<path d="M328.343 96.3657C328.343 94.8731 328.071 93.3952 327.543 92.0162C327.014 90.6373 326.239 89.3843 325.262 88.3289C324.286 87.2735 323.126 86.4363 321.85 85.8652C320.574 85.294 319.206 85 317.825 85C316.443 85 315.075 85.294 313.799 85.8652C312.523 86.4363 311.363 87.2735 310.387 88.3289C309.41 89.3843 308.635 90.6373 308.106 92.0162C307.578 93.3952 307.306 94.8731 307.306 96.3657L307.306 98.1842H317.404H328.343V96.3657Z" fill="#AEAA99"/>
<path d="M335.917 98.1841C335.917 97.2886 335.764 96.4018 335.468 95.5745C335.172 94.7471 334.739 93.9953 334.192 93.3621C333.645 92.7289 332.995 92.2265 332.281 91.8838C331.566 91.5411 330.8 91.3647 330.026 91.3647C329.253 91.3647 328.487 91.5411 327.772 91.8838C327.057 92.2265 326.408 92.7289 325.861 93.3621C325.314 93.9953 324.88 94.7471 324.584 95.5745C324.288 96.4018 324.136 97.2886 324.136 98.1841L330.026 98.1841H335.917Z" fill="#AEAA99"/>
<path d="M343.07 97.2749C343.07 96.9764 342.839 96.6414 342.649 96.3656C342.459 96.0899 341.892 95.8786 341.54 95.6676C341.188 95.4565 340.771 95.289 340.311 95.1748C339.852 95.0606 339.36 95.0018 338.862 95.0018C338.365 95.0018 337.873 95.0606 337.413 95.1748C336.954 95.289 336.536 95.4565 336.185 95.6676C335.833 95.8786 335.554 96.1292 335.364 96.405C335.173 96.6808 335.075 96.9764 335.075 97.2749V98.1842H338.862H343.07H343.491H344.332L343.07 97.2749Z" fill="#AEAA99"/>
<path d="M345.877 97.7173C345.801 98.2127 344.826 98.1842 343.49 98.1842C341.807 98.1842 341.622 96.9311 341.698 96.4357C341.774 95.9403 342.765 95.7054 343.911 95.9111C345.057 96.1167 345.953 97.2219 345.877 97.7173Z" fill="#AEAA99"/>
<path d="M309.83 98.1841C309.83 97.2886 309.612 96.4018 309.19 95.5745C308.767 94.7471 308.147 93.9953 307.365 93.3621C306.584 92.7289 305.656 92.2265 304.635 91.8838C303.614 91.5411 302.52 91.3647 301.415 91.3647V98.1841H309.83Z" fill="#AEAA99"/>
<ellipse cx="307.306" cy="92.7286" rx="1.68302" ry="1.36388" fill="#AEAA99"/>
<path d="M328.243 25.9985C328.243 24.6471 327.57 20.601 326.955 19.3525C326.34 18.104 325.795 16.9696 324.659 16.014C323.522 15.0584 322.173 14.3005 320.688 13.7833C319.203 13.2662 317.612 13 316.004 13C314.397 13 312.806 13.2662 311.321 13.7833C309.836 14.3005 308.487 15.0584 307.35 16.014C306.214 16.9696 305.669 18.104 305.054 19.3525C304.439 20.601 303.122 24.6471 303.122 25.9985H316.004H328.243Z" fill="#30636E"/>
<path d="M335.903 23.2909C335.903 22.1417 334.937 20.8536 333.97 20.041C333.004 19.2283 331.472 18.9576 330.105 18.9576C328.243 18.9576 327.277 19.2283 326.311 20.041C325.344 20.8536 324.952 22.1417 324.952 23.2909V25.9992H330.82H335.973L335.903 23.2909Z" fill="#30636E"/>
<path d="M349.5 24.9156C349.5 24.4846 347.974 23.5296 346.403 23.2249C344.833 22.9201 342.703 22.2073 340.482 22.2073C338.261 22.2073 334.041 21.6656 334.041 22.7489C332.47 23.0537 332.108 23.9429 332.108 24.3739V25.9989H339.838H344.991H348.212C348.212 25.9989 349.5 25.9989 349.5 25.4572C349.5 24.9156 349.5 24.9156 349.5 24.9156Z" fill="#30636E"/>
<path d="M306.342 21.6661C306.342 21.0546 306.188 20.45 305.891 19.8921C305.593 19.3342 305.158 18.8356 304.615 18.4291C304.072 18.0225 303.432 17.7173 302.739 17.5334C302.045 17.3495 301.313 17.2911 300.591 17.3621C299.869 17.4331 299.172 17.6318 298.548 17.9452C297.924 18.2586 297.385 18.6796 296.968 19.1805C296.551 19.6814 296.265 20.2509 296.128 20.8515C295.991 21.4521 295.868 22.1544 296.036 22.7494L296.036 25.9994H296.68H301.189H306.342V21.6661Z" fill="#30636E"/>
<path d="M297.502 24.5107C297.502 24.0307 297.313 23.5566 296.947 23.1226C296.581 22.6885 296.048 22.3053 295.387 22.0004C294.726 21.6955 293.952 21.4766 293.122 21.3593C292.291 21.242 291.425 21.2292 290.585 21.322C289.745 21.4147 288.952 21.6107 288.263 21.8957C287.574 22.1808 287.006 22.5478 286.6 22.9705C286.194 23.3932 285.961 23.8611 285.916 24.3405C285.871 24.8198 286.049 25.5548 286.374 25.9989H288.306H290.883H294.104H297.502V24.5107Z" fill="#30636E"/>
<path d="M289.595 24.9151C289.595 25.9984 287.643 25.9984 284.441 25.9984C281.24 25.9984 278 26.0551 278 25.4568C278 24.8585 280.596 23.8318 283.797 23.8318C286.999 23.8318 289.595 24.3168 289.595 24.9151Z" fill="#30636E"/>
<path d="M44.2026 107.95C50.7026 107.95 47.2026 104 45.2026 102.5C43.4133 101.158 42.0089 100.95 40.1523 100.95C38.2958 100.95 36.5154 101.687 35.2026 103C33.8898 104.313 33.1523 106.093 33.1523 107.95L40.1523 107.95L44.2026 107.95Z" fill="#838C89"/>
<path d="M38.2026 103C38.2026 101.879 37.9375 100.77 37.4244 99.7459C36.9113 98.7216 36.1618 97.8047 35.2244 97.0545C34.287 96.3043 33.1826 95.7377 31.983 95.3913C30.7833 95.0449 29.5151 94.9266 28.2607 95.0439C27.0063 95.1613 25.7936 95.5117 24.7014 96.0724C23.6091 96.6332 22.6617 97.3918 21.9205 98.299C21.1793 99.2061 20.6608 100.242 20.3989 101.338C20.1369 102.435 19.44 106.903 19.7025 108H29.2026H38.2026V103Z" fill="#838C89"/>
<path d="M25.2274 103.119C25.1539 102.571 24.8523 102.06 24.3424 101.62C23.8325 101.18 23.1262 100.821 22.2704 100.568C21.4146 100.314 20.4289 100.171 19.3791 100.148C18.3293 100.125 17.2394 100.224 16.1819 100.436C15.1245 100.649 14.1238 100.97 13.2464 101.38C12.369 101.79 11.6352 102.279 11.0937 102.813C10.5522 103.348 10.2154 103.916 10.1059 104.481C9.99637 105.045 9.86061 107.506 10.2025 108L16.7376 108.032L25.2022 107.99L25.2274 103.119Z" fill="#838C89"/>
<path d="M14.1812 106.055C14.1575 105.798 13.9139 105.567 13.474 105.382C13.034 105.197 12.4126 105.066 11.6694 105C10.9263 104.934 10.0866 104.937 9.23115 105.008C8.37572 105.078 8.16091 105.193 7.41294 105.382C6.66498 105.57 6.15079 105.758 5.70244 106.016C5.08569 106.371 4.23584 107.255 4.20227 107.516C4.2023 108.016 4.20229 108.016 5.20249 108.016C5.7025 108.016 6.45354 108.029 7.20249 108.016L9.70251 108.003L14.2025 108.016L14.1812 106.055Z" fill="#838C89"/>
<path d="M278 97.5C278 96.5151 277.715 95.5398 277.163 94.6299C276.61 93.7199 275.8 92.8931 274.778 92.1967C273.757 91.5003 272.544 90.9478 271.21 90.5709C269.875 90.194 268.445 90 267 90C265.555 90 264.125 90.194 262.79 90.5709C261.456 90.9478 260.243 91.5003 259.222 92.1967C258.2 92.8931 257.39 93.7199 256.837 94.6299C256.285 95.5398 256 96.5151 256 97.5L267 97.5H278Z" fill="#838C89"/>
<path d="M260 96.5C260 96.2414 259.755 95.9873 259.289 95.7622C258.822 95.537 258.15 95.3486 257.338 95.2152C256.526 95.0817 255.602 95.0078 254.654 95.0006C253.706 94.9934 252.768 95.053 251.93 95.1739C251.092 95.2947 250.382 95.4726 249.87 95.6902C249.358 95.9079 249.062 96.1579 249.009 96.4161C248.956 96.6742 249.148 96.9317 249.568 97.1636C250 97.5 250.5 97.5 251.5 97.5H254.654H258L260 96.5Z" fill="#838C89"/>
<path d="M273 96.5672C272.994 96.124 273.224 95.6856 273.666 95.2969C274.108 94.9082 274.747 94.5833 275.516 94.3553C276.285 94.1273 277.158 94.0045 278.044 93.9995C278.93 93.9944 279.799 94.1074 280.56 94.3267C281.321 94.546 281.949 94.8638 282.377 95.2475C282.805 95.6313 283.522 96.5567 283.5 97C283.478 97.4433 282.683 97.5 282 97.5C281 97.5 281 97.5 280 97.5L278 97.5L273 97.5L273 96.5672Z" fill="#838C89"/>
<ellipse cx="233" cy="47" rx="16" ry="2" fill="#30636E"/>
<ellipse cx="254.5" cy="46.5" rx="17.5" ry="3.5" fill="#30636E"/>
<ellipse cx="116.5" cy="16" rx="9.5" ry="2" fill="#30636E"/>
<ellipse cx="129" cy="16" rx="6" ry="2" fill="#30636E"/>
<ellipse cx="25" cy="22" rx="18" ry="3" fill="#30636E"/>
<ellipse cx="24.5" cy="25" rx="7.5" ry="2" fill="#30636E"/>
<ellipse cx="17" cy="27" rx="9" ry="2" fill="#30636E"/>
<ellipse cx="10.5" cy="24.5" rx="6.5" ry="3.5" fill="#30636E"/>
<ellipse cx="115.5" cy="66" rx="6.5" ry="1" fill="#30636E"/>
<ellipse cx="128.5" cy="66" rx="8.5" ry="2" fill="#30636E"/>
<ellipse cx="120.5" cy="65" rx="4.5" ry="1" fill="#30636E"/>
<g clip-path="url(#clip0_57_58)">
<path d="M272.264 16.2948C272.34 16.0679 272.66 16.0679 272.736 16.2948L273.179 17.6265C273.277 17.9192 273.441 18.1852 273.66 18.4034C273.878 18.6215 274.144 18.7858 274.437 18.8833L275.768 19.3267C275.995 19.4023 275.995 19.7227 275.768 19.7983L274.436 20.2418C274.143 20.3394 273.877 20.5038 273.659 20.7221C273.441 20.9403 273.277 21.2064 273.179 21.4992L272.736 22.8302C272.72 22.8799 272.688 22.9231 272.646 22.9538C272.603 22.9845 272.552 23.001 272.5 23.001C272.448 23.001 272.397 22.9845 272.354 22.9538C272.312 22.9231 272.281 22.8799 272.264 22.8302L271.821 21.4985C271.723 21.2058 271.559 20.9399 271.341 20.7218C271.123 20.5036 270.857 20.3393 270.564 20.2418L269.232 19.7983C269.183 19.782 269.139 19.7504 269.109 19.7081C269.078 19.6657 269.062 19.6148 269.062 19.5625C269.062 19.5102 269.078 19.4593 269.109 19.4169C269.139 19.3746 269.183 19.343 269.232 19.3267L270.564 18.8833C270.857 18.7857 271.123 18.6214 271.341 18.4032C271.559 18.1851 271.723 17.9192 271.821 17.6265L272.264 16.2948ZM269.608 12.7893C269.618 12.7595 269.637 12.7336 269.663 12.7152C269.688 12.6969 269.719 12.687 269.75 12.687C269.781 12.687 269.812 12.6969 269.837 12.7152C269.863 12.7336 269.882 12.7595 269.892 12.7893L270.158 13.5881C270.277 13.9443 270.556 14.2234 270.912 14.3423L271.711 14.6084C271.741 14.6182 271.766 14.6372 271.785 14.6627C271.803 14.6881 271.813 14.7186 271.813 14.75C271.813 14.7814 271.803 14.8119 271.785 14.8374C271.766 14.8628 271.741 14.8818 271.711 14.8916L270.912 15.1577C270.736 15.216 270.576 15.3146 270.446 15.4455C270.315 15.5764 270.216 15.7361 270.158 15.9119L269.892 16.7108C269.882 16.7405 269.863 16.7664 269.837 16.7848C269.812 16.8032 269.781 16.813 269.75 16.813C269.719 16.813 269.688 16.8032 269.663 16.7848C269.637 16.7664 269.618 16.7405 269.608 16.7108L269.342 15.9119C269.284 15.7361 269.185 15.5764 269.055 15.4455C268.924 15.3146 268.764 15.216 268.588 15.1577L267.789 14.8916C267.76 14.8818 267.734 14.8628 267.715 14.8374C267.697 14.8119 267.687 14.7814 267.687 14.75C267.687 14.7186 267.697 14.6881 267.715 14.6627C267.734 14.6372 267.76 14.6182 267.789 14.6084L268.588 14.3423C268.764 14.284 268.924 14.1854 269.055 14.0545C269.185 13.9236 269.284 13.7639 269.342 13.5881L269.608 12.7893ZM274.468 12.0681C274.475 12.0485 274.488 12.0315 274.505 12.0195C274.522 12.0075 274.542 12.001 274.563 12.001C274.583 12.001 274.603 12.0075 274.62 12.0195C274.637 12.0315 274.65 12.0485 274.657 12.0681L274.834 12.6002C274.913 12.8381 275.099 13.0244 275.337 13.1034L275.869 13.2808C275.889 13.2876 275.906 13.3003 275.918 13.3172C275.93 13.3341 275.937 13.3543 275.937 13.375C275.937 13.3957 275.93 13.4159 275.918 13.4328C275.906 13.4497 275.889 13.4624 275.869 13.4692L275.337 13.6466C275.22 13.6858 275.114 13.7516 275.026 13.8389C274.939 13.9263 274.873 14.0327 274.834 14.1498L274.657 14.6819C274.65 14.7015 274.637 14.7185 274.62 14.7305C274.603 14.7425 274.583 14.749 274.563 14.749C274.542 14.749 274.522 14.7425 274.505 14.7305C274.488 14.7185 274.475 14.7015 274.468 14.6819L274.291 14.1498C274.252 14.0327 274.186 13.9263 274.099 13.8389C274.011 13.7516 273.905 13.6858 273.788 13.6466L273.256 13.4692C273.237 13.4624 273.22 13.4497 273.208 13.4328C273.196 13.4159 273.189 13.3957 273.189 13.375C273.189 13.3543 273.196 13.3341 273.208 13.3172C273.22 13.3003 273.237 13.2876 273.256 13.2808L273.788 13.1034C274.026 13.0244 274.213 12.8381 274.292 12.6002L274.468 12.0681Z" fill="#A7A7A7"/>
</g>
<g clip-path="url(#clip1_57_58)">
<path d="M77.8285 89.1235C77.8835 88.9585 78.1165 88.9585 78.1715 89.1235L78.494 90.092C78.565 90.3049 78.6846 90.4983 78.8433 90.657C79.0021 90.8156 79.1956 90.9351 79.4085 91.006L80.3765 91.3285C80.5415 91.3835 80.5415 91.6165 80.3765 91.6715L79.408 91.994C79.1951 92.065 79.0017 92.1846 78.843 92.3433C78.6844 92.502 78.5649 92.6955 78.494 92.9085L78.1715 93.8765C78.1597 93.9126 78.1367 93.9441 78.1059 93.9664C78.0751 93.9887 78.0381 94.0007 78 94.0007C77.962 94.0007 77.9249 93.9887 77.8941 93.9664C77.8634 93.9441 77.8404 93.9126 77.8285 93.8765L77.506 92.908C77.4351 92.6951 77.3156 92.5017 77.1569 92.3431C76.9983 92.1844 76.8049 92.0649 76.592 91.994L75.6235 91.6715C75.5874 91.6596 75.5559 91.6367 75.5336 91.6059C75.5113 91.5751 75.4993 91.538 75.4993 91.5C75.4993 91.462 75.5113 91.4249 75.5336 91.3941C75.5559 91.3633 75.5874 91.3403 75.6235 91.3285L76.592 91.006C76.8049 90.935 76.9983 90.8155 77.1569 90.6569C77.3156 90.4982 77.4351 90.3048 77.506 90.092L77.8285 89.1235ZM75.897 86.574C75.9042 86.5523 75.918 86.5335 75.9365 86.5201C75.955 86.5068 75.9772 86.4996 76 86.4996C76.0228 86.4996 76.0451 86.5068 76.0636 86.5201C76.082 86.5335 76.0959 86.5523 76.103 86.574L76.2965 87.155C76.383 87.414 76.586 87.617 76.845 87.7035L77.426 87.897C77.4477 87.9042 77.4665 87.918 77.4799 87.9365C77.4932 87.9549 77.5004 87.9772 77.5004 88C77.5004 88.0228 77.4932 88.045 77.4799 88.0635C77.4665 88.082 77.4477 88.0958 77.426 88.103L76.845 88.2965C76.7172 88.3389 76.6011 88.4106 76.5058 88.5058C76.4106 88.601 76.3389 88.7172 76.2965 88.845L76.103 89.426C76.0959 89.4476 76.082 89.4665 76.0636 89.4798C76.0451 89.4932 76.0228 89.5004 76 89.5004C75.9772 89.5004 75.955 89.4932 75.9365 89.4798C75.918 89.4665 75.9042 89.4476 75.897 89.426L75.7035 88.845C75.6611 88.7172 75.5894 88.601 75.4942 88.5058C75.399 88.4106 75.2828 88.3389 75.155 88.2965L74.574 88.103C74.5524 88.0958 74.5335 88.082 74.5202 88.0635C74.5068 88.045 74.4996 88.0228 74.4996 88C74.4996 87.9772 74.5068 87.9549 74.5202 87.9365C74.5335 87.918 74.5524 87.9042 74.574 87.897L75.155 87.7035C75.2828 87.6611 75.399 87.5894 75.4942 87.4942C75.5894 87.3989 75.6611 87.2828 75.7035 87.155L75.897 86.574ZM79.4315 86.0495C79.4365 86.0352 79.4457 86.0229 79.458 86.0142C79.4703 86.0054 79.485 86.0007 79.5 86.0007C79.5151 86.0007 79.5298 86.0054 79.5421 86.0142C79.5543 86.0229 79.5636 86.0352 79.5685 86.0495L79.6975 86.4365C79.755 86.6095 79.8905 86.745 80.0635 86.8025L80.4505 86.9315C80.4648 86.9364 80.4771 86.9457 80.4858 86.9579C80.4946 86.9702 80.4993 86.9849 80.4993 87C80.4993 87.0151 80.4946 87.0297 80.4858 87.042C80.4771 87.0543 80.4648 87.0635 80.4505 87.0685L80.0635 87.1975C79.9783 87.226 79.9009 87.2739 79.8374 87.3374C79.7739 87.4009 79.726 87.4783 79.6975 87.5635L79.5685 87.9505C79.5636 87.9647 79.5543 87.9771 79.5421 87.9858C79.5298 87.9945 79.5151 87.9992 79.5 87.9992C79.485 87.9992 79.4703 87.9945 79.458 87.9858C79.4457 87.9771 79.4365 87.9647 79.4315 87.9505L79.3025 87.5635C79.274 87.4783 79.2261 87.4009 79.1626 87.3374C79.0991 87.2739 79.0217 87.226 78.9365 87.1975L78.55 87.0685C78.5358 87.0635 78.5234 87.0543 78.5147 87.042C78.506 87.0297 78.5013 87.0151 78.5013 87C78.5013 86.9849 78.506 86.9702 78.5147 86.9579C78.5234 86.9457 78.5358 86.9364 78.55 86.9315L78.937 86.8025C79.11 86.745 79.2455 86.6095 79.303 86.4365L79.4315 86.0495Z" fill="#A7A7A7"/>
</g>
<path d="M183.87 39.7903L184.335 41.5536L184.8 39.7903C184.916 39.3474 184.975 39.1256 185.089 38.943C185.191 38.7828 185.323 38.646 185.478 38.5415C185.653 38.423 185.868 38.3631 186.298 38.2419L188.004 37.7618L186.298 37.2817C185.869 37.1611 185.655 37.1005 185.478 36.9821C185.323 36.8775 185.191 36.7408 185.089 36.5805C184.975 36.3993 184.917 36.1775 184.8 35.7333L184.335 33.97L183.87 35.7333C183.754 36.1762 183.695 36.398 183.581 36.5805C183.479 36.7408 183.347 36.8775 183.192 36.9821C183.017 37.1005 182.802 37.1605 182.372 37.2817L180.666 37.7618L182.372 38.2419C182.801 38.3624 183.015 38.423 183.192 38.5415C183.347 38.646 183.479 38.7828 183.581 38.943C183.695 39.1242 183.753 39.346 183.87 39.7903ZM179.792 43.4133C179.904 43.5814 179.968 43.7866 180.095 44.1985L180.337 44.97L180.578 44.1985C180.705 43.7887 180.769 43.5834 180.882 43.4133C180.981 43.2645 181.109 43.1378 181.256 43.0393C181.422 42.9284 181.622 42.8692 182.022 42.7514L182.669 42.5606L182.022 42.3698C181.622 42.2513 181.421 42.1921 181.256 42.0819C181.109 41.9838 180.982 41.8567 180.882 41.7079C180.769 41.5398 180.706 41.3345 180.578 40.9226L180.337 40.1512L180.095 40.9226C179.968 41.3325 179.904 41.5377 179.792 41.7079C179.692 41.8566 179.565 41.9834 179.418 42.0819C179.252 42.1928 179.051 42.252 178.651 42.3698L178.004 42.5606L178.651 42.7514C179.052 42.8698 179.252 42.9291 179.418 43.0393C179.565 43.1374 179.692 43.2645 179.792 43.4133Z" fill="#A7A7A7"/>
<path d="M96.3544 10.6931L95.5529 11.0648L96.3544 11.4364C96.5557 11.5297 96.6565 11.5766 96.7395 11.6684C96.8124 11.7493 96.8745 11.8551 96.922 11.9792C96.9759 12.1194 97.0031 12.2911 97.0582 12.635L97.2765 14L97.4947 12.635C97.5495 12.2922 97.577 12.121 97.6309 11.9792C97.6784 11.8551 97.7405 11.7493 97.8134 11.6684C97.8957 11.5766 97.9966 11.5303 98.1985 11.4364L99 11.0648L98.1985 10.6931C97.9972 10.5998 97.8964 10.5529 97.8134 10.4612C97.7405 10.3803 97.6784 10.2744 97.6309 10.1504C97.577 10.0101 97.5498 9.83844 97.4947 9.49453L97.2765 8.12957L97.0582 9.49453C97.0034 9.83738 96.9759 10.0091 96.922 10.1504C96.8745 10.2744 96.8124 10.3803 96.7395 10.4612C96.6572 10.5529 96.5564 10.5993 96.3544 10.6931ZM94.7076 7.43002C94.6312 7.52013 94.5379 7.57078 94.3507 7.67315L94 7.86617L94.3507 8.05918C94.5369 8.16102 94.6302 8.21221 94.7076 8.30232C94.7752 8.38176 94.8328 8.4836 94.8776 8.60144C94.928 8.7342 94.9549 8.89469 95.0085 9.21461L95.0952 9.73234L95.1819 9.21461C95.2358 8.89416 95.2627 8.73367 95.3128 8.60144C95.3574 8.48368 95.4151 8.38204 95.4828 8.30232C95.5592 8.21221 95.6525 8.16156 95.8397 8.05918L96.1904 7.86617L95.8397 7.67315C95.6534 7.57131 95.5601 7.52013 95.4828 7.43002C95.4152 7.35057 95.3575 7.24873 95.3128 7.1309C95.2624 6.99813 95.2354 6.83764 95.1819 6.51773L95.0952 6L95.0085 6.51773C94.9546 6.83818 94.9277 6.99867 94.8776 7.1309C94.833 7.24866 94.7752 7.3503 94.7076 7.43002Z" fill="#A7A7A7"/>
<path d="M12.8664 88.8203L13.331 90.5836L13.7955 88.8203C13.9122 88.3774 13.9708 88.1556 14.0854 87.9731C14.1866 87.8128 14.3189 87.676 14.474 87.5715C14.6493 87.453 14.8639 87.3931 15.2938 87.2719L17 86.7918L15.2938 86.3117C14.8652 86.1912 14.6513 86.1306 14.474 86.0121C14.3189 85.9076 14.1866 85.7708 14.0854 85.6105C13.9708 85.4294 13.9128 85.2076 13.7955 84.7633L13.331 83L12.8664 84.7633C12.7498 85.2062 12.6911 85.428 12.5765 85.6105C12.4754 85.7708 12.3431 85.9076 12.188 86.0121C12.0127 86.1306 11.7981 86.1905 11.3682 86.3117L9.66196 86.7918L11.3682 87.2719C11.7967 87.3924 12.0113 87.453 12.188 87.5715C12.3431 87.676 12.4754 87.8128 12.5765 87.9731C12.6911 88.1542 12.7491 88.376 12.8664 88.8203ZM8.78752 92.4433C8.90016 92.6114 8.96348 92.8167 9.09144 93.2286L9.33271 94L9.57398 93.2286C9.70128 92.8187 9.76526 92.6135 9.8779 92.4433C9.97721 92.2946 10.1045 92.1678 10.2518 92.0693C10.4178 91.9584 10.6184 91.8992 11.0183 91.7814L11.6654 91.5906L11.0183 91.3998C10.6177 91.2813 10.4171 91.2221 10.2518 91.1119C10.1046 91.0138 9.97755 90.8867 9.8779 90.7379C9.76526 90.5698 9.70195 90.3646 9.57398 89.9527L9.33271 89.1812L9.09144 89.9527C8.96414 90.3625 8.90016 90.5678 8.78752 90.7379C8.68822 90.8867 8.56092 91.0134 8.41362 91.1119C8.24767 91.2228 8.04705 91.282 7.64716 91.3998L7 91.5906L7.64716 91.7814C8.04772 91.8999 8.24833 91.9591 8.41362 92.0693C8.56082 92.1674 8.68788 92.2945 8.78752 92.4433Z" fill="#A7A7A7"/>
<defs>
<linearGradient id="paint0_linear_57_58" x1="175" y1="137" x2="175" y2="21.5" gradientUnits="userSpaceOnUse">
<stop stop-color="#677373"/>
<stop offset="1" stop-color="#114958"/>
</linearGradient>
<clipPath id="clip0_57_58">
<rect width="11" height="11" fill="white" transform="translate(267 12)"/>
</clipPath>
<clipPath id="clip1_57_58">
<rect width="8" height="8" fill="white" transform="translate(74 86)"/>
</clipPath>
</defs>
</svg>
