<svg width="350" height="141" viewBox="0 0 350 141" fill="none" xmlns="http://www.w3.org/2000/svg">
<path d="M0 0H350V141H0V0Z" fill="url(#paint0_linear_59_2)"/>
<circle cx="70.0577" cy="29" r="15" fill="#E7E1CB"/>
<circle cx="91.5577" cy="39.5" r="10.5" fill="#E7E1CB"/>
<ellipse cx="106.558" cy="45.5" rx="7.5" ry="4.5" fill="#E7E1CB"/>
<ellipse cx="115.696" cy="47.8873" rx="8.5" ry="1.87871" transform="rotate(7.10828 115.696 47.8873)" fill="#E7E1CB"/>
<circle cx="48.5577" cy="38.5" r="11.5" fill="#E7E1CB"/>
<circle cx="37.0577" cy="40" r="4" fill="#E7E1CB"/>
<ellipse cx="30.1944" cy="43.6414" rx="9" ry="5.05541" transform="rotate(-18.43 30.1944 43.6414)" fill="#E7E1CB"/>
<path d="M29.8203 43.2771C30.2611 45.2185 25.7803 47.8908 19.8121 49.2459C13.844 50.6011 6.11097 50.3155 8.4093 48.5C11.4093 46.1302 12.4093 44.5 18.2158 42.2156C24.184 40.8605 29.3794 41.3357 29.8203 43.2771Z" fill="#E7E1CB"/>
<rect x="12.5433" y="47" width="107" height="3" fill="#E7E1CB"/>
<rect x="33.4095" y="39" width="66" height="11" fill="#E7E1CB"/>
<path d="M60.4095 49.5C60.4095 49.0404 60.2931 48.5852 60.067 48.1606C59.8409 47.736 59.5094 47.3501 59.0915 47.0251C58.6737 46.7001 58.1776 46.4423 57.6316 46.2664C57.0857 46.0905 56.5005 46 55.9095 46C55.3186 46 54.7334 46.0905 54.1875 46.2664C53.6415 46.4423 53.1454 46.7001 52.7276 47.0251C52.3097 47.3501 51.9782 47.736 51.7521 48.1606C51.5259 48.5852 51.4095 49.0404 51.4095 49.5L55.9095 49.5H60.4095Z" fill="#9C9696"/>
<path d="M77.9095 49.5C77.9095 47.1131 75.4613 42.3239 73.7735 40.636C72.0857 38.9482 69.7965 38 67.4095 38C65.0226 38 62.7334 38.9482 61.0456 40.636C59.3578 42.3239 57.4095 47.1131 57.4095 49.5H67.4095H77.9095Z" fill="#9C9696"/>
<path d="M90.5302 49.5C91.9095 49.5 91.4095 49 90.9095 48.5C90.6169 48.2073 90.1768 47.7616 89.7931 47.4794C89.4094 47.1971 88.9062 46.953 88.3268 46.768C87.7474 46.583 87.1089 46.4626 86.466 46.417C85.8231 46.3714 85.195 46.4021 84.6355 46.5064C84.0759 46.6107 83.6015 46.7855 83.253 47.0158C82.9045 47.2461 82.6921 47.5251 82.6342 47.8289C82.5762 48.1328 82.6637 49.1921 82.9095 49.5L86.4095 49.5L90.5302 49.5Z" fill="#9C9696"/>
<path d="M83.9096 49.5C84.0698 48.9643 83.1804 47.8878 82.9673 47.2828C82.7543 46.6779 82.3641 46.0929 81.8381 45.5899C81.3121 45.0869 80.67 44.6846 79.9799 44.4258C79.2898 44.167 78.5775 44.0613 77.9185 44.1199C77.2596 44.1786 76.851 44.1405 76.4096 44.5C75.8476 44.7412 75.0086 45.4414 74.9096 46C74.8107 46.5586 73.6381 48.4003 73.9096 49C74.1811 49.5997 75.4096 49.5 76.9536 49.5679L79.9096 49.5L81.9096 49.5L83.9096 49.5Z" fill="#9C9696"/>
<ellipse cx="299.968" cy="47.1419" rx="11.8861" ry="12.1419" fill="#E7E1CB"/>
<ellipse cx="317.004" cy="55.6412" rx="8.32029" ry="8.49932" fill="#E7E1CB"/>
<ellipse cx="328.89" cy="60.4979" rx="5.94307" ry="3.64256" fill="#E7E1CB"/>
<ellipse cx="6.73772" cy="1.52025" rx="6.73772" ry="1.52025" transform="matrix(0.991984 0.126365 -0.121177 0.992631 329.633 60.0699)" fill="#E7E1CB"/>
<ellipse cx="282.931" cy="54.8317" rx="9.1127" ry="9.30877" fill="#E7E1CB"/>
<ellipse cx="273.818" cy="56.0459" rx="3.16964" ry="3.23783" fill="#E7E1CB"/>
<ellipse cx="7.14717" cy="4.08361" rx="7.14717" ry="4.08361" transform="matrix(0.946655 -0.322249 0.310134 0.950693 260.347 57.4144)" fill="#E7E1CB"/>
<path d="M268.083 58.6986C268.432 60.2701 264.882 62.4332 260.152 63.5301C255.423 64.6271 249.296 64.3959 251.117 62.9263C253.494 61.0081 254.286 59.6885 258.888 57.8394C263.617 56.7424 267.734 57.1271 268.083 58.6986Z" fill="#E7E1CB"/>
<rect x="254.393" y="61.7121" width="84.7878" height="2.42838" fill="#E7E1CB"/>
<rect x="270.927" y="55.2365" width="52.299" height="8.90405" fill="#E7E1CB"/>
<path d="M292.322 63.7358C292.322 63.3637 292.23 62.9953 292.051 62.6516C291.872 62.3079 291.609 61.9956 291.278 61.7325C290.947 61.4694 290.554 61.2607 290.121 61.1183C289.688 60.976 289.225 60.9027 288.756 60.9027C288.288 60.9027 287.824 60.976 287.392 61.1183C286.959 61.2607 286.566 61.4694 286.235 61.7325C285.904 61.9956 285.641 62.3079 285.462 62.6516C285.283 62.9953 285.191 63.3637 285.191 63.7358L288.756 63.7358H292.322Z" fill="#CCD1C1"/>
<path d="M306.189 63.7358C306.189 61.8036 304.249 57.927 302.912 56.5608C301.574 55.1945 299.76 54.427 297.869 54.427C295.978 54.427 294.164 55.1945 292.826 56.5608C291.489 57.927 289.945 61.8036 289.945 63.7358H297.869H306.189Z" fill="#CCD1C1"/>
<path d="M316.19 63.7358C317.283 63.7358 316.887 63.3311 316.491 62.9263C316.259 62.6894 315.91 62.3286 315.606 62.1002C315.302 61.8717 314.903 61.6741 314.444 61.5244C313.985 61.3746 313.479 61.2771 312.97 61.2402C312.46 61.2033 311.962 61.2282 311.519 61.3126C311.076 61.397 310.7 61.5385 310.423 61.7249C310.147 61.9114 309.979 62.1372 309.933 62.3831C309.887 62.6291 309.957 63.4865 310.151 63.7358L312.925 63.7358L316.19 63.7358Z" fill="#CCD1C1"/>
<path d="M310.944 63.7358C311.071 63.3022 310.366 62.4307 310.197 61.9411C310.028 61.4514 309.719 60.9779 309.302 60.5707C308.886 60.1635 308.377 59.8379 307.83 59.6284C307.283 59.4189 306.719 59.3334 306.197 59.3808C305.674 59.4283 305.351 59.3975 305.001 59.6885C304.556 59.8837 303.891 60.4505 303.812 60.9027C303.734 61.3549 302.805 62.8456 303.02 63.331C303.235 63.8165 304.208 63.7358 305.432 63.7908L307.774 63.7358L309.359 63.7358L310.944 63.7358Z" fill="#CCD1C1"/>
<path d="M197.512 31.5581C198.97 29.7417 199.293 24.2035 199.664 21.8913C200.035 19.5791 199.805 17.1981 198.995 14.974C198.185 12.7498 196.822 10.756 195.036 9.18146C193.249 7.60691 191.098 6.5037 188.787 5.97631C186.475 5.44892 184.079 5.51482 181.825 6.16775C179.572 6.82069 177.535 8.03906 175.909 9.70746C174.283 11.3759 173.121 13.4391 172.532 15.7017C171.944 17.9643 171.949 20.3514 172.547 22.637L173 31.5L185.991 31.5974L197.512 31.5581Z" fill="#E7E1CB"/>
<path d="M202.486 25.6283C202.486 24.8094 202.17 24.0241 201.608 23.445C201.045 22.8659 200.282 22.5406 199.486 22.5406C198.691 22.5406 197.927 22.8659 197.365 23.445C196.802 24.0241 196.486 24.8094 196.486 25.6283V31.5406H200.486H202.486V25.6283Z" fill="#E7E1CB"/>
<path d="M215.986 31.5406C216.255 30.71 216.672 26.8632 216.475 25.9672C216.277 25.0713 215.85 24.1954 215.223 23.4008C214.596 22.6062 213.784 21.9119 212.844 21.3664C211.904 20.821 210.859 20.4375 209.782 20.2426C208.704 20.0478 207.62 20.0464 206.605 20.2384C205.59 20.4305 204.668 20.8114 203.905 21.3546C203.141 21.8978 202.554 22.5902 202.183 23.3835C201.813 24.1768 201.669 25.0519 201.762 25.9477L201.762 31.5406L209.782 31.5406L215.986 31.5406Z" fill="#E7E1CB"/>
<path d="M227.486 31.0406C227.58 30.5378 227.424 30.3352 226.833 29.7701C226.242 29.2049 225.341 28.654 224.215 28.1698C223.088 27.6855 221.775 27.284 220.398 27.0033C219.022 26.7227 217.629 26.5722 216.352 26.5663C215.074 26.5604 213.955 26.6991 213.1 26.9694C212.245 27.2397 211.682 27.6325 211.467 28.1106C211.251 28.5886 211.388 29.1359 211.866 29.7006C212.344 30.2652 213.146 30.8284 214.197 31.3366L215.986 31.5406L219.986 31.5406L226.833 31.5406L227.486 31.0406Z" fill="#E7E1CB"/>
<path d="M177.659 19.2412C177.333 17.9726 176.706 16.7958 175.819 15.7848C174.931 14.7738 173.802 13.9504 172.502 13.3664C171.202 12.7823 169.76 12.4502 168.265 12.391C166.771 12.3317 165.256 12.5466 163.817 13.022C162.378 13.4975 161.045 14.2233 159.903 15.1538C158.761 16.0843 157.833 17.1995 157.179 18.4292C156.524 19.6589 156.157 20.9766 156.101 22.2996C156.044 23.6225 156.299 24.9221 156.849 26.1166L156.849 31.5406L169.486 31.5406L177.486 31.5406L177.659 19.2412Z" fill="#E7E1CB"/>
<path d="M158.986 27.5406C158.986 26.8343 158.746 26.1379 158.285 25.5078C157.824 24.8776 157.156 24.3315 156.333 23.9134C155.511 23.4954 154.558 23.2172 153.551 23.1015C152.545 22.9857 151.513 23.0356 150.54 23.2471C149.567 23.4586 148.679 23.8257 147.948 24.3189C147.218 24.812 146.665 25.4172 146.335 26.0856C146.005 26.754 145.907 27.4667 146.049 28.1662C146.191 28.8656 145.752 30.961 146.335 31.5406H146.986H152.486H158.986L158.986 27.5406Z" fill="#E7E1CB"/>
<path d="M148.918 28.0299C148.882 27.7633 148.644 27.5268 148.219 27.3347C147.794 27.1426 147.191 26.9988 146.445 26.9119C145.7 26.825 144.827 26.7967 143.88 26.8289C142.932 26.8611 141.93 26.953 140.932 27.0991C139.934 27.2452 138.962 27.4425 138.073 27.6792C137.184 27.916 136.397 28.1872 135.759 28.4768C135.12 28.7663 134.644 29.0682 134.359 29.3643C134.073 29.6605 133.984 29.9448 134.097 30.2002L133.986 31.5406L140.986 31.5406L148.918 31.5406L148.918 28.0299Z" fill="#E7E1CB"/>
<path d="M136.986 31.0406C136.986 30.8802 136.87 30.7221 136.649 30.5797C136.427 30.4374 136.105 30.3149 135.712 30.2226C135.318 30.1303 134.863 30.071 134.386 30.0496C133.909 30.0282 133.424 30.0453 132.971 30.0996C132.518 30.1539 132.111 30.2437 131.784 30.3614C131.457 30.4792 131.22 30.6214 131.093 30.7761C130.966 30.9309 130.986 31.0406 131.053 31.2504C131.154 31.4072 131.18 31.4169 131.486 31.5406H133.986H135.712L136.986 31.0406Z" fill="#E7E1CB"/>
<path d="M288.012 96.22C288.011 95.3244 288.227 94.4372 288.648 93.6089C289.07 92.7807 289.688 92.0276 290.468 91.3927C291.249 90.7578 292.175 90.2535 293.196 89.9086C294.216 89.5637 295.31 89.385 296.415 89.3827L296.427 96.2021L288.012 96.22Z" fill="#E7E1CB"/>
<path d="M323.343 94.3657C323.343 92.8731 323.071 91.3952 322.543 90.0162C322.014 88.6373 321.239 87.3843 320.262 86.3289C319.286 85.2735 318.126 84.4363 316.85 83.8652C315.574 83.294 314.206 83 312.825 83C311.443 83 310.075 83.294 308.799 83.8652C307.523 84.4363 306.363 85.2735 305.387 86.3289C304.41 87.3843 303.635 88.6373 303.106 90.0162C302.578 91.3952 302.306 92.8731 302.306 94.3657L302.306 96.1842H312.404H323.343V94.3657Z" fill="#E7E1CB"/>
<path d="M330.917 96.1842C330.917 95.2886 330.764 94.4019 330.468 93.5745C330.172 92.7471 329.739 91.9954 329.192 91.3621C328.645 90.7289 327.995 90.2266 327.281 89.8839C326.566 89.5412 325.8 89.3648 325.026 89.3648C324.253 89.3648 323.487 89.5412 322.772 89.8839C322.057 90.2266 321.408 90.7289 320.861 91.3621C320.314 91.9954 319.88 92.7471 319.584 93.5745C319.288 94.4019 319.136 95.2886 319.136 96.1842L325.026 96.1842H330.917Z" fill="#E7E1CB"/>
<path d="M338.07 95.2749C338.07 94.9764 337.839 94.6415 337.649 94.3657C337.459 94.0899 336.892 93.8787 336.54 93.6676C336.188 93.4565 335.771 93.2891 335.311 93.1748C334.852 93.0606 334.36 93.0018 333.862 93.0018C333.365 93.0018 332.873 93.0606 332.413 93.1748C331.954 93.2891 331.536 93.4565 331.185 93.6676C330.833 93.8787 330.554 94.1292 330.364 94.405C330.173 94.6808 330.075 94.9764 330.075 95.2749V96.1842H333.862H338.07H338.491H339.332L338.07 95.2749Z" fill="#E7E1CB"/>
<path d="M340.877 95.7173C340.801 96.2127 339.826 96.1842 338.49 96.1842C336.807 96.1842 336.622 94.9311 336.698 94.4357C336.774 93.9403 337.765 93.7054 338.911 93.911C340.057 94.1167 340.953 95.2219 340.877 95.7173Z" fill="#E7E1CB"/>
<path d="M304.83 96.1842C304.83 95.2886 304.612 94.4019 304.19 93.5745C303.767 92.7471 303.147 91.9954 302.365 91.3621C301.584 90.7289 300.656 90.2266 299.635 89.8839C298.614 89.5412 297.52 89.3648 296.415 89.3648V96.1842H304.83Z" fill="#E7E1CB"/>
<ellipse cx="302.306" cy="90.7286" rx="1.68302" ry="1.36388" fill="#E7E1CB"/>
<path d="M328.243 25.9985C328.243 24.6471 327.57 20.601 326.955 19.3525C326.34 18.104 325.795 16.9696 324.659 16.014C323.522 15.0584 322.173 14.3005 320.688 13.7833C319.203 13.2662 317.612 13 316.004 13C314.397 13 312.806 13.2662 311.321 13.7833C309.836 14.3005 308.487 15.0584 307.35 16.014C306.214 16.9696 305.669 18.104 305.054 19.3525C304.439 20.601 303.122 24.6471 303.122 25.9985H316.004H328.243Z" fill="#48A4B7"/>
<path d="M335.903 23.2909C335.903 22.1416 334.937 20.8536 333.97 20.0409C333.004 19.2283 331.472 18.9576 330.105 18.9576C328.243 18.9576 327.277 19.2283 326.311 20.0409C325.344 20.8536 324.952 22.1416 324.952 23.2909V25.9992H330.82H335.973L335.903 23.2909Z" fill="#48A4B7"/>
<path d="M349.5 24.9156C349.5 24.4846 347.974 23.5296 346.403 23.2249C344.833 22.9201 342.703 22.2073 340.482 22.2073C338.261 22.2073 334.041 21.6656 334.041 22.7489C332.47 23.0537 332.108 23.9429 332.108 24.3739V25.9989H339.838H344.991H348.212C348.212 25.9989 349.5 25.9989 349.5 25.4572C349.5 24.9156 349.5 24.9156 349.5 24.9156Z" fill="#48A4B7"/>
<path d="M306.342 21.6661C306.342 21.0546 306.188 20.45 305.891 19.8921C305.593 19.3342 305.158 18.8356 304.615 18.4291C304.072 18.0225 303.432 17.7173 302.739 17.5334C302.045 17.3495 301.313 17.2911 300.591 17.3621C299.869 17.4331 299.172 17.6318 298.548 17.9452C297.924 18.2586 297.385 18.6796 296.968 19.1805C296.551 19.6814 296.265 20.2509 296.128 20.8515C295.991 21.4521 295.868 22.1544 296.036 22.7494L296.036 25.9994H296.68H301.189H306.342V21.6661Z" fill="#48A4B7"/>
<path d="M297.502 24.5107C297.502 24.0307 297.313 23.5566 296.947 23.1226C296.581 22.6886 296.048 22.3053 295.387 22.0004C294.726 21.6956 293.952 21.4766 293.122 21.3593C292.291 21.242 291.425 21.2293 290.585 21.322C289.745 21.4148 288.952 21.6107 288.263 21.8958C287.574 22.1808 287.006 22.5479 286.6 22.9706C286.194 23.3933 285.961 23.8611 285.916 24.3405C285.871 24.8199 286.049 25.5548 286.374 25.999H288.306H290.883H294.104H297.502V24.5107Z" fill="#48A4B7"/>
<path d="M289.595 24.9151C289.595 25.9985 287.643 25.9985 284.441 25.9985C281.24 25.9985 278 26.0551 278 25.4568C278 24.8585 280.596 23.8318 283.797 23.8318C286.999 23.8318 289.595 24.3168 289.595 24.9151Z" fill="#48A4B7"/>
<path d="M44.2026 107.95C50.7026 107.95 47.2026 104 45.2026 102.5C43.4133 101.158 42.0089 100.95 40.1523 100.95C38.2958 100.95 36.5154 101.687 35.2026 103C33.8898 104.313 33.1523 106.093 33.1523 107.95L40.1523 107.95L44.2026 107.95Z" fill="#AFD0C6"/>
<path d="M38.2026 103C38.2026 101.879 37.9375 100.77 37.4244 99.7459C36.9113 98.7216 36.1618 97.8047 35.2244 97.0545C34.287 96.3043 33.1826 95.7377 31.983 95.3913C30.7833 95.0449 29.5151 94.9266 28.2607 95.0439C27.0063 95.1613 25.7936 95.5117 24.7014 96.0724C23.6091 96.6332 22.6617 97.3918 21.9205 98.299C21.1793 99.2061 20.6608 100.242 20.3989 101.338C20.1369 102.435 19.44 106.903 19.7025 108H29.2026H38.2026V103Z" fill="#AFD0C6"/>
<path d="M25.2274 103.119C25.1539 102.571 24.8523 102.06 24.3424 101.62C23.8325 101.18 23.1262 100.821 22.2704 100.568C21.4146 100.314 20.4289 100.171 19.3791 100.148C18.3293 100.125 17.2394 100.224 16.1819 100.436C15.1245 100.649 14.1238 100.97 13.2464 101.38C12.369 101.79 11.6352 102.279 11.0937 102.813C10.5522 103.348 10.2154 103.916 10.1059 104.481C9.99637 105.045 9.86061 107.506 10.2025 108L16.7376 108.032L25.2022 107.99L25.2274 103.119Z" fill="#AFD0C6"/>
<path d="M14.1812 106.055C14.1575 105.798 13.9139 105.567 13.474 105.382C13.034 105.197 12.4126 105.066 11.6694 105C10.9263 104.934 10.0866 104.937 9.23115 105.008C8.37572 105.078 8.16091 105.193 7.41294 105.382C6.66498 105.57 6.15079 105.758 5.70244 106.016C5.08569 106.371 4.23584 107.255 4.20227 107.516C4.2023 108.016 4.20229 108.016 5.20249 108.016C5.7025 108.016 6.45354 108.029 7.20249 108.016L9.70251 108.003L14.2025 108.016L14.1812 106.055Z" fill="#AFD0C6"/>
<path d="M280 97.5C280 96.5151 279.715 95.5398 279.163 94.6299C278.61 93.7199 277.8 92.8931 276.778 92.1967C275.757 91.5003 274.544 90.9478 273.21 90.5709C271.875 90.194 270.445 90 269 90C267.555 90 266.125 90.194 264.79 90.5709C263.456 90.9478 262.243 91.5003 261.222 92.1967C260.2 92.8931 259.39 93.7199 258.837 94.6299C258.285 95.5398 258 96.5151 258 97.5L269 97.5H280Z" fill="#ABCCBF"/>
<path d="M262 96.5C262 96.2414 261.755 95.9873 261.289 95.7622C260.822 95.537 260.15 95.3486 259.338 95.2152C258.526 95.0817 257.602 95.0078 256.654 95.0006C255.706 94.9934 254.768 95.053 253.93 95.1739C253.092 95.2947 252.382 95.4726 251.87 95.6902C251.358 95.9079 251.062 96.1579 251.009 96.4161C250.956 96.6742 251.148 96.9317 251.568 97.1636C252 97.5 252.5 97.5 253.5 97.5H256.654H260L262 96.5Z" fill="#ABCCBF"/>
<path d="M275 96.5672C274.994 96.124 275.224 95.6856 275.666 95.2969C276.108 94.9082 276.747 94.5833 277.516 94.3553C278.285 94.1273 279.158 94.0045 280.044 93.9995C280.93 93.9944 281.799 94.1074 282.56 94.3267C283.321 94.546 283.949 94.8638 284.377 95.2475C284.805 95.6313 285.522 96.5567 285.5 97C285.478 97.4433 284.683 97.5 284 97.5C283 97.5 283 97.5 282 97.5L280 97.5L275 97.5L275 96.5672Z" fill="#ABCCBF"/>
<ellipse cx="233" cy="47" rx="16" ry="2" fill="#48A4B7"/>
<ellipse cx="254.5" cy="46.5" rx="17.5" ry="3.5" fill="#48A4B7"/>
<ellipse cx="116.5" cy="16" rx="9.5" ry="2" fill="#48A4B7"/>
<ellipse cx="129" cy="16" rx="6" ry="2" fill="#48A4B7"/>
<ellipse cx="25" cy="22" rx="18" ry="3" fill="#48A4B7"/>
<ellipse cx="24.5" cy="25" rx="7.5" ry="2" fill="#48A4B7"/>
<ellipse cx="17" cy="27" rx="9" ry="2" fill="#48A4B7"/>
<ellipse cx="10.5" cy="24.5" rx="6.5" ry="3.5" fill="#48A4B7"/>
<ellipse cx="115.5" cy="66" rx="6.5" ry="1" fill="#60AFBA"/>
<ellipse cx="128.5" cy="66" rx="8.5" ry="2" fill="#60AFBA"/>
<ellipse cx="120.5" cy="65" rx="4.5" ry="1" fill="#60AFBA"/>
<defs>
<linearGradient id="paint0_linear_59_2" x1="175" y1="137" x2="175" y2="21.5" gradientUnits="userSpaceOnUse">
<stop stop-color="#76C6C8"/>
<stop offset="1" stop-color="#2D91AB"/>
</linearGradient>
</defs>
</svg>
