<svg width="37" height="37" viewBox="0 0 37 37" fill="none" xmlns="http://www.w3.org/2000/svg">
<g clip-path="url(#clip0_41_1295)">
<g clip-path="url(#clip1_41_1295)">
<path fill-rule="evenodd" clip-rule="evenodd" d="M18.5 23.4808C19.1541 23.4808 19.8018 23.3519 20.4061 23.1016C21.0103 22.8513 21.5594 22.4844 22.0219 22.0219C22.4844 21.5594 22.8513 21.0103 23.1016 20.4061C23.3519 19.8018 23.4808 19.1541 23.4808 18.5C23.4808 17.8459 23.3519 17.1982 23.1016 16.5939C22.8513 15.9896 22.4844 15.4406 22.0219 14.9781C21.5594 14.5156 21.0103 14.1487 20.4061 13.8984C19.8018 13.6481 19.1541 13.5192 18.5 13.5192C17.179 13.5192 15.9121 14.044 14.9781 14.9781C14.044 15.9121 13.5192 17.179 13.5192 18.5C13.5192 19.821 14.044 21.0879 14.9781 22.0219C15.9121 22.956 17.179 23.4808 18.5 23.4808ZM18.5 14.9423C19.4436 14.9423 20.3485 15.3171 21.0157 15.9843C21.6829 16.6515 22.0577 17.5564 22.0577 18.5C22.0577 19.4436 21.6829 20.3485 21.0157 21.0157C20.3485 21.6829 19.4436 22.0577 18.5 22.0577C17.5564 22.0577 16.6515 21.6829 15.9843 21.0157C15.3171 20.3485 14.9423 19.4436 14.9423 18.5C14.9423 17.5564 15.3171 16.6515 15.9843 15.9843C16.6515 15.3171 17.5564 14.9423 18.5 14.9423Z" fill="#990000"/>
<path d="M6.40386 17.7885C6.01089 17.7885 5.69232 18.107 5.69232 18.5C5.69232 18.893 6.01089 19.2115 6.40386 19.2115H9.25001C9.64299 19.2115 9.96155 18.893 9.96155 18.5C9.96155 18.107 9.64299 17.7885 9.25001 17.7885H6.40386Z" fill="#990000"/>
<path d="M27.75 17.7885C27.357 17.7885 27.0385 18.107 27.0385 18.5C27.0385 18.893 27.357 19.2115 27.75 19.2115H30.5961C30.9891 19.2115 31.3077 18.893 31.3077 18.5C31.3077 18.107 30.9891 17.7885 30.5961 17.7885H27.75Z" fill="#990000"/>
<path d="M25.7017 24.6953C25.4238 24.4174 24.9733 24.4174 24.6955 24.6953C24.4176 24.9732 24.4176 25.4237 24.6955 25.7016L26.708 27.7141C26.9859 27.992 27.4364 27.992 27.7143 27.7141C27.9921 27.4362 27.9921 26.9857 27.7143 26.7078L25.7017 24.6953Z" fill="#990000"/>
<path d="M10.0479 9.04148C9.76998 8.76361 9.31946 8.76361 9.04159 9.04148C8.76371 9.31936 8.76371 9.76988 9.04159 10.0478L11.0541 12.0603C11.332 12.3382 11.7825 12.3382 12.0604 12.0603C12.3383 11.7824 12.3383 11.3319 12.0604 11.054L10.0479 9.04148Z" fill="#990000"/>
<path d="M19.2115 27.75C19.2115 27.357 18.893 27.0385 18.5 27.0385C18.107 27.0385 17.7885 27.357 17.7885 27.75V30.5961C17.7885 30.9891 18.107 31.3077 18.5 31.3077C18.893 31.3077 19.2115 30.9891 19.2115 30.5961V27.75Z" fill="#990000"/>
<path d="M19.2115 6.40386C19.2115 6.01089 18.893 5.69232 18.5 5.69232C18.107 5.69232 17.7885 6.01089 17.7885 6.40386V9.25001C17.7885 9.64299 18.107 9.96155 18.5 9.96155C18.893 9.96155 19.2115 9.64299 19.2115 9.25001V6.40386Z" fill="#990000"/>
<path d="M27.7138 10.0479C27.9917 9.76998 27.9917 9.31946 27.7138 9.04159C27.436 8.76371 26.9854 8.76371 26.7076 9.04159L24.695 11.0541C24.4172 11.332 24.4172 11.7825 24.695 12.0604C24.9729 12.3383 25.4234 12.3383 25.7013 12.0604L27.7138 10.0479Z" fill="#990000"/>
<path d="M12.06 25.7017C12.3378 25.4238 12.3378 24.9733 12.06 24.6955C11.7821 24.4176 11.3316 24.4176 11.0537 24.6955L9.04116 26.708C8.76328 26.9859 8.76328 27.4364 9.04116 27.7143C9.31903 27.9921 9.76955 27.9921 10.0474 27.7143L12.06 25.7017Z" fill="#990000"/>
<path fill-rule="evenodd" clip-rule="evenodd" d="M18.5 34.8654C27.538 34.8654 34.8654 27.538 34.8654 18.5C34.8654 9.46205 27.538 2.13462 18.5 2.13462C9.46205 2.13462 2.13462 9.46205 2.13462 18.5C2.13462 27.538 9.46205 34.8654 18.5 34.8654ZM18.5 36.2885C28.3249 36.2885 36.2885 28.3249 36.2885 18.5C36.2885 8.67509 28.3249 0.711548 18.5 0.711548C8.67509 0.711548 0.711548 8.67509 0.711548 18.5C0.711548 28.3249 8.67509 36.2885 18.5 36.2885Z" fill="#990000"/>
</g>
</g>
<defs>
<clipPath id="clip0_41_1295">
<rect width="37" height="37" fill="white"/>
</clipPath>
<clipPath id="clip1_41_1295">
<rect width="37" height="37" fill="white"/>
</clipPath>
</defs>
</svg>
