<svg width="68" height="64" viewBox="0 0 68 64" fill="none" xmlns="http://www.w3.org/2000/svg">
<g filter="url(#filter0_d_53_1051)">
<rect x="4.5" y="0.5" width="59" height="55" rx="4.5" fill="url(#paint0_linear_53_1051)" stroke="#990000"/>
</g>
<path d="M23.12 19C23.12 12.984 27.984 8.12 34 8.12C40.016 8.12 44.88 12.984 44.88 19C44.88 25.016 40.016 29.88 34 29.88C27.984 29.88 23.12 25.016 23.12 19ZM43.6 19C43.6 13.688 39.312 9.4 34 9.4C28.688 9.4 24.4 13.688 24.4 19C24.4 24.312 28.688 28.6 34 28.6C39.312 28.6 43.6 24.312 43.6 19Z" fill="#E40000"/>
<path d="M32.912 24.312L38.224 19L32.912 13.688L33.808 12.792L40.016 19L33.808 25.208L32.912 24.312Z" fill="#E40000"/>
<path d="M39.12 18.36V19.64H28.24V18.36H39.12Z" fill="#E40000"/>
<path d="M14.496 36.612V37.308H10.8V40.44H13.92V41.136H10.8V45H9.96V36.612H14.496ZM18.746 45.096C18.13 45.096 17.574 44.96 17.078 44.688C16.59 44.408 16.202 44.016 15.914 43.512C15.634 43 15.494 42.404 15.494 41.724C15.494 41.044 15.638 40.452 15.926 39.948C16.214 39.436 16.606 39.044 17.102 38.772C17.598 38.492 18.154 38.352 18.77 38.352C19.386 38.352 19.942 38.492 20.438 38.772C20.942 39.044 21.334 39.436 21.614 39.948C21.902 40.452 22.046 41.044 22.046 41.724C22.046 42.396 21.902 42.988 21.614 43.5C21.326 44.012 20.93 44.408 20.426 44.688C19.922 44.96 19.362 45.096 18.746 45.096ZM18.746 44.364C19.178 44.364 19.578 44.268 19.946 44.076C20.314 43.876 20.61 43.58 20.834 43.188C21.066 42.788 21.182 42.3 21.182 41.724C21.182 41.148 21.07 40.664 20.846 40.272C20.622 39.872 20.326 39.576 19.958 39.384C19.59 39.184 19.19 39.084 18.758 39.084C18.326 39.084 17.926 39.184 17.558 39.384C17.19 39.576 16.894 39.872 16.67 40.272C16.454 40.664 16.346 41.148 16.346 41.724C16.346 42.3 16.454 42.788 16.67 43.188C16.894 43.58 17.186 43.876 17.546 44.076C17.914 44.268 18.314 44.364 18.746 44.364ZM24.4172 39.612C24.6012 39.204 24.8812 38.888 25.2572 38.664C25.6412 38.44 26.1092 38.328 26.6612 38.328V39.204H26.4332C25.8252 39.204 25.3372 39.368 24.9692 39.696C24.6012 40.024 24.4172 40.572 24.4172 41.34V45H23.5772V38.448H24.4172V39.612ZM36.5648 38.448L34.5128 45H33.6728L31.8608 39.504L30.0488 45H29.1968L27.1448 38.448H27.9968L29.6288 44.148L31.4648 38.448H32.3048L34.1168 44.16L35.7368 38.448H36.5648ZM37.326 41.712C37.326 41.04 37.458 40.452 37.722 39.948C37.994 39.436 38.366 39.044 38.838 38.772C39.318 38.492 39.858 38.352 40.458 38.352C41.082 38.352 41.618 38.496 42.066 38.784C42.522 39.072 42.85 39.44 43.05 39.888V38.448H43.89V45H43.05V43.548C42.842 43.996 42.51 44.368 42.054 44.664C41.606 44.952 41.07 45.096 40.446 45.096C39.854 45.096 39.318 44.956 38.838 44.676C38.366 44.396 37.994 44 37.722 43.488C37.458 42.976 37.326 42.384 37.326 41.712ZM43.05 41.724C43.05 41.196 42.942 40.732 42.726 40.332C42.51 39.932 42.214 39.624 41.838 39.408C41.47 39.192 41.062 39.084 40.614 39.084C40.15 39.084 39.734 39.188 39.366 39.396C38.998 39.604 38.706 39.908 38.49 40.308C38.282 40.7 38.178 41.168 38.178 41.712C38.178 42.248 38.282 42.72 38.49 43.128C38.706 43.528 38.998 43.836 39.366 44.052C39.734 44.26 40.15 44.364 40.614 44.364C41.062 44.364 41.47 44.256 41.838 44.04C42.214 43.824 42.51 43.516 42.726 43.116C42.942 42.716 43.05 42.252 43.05 41.724ZM46.6477 39.612C46.8317 39.204 47.1117 38.888 47.4877 38.664C47.8717 38.44 48.3397 38.328 48.8917 38.328V39.204H48.6637C48.0557 39.204 47.5677 39.368 47.1997 39.696C46.8317 40.024 46.6477 40.572 46.6477 41.34V45H45.8077V38.448H46.6477V39.612ZM49.7713 41.712C49.7713 41.04 49.9073 40.452 50.1793 39.948C50.4513 39.436 50.8233 39.044 51.2953 38.772C51.7753 38.492 52.3153 38.352 52.9153 38.352C53.4913 38.352 54.0113 38.492 54.4753 38.772C54.9393 39.052 55.2793 39.416 55.4953 39.864V36.12H56.3353V45H55.4953V43.536C55.2953 43.992 54.9673 44.368 54.5113 44.664C54.0553 44.952 53.5193 45.096 52.9033 45.096C52.3033 45.096 51.7633 44.956 51.2833 44.676C50.8113 44.396 50.4393 44 50.1673 43.488C49.9033 42.976 49.7713 42.384 49.7713 41.712ZM55.4953 41.724C55.4953 41.196 55.3873 40.732 55.1713 40.332C54.9553 39.932 54.6593 39.624 54.2833 39.408C53.9153 39.192 53.5073 39.084 53.0593 39.084C52.5953 39.084 52.1793 39.188 51.8113 39.396C51.4433 39.604 51.1513 39.908 50.9353 40.308C50.7273 40.7 50.6233 41.168 50.6233 41.712C50.6233 42.248 50.7273 42.72 50.9353 43.128C51.1513 43.528 51.4433 43.836 51.8113 44.052C52.1793 44.26 52.5953 44.364 53.0593 44.364C53.5073 44.364 53.9153 44.256 54.2833 44.04C54.6593 43.824 54.9553 43.516 55.1713 43.116C55.3873 42.716 55.4953 42.252 55.4953 41.724Z" fill="white"/>
<defs>
<filter id="filter0_d_53_1051" x="0" y="0" width="68" height="64" filterUnits="userSpaceOnUse" color-interpolation-filters="sRGB">
<feFlood flood-opacity="0" result="BackgroundImageFix"/>
<feColorMatrix in="SourceAlpha" type="matrix" values="0 0 0 0 0 0 0 0 0 0 0 0 0 0 0 0 0 0 127 0" result="hardAlpha"/>
<feOffset dy="4"/>
<feGaussianBlur stdDeviation="2"/>
<feComposite in2="hardAlpha" operator="out"/>
<feColorMatrix type="matrix" values="0 0 0 0 0 0 0 0 0 0 0 0 0 0 0 0 0 0 0.25 0"/>
<feBlend mode="normal" in2="BackgroundImageFix" result="effect1_dropShadow_53_1051"/>
<feBlend mode="normal" in="SourceGraphic" in2="effect1_dropShadow_53_1051" result="shape"/>
</filter>
<linearGradient id="paint0_linear_53_1051" x1="34" y1="0" x2="34" y2="56" gradientUnits="userSpaceOnUse">
<stop stop-color="#2C2C2C"/>
<stop offset="1" stop-color="#990000"/>
</linearGradient>
</defs>
</svg>
