<svg width="47" height="47" viewBox="0 0 47 47" fill="none" xmlns="http://www.w3.org/2000/svg">
<path d="M7.52 23.5C7.52 14.664 14.664 7.52002 23.5 7.52002C32.336 7.52002 39.48 14.664 39.48 23.5C39.48 32.336 32.336 39.48 23.5 39.48C14.664 39.48 7.52 32.336 7.52 23.5ZM37.6 23.5C37.6 15.698 31.302 9.40002 23.5 9.40002C15.698 9.40002 9.4 15.698 9.4 23.5C9.4 31.302 15.698 37.6 23.5 37.6C31.302 37.6 37.6 31.302 37.6 23.5Z" fill="#FF0000"/>
<path d="M21.902 31.302L29.704 23.5L21.902 15.698L23.218 14.382L32.336 23.5L23.218 32.618L21.902 31.302Z" fill="#FF0000"/>
<path d="M31.02 22.56V24.44H15.04V22.56H31.02Z" fill="#FF0000"/>
</svg>
