<svg width="68" height="64" viewBox="0 0 68 64" fill="none" xmlns="http://www.w3.org/2000/svg">
<g filter="url(#filter0_d_53_1059)">
<rect x="4.5" y="0.5" width="59" height="55" rx="4.5" fill="url(#paint0_linear_53_1059)" stroke="#990000"/>
<path d="M29.3333 23.6667H38.6667V14.3333H29.3333V23.6667ZM34.004 31C32.3444 31 30.7844 30.6853 29.324 30.056C27.8636 29.4258 26.5929 28.5707 25.512 27.4907C24.4311 26.4107 23.5756 25.1413 22.9453 23.6827C22.3151 22.224 22 20.6644 22 19.004C22 17.3436 22.3151 15.7836 22.9453 14.324C23.5747 12.8636 24.4284 11.5929 25.5067 10.512C26.5849 9.43111 27.8547 8.57556 29.316 7.94533C30.7773 7.31511 32.3373 7 33.996 7C35.6547 7 37.2147 7.31511 38.676 7.94533C40.1364 8.57467 41.4071 9.42889 42.488 10.508C43.5689 11.5871 44.4244 12.8569 45.0547 14.3173C45.6849 15.7778 46 17.3373 46 18.996C46 20.6547 45.6853 22.2147 45.056 23.676C44.4267 25.1373 43.5716 26.408 42.4907 27.488C41.4098 28.568 40.1404 29.4236 38.6827 30.0547C37.2249 30.6858 35.6653 31.0009 34.004 31ZM34 29.6667C36.9778 29.6667 39.5 28.6333 41.5667 26.5667C43.6333 24.5 44.6667 21.9778 44.6667 19C44.6667 16.0222 43.6333 13.5 41.5667 11.4333C39.5 9.36667 36.9778 8.33333 34 8.33333C31.0222 8.33333 28.5 9.36667 26.4333 11.4333C24.3667 13.5 23.3333 16.0222 23.3333 19C23.3333 21.9778 24.3667 24.5 26.4333 26.5667C28.5 28.6333 31.0222 29.6667 34 29.6667Z" fill="#E40000"/>
</g>
<path d="M22.504 45.084C21.952 45.084 21.464 44.988 21.04 44.796C20.624 44.604 20.296 44.336 20.056 43.992C19.816 43.648 19.688 43.264 19.672 42.84H20.56C20.6 43.248 20.78 43.608 21.1 43.92C21.42 44.224 21.888 44.376 22.504 44.376C23.072 44.376 23.52 44.232 23.848 43.944C24.184 43.648 24.352 43.276 24.352 42.828C24.352 42.468 24.26 42.18 24.076 41.964C23.892 41.74 23.664 41.576 23.392 41.472C23.12 41.36 22.744 41.24 22.264 41.112C21.704 40.96 21.26 40.812 20.932 40.668C20.604 40.524 20.324 40.3 20.092 39.996C19.86 39.692 19.744 39.28 19.744 38.76C19.744 38.328 19.856 37.944 20.08 37.608C20.304 37.264 20.62 36.996 21.028 36.804C21.436 36.612 21.904 36.516 22.432 36.516C23.208 36.516 23.832 36.708 24.304 37.092C24.784 37.468 25.06 37.956 25.132 38.556H24.22C24.164 38.212 23.976 37.908 23.656 37.644C23.336 37.372 22.904 37.236 22.36 37.236C21.856 37.236 21.436 37.372 21.1 37.644C20.764 37.908 20.596 38.272 20.596 38.736C20.596 39.088 20.688 39.372 20.872 39.588C21.056 39.804 21.284 39.968 21.556 40.08C21.836 40.192 22.212 40.312 22.684 40.44C23.228 40.592 23.668 40.744 24.004 40.896C24.34 41.04 24.624 41.264 24.856 41.568C25.088 41.872 25.204 42.28 25.204 42.792C25.204 43.184 25.1 43.556 24.892 43.908C24.684 44.26 24.376 44.544 23.968 44.76C23.56 44.976 23.072 45.084 22.504 45.084ZM27.9192 39.156V43.224C27.9192 43.624 27.9952 43.9 28.1472 44.052C28.2992 44.204 28.5672 44.28 28.9512 44.28H29.7192V45H28.8192C28.2272 45 27.7872 44.864 27.4992 44.592C27.2112 44.312 27.0672 43.856 27.0672 43.224V39.156H26.1552V38.448H27.0672V36.804H27.9192V38.448H29.7192V39.156H27.9192ZM33.9725 45.096C33.3565 45.096 32.8005 44.96 32.3045 44.688C31.8165 44.408 31.4285 44.016 31.1405 43.512C30.8605 43 30.7205 42.404 30.7205 41.724C30.7205 41.044 30.8645 40.452 31.1525 39.948C31.4405 39.436 31.8325 39.044 32.3285 38.772C32.8245 38.492 33.3805 38.352 33.9965 38.352C34.6125 38.352 35.1685 38.492 35.6645 38.772C36.1685 39.044 36.5605 39.436 36.8405 39.948C37.1285 40.452 37.2725 41.044 37.2725 41.724C37.2725 42.396 37.1285 42.988 36.8405 43.5C36.5525 44.012 36.1565 44.408 35.6525 44.688C35.1485 44.96 34.5885 45.096 33.9725 45.096ZM33.9725 44.364C34.4045 44.364 34.8045 44.268 35.1725 44.076C35.5405 43.876 35.8365 43.58 36.0605 43.188C36.2925 42.788 36.4085 42.3 36.4085 41.724C36.4085 41.148 36.2965 40.664 36.0725 40.272C35.8485 39.872 35.5525 39.576 35.1845 39.384C34.8165 39.184 34.4165 39.084 33.9845 39.084C33.5525 39.084 33.1525 39.184 32.7845 39.384C32.4165 39.576 32.1205 39.872 31.8965 40.272C31.6805 40.664 31.5725 41.148 31.5725 41.724C31.5725 42.3 31.6805 42.788 31.8965 43.188C32.1205 43.58 32.4125 43.876 32.7725 44.076C33.1405 44.268 33.5405 44.364 33.9725 44.364ZM39.6318 39.888C39.8398 39.448 40.1678 39.084 40.6158 38.796C41.0718 38.5 41.6118 38.352 42.2358 38.352C42.8278 38.352 43.3598 38.492 43.8318 38.772C44.3118 39.044 44.6838 39.436 44.9478 39.948C45.2198 40.452 45.3558 41.04 45.3558 41.712C45.3558 42.384 45.2198 42.976 44.9478 43.488C44.6838 44 44.3118 44.396 43.8318 44.676C43.3598 44.956 42.8278 45.096 42.2358 45.096C41.6198 45.096 41.0838 44.952 40.6278 44.664C40.1718 44.368 39.8398 44 39.6318 43.56V48.096H38.8038V38.448H39.6318V39.888ZM44.5038 41.712C44.5038 41.168 44.3958 40.7 44.1797 40.308C43.9718 39.908 43.6838 39.604 43.3158 39.396C42.9478 39.188 42.5318 39.084 42.0678 39.084C41.6198 39.084 41.2078 39.192 40.8318 39.408C40.4638 39.624 40.1718 39.932 39.9558 40.332C39.7398 40.732 39.6318 41.196 39.6318 41.724C39.6318 42.252 39.7398 42.716 39.9558 43.116C40.1718 43.516 40.4638 43.824 40.8318 44.04C41.2078 44.256 41.6198 44.364 42.0678 44.364C42.5318 44.364 42.9478 44.26 43.3158 44.052C43.6838 43.836 43.9718 43.528 44.1797 43.128C44.3958 42.72 44.5038 42.248 44.5038 41.712Z" fill="white"/>
<defs>
<filter id="filter0_d_53_1059" x="0" y="0" width="68" height="64" filterUnits="userSpaceOnUse" color-interpolation-filters="sRGB">
<feFlood flood-opacity="0" result="BackgroundImageFix"/>
<feColorMatrix in="SourceAlpha" type="matrix" values="0 0 0 0 0 0 0 0 0 0 0 0 0 0 0 0 0 0 127 0" result="hardAlpha"/>
<feOffset dy="4"/>
<feGaussianBlur stdDeviation="2"/>
<feComposite in2="hardAlpha" operator="out"/>
<feColorMatrix type="matrix" values="0 0 0 0 0 0 0 0 0 0 0 0 0 0 0 0 0 0 0.25 0"/>
<feBlend mode="normal" in2="BackgroundImageFix" result="effect1_dropShadow_53_1059"/>
<feBlend mode="normal" in="SourceGraphic" in2="effect1_dropShadow_53_1059" result="shape"/>
</filter>
<linearGradient id="paint0_linear_53_1059" x1="34" y1="0" x2="34" y2="56" gradientUnits="userSpaceOnUse">
<stop stop-color="#2C2C2C"/>
<stop offset="1" stop-color="#990000"/>
</linearGradient>
</defs>
</svg>
