<svg width="37" height="37" viewBox="0 0 37 37" fill="none" xmlns="http://www.w3.org/2000/svg">
<g clip-path="url(#clip0_2_33)">
<path fill-rule="evenodd" clip-rule="evenodd" d="M16.0452 12.8419C16.2785 11.7336 16.773 10.697 17.4876 9.81837C18.2022 8.93969 19.1162 8.24428 20.1536 7.78995C20.8153 7.49822 20.6716 6.52057 19.9544 6.43234C13.7569 5.67241 7.96495 9.7908 6.65572 15.947C5.26537 22.4932 9.43357 28.9255 15.9683 30.3158C22.5031 31.7048 28.9283 27.5238 30.3201 20.9776C30.5235 20.0206 30.6114 19.0426 30.5819 18.0646C30.5591 17.3402 29.5943 17.1097 29.2456 17.7458C28.5116 19.0896 27.3636 20.1608 25.9723 20.8002C24.5809 21.4396 23.0204 21.6131 21.5226 21.295C19.6753 20.9003 18.0605 19.7881 17.0332 18.2028C16.006 16.6175 15.6506 14.6892 16.0452 12.8419ZM8.04749 16.243C8.51908 14.0202 9.68598 12.0051 11.3792 10.4897C13.0724 8.97433 15.2041 8.03723 17.4654 7.81414C16.058 9.01522 15.0547 10.6603 14.6534 12.5459C14.4192 13.6434 14.4035 14.7764 14.6072 15.88C14.8108 16.9836 15.2299 18.0363 15.8404 18.978C16.4509 19.9197 17.2409 20.7319 18.1653 21.3682C19.0898 22.0046 20.1305 22.4526 21.228 22.6867C22.6055 22.9792 24.034 22.9265 25.3862 22.5332C26.7384 22.1399 27.9724 21.4183 28.9781 20.4326L28.9283 20.6816C27.7002 26.4593 22.0306 30.1493 16.2643 28.9241C10.4995 27.6974 6.8208 22.0221 8.04891 16.2445" fill="#FF0000"/>
<path fill-rule="evenodd" clip-rule="evenodd" d="M18.5 34.8654C27.538 34.8654 34.8654 27.538 34.8654 18.5C34.8654 9.46205 27.538 2.13462 18.5 2.13462C9.46203 2.13462 2.13461 9.46205 2.13461 18.5C2.13461 27.538 9.46203 34.8654 18.5 34.8654ZM18.5 36.2885C28.3249 36.2885 36.2885 28.3249 36.2885 18.5C36.2885 8.67509 28.3249 0.711548 18.5 0.711548C8.67507 0.711548 0.711533 8.67509 0.711533 18.5C0.711533 28.3249 8.67507 36.2885 18.5 36.2885Z" fill="#FF0000"/>
</g>
<defs>
<clipPath id="clip0_2_33">
<rect width="37" height="37" fill="white"/>
</clipPath>
</defs>
</svg>
