<svg width="68" height="64" viewBox="0 0 68 64" fill="none" xmlns="http://www.w3.org/2000/svg">
<g filter="url(#filter0_d_53_1065)">
<rect x="4.5" y="0.5" width="59" height="55" rx="4.5" fill="url(#paint0_linear_53_1065)" stroke="#990000"/>
</g>
<path d="M43.88 19C43.88 25.016 39.016 29.88 33 29.88C26.984 29.88 22.12 25.016 22.12 19C22.12 12.984 26.984 8.12 33 8.12C39.016 8.12 43.88 12.984 43.88 19ZM23.4 19C23.4 24.312 27.688 28.6 33 28.6C38.312 28.6 42.6 24.312 42.6 19C42.6 13.688 38.312 9.40001 33 9.40001C27.688 9.40001 23.4 13.688 23.4 19Z" fill="#E40000"/>
<path d="M34.088 13.688L28.776 19L34.088 24.312L33.192 25.208L26.984 19L33.192 12.792L34.088 13.688Z" fill="#E40000"/>
<path d="M27.88 19.64V18.36H38.76V19.64H27.88Z" fill="#E40000"/>
<path d="M11.477 41.029C11.9097 41.1097 12.2763 41.3297 12.577 41.689C12.8777 42.0483 13.028 42.4663 13.028 42.943C13.028 43.3317 12.929 43.6837 12.731 43.999C12.5403 44.307 12.258 44.5527 11.884 44.736C11.51 44.912 11.0627 45 10.542 45H7.88V37.311H10.465C11.2423 37.311 11.8327 37.4907 12.236 37.85C12.6467 38.2093 12.852 38.675 12.852 39.247C12.852 39.7237 12.7237 40.1123 12.467 40.413C12.2103 40.7063 11.8803 40.9117 11.477 41.029ZM8.65 40.71H10.443C10.9637 40.71 11.3633 40.589 11.642 40.347C11.928 40.0977 12.071 39.7567 12.071 39.324C12.071 38.8987 11.928 38.565 11.642 38.323C11.3633 38.081 10.9527 37.96 10.41 37.96H8.65V40.71ZM10.487 44.351C11.0443 44.351 11.477 44.219 11.785 43.955C12.1003 43.691 12.258 43.328 12.258 42.866C12.258 42.404 12.093 42.0373 11.763 41.766C11.4403 41.4873 11.004 41.348 10.454 41.348H8.65V44.351H10.487ZM14.0915 41.986C14.0915 41.37 14.2125 40.831 14.4545 40.369C14.7038 39.8997 15.0448 39.5403 15.4775 39.291C15.9175 39.0343 16.4125 38.906 16.9625 38.906C17.5345 38.906 18.0258 39.038 18.4365 39.302C18.8545 39.566 19.1551 39.9033 19.3385 40.314V38.994H20.1085V45H19.3385V43.669C19.1478 44.0797 18.8435 44.4207 18.4255 44.692C18.0148 44.956 17.5235 45.088 16.9515 45.088C16.4088 45.088 15.9175 44.9597 15.4775 44.703C15.0448 44.4463 14.7038 44.0833 14.4545 43.614C14.2125 43.1447 14.0915 42.602 14.0915 41.986ZM19.3385 41.997C19.3385 41.513 19.2395 41.0877 19.0415 40.721C18.8435 40.3543 18.5721 40.072 18.2275 39.874C17.8901 39.676 17.5161 39.577 17.1055 39.577C16.6801 39.577 16.2988 39.6723 15.9615 39.863C15.6241 40.0537 15.3565 40.3323 15.1585 40.699C14.9678 41.0583 14.8725 41.4873 14.8725 41.986C14.8725 42.4773 14.9678 42.91 15.1585 43.284C15.3565 43.6507 15.6241 43.933 15.9615 44.131C16.2988 44.3217 16.6801 44.417 17.1055 44.417C17.5161 44.417 17.8901 44.318 18.2275 44.12C18.5721 43.922 18.8435 43.6397 19.0415 43.273C19.2395 42.9063 19.3385 42.481 19.3385 41.997ZM21.5143 41.997C21.5143 41.3737 21.639 40.831 21.8883 40.369C22.1377 39.8997 22.4823 39.5403 22.9223 39.291C23.3623 39.0343 23.8647 38.906 24.4293 38.906C25.17 38.906 25.7787 39.0893 26.2553 39.456C26.7393 39.8227 27.051 40.3213 27.1903 40.952H26.3653C26.2627 40.5193 26.039 40.182 25.6943 39.94C25.357 39.6907 24.9353 39.566 24.4293 39.566C24.026 39.566 23.663 39.6577 23.3403 39.841C23.0177 40.0243 22.761 40.2993 22.5703 40.666C22.387 41.0253 22.2953 41.469 22.2953 41.997C22.2953 42.525 22.387 42.9723 22.5703 43.339C22.761 43.7057 23.0177 43.9807 23.3403 44.164C23.663 44.3473 24.026 44.439 24.4293 44.439C24.9353 44.439 25.357 44.318 25.6943 44.076C26.039 43.8267 26.2627 43.482 26.3653 43.042H27.1903C27.051 43.658 26.7393 44.153 26.2553 44.527C25.7713 44.901 25.1627 45.088 24.4293 45.088C23.8647 45.088 23.3623 44.9633 22.9223 44.714C22.4823 44.4573 22.1377 44.098 21.8883 43.636C21.639 43.1667 21.5143 42.6203 21.5143 41.997ZM31.8574 45L29.3824 42.305V45H28.6124V36.86H29.3824V41.678L31.8024 38.994H32.8804L30.0314 41.986L32.9024 45H31.8574ZM41.8176 38.994L39.9366 45H39.1666L37.5056 39.962L35.8446 45H35.0636L33.1826 38.994H33.9636L35.4596 44.219L37.1426 38.994H37.9126L39.5736 44.23L41.0586 38.994H41.8176ZM42.5153 41.986C42.5153 41.37 42.6363 40.831 42.8783 40.369C43.1276 39.8997 43.4686 39.5403 43.9013 39.291C44.3413 39.0343 44.8363 38.906 45.3863 38.906C45.9583 38.906 46.4496 39.038 46.8603 39.302C47.2783 39.566 47.579 39.9033 47.7623 40.314V38.994H48.5323V45H47.7623V43.669C47.5716 44.0797 47.2673 44.4207 46.8493 44.692C46.4386 44.956 45.9473 45.088 45.3753 45.088C44.8326 45.088 44.3413 44.9597 43.9013 44.703C43.4686 44.4463 43.1276 44.0833 42.8783 43.614C42.6363 43.1447 42.5153 42.602 42.5153 41.986ZM47.7623 41.997C47.7623 41.513 47.6633 41.0877 47.4653 40.721C47.2673 40.3543 46.996 40.072 46.6513 39.874C46.314 39.676 45.94 39.577 45.5293 39.577C45.104 39.577 44.7226 39.6723 44.3853 39.863C44.048 40.0537 43.7803 40.3323 43.5823 40.699C43.3916 41.0583 43.2963 41.4873 43.2963 41.986C43.2963 42.4773 43.3916 42.91 43.5823 43.284C43.7803 43.6507 44.048 43.933 44.3853 44.131C44.7226 44.3217 45.104 44.417 45.5293 44.417C45.94 44.417 46.314 44.318 46.6513 44.12C46.996 43.922 47.2673 43.6397 47.4653 43.273C47.6633 42.9063 47.7623 42.481 47.7623 41.997ZM51.0602 40.061C51.2288 39.687 51.4855 39.3973 51.8302 39.192C52.1822 38.9867 52.6112 38.884 53.1172 38.884V39.687H52.9082C52.3508 39.687 51.9035 39.8373 51.5662 40.138C51.2288 40.4387 51.0602 40.941 51.0602 41.645V45H50.2902V38.994H51.0602V40.061ZM53.9235 41.986C53.9235 41.37 54.0482 40.831 54.2975 40.369C54.5468 39.8997 54.8878 39.5403 55.3205 39.291C55.7605 39.0343 56.2555 38.906 56.8055 38.906C57.3335 38.906 57.8102 39.0343 58.2355 39.291C58.6608 39.5477 58.9725 39.8813 59.1705 40.292V36.86H59.9405V45H59.1705V43.658C58.9872 44.076 58.6865 44.4207 58.2685 44.692C57.8505 44.956 57.3592 45.088 56.7945 45.088C56.2445 45.088 55.7495 44.9597 55.3095 44.703C54.8768 44.4463 54.5358 44.0833 54.2865 43.614C54.0445 43.1447 53.9235 42.602 53.9235 41.986ZM59.1705 41.997C59.1705 41.513 59.0715 41.0877 58.8735 40.721C58.6755 40.3543 58.4042 40.072 58.0595 39.874C57.7222 39.676 57.3482 39.577 56.9375 39.577C56.5122 39.577 56.1308 39.6723 55.7935 39.863C55.4562 40.0537 55.1885 40.3323 54.9905 40.699C54.7998 41.0583 54.7045 41.4873 54.7045 41.986C54.7045 42.4773 54.7998 42.91 54.9905 43.284C55.1885 43.6507 55.4562 43.933 55.7935 44.131C56.1308 44.3217 56.5122 44.417 56.9375 44.417C57.3482 44.417 57.7222 44.318 58.0595 44.12C58.4042 43.922 58.6755 43.6397 58.8735 43.273C59.0715 42.9063 59.1705 42.481 59.1705 41.997Z" fill="white"/>
<defs>
<filter id="filter0_d_53_1065" x="0" y="0" width="68" height="64" filterUnits="userSpaceOnUse" color-interpolation-filters="sRGB">
<feFlood flood-opacity="0" result="BackgroundImageFix"/>
<feColorMatrix in="SourceAlpha" type="matrix" values="0 0 0 0 0 0 0 0 0 0 0 0 0 0 0 0 0 0 127 0" result="hardAlpha"/>
<feOffset dy="4"/>
<feGaussianBlur stdDeviation="2"/>
<feComposite in2="hardAlpha" operator="out"/>
<feColorMatrix type="matrix" values="0 0 0 0 0 0 0 0 0 0 0 0 0 0 0 0 0 0 0.25 0"/>
<feBlend mode="normal" in2="BackgroundImageFix" result="effect1_dropShadow_53_1065"/>
<feBlend mode="normal" in="SourceGraphic" in2="effect1_dropShadow_53_1065" result="shape"/>
</filter>
<linearGradient id="paint0_linear_53_1065" x1="34" y1="0" x2="34" y2="56" gradientUnits="userSpaceOnUse">
<stop stop-color="#2C2C2C"/>
<stop offset="1" stop-color="#990000"/>
</linearGradient>
</defs>
</svg>
