<svg width="47" height="47" viewBox="0 0 47 47" fill="none" xmlns="http://www.w3.org/2000/svg">
<path d="M39.48 23.5C39.48 32.336 32.336 39.48 23.5 39.48C14.664 39.48 7.52 32.336 7.52 23.5C7.52 14.664 14.664 7.51998 23.5 7.51998C32.336 7.51998 39.48 14.664 39.48 23.5ZM9.4 23.5C9.4 31.302 15.698 37.6 23.5 37.6C31.302 37.6 37.6 31.302 37.6 23.5C37.6 15.698 31.302 9.39998 23.5 9.39998C15.698 9.39998 9.4 15.698 9.4 23.5Z" fill="#FF0000"/>
<path d="M25.098 15.698L17.296 23.5L25.098 31.302L23.782 32.618L14.664 23.5L23.782 14.382L25.098 15.698Z" fill="#FF0000"/>
<path d="M15.98 24.44V22.56H31.96V24.44H15.98Z" fill="#FF0000"/>
</svg>
