<svg width="91" height="29" viewBox="0 0 91 29" fill="none" xmlns="http://www.w3.org/2000/svg">
<rect width="91" height="29" rx="14.5" fill="#660000"/>
<rect x="10" y="1" width="26" height="26" rx="13" fill="#D9D9D9"/>
<path d="M29 14C29 15.5913 28.3679 17.1174 27.2426 18.2426C26.1174 19.3679 24.5913 20 23 20C21.4087 20 19.8826 19.3679 18.7574 18.2426C17.6321 17.1174 17 15.5913 17 14C17 12.4087 17.6321 10.8826 18.7574 9.75736C19.8826 8.63214 21.4087 8 23 8C24.5913 8 26.1174 8.63214 27.2426 9.75736C28.3679 10.8826 29 12.4087 29 14Z" fill="#660000"/>
<path fill-rule="evenodd" clip-rule="evenodd" d="M23 3.25C23.1989 3.25 23.3897 3.32902 23.5303 3.46967C23.671 3.61032 23.75 3.80109 23.75 4V5C23.75 5.19891 23.671 5.38968 23.5303 5.53033C23.3897 5.67098 23.1989 5.75 23 5.75C22.8011 5.75 22.6103 5.67098 22.4697 5.53033C22.329 5.38968 22.25 5.19891 22.25 5V4C22.25 3.80109 22.329 3.61032 22.4697 3.46967C22.6103 3.32902 22.8011 3.25 23 3.25ZM15.399 6.399C15.5396 6.25855 15.7302 6.17966 15.929 6.17966C16.1278 6.17966 16.3184 6.25855 16.459 6.399L16.852 6.791C16.9887 6.93239 17.0644 7.1218 17.0628 7.31845C17.0611 7.5151 16.9824 7.70325 16.8434 7.84237C16.7044 7.98149 16.5163 8.06046 16.3197 8.06226C16.123 8.06406 15.9335 7.98855 15.792 7.852L15.399 7.459C15.2585 7.31837 15.1797 7.12775 15.1797 6.929C15.1797 6.73025 15.2585 6.53963 15.399 6.399ZM30.601 6.399C30.7415 6.53963 30.8203 6.73025 30.8203 6.929C30.8203 7.12775 30.7415 7.31837 30.601 7.459L30.208 7.852C30.0658 7.98448 29.8778 8.0566 29.6835 8.05317C29.4892 8.04975 29.3038 7.97103 29.1664 7.83362C29.029 7.69621 28.9503 7.51082 28.9468 7.31652C28.9434 7.12222 29.0155 6.93417 29.148 6.792L29.541 6.399C29.6816 6.25855 29.8722 6.17966 30.071 6.17966C30.2697 6.17966 30.4604 6.25855 30.601 6.399ZM12.25 14C12.25 13.8011 12.329 13.6103 12.4697 13.4697C12.6103 13.329 12.8011 13.25 13 13.25H14C14.1989 13.25 14.3897 13.329 14.5303 13.4697C14.671 13.6103 14.75 13.8011 14.75 14C14.75 14.1989 14.671 14.3897 14.5303 14.5303C14.3897 14.671 14.1989 14.75 14 14.75H13C12.8011 14.75 12.6103 14.671 12.4697 14.5303C12.329 14.3897 12.25 14.1989 12.25 14ZM31.25 14C31.25 13.8011 31.329 13.6103 31.4697 13.4697C31.6103 13.329 31.8011 13.25 32 13.25H33C33.1989 13.25 33.3897 13.329 33.5303 13.4697C33.671 13.6103 33.75 13.8011 33.75 14C33.75 14.1989 33.671 14.3897 33.5303 14.5303C33.3897 14.671 33.1989 14.75 33 14.75H32C31.8011 14.75 31.6103 14.671 31.4697 14.5303C31.329 14.3897 31.25 14.1989 31.25 14ZM29.148 20.148C29.2886 20.0076 29.4792 19.9287 29.678 19.9287C29.8768 19.9287 30.0674 20.0076 30.208 20.148L30.601 20.541C30.6747 20.6097 30.7338 20.6925 30.7748 20.7845C30.8158 20.8765 30.8378 20.9758 30.8396 21.0765C30.8414 21.1772 30.8228 21.2772 30.7851 21.3706C30.7474 21.464 30.6913 21.5488 30.62 21.62C30.5488 21.6913 30.464 21.7474 30.3706 21.7851C30.2772 21.8228 30.1772 21.8414 30.0765 21.8396C29.9758 21.8378 29.8765 21.8158 29.7845 21.7748C29.6925 21.7338 29.6097 21.6747 29.541 21.601L29.148 21.208C29.0076 21.0674 28.9287 20.8768 28.9287 20.678C28.9287 20.4792 29.0076 20.2886 29.148 20.148ZM16.852 20.148C16.9925 20.2886 17.0713 20.4792 17.0713 20.678C17.0713 20.8768 16.9925 21.0674 16.852 21.208L16.459 21.601C16.3903 21.6747 16.3075 21.7338 16.2155 21.7748C16.1235 21.8158 16.0242 21.8378 15.9235 21.8396C15.8228 21.8414 15.7228 21.8228 15.6294 21.7851C15.536 21.7474 15.4512 21.6913 15.38 21.62C15.3087 21.5488 15.2526 21.464 15.2149 21.3706C15.1772 21.2772 15.1586 21.1772 15.1604 21.0765C15.1622 20.9758 15.1842 20.8765 15.2252 20.7845C15.2662 20.6925 15.3253 20.6097 15.399 20.541L15.791 20.148C15.8607 20.0783 15.9434 20.023 16.0344 19.9853C16.1254 19.9476 16.223 19.9282 16.3215 19.9282C16.42 19.9282 16.5176 19.9476 16.6086 19.9853C16.6996 20.023 16.7824 20.0783 16.852 20.148ZM23 22.25C23.1989 22.25 23.3897 22.329 23.5303 22.4697C23.671 22.6103 23.75 22.8011 23.75 23V24C23.75 24.1989 23.671 24.3897 23.5303 24.5303C23.3897 24.671 23.1989 24.75 23 24.75C22.8011 24.75 22.6103 24.671 22.4697 24.5303C22.329 24.3897 22.25 24.1989 22.25 24V23C22.25 22.8011 22.329 22.6103 22.4697 22.4697C22.6103 22.329 22.8011 22.25 23 22.25Z" fill="#660000"/>
<path d="M70 25C75.523 25 80 20.523 80 15C80 14.537 79.306 14.46 79.067 14.857C78.5572 15.7013 77.862 16.4186 77.034 16.9545C76.206 17.4903 75.2669 17.8307 74.2878 17.9499C73.3088 18.0691 72.3154 17.9639 71.383 17.6423C70.4507 17.3207 69.6037 16.7911 68.9063 16.0937C68.2089 15.3963 67.6793 14.5493 67.3577 13.617C67.0361 12.6846 66.9309 11.6912 67.0501 10.7122C67.1693 9.73311 67.5097 8.794 68.0455 7.96599C68.5814 7.13797 69.2987 6.44275 70.143 5.933C70.54 5.693 70.463 5 70 5C64.477 5 60 9.477 60 15C60 20.523 64.477 25 70 25Z" fill="#D9D9D9"/>
</svg>
