<svg width="68" height="64" viewBox="0 0 68 64" fill="none" xmlns="http://www.w3.org/2000/svg">
<g filter="url(#filter0_d_53_1044)">
<rect x="4.5" y="0.5" width="59" height="55" rx="4.5" fill="url(#paint0_linear_53_1044)" stroke="#990000"/>
</g>
<path d="M34 29.88C27.984 29.88 23.12 25.016 23.12 19C23.12 12.984 27.984 8.12 34 8.12C40.016 8.12 44.88 12.984 44.88 19C44.88 25.016 40.016 29.88 34 29.88ZM34 9.4C28.688 9.4 24.4 13.688 24.4 19C24.4 24.312 28.688 28.6 34 28.6C39.312 28.6 43.6 24.312 43.6 19C43.6 13.688 39.312 9.4 34 9.4Z" fill="#E40000"/>
<path d="M30.8 24.568V13.432L40.4 19L30.8 24.568ZM32.08 15.608V22.328L37.84 18.936L32.08 15.608Z" fill="#E40000"/>
<path d="M16.868 36.612V37.308H14.54V45H13.7V37.308H11.36V36.612H16.868ZM23.8704 38.448V45H23.0304V43.848C22.8384 44.256 22.5424 44.568 22.1424 44.784C21.7424 45 21.2944 45.108 20.7984 45.108C20.0144 45.108 19.3744 44.868 18.8784 44.388C18.3824 43.9 18.1344 43.196 18.1344 42.276V38.448H18.9624V42.18C18.9624 42.892 19.1384 43.436 19.4904 43.812C19.8504 44.188 20.3384 44.376 20.9544 44.376C21.5864 44.376 22.0904 44.176 22.4664 43.776C22.8424 43.376 23.0304 42.788 23.0304 42.012V38.448H23.8704ZM26.6281 39.612C26.8121 39.204 27.0921 38.888 27.4681 38.664C27.8521 38.44 28.3201 38.328 28.8721 38.328V39.204H28.6441C28.0361 39.204 27.5481 39.368 27.1801 39.696C26.8121 40.024 26.6281 40.572 26.6281 41.34V45H25.7881V38.448H26.6281V39.612ZM33.2078 38.328C33.9918 38.328 34.6318 38.572 35.1278 39.06C35.6238 39.54 35.8718 40.24 35.8718 41.16V45H35.0438V41.256C35.0438 40.544 34.8638 40 34.5038 39.624C34.1518 39.248 33.6678 39.06 33.0518 39.06C32.4198 39.06 31.9158 39.26 31.5398 39.66C31.1638 40.06 30.9758 40.648 30.9758 41.424V45H30.1358V38.448H30.9758V39.564C31.1838 39.164 31.4838 38.86 31.8758 38.652C32.2678 38.436 32.7118 38.328 33.2078 38.328ZM44.7905 45.084C44.0145 45.084 43.3105 44.904 42.6785 44.544C42.0465 44.176 41.5465 43.668 41.1785 43.02C40.8185 42.364 40.6385 41.624 40.6385 40.8C40.6385 39.976 40.8185 39.24 41.1785 38.592C41.5465 37.936 42.0465 37.428 42.6785 37.068C43.3105 36.7 44.0145 36.516 44.7905 36.516C45.5745 36.516 46.2825 36.7 46.9145 37.068C47.5465 37.428 48.0425 37.936 48.4025 38.592C48.7625 39.24 48.9425 39.976 48.9425 40.8C48.9425 41.624 48.7625 42.364 48.4025 43.02C48.0425 43.668 47.5465 44.176 46.9145 44.544C46.2825 44.904 45.5745 45.084 44.7905 45.084ZM44.7905 44.352C45.4145 44.352 45.9745 44.208 46.4705 43.92C46.9665 43.632 47.3585 43.22 47.6465 42.684C47.9345 42.14 48.0785 41.512 48.0785 40.8C48.0785 40.088 47.9345 39.464 47.6465 38.928C47.3585 38.392 46.9665 37.98 46.4705 37.692C45.9745 37.404 45.4145 37.26 44.7905 37.26C44.1665 37.26 43.6065 37.404 43.1105 37.692C42.6145 37.98 42.2225 38.392 41.9345 38.928C41.6465 39.464 41.5025 40.088 41.5025 40.8C41.5025 41.512 41.6465 42.14 41.9345 42.684C42.2225 43.22 42.6145 43.632 43.1105 43.92C43.6065 44.208 44.1665 44.352 44.7905 44.352ZM53.5515 38.328C54.3355 38.328 54.9755 38.572 55.4715 39.06C55.9675 39.54 56.2155 40.24 56.2155 41.16V45H55.3875V41.256C55.3875 40.544 55.2075 40 54.8475 39.624C54.4955 39.248 54.0115 39.06 53.3955 39.06C52.7635 39.06 52.2595 39.26 51.8835 39.66C51.5075 40.06 51.3195 40.648 51.3195 41.424V45H50.4795V38.448H51.3195V39.564C51.5275 39.164 51.8275 38.86 52.2195 38.652C52.6115 38.436 53.0555 38.328 53.5515 38.328Z" fill="white"/>
<defs>
<filter id="filter0_d_53_1044" x="0" y="0" width="68" height="64" filterUnits="userSpaceOnUse" color-interpolation-filters="sRGB">
<feFlood flood-opacity="0" result="BackgroundImageFix"/>
<feColorMatrix in="SourceAlpha" type="matrix" values="0 0 0 0 0 0 0 0 0 0 0 0 0 0 0 0 0 0 127 0" result="hardAlpha"/>
<feOffset dy="4"/>
<feGaussianBlur stdDeviation="2"/>
<feComposite in2="hardAlpha" operator="out"/>
<feColorMatrix type="matrix" values="0 0 0 0 0 0 0 0 0 0 0 0 0 0 0 0 0 0 0.25 0"/>
<feBlend mode="normal" in2="BackgroundImageFix" result="effect1_dropShadow_53_1044"/>
<feBlend mode="normal" in="SourceGraphic" in2="effect1_dropShadow_53_1044" result="shape"/>
</filter>
<linearGradient id="paint0_linear_53_1044" x1="34" y1="0" x2="34" y2="56" gradientUnits="userSpaceOnUse">
<stop stop-color="#2C2C2C"/>
<stop offset="1" stop-color="#990000"/>
</linearGradient>
</defs>
</svg>
