<svg width="68" height="64" viewBox="0 0 68 64" fill="none" xmlns="http://www.w3.org/2000/svg">
<g filter="url(#filter0_d_41_1335)">
<rect x="4.5" y="0.5" width="59" height="55" rx="4.5" fill="url(#paint0_linear_41_1335)" stroke="#990000"/>
</g>
<path d="M33.5 7.25C27.29 7.25 22.25 12.29 22.25 18.5C22.25 24.71 27.29 29.75 33.5 29.75C39.71 29.75 44.75 24.71 44.75 18.5C44.75 12.29 39.71 7.25 33.5 7.25ZM33.5 27.5C28.5275 27.5 24.5 23.4725 24.5 18.5C24.5 16.4187 25.2088 14.5062 26.4012 12.9875L39.0125 25.5987C37.4411 26.8344 35.499 27.5042 33.5 27.5ZM40.5987 24.0125L27.9875 11.4012C29.5589 10.1656 31.501 9.49576 33.5 9.5C38.4725 9.5 42.5 13.5275 42.5 18.5C42.5 20.5813 41.7913 22.4937 40.5987 24.0125Z" fill="#990000"/>
<path d="M16.868 36.612V37.308H14.54V45H13.7V37.308H11.36V36.612H16.868ZM23.8704 38.448V45H23.0304V43.848C22.8384 44.256 22.5424 44.568 22.1424 44.784C21.7424 45 21.2944 45.108 20.7984 45.108C20.0144 45.108 19.3744 44.868 18.8784 44.388C18.3824 43.9 18.1344 43.196 18.1344 42.276V38.448H18.9624V42.18C18.9624 42.892 19.1384 43.436 19.4904 43.812C19.8504 44.188 20.3384 44.376 20.9544 44.376C21.5864 44.376 22.0904 44.176 22.4664 43.776C22.8424 43.376 23.0304 42.788 23.0304 42.012V38.448H23.8704ZM26.6281 39.612C26.8121 39.204 27.0921 38.888 27.4681 38.664C27.8521 38.44 28.3201 38.328 28.8721 38.328V39.204H28.6441C28.0361 39.204 27.5481 39.368 27.1801 39.696C26.8121 40.024 26.6281 40.572 26.6281 41.34V45H25.7881V38.448H26.6281V39.612ZM33.2078 38.328C33.9918 38.328 34.6318 38.572 35.1278 39.06C35.6238 39.54 35.8718 40.24 35.8718 41.16V45H35.0438V41.256C35.0438 40.544 34.8638 40 34.5038 39.624C34.1518 39.248 33.6678 39.06 33.0518 39.06C32.4198 39.06 31.9158 39.26 31.5398 39.66C31.1638 40.06 30.9758 40.648 30.9758 41.424V45H30.1358V38.448H30.9758V39.564C31.1838 39.164 31.4838 38.86 31.8758 38.652C32.2678 38.436 32.7118 38.328 33.2078 38.328ZM44.7905 45.084C44.0145 45.084 43.3105 44.904 42.6785 44.544C42.0465 44.176 41.5465 43.668 41.1785 43.02C40.8185 42.364 40.6385 41.624 40.6385 40.8C40.6385 39.976 40.8185 39.24 41.1785 38.592C41.5465 37.936 42.0465 37.428 42.6785 37.068C43.3105 36.7 44.0145 36.516 44.7905 36.516C45.5745 36.516 46.2825 36.7 46.9145 37.068C47.5465 37.428 48.0425 37.936 48.4025 38.592C48.7625 39.24 48.9425 39.976 48.9425 40.8C48.9425 41.624 48.7625 42.364 48.4025 43.02C48.0425 43.668 47.5465 44.176 46.9145 44.544C46.2825 44.904 45.5745 45.084 44.7905 45.084ZM44.7905 44.352C45.4145 44.352 45.9745 44.208 46.4705 43.92C46.9665 43.632 47.3585 43.22 47.6465 42.684C47.9345 42.14 48.0785 41.512 48.0785 40.8C48.0785 40.088 47.9345 39.464 47.6465 38.928C47.3585 38.392 46.9665 37.98 46.4705 37.692C45.9745 37.404 45.4145 37.26 44.7905 37.26C44.1665 37.26 43.6065 37.404 43.1105 37.692C42.6145 37.98 42.2225 38.392 41.9345 38.928C41.6465 39.464 41.5025 40.088 41.5025 40.8C41.5025 41.512 41.6465 42.14 41.9345 42.684C42.2225 43.22 42.6145 43.632 43.1105 43.92C43.6065 44.208 44.1665 44.352 44.7905 44.352ZM53.0595 39.156H51.5355V45H50.6955V39.156H49.7835V38.448H50.6955V37.992C50.6955 37.28 50.8755 36.756 51.2355 36.42C51.6035 36.084 52.1955 35.916 53.0115 35.916V36.636C52.4675 36.636 52.0835 36.74 51.8595 36.948C51.6435 37.156 51.5355 37.504 51.5355 37.992V38.448H53.0595V39.156ZM56.9619 39.156H55.4379V45H54.5979V39.156H53.6859V38.448H54.5979V37.992C54.5979 37.28 54.7779 36.756 55.1379 36.42C55.5059 36.084 56.0979 35.916 56.9139 35.916V36.636C56.3699 36.636 55.9859 36.74 55.7619 36.948C55.5459 37.156 55.4379 37.504 55.4379 37.992V38.448H56.9619V39.156Z" fill="black"/>
<defs>
<filter id="filter0_d_41_1335" x="0" y="0" width="68" height="64" filterUnits="userSpaceOnUse" color-interpolation-filters="sRGB">
<feFlood flood-opacity="0" result="BackgroundImageFix"/>
<feColorMatrix in="SourceAlpha" type="matrix" values="0 0 0 0 0 0 0 0 0 0 0 0 0 0 0 0 0 0 127 0" result="hardAlpha"/>
<feOffset dy="4"/>
<feGaussianBlur stdDeviation="2"/>
<feComposite in2="hardAlpha" operator="out"/>
<feColorMatrix type="matrix" values="0 0 0 0 0 0 0 0 0 0 0 0 0 0 0 0 0 0 0.25 0"/>
<feBlend mode="normal" in2="BackgroundImageFix" result="effect1_dropShadow_41_1335"/>
<feBlend mode="normal" in="SourceGraphic" in2="effect1_dropShadow_41_1335" result="shape"/>
</filter>
<linearGradient id="paint0_linear_41_1335" x1="34" y1="0" x2="34" y2="56" gradientUnits="userSpaceOnUse">
<stop stop-color="#F9F8F8"/>
<stop offset="1" stop-color="#C97C7C"/>
</linearGradient>
</defs>
</svg>
